<svg width="117" height="117" viewBox="0 0 117 117" fill="none" xmlns="http://www.w3.org/2000/svg">
<path d="M57.9516 3.70098C57.9059 3.86094 57.2203 13.7557 56.4662 25.707C55.6893 37.6356 54.9809 47.9188 54.8895 48.5357L54.7295 49.6326L43.6693 41.0404C37.5908 36.3102 32.5863 32.4482 32.5406 32.4482C32.4949 32.4482 32.4492 32.4939 32.4492 32.5396C32.4492 32.5854 36.3111 37.5898 41.0186 43.6455C45.7488 49.724 49.5422 54.7285 49.4965 54.7971C49.4279 54.8428 39.0762 55.574 26.4621 56.4195L3.54199 57.9277V58.499V59.0703L26.4621 60.5785C39.0762 61.424 49.4279 62.1553 49.4965 62.201C49.5422 62.2695 45.7488 67.274 41.0186 73.3525C36.3111 79.4082 32.4492 84.4127 32.4492 84.4584C32.4492 84.5041 32.4949 84.5498 32.5406 84.5498C32.5863 84.5498 37.5908 80.6879 43.6693 75.9576C49.9307 71.0902 54.7523 67.5025 54.798 67.6396C54.8666 67.7996 55.575 78.1742 56.4205 90.6969L57.9287 113.457H58.5H59.0713L60.5795 90.6969C61.425 78.1742 62.1334 67.7996 62.202 67.6396C62.2477 67.5025 67.0693 71.0902 73.3307 75.9576C79.4092 80.6879 84.4137 84.5498 84.4594 84.5498C84.5051 84.5498 84.5508 84.5041 84.5508 84.4584C84.5508 84.4127 80.6889 79.4082 75.9586 73.3297L67.3664 62.2695L68.349 62.1096C68.8975 62.041 79.2949 61.3098 91.452 60.51L113.572 59.0703V58.499V57.9277L91.452 56.4881C79.2949 55.6883 68.8975 54.957 68.349 54.8885L67.3664 54.7285L75.9586 43.6684C80.6889 37.5898 84.5508 32.5854 84.5508 32.5396C84.5508 32.4939 84.5051 32.4482 84.4594 32.4482C84.4137 32.4482 79.4092 36.3102 73.3307 41.0404C67.0693 45.9078 62.2477 49.4955 62.202 49.3584C62.1334 49.1984 61.425 38.8238 60.5795 26.3012L59.0713 3.54102L58.5457 3.47247C58.2715 3.42676 57.9973 3.54102 57.9516 3.70098Z" fill="#FFB627"/>
</svg>
