<svg width="35" height="35" viewBox="0 0 35 35" fill="none" xmlns="http://www.w3.org/2000/svg">
<path d="M16.2874 0.0336409C13.3413 0.575047 11.0702 2.64927 10.3038 5.51099C10.0858 6.33364 10.0506 7.95083 10.2335 8.82974C10.803 11.5719 12.7577 13.6883 15.4858 14.504C16.0764 14.6797 16.203 14.6938 17.4897 14.6938C18.7764 14.6938 18.903 14.6797 19.4936 14.504C22.2217 13.6883 24.1764 11.5719 24.746 8.82974C24.8585 8.2813 24.8795 7.97895 24.8514 7.10708C24.8022 5.53911 24.4858 4.51958 23.6631 3.27505C22.6717 1.77036 21.1952 0.70161 19.4233 0.202392C18.903 0.0617666 18.5936 0.0266104 17.7006 0.00551605C17.103 -0.00854588 16.4631 0.00551605 16.2874 0.0336409ZM21.2655 3.91489C21.7155 4.08364 21.9756 4.54067 21.8842 5.0188C21.842 5.2438 21.4835 5.63755 19.2616 7.87349C17.8413 9.2938 16.5545 10.5524 16.4069 10.6649C15.971 10.9883 15.4295 10.925 15.0569 10.5032C14.853 10.2782 13.1514 7.28989 13.0952 7.05786C13.0249 6.77661 13.1725 6.40395 13.4538 6.15786C13.6577 5.98208 13.7561 5.94692 14.0585 5.94692C14.3749 5.94692 14.4381 5.97505 14.6702 6.20708C14.8178 6.35474 15.1624 6.88208 15.4506 7.38833C15.7319 7.88755 15.978 8.31645 15.992 8.33755C16.0061 8.35161 17.0045 7.3813 18.2139 6.17192C19.4233 4.96958 20.485 3.95005 20.5835 3.91489C20.8225 3.82349 21.0264 3.82349 21.2655 3.91489Z" fill="white"/>
<path d="M28.0718 0.146923C27.882 0.955517 27.5515 1.53911 27.0382 1.96099C26.6585 2.27036 26.0609 2.55161 25.6601 2.61489C25.4914 2.64302 25.3718 2.67114 25.3859 2.6852C25.4 2.7063 25.5968 2.76255 25.8218 2.8188C26.9328 3.11411 27.7695 3.97192 28.0367 5.10395L28.1281 5.49067L28.2125 5.12505C28.4656 4.00005 29.4429 3.00161 30.4695 2.81177C30.8984 2.73442 30.8984 2.69927 30.4906 2.5938C29.3585 2.30552 28.564 1.51802 28.2406 0.357861C28.1281 -0.0429211 28.121 -0.049952 28.0718 0.146923Z" fill="white"/>
<path d="M6.34551 7.472C6.29629 7.76028 6.09238 8.18919 5.86035 8.49856C5.64238 8.80091 4.96035 9.22278 4.54551 9.32122L4.17285 9.41263L4.62988 9.56028C5.52285 9.84856 6.19082 10.5658 6.34551 11.3814C6.40176 11.6556 6.52129 11.6697 6.52129 11.4095C6.52129 11.1634 6.83066 10.5587 7.11895 10.2423C7.39316 9.93997 8.06113 9.56731 8.47598 9.48997L8.72207 9.44075L8.32832 9.32122C7.80801 9.1595 7.36504 8.89231 7.08379 8.57591C6.82363 8.27356 6.52129 7.67591 6.52129 7.44388C6.52129 7.18372 6.40176 7.19778 6.34551 7.472Z" fill="white"/>
<path d="M3.54686 14.1375C1.98592 15.4102 0.621862 17.7094 0.157799 19.868C-0.0742321 20.9649 -0.0461071 23.1094 0.214049 23.3625C0.319518 23.468 1.87342 24.1149 1.91561 24.0727C1.9367 24.0516 1.97889 23.6508 2.02108 23.1797C2.26717 20.1914 3.46249 17.6602 5.57889 15.6563C5.90936 15.3399 6.16952 15.0446 6.14842 14.9953C6.10624 14.8899 4.20077 13.8211 4.04608 13.8211C3.9828 13.8211 3.7578 13.9617 3.54686 14.1375Z" fill="white"/>
<path d="M29.8367 14.3625C29.3024 14.6649 28.8453 14.9461 28.8313 14.9953C28.8102 15.0445 29.0703 15.3399 29.4008 15.6563C31.5172 17.6602 32.7336 20.2336 32.9586 23.1867C32.9938 23.6508 33.036 24.0516 33.0571 24.0727C33.1063 24.1149 34.6461 23.475 34.7656 23.3625C35.0258 23.1094 35.0539 20.9649 34.8219 19.868C34.4492 18.1313 33.486 16.275 32.2836 14.9602C31.7352 14.3555 31.0953 13.8211 30.9336 13.8211C30.8633 13.8211 30.3782 14.0672 29.8367 14.3625Z" fill="white"/>
<path d="M5.90918 16.6562C5.52949 17.05 5.03027 17.6406 4.80527 17.964C3.75762 19.4406 3.1248 21.2546 2.97012 23.1812L2.9209 23.7929L4.80527 24.7562L6.69668 25.7195L7.23105 26.289L7.76543 26.8586L8.0959 26.282C8.46152 25.6562 8.77793 25.3398 9.25605 25.1148C9.70605 24.9179 10.3811 24.925 10.8311 25.1429C11.2389 25.3328 11.7662 25.9023 11.8717 26.275L11.9561 26.5492L12.4271 26.507C13.3131 26.4226 14.1357 26.9007 14.4662 27.6953L14.6209 28.075L15.1623 28.0398C15.7881 28.0046 16.1537 28.1242 16.6037 28.5179C16.8639 28.75 17.2084 29.3265 17.2084 29.5445C17.2084 29.6218 17.2436 29.6429 17.3279 29.6148C18.0662 29.3265 19.1139 29.7132 19.5779 30.4304C19.817 30.7961 19.6764 30.6976 21.0686 31.5062C22.3693 32.2515 22.6014 32.3148 23.0514 32.0125C23.3467 31.8156 23.4662 31.5906 23.4662 31.2179C23.4662 30.7046 23.2904 30.5359 21.7225 29.6359C20.942 29.1859 20.2318 28.757 20.1545 28.6867C19.9576 28.5109 19.9998 28.1875 20.2459 28.0046C20.4357 27.864 20.4498 27.864 20.6959 27.9836C20.8436 28.0468 21.6662 28.5179 22.5381 29.0242C23.9232 29.8257 24.1623 29.9382 24.4436 29.9453C25.0834 29.9523 25.5053 29.5445 25.5053 28.9187C25.5053 28.2718 25.4771 28.2437 23.5014 27.1117C22.2639 26.4015 22.06 26.2468 22.06 26.0148C22.06 25.7898 22.285 25.5437 22.4889 25.5437C22.5873 25.5507 23.4311 25.9867 24.3873 26.5421C26.0467 27.4914 26.1311 27.5336 26.5037 27.5336C26.8271 27.5336 26.9396 27.4984 27.1225 27.3507C27.4389 27.0836 27.5654 26.7953 27.5232 26.4296C27.46 25.8671 27.3264 25.7687 24.4365 24.1023C22.9529 23.2445 21.4693 22.4218 21.1459 22.2671C20.4076 21.9226 19.8311 21.8101 19.1209 21.8593C18.4529 21.9015 17.9396 22.0703 16.6951 22.6539C15.5631 23.1882 15.092 23.364 14.4873 23.4554C13.6506 23.589 12.6662 23.2515 12.0193 22.6117C11.3443 21.9367 11.26 21.0226 11.8084 20.3898C11.9209 20.2632 12.9334 19.5812 14.0584 18.8781C15.2396 18.1328 16.0693 17.5773 16.0342 17.5421C15.999 17.507 15.7811 17.4086 15.549 17.3242C15.099 17.1554 14.5787 17.1414 11.4076 17.1976C9.62871 17.2328 8.94668 17.0781 7.42793 16.3117C7.02012 16.1007 6.66855 15.932 6.64746 15.932C6.62637 15.932 6.2959 16.2554 5.90918 16.6562Z" fill="white"/>
<path d="M27.3689 16.3883C25.6744 17.2883 24.3173 17.4219 22.447 16.8594C21.9197 16.7047 21.6806 16.6766 21.0056 16.6766C20.0353 16.6766 19.5642 16.7891 18.5798 17.2602C17.9048 17.5836 12.9056 20.6563 12.5892 20.9375C12.2376 21.261 12.3712 21.7672 12.8986 22.1258C13.8197 22.7657 14.4455 22.6883 16.5759 21.6758C18.7486 20.6493 19.972 20.6141 21.7791 21.5211C22.1095 21.6899 23.565 22.5055 25.0134 23.3422C27.0525 24.5165 27.7134 24.9313 27.9314 25.1704L28.2126 25.4868L30.1392 24.5938L32.0587 23.7079L32.0095 23.1735C31.8478 21.2399 31.208 19.4258 30.1744 17.9633C29.7384 17.3375 28.4236 15.9243 28.29 15.9383C28.2478 15.9383 27.833 16.1422 27.3689 16.3883Z" fill="white"/>
<path d="M9.50943 26.0432C9.39693 26.1206 9.26333 26.219 9.21411 26.2753C9.00318 26.5354 7.9274 28.4971 7.88521 28.7011C7.82896 29.0175 8.06802 29.5307 8.36333 29.7136C8.54615 29.8331 8.67974 29.8542 9.00318 29.8331C9.53755 29.7979 9.65708 29.6784 10.4165 28.3495C10.9508 27.4143 11.0211 27.2526 11.0211 26.9503C11.0211 26.5214 10.8313 26.1839 10.5008 26.0292C10.1844 25.8815 9.76958 25.8886 9.50943 26.0432Z" fill="white"/>
<path d="M12.0688 27.6242C11.7524 27.8351 9.91023 31.0062 9.85398 31.4281C9.79773 31.8781 10.0509 32.314 10.4657 32.4828C10.8876 32.6515 11.2321 32.5953 11.5485 32.2929C11.8509 32.0117 13.6157 28.9531 13.6719 28.6296C13.7282 28.2921 13.5805 27.9265 13.2993 27.6734C13.0954 27.4976 12.9969 27.4625 12.6805 27.4625C12.4063 27.4625 12.2446 27.5046 12.0688 27.6242Z" fill="white"/>
<path d="M14.8529 29.0379C14.5506 29.1715 14.4943 29.2489 13.6154 30.7676C12.7365 32.2864 12.6521 32.5536 12.9053 33.0176C13.0881 33.3692 13.5873 33.6082 13.981 33.545C14.431 33.4676 14.6631 33.1864 15.5138 31.6887C16.2029 30.4864 16.2943 30.2895 16.2943 29.9942C16.2943 29.2348 15.542 28.7356 14.8529 29.0379Z" fill="white"/>
<path d="M17.3491 30.6408C17.1874 30.7533 16.9132 31.1611 16.4632 31.9275C15.9077 32.8768 15.8022 33.1018 15.8022 33.3549C15.8022 34.0369 16.2382 34.4658 16.878 34.4096C17.0819 34.3955 17.321 34.3252 17.4194 34.2619C17.5179 34.1986 17.8976 33.6361 18.2632 33.0033C18.8749 31.9557 18.9312 31.8291 18.9241 31.4986C18.9241 31.2807 18.8749 31.0627 18.7976 30.9502C18.4952 30.4861 17.7991 30.3385 17.3491 30.6408Z" fill="white"/>
<path d="M19.7819 32.2084C19.7257 32.342 19.5428 32.6795 19.3811 32.9537C19.0999 33.4388 19.0928 33.467 19.2194 33.5584C19.9225 34.0857 20.71 34.1138 21.0124 33.6216C21.1741 33.3615 21.1882 32.8974 21.0405 32.6795C20.9421 32.5459 20.0491 31.9623 19.9296 31.9623C19.9014 31.9623 19.8382 32.0748 19.7819 32.2084Z" fill="white"/>
</svg>
