<svg width="193" height="175" viewBox="0 0 193 175" fill="none" xmlns="http://www.w3.org/2000/svg">
<path opacity="0.2" d="M100.701 119.106C98.3625 123.994 95.5702 128.661 92.412 132.965C89.1242 137.388 85.3859 141.473 81.3 145.112C81.101 145.292 80.9021 145.472 80.7032 145.651C80.3798 145.937 80.0692 146.227 79.7793 146.467L76.431 149.126C76.0962 149.385 75.7538 149.626 75.3986 149.861C75.1793 150.018 74.0662 150.787 73.7186 151.04C72.8786 151.629 72.0797 152.191 71.24 152.706C69.9502 153.507 68.7542 154.206 67.5981 154.823C66.2844 155.519 64.9747 156.149 63.7102 156.685C59.5309 158.459 55.6015 159.376 51.6967 159.477L41.9857 160.488L51.2829 163.315C56.7294 164.676 62.9662 164.632 69.8053 163.19C72.9906 162.515 76.0038 161.66 78.6848 160.67C80.3563 160.119 82.1048 159.451 84.1855 158.568C85.2258 158.126 86.2586 157.667 87.3361 157.188C98.3639 151.999 108.893 144.238 117.784 134.738C122.16 130.012 126.176 124.836 129.726 119.36C133.381 113.733 136.518 107.808 139.017 101.752C144.158 89.4508 147.318 76.2758 148.386 62.5818L148.392 62.4731L148.343 61.2346C148.321 60.4605 148.29 59.5636 148.202 58.6588L148.137 57.8821C153.843 59.6302 159.23 61.5243 164.204 63.5411L169.952 65.8638L166.561 60.667C160.07 50.7106 152.406 41.7071 143.794 33.9105C135.744 26.6161 126.947 20.3796 117.655 15.3696L115.488 14.2043L114.677 17.2053C109.561 35.8989 100.282 52.1895 88.486 63.1239L85.4113 67.6996L90.3142 66.4334C95.6552 65.0025 101.005 63.2927 106.613 61.2192C111.204 81.2858 109.13 101.758 100.701 119.106Z" fill="#231F20"/>
<path d="M102.708 116.604C100.369 121.492 97.5765 126.159 94.4183 130.463C91.1305 134.886 87.3923 138.971 83.3063 142.61C83.1074 142.79 82.9085 142.97 82.7095 143.149C82.3862 143.435 82.0756 143.725 81.7856 143.965L78.4374 146.625C78.1026 146.883 77.7602 147.124 77.405 147.359C77.1857 147.516 76.0726 148.285 75.725 148.538C74.885 149.127 74.086 149.689 73.2463 150.204C71.9565 151.005 70.7605 151.704 69.6044 152.321C68.2907 153.017 66.9811 153.647 65.7165 154.183C61.5372 155.957 57.6078 156.874 53.703 156.975L43.992 157.986L53.2893 160.813C58.7357 162.174 64.9726 162.131 71.8117 160.688C74.9969 160.013 78.0101 159.158 80.6912 158.168C82.3626 157.617 84.1112 156.949 86.1919 156.066C87.2322 155.624 88.2649 155.165 89.3425 154.686C100.37 149.497 110.899 141.736 119.79 132.236C124.166 127.51 128.182 122.334 131.732 116.858C135.387 111.231 138.524 105.306 141.023 99.2496C146.164 86.9488 149.325 73.7739 150.392 60.0799L150.399 59.9712L150.349 58.7326C150.328 57.9586 150.296 57.0616 150.208 56.1569L150.143 55.3801C155.849 57.1282 161.237 59.0224 166.21 61.0392L171.959 63.3619L168.567 58.1651C162.076 48.2087 154.412 39.2051 145.8 31.4085C137.75 24.1141 128.954 17.8777 119.661 12.8676L117.494 11.7023L116.683 14.7034C111.568 33.3969 102.288 49.6876 90.4924 60.622L87.4177 65.1977L92.3206 63.9315C97.6616 62.5005 103.011 60.7907 108.619 58.7172C113.206 78.7749 111.132 99.247 102.708 116.604Z" fill="white"/>
<path d="M166.943 59.225C160.708 56.7062 154.321 54.5489 147.988 52.6962C147.988 52.6962 148.129 54.4993 148.27 56.3023C148.354 57.1981 148.38 58.1078 148.403 58.7859C148.426 59.4641 148.441 59.9234 148.441 59.9234C147.397 73.2477 144.302 86.3525 139.219 98.491C136.687 104.594 133.607 110.378 130.092 115.786C126.58 121.204 122.651 126.259 118.349 130.911C109.701 140.16 99.5461 147.73 88.5055 152.914C85.7123 154.163 82.9397 155.361 80.0733 156.313C77.2628 157.347 74.3445 158.152 71.4025 158.777C65.5363 160.018 59.392 160.329 53.7563 158.921C59.8042 158.757 65.4299 156.75 70.5234 154.038C71.8012 153.358 73.0434 152.619 74.278 151.862C75.5126 151.105 76.6888 150.235 77.866 149.418C78.4508 149 79.056 148.606 79.6205 148.165L81.3061 146.825L82.9828 145.489C83.5307 145.034 84.0505 144.538 84.5908 144.065C88.8474 140.279 92.6614 136.099 95.9789 131.621C99.2797 127.13 102.113 122.36 104.463 117.446C114.054 97.6784 114.996 75.909 110.003 56.1185C103.975 58.4234 97.9796 60.4073 91.8217 62.0581C104.012 50.7553 113.522 34.1124 118.746 14.6004C127.624 19.3839 136.318 25.4524 144.5 32.8598C152.688 40.2545 160.296 49.0276 166.943 59.225Z" fill="#427BFF"/>
<path opacity="0.5" d="M166.943 59.2251C160.709 56.7063 154.321 54.549 147.988 52.6963C147.988 52.6963 148.129 54.4994 148.27 56.3024C148.354 57.1982 148.38 58.1079 148.403 58.786C148.426 59.4642 148.441 59.9235 148.441 59.9235C147.397 73.2478 144.302 86.3526 139.22 98.4911C136.687 104.594 133.607 110.378 130.092 115.787C126.58 121.204 122.651 126.259 118.349 130.911C109.701 140.16 99.5461 147.73 88.5055 152.914C85.7123 154.163 82.9397 155.361 80.0733 156.313C77.2629 157.348 74.3445 158.152 71.4025 158.777C65.5364 160.018 59.392 160.329 53.7564 158.922C53.7564 158.922 53.9341 158.941 54.282 158.963C54.6299 158.985 55.1452 159.052 55.8258 159.059C57.1753 159.121 59.1672 159.101 61.6772 158.756C66.693 158.13 73.6782 155.884 81.265 151.69C85.0107 149.518 89.0235 147.053 92.8889 143.941C96.7581 140.838 100.645 137.304 104.25 133.254C111.434 125.167 117.78 115.308 122.034 104.558C124.197 99.2053 125.887 93.6615 127.084 88.1045C128.282 82.5474 128.956 76.9796 129.275 71.573C129.461 68.8692 129.453 66.2056 129.479 63.601C129.389 60.9935 129.346 58.45 129.112 55.9776C128.97 53.4978 128.63 51.1017 128.368 48.7891C128.204 47.6307 128.013 46.5056 127.833 45.3855C127.658 44.2745 127.491 43.1814 127.251 42.1187C125.607 33.6081 123.396 26.7036 121.661 21.968C120.819 19.5843 120.051 17.7509 119.531 16.5005C119.011 15.2501 118.738 14.5826 118.738 14.5826C127.617 19.366 136.31 25.4345 144.493 32.842C152.688 40.2546 160.296 49.0277 166.943 59.2251Z" fill="#231F20"/>
</svg>
