<svg width="36" height="36" viewBox="0 0 36 36" fill="none" xmlns="http://www.w3.org/2000/svg">
<g clip-path="url(#clip0_647_929)">
<path d="M6.11698 0.133594C3.07244 0.801562 0.702913 3.31875 0.0982255 6.51797C-0.056462 7.36875 -0.00724325 9.08437 0.196663 9.85781C0.477913 10.8914 1.09666 12.0867 1.76463 12.8672L1.91229 13.043L2.06698 12.8531C2.14432 12.7547 2.37635 12.4734 2.56619 12.2344C2.97401 11.7281 3.85994 10.9898 4.40838 10.7086C4.61229 10.6031 4.78104 10.4836 4.78104 10.4484C4.78104 10.4133 4.70369 10.2867 4.61229 10.1672C3.48026 8.67656 3.64901 6.525 5.01307 5.09062C5.78651 4.275 6.71463 3.86719 7.82557 3.86719C8.92948 3.86719 9.79432 4.23281 10.5889 5.03437C11.9529 6.39844 12.1849 8.45156 11.1514 9.99844L10.8349 10.4695L11.2357 10.6945C12.0232 11.1375 13.0287 12.0445 13.4998 12.7477C13.5982 12.8883 13.7107 12.9937 13.7459 12.9867C13.8865 12.9445 14.5615 11.9742 14.8639 11.3906C15.2295 10.6805 15.4193 10.0969 15.581 9.24609C15.7428 8.34609 15.6865 6.89062 15.4404 5.97656C14.681 3.07969 12.6279 0.970312 9.83651 0.196875C9.06307 -0.0140629 6.95369 -0.0492191 6.11698 0.133594Z" fill="white"/>
<path d="M26.4305 0.162499C25.9102 0.50703 25.9453 -0.00625038 25.9453 7.84062C25.9453 14.5484 25.9524 14.8859 26.0789 15.118C26.4797 15.8773 27.6188 15.8773 27.9984 15.118C28.118 14.8859 28.125 14.3937 28.125 7.84062C28.125 1.2875 28.118 0.795312 27.9984 0.563281C27.8156 0.197656 27.4781 0.000781059 27.0352 0.000781059C26.775 0.000781059 26.5992 0.0429678 26.4305 0.162499Z" fill="#035349"/>
<path d="M22.5141 3.51577C22.3875 3.59311 22.2258 3.75483 22.1484 3.8814C22.0148 4.1064 22.0078 4.24702 22.0078 7.80483C22.0078 11.1798 22.0219 11.5173 22.1344 11.7353C22.5211 12.5017 23.6742 12.4806 24.0469 11.7072C24.1805 11.4259 24.1875 11.2712 24.1875 7.83296C24.1875 4.25405 24.1875 4.24702 24.0328 3.93765C23.7516 3.40327 23.0344 3.19936 22.5141 3.51577Z" fill="#035349"/>
<path d="M34.4176 3.50931C34.1012 3.69916 33.9746 3.87494 33.8973 4.21947C33.7989 4.65541 33.7918 10.9906 33.8973 11.4546C34.0731 12.2843 35.0645 12.5796 35.7043 11.989L35.9645 11.757V7.85463V3.95228L35.7887 3.76244C35.416 3.36166 34.8254 3.25619 34.4176 3.50931Z" fill="#035349"/>
<path d="M30.4312 5.21016C29.932 5.47031 29.918 5.54063 29.918 7.85391C29.918 9.81563 29.925 9.91406 30.0656 10.0969C30.3328 10.4625 30.5648 10.582 30.9937 10.582C31.3031 10.582 31.4508 10.5469 31.6336 10.4133C32.0414 10.118 32.0625 9.99844 32.0625 7.78359C32.0625 5.82188 32.0625 5.77969 31.9008 5.54766C31.5914 5.08359 30.9516 4.93594 30.4312 5.21016Z" fill="#035349"/>
<path d="M7.10837 6.02596C6.67946 6.18064 6.17321 6.70096 6.02556 7.13689C5.5404 8.54314 6.55993 9.88611 8.0154 9.75252C8.6904 9.69627 9.2529 9.30955 9.58337 8.6908C9.7029 8.4658 9.73806 8.28299 9.73806 7.84002C9.73806 7.34783 9.70993 7.2283 9.52712 6.89783C9.30915 6.50408 8.90837 6.15252 8.48649 5.99783C8.17009 5.88533 7.47399 5.89939 7.10837 6.02596Z" fill="white"/>
<path d="M18.5625 6.10291C18.4289 6.17322 18.2461 6.33494 18.1617 6.46854C18.0141 6.68651 18 6.78494 18 7.62869C18 8.64119 18.0703 8.86619 18.4641 9.12635C18.7453 9.30916 19.4062 9.2951 19.6664 9.10526C20.0672 8.80291 20.1445 8.56385 20.1445 7.63572C20.1445 6.71463 20.0672 6.46151 19.6734 6.17322C19.4133 5.97635 18.8719 5.94119 18.5625 6.10291Z" fill="#035349"/>
<path d="M7.06611 11.8892C5.75127 12.079 4.47861 12.8876 3.78252 13.9563L3.5083 14.3782L3.67002 14.5118C3.97236 14.7649 5.12549 15.2642 5.81455 15.4399C6.32783 15.5735 6.75674 15.6298 7.48799 15.6579C8.67627 15.7001 9.52002 15.5806 10.5044 15.229C11.1302 15.004 12.0442 14.554 12.1216 14.4204C12.1849 14.322 11.5591 13.4712 11.1653 13.1126C10.0614 12.1071 8.58486 11.6712 7.06611 11.8892Z" fill="white"/>
<path d="M6.34906 20.4188C4.19046 20.8266 2.32718 22.1414 1.14593 24.0891C0.39359 25.3266 0.0701522 26.4445 0.0209334 27.9844C-0.0353166 29.5664 0.210777 30.6844 0.885777 31.9148C1.18812 32.4703 1.82093 33.3281 1.93343 33.3281C1.97562 33.3281 2.06703 33.2297 2.14437 33.1031C2.39046 32.6813 3.40296 31.7039 4.01468 31.2891C4.35218 31.0711 4.66859 30.8672 4.71781 30.8531C4.79515 30.825 4.80218 30.7898 4.73187 30.6844C4.12718 29.7773 3.93031 29.25 3.88812 28.4414C3.84593 27.6539 3.97953 27.0352 4.33812 26.3461C5.59671 23.9555 8.69046 23.4563 10.5819 25.3477C11.96 26.7188 12.192 28.7859 11.1444 30.3469L10.842 30.7969L11.2639 31.05C12.1006 31.5352 12.8248 32.182 13.3944 32.9414C13.542 33.1313 13.6897 33.293 13.7319 33.293C13.9639 33.293 14.9272 31.7602 15.2295 30.9234C15.6514 29.7563 15.792 28.2023 15.5811 27.0281C15.2717 25.2563 14.5827 23.8852 13.3733 22.6266C12.3819 21.593 11.2217 20.9109 9.85765 20.5523C9.28812 20.3977 8.98578 20.3695 8.01546 20.3484C7.24203 20.3344 6.68656 20.3555 6.34906 20.4188Z" fill="white"/>
<path d="M26.8522 20.3906C25.8256 20.5664 24.6655 21.0234 23.8288 21.5859C23.21 22.0078 22.2186 22.9852 21.7897 23.6039C21.2905 24.3211 20.7702 25.4602 20.5592 26.2758C20.4186 26.8031 20.3694 27.2039 20.3413 27.9844C20.285 29.4469 20.4959 30.4383 21.1077 31.6828C21.41 32.2945 22.1342 33.3281 22.2608 33.3281C22.303 33.3281 22.4295 33.1945 22.535 33.0258C22.985 32.3578 23.878 31.5492 24.7358 31.043L25.1647 30.7898L24.9256 30.4523C24.2366 29.4961 24.0327 28.3992 24.328 27.2461C24.6655 25.9242 25.5936 24.8836 26.8592 24.4055C27.5131 24.1594 28.7155 24.1453 29.4045 24.3844C30.417 24.7359 31.2327 25.4742 31.7038 26.4656C32.0202 27.1266 32.1327 27.5906 32.1327 28.2516C32.1327 29.0461 31.7952 30.0164 31.3241 30.5719L31.1413 30.7898L31.3733 30.9094C32.1608 31.3102 33.5038 32.4984 33.8694 33.1172C33.9327 33.2367 34.0241 33.3281 34.0663 33.3281C34.1084 33.3281 34.3123 33.1102 34.5092 32.843C35.5288 31.4789 35.9998 30.0586 35.9998 28.3359C35.9998 26.8523 35.6834 25.5797 35.0014 24.3492C33.8483 22.2539 31.8725 20.8195 29.6084 20.4258C28.9897 20.3133 27.4147 20.2992 26.8522 20.3906Z" fill="white"/>
<path d="M7.34751 26.2901C6.39126 26.5432 5.84985 27.3166 5.92016 28.3291C5.99751 29.3416 6.65844 30.0026 7.67797 30.0799C8.50063 30.1362 9.14047 29.7987 9.53422 29.0955C9.71001 28.7721 9.73813 28.6526 9.73813 28.1604C9.73813 27.7526 9.70297 27.5276 9.60454 27.3518C9.42172 27.0072 9.01391 26.5924 8.68344 26.4237C8.3811 26.269 7.69204 26.1987 7.34751 26.2901Z" fill="white"/>
<path d="M27.5131 26.3539C26.9928 26.5437 26.6834 26.8039 26.4584 27.2609C26.0576 28.0836 26.2475 29.1242 26.9084 29.6656C27.71 30.3265 29.0108 30.207 29.6647 29.4125C30.0584 28.9343 30.2061 28.0836 30.0022 27.514C29.6365 26.5226 28.5115 25.9953 27.5131 26.3539Z" fill="white"/>
<path d="M7.09421 32.2101C6.51062 32.2945 5.86374 32.5266 5.30828 32.85C4.46453 33.3492 3.33249 34.643 3.59265 34.8117C4.30281 35.2898 5.38562 35.7117 6.32781 35.8875C7.52312 36.1195 9.2739 36 10.3848 35.6203C10.8137 35.4726 11.7348 35.0367 12.0864 34.8117C12.22 34.7273 11.7981 34.0805 11.2637 33.5601C10.1739 32.4914 8.60593 31.9851 7.09421 32.2101Z" fill="white"/>
<path d="M27.3162 32.2383C26.0154 32.4703 24.7849 33.2648 24.0818 34.3336C23.7654 34.8047 23.7232 34.7344 24.6091 35.1844C25.7412 35.768 26.7748 36 28.2021 36C29.2216 36 29.9669 35.8805 30.8529 35.5711C31.4365 35.3672 32.4841 34.8328 32.4841 34.7344C32.4841 34.6078 31.9849 33.9469 31.5982 33.5672C30.8529 32.8289 29.9037 32.3578 28.849 32.2031C28.2443 32.1188 27.9279 32.1258 27.3162 32.2383Z" fill="white"/>
</g>
<defs>
<clipPath id="clip0_647_929">
<rect width="36" height="36" fill="white"/>
</clipPath>
</defs>
</svg>
