<svg width="36" height="36" viewBox="0 0 36 36" fill="none" xmlns="http://www.w3.org/2000/svg">
<g clip-path="url(#clip0_647_909)">
<path d="M16.7976 0.835937C13.8515 1.37734 11.5804 3.45156 10.814 6.31328C10.596 7.13594 10.5609 8.75312 10.7437 9.63203C11.3132 12.3742 13.2679 14.4906 15.996 15.3062C16.5867 15.482 16.7132 15.4961 18 15.4961C19.2867 15.4961 19.4132 15.482 20.0039 15.3062C22.732 14.4906 24.6867 12.3742 25.2562 9.63203C25.3687 9.08359 25.3898 8.78125 25.3617 7.90937C25.3125 6.34141 24.996 5.32187 24.1734 4.07734C23.182 2.57266 21.7054 1.50391 19.9335 1.00469C19.4132 0.864062 19.1039 0.828906 18.2109 0.807812C17.6132 0.79375 16.9734 0.807812 16.7976 0.835937ZM21.7757 4.71719C22.2257 4.88594 22.4859 5.34297 22.3945 5.82109C22.3523 6.04609 21.9937 6.43984 19.7718 8.67578C18.3515 10.0961 17.0648 11.3547 16.9171 11.4672C16.4812 11.7906 15.9398 11.7273 15.5671 11.3055C15.3632 11.0805 13.6617 8.09219 13.6054 7.86016C13.5351 7.57891 13.6828 7.20625 13.964 6.96016C14.1679 6.78437 14.2664 6.74922 14.5687 6.74922C14.8851 6.74922 14.9484 6.77734 15.1804 7.00937C15.3281 7.15703 15.6726 7.68437 15.9609 8.19062C16.2421 8.68984 16.4882 9.11875 16.5023 9.13984C16.5164 9.15391 17.5148 8.18359 18.7242 6.97422C19.9335 5.77187 20.9953 4.75234 21.0937 4.71719C21.3328 4.62578 21.5367 4.62578 21.7757 4.71719Z" fill="white"/>
<path d="M28.5821 0.949219C28.3922 1.75781 28.0618 2.34141 27.5485 2.76328C27.1688 3.07266 26.5711 3.35391 26.1704 3.41719C26.0016 3.44531 25.8821 3.47344 25.8961 3.4875C25.9102 3.50859 26.1071 3.56484 26.3321 3.62109C27.443 3.91641 28.2797 4.77422 28.5469 5.90625L28.6383 6.29297L28.7227 5.92734C28.9758 4.80234 29.9532 3.80391 30.9797 3.61406C31.4086 3.53672 31.4086 3.50156 31.0008 3.39609C29.8688 3.10781 29.0743 2.32031 28.7508 1.16016C28.6383 0.759375 28.6313 0.752344 28.5821 0.949219Z" fill="white"/>
<path d="M6.85576 8.2743C6.80654 8.56258 6.60264 8.99148 6.37061 9.30086C6.15264 9.6032 5.47061 10.0251 5.05576 10.1235L4.68311 10.2149L5.14014 10.3626C6.03311 10.6509 6.70107 11.368 6.85576 12.1837C6.91201 12.4579 7.03154 12.472 7.03154 12.2118C7.03154 11.9657 7.34092 11.361 7.6292 11.0446C7.90342 10.7423 8.57139 10.3696 8.98623 10.2923L9.23232 10.243L8.83857 10.1235C8.31826 9.9618 7.87529 9.69461 7.59404 9.3782C7.33389 9.07586 7.03154 8.4782 7.03154 8.24617C7.03154 7.98602 6.91201 8.00008 6.85576 8.2743Z" fill="white"/>
<path d="M4.05711 14.9398C2.49618 16.2125 1.13212 18.5117 0.668053 20.6703C0.436022 21.7672 0.464147 23.9117 0.724303 24.1648C0.829772 24.2703 2.38368 24.9172 2.42587 24.875C2.44696 24.8539 2.48915 24.4531 2.53133 23.982C2.77743 20.9937 3.97274 18.4625 6.08915 16.4586C6.41961 16.1422 6.67977 15.8469 6.65868 15.7976C6.61649 15.6922 4.71102 14.6234 4.55633 14.6234C4.49305 14.6234 4.26805 14.764 4.05711 14.9398Z" fill="white"/>
<path d="M30.347 15.1648C29.8126 15.4671 29.3556 15.7484 29.3415 15.7976C29.3204 15.8468 29.5806 16.1421 29.9111 16.4586C32.0275 18.4625 33.2439 21.0359 33.4689 23.989C33.504 24.4531 33.5462 24.8539 33.5673 24.875C33.6165 24.9171 35.1564 24.2773 35.2759 24.1648C35.5361 23.9117 35.5642 21.7671 35.3322 20.6703C34.9595 18.9336 33.9962 17.0773 32.7939 15.7625C32.2454 15.1578 31.6056 14.6234 31.4439 14.6234C31.3736 14.6234 30.8884 14.8695 30.347 15.1648Z" fill="white"/>
<path d="M6.41943 17.4585C6.03975 17.8523 5.54053 18.4429 5.31553 18.7663C4.26787 20.2429 3.63506 22.0569 3.48037 23.9835L3.43115 24.5952L5.31553 25.5585L7.20693 26.5218L7.74131 27.0913L8.27568 27.6608L8.60615 27.0843C8.97178 26.4585 9.28818 26.1421 9.76631 25.9171C10.2163 25.7202 10.8913 25.7273 11.3413 25.9452C11.7491 26.1351 12.2765 26.7046 12.3819 27.0773L12.4663 27.3515L12.9374 27.3093C13.8233 27.2249 14.646 27.703 14.9765 28.4976L15.1312 28.8773L15.6726 28.8421C16.2983 28.8069 16.664 28.9265 17.114 29.3202C17.3741 29.5523 17.7187 30.1288 17.7187 30.3468C17.7187 30.4241 17.7538 30.4452 17.8382 30.4171C18.5765 30.1288 19.6241 30.5155 20.0882 31.2327C20.3272 31.5983 20.1866 31.4999 21.5788 32.3085C22.8796 33.0538 23.1116 33.1171 23.5616 32.8148C23.8569 32.6179 23.9765 32.3929 23.9765 32.0202C23.9765 31.5069 23.8007 31.3382 22.2327 30.4382C21.4522 29.9882 20.7421 29.5593 20.6647 29.489C20.4679 29.3132 20.5101 28.9898 20.7562 28.8069C20.946 28.6663 20.9601 28.6663 21.2062 28.7858C21.3538 28.8491 22.1765 29.3202 23.0483 29.8265C24.4335 30.628 24.6726 30.7405 24.9538 30.7476C25.5937 30.7546 26.0155 30.3468 26.0155 29.721C26.0155 29.0741 25.9874 29.046 24.0116 27.914C22.7741 27.2038 22.5702 27.0491 22.5702 26.8171C22.5702 26.5921 22.7952 26.346 22.9991 26.346C23.0976 26.353 23.9413 26.789 24.8976 27.3444C26.5569 28.2937 26.6413 28.3358 27.014 28.3358C27.3374 28.3358 27.4499 28.3007 27.6327 28.153C27.9491 27.8858 28.0757 27.5976 28.0335 27.2319C27.9702 26.6694 27.8366 26.571 24.9468 24.9046C23.4632 24.0468 21.9796 23.2241 21.6562 23.0694C20.9179 22.7249 20.3413 22.6124 19.6312 22.6616C18.9632 22.7038 18.4499 22.8726 17.2054 23.4562C16.0733 23.9905 15.6022 24.1663 14.9976 24.2577C14.1608 24.3913 13.1765 24.0538 12.5296 23.414C11.8546 22.739 11.7702 21.8249 12.3187 21.1921C12.4312 21.0655 13.4437 20.3835 14.5687 19.6804C15.7499 18.9351 16.5796 18.3796 16.5444 18.3444C16.5093 18.3093 16.2913 18.2108 16.0593 18.1265C15.6093 17.9577 15.089 17.9437 11.9179 17.9999C10.139 18.0351 9.45693 17.8804 7.93818 17.114C7.53037 16.903 7.17881 16.7343 7.15771 16.7343C7.13662 16.7343 6.80615 17.0577 6.41943 17.4585Z" fill="white"/>
<path d="M27.8791 17.1906C26.1846 18.0906 24.8276 18.2242 22.9573 17.6617C22.4299 17.507 22.1909 17.4789 21.5159 17.4789C20.5456 17.4789 20.0745 17.5914 19.0901 18.0625C18.4151 18.3859 13.4159 21.4586 13.0995 21.7398C12.7479 22.0633 12.8815 22.5695 13.4088 22.9281C14.3299 23.568 14.9557 23.4906 17.0862 22.4781C19.2588 21.4516 20.4823 21.4164 22.2893 22.3234C22.6198 22.4922 24.0752 23.3078 25.5237 24.1445C27.5627 25.3188 28.2237 25.7336 28.4416 25.9727L28.7229 26.2891L30.6495 25.3961L32.569 24.5102L32.5198 23.9758C32.3581 22.0422 31.7182 20.2281 30.6846 18.7656C30.2487 18.1398 28.9338 16.7266 28.8002 16.7406C28.7581 16.7406 28.3432 16.9445 27.8791 17.1906Z" fill="white"/>
<path d="M10.0197 26.8455C9.90718 26.9229 9.77359 27.0213 9.72437 27.0776C9.51343 27.3377 8.43765 29.2994 8.39546 29.5033C8.33921 29.8198 8.57827 30.333 8.87359 30.5158C9.0564 30.6354 9.18999 30.6565 9.51343 30.6354C10.0478 30.6002 10.1673 30.4807 10.9267 29.1518C11.4611 28.2166 11.5314 28.0549 11.5314 27.7526C11.5314 27.3237 11.3416 26.9862 11.0111 26.8315C10.6947 26.6838 10.2798 26.6908 10.0197 26.8455Z" fill="white"/>
<path d="M12.5791 28.4265C12.2627 28.6374 10.4205 31.8085 10.3642 32.2304C10.308 32.6804 10.5611 33.1163 10.9759 33.2851C11.3978 33.4538 11.7424 33.3976 12.0588 33.0952C12.3611 32.814 14.1259 29.7554 14.1822 29.4319C14.2384 29.0944 14.0908 28.7288 13.8095 28.4757C13.6056 28.2999 13.5072 28.2648 13.1908 28.2648C12.9166 28.2648 12.7549 28.3069 12.5791 28.4265Z" fill="white"/>
<path d="M15.3632 29.8402C15.0608 29.9738 15.0046 30.0512 14.1257 31.5699C13.2468 33.0887 13.1624 33.3559 13.4155 33.8199C13.5983 34.1715 14.0975 34.4105 14.4913 34.3473C14.9413 34.2699 15.1733 33.9887 16.0241 32.491C16.7132 31.2887 16.8046 31.0918 16.8046 30.7965C16.8046 30.0371 16.0522 29.5379 15.3632 29.8402Z" fill="white"/>
<path d="M17.8594 31.4431C17.6977 31.5556 17.4234 31.9634 16.9734 32.7298C16.418 33.679 16.3125 33.904 16.3125 34.1572C16.3125 34.8392 16.7484 35.2681 17.3883 35.2119C17.5922 35.1978 17.8313 35.1275 17.9297 35.0642C18.0281 35.0009 18.4078 34.4384 18.7734 33.8056C19.3852 32.758 19.4414 32.6314 19.4344 32.3009C19.4344 32.083 19.3852 31.865 19.3078 31.7525C19.0055 31.2884 18.3094 31.1408 17.8594 31.4431Z" fill="white"/>
<path d="M20.2922 33.0107C20.2359 33.1443 20.0531 33.4818 19.8914 33.756C19.6101 34.2411 19.6031 34.2693 19.7297 34.3607C20.4328 34.888 21.2203 34.9161 21.5226 34.4239C21.6843 34.1638 21.6984 33.6997 21.5508 33.4818C21.4523 33.3482 20.5593 32.7646 20.4398 32.7646C20.4117 32.7646 20.3484 32.8771 20.2922 33.0107Z" fill="white"/>
</g>
<defs>
<clipPath id="clip0_647_909">
<rect width="36" height="36" fill="white"/>
</clipPath>
</defs>
</svg>
