<svg width="24" height="24" viewBox="0 0 24 24" fill="none" xmlns="http://www.w3.org/2000/svg">
<g clip-path="url(#clip0_883_1668)">
<path d="M20.0157 1.24219L18.7782 2.47969L18.6938 3.92344C18.6516 4.71563 18.6188 5.36719 18.6235 5.37657C18.6282 5.38126 19.2844 5.34844 20.0766 5.30626L21.5157 5.22657L22.7579 3.98438C23.4422 3.30001 24.0001 2.72344 24.0001 2.69532C24.0001 2.63438 21.3657 5.72205e-06 21.3047 5.72205e-06C21.2766 5.72205e-06 20.7001 0.557818 20.0157 1.24219Z" fill="url(#paint0_linear_883_1668)"/>
<path d="M10.172 1.43905C6.2392 1.84217 2.85951 4.20467 1.12045 7.7578C0.557947 8.91092 0.239197 9.97967 0.0657596 11.2969C-0.0420529 12.1265 -0.00455291 13.8094 0.136072 14.6015C0.543885 16.8937 1.53763 18.8672 3.10326 20.5078C4.80482 22.289 6.92826 23.4234 9.39857 23.864C10.1908 24.0047 11.8736 24.0422 12.7033 23.9344C14.0204 23.7609 15.0892 23.4422 16.2423 22.8797C19.5611 21.2578 21.797 18.2765 22.4626 14.5922C22.5564 14.0625 22.5704 13.8469 22.5704 12.7031C22.5704 11.5594 22.5564 11.3437 22.4626 10.814C22.322 10.0312 22.0876 9.19217 21.8439 8.57811C21.6376 8.06249 21.0564 6.89061 20.9158 6.72186L20.8361 6.61874L19.5142 6.69374L18.1923 6.76874L17.7423 7.21874L17.2876 7.67342L17.5548 7.97342C18.1689 8.66717 18.7079 9.61405 19.0126 10.514C19.2986 11.3578 19.3361 11.6344 19.3361 12.7734C19.3314 13.9312 19.2704 14.3531 18.9517 15.2812C18.0845 17.85 15.9189 19.8656 13.322 20.5265C11.9439 20.8828 10.3876 20.8547 9.02357 20.4609C5.81263 19.5328 3.44076 16.575 3.24388 13.2562C3.11263 11.0625 3.77826 9.09374 5.20326 7.46717C6.52514 5.95311 8.36263 5.02499 10.4486 4.81874C12.1079 4.65936 13.9876 5.2078 15.6845 6.35155L16.2845 6.75467L16.7579 6.28124L17.2314 5.8078L17.3064 4.48593L17.3814 3.16405L17.2829 3.08436C17.1423 2.97186 16.4204 2.59686 15.8908 2.35311C14.9861 1.94061 13.847 1.62186 12.7361 1.47655C12.2298 1.41092 10.6595 1.38749 10.172 1.43905Z" fill="url(#paint1_linear_883_1668)"/>
<path d="M10.3409 6.18747C8.79873 6.38434 7.45811 7.05466 6.38936 8.17028C5.19404 9.42184 4.58936 10.9406 4.58936 12.6984C4.58936 13.8187 4.78623 14.6859 5.24561 15.6328C6.22529 17.6343 8.05811 18.9984 10.2378 19.3453C10.8237 19.4343 12.169 19.4062 12.7034 19.289C13.969 19.0125 15.1362 18.3703 16.0503 17.4562C16.9644 16.5422 17.6065 15.3703 17.8831 14.1093C17.9862 13.6312 18.0284 12.3562 17.9534 11.85C17.8269 10.9687 17.3956 9.97966 16.8003 9.18278C16.6128 8.93903 16.43 8.71403 16.3972 8.68122C16.3456 8.63903 16.1206 8.84059 15.2675 9.69372L14.2034 10.7578L14.3909 11.1187C14.9065 12.0984 14.9065 13.3031 14.3909 14.2875C13.4956 16.0078 11.4097 16.6828 9.71279 15.7968C8.52686 15.1828 7.82373 14.025 7.82373 12.7031C7.82373 11.8781 8.09561 11.114 8.61123 10.4859C9.65654 9.22966 11.4519 8.85934 12.8815 9.60934L13.2425 9.79684L14.2597 8.77966C14.8222 8.21716 15.2815 7.74372 15.2815 7.72028C15.2815 7.65466 14.4237 7.12497 13.8987 6.86716C13.3362 6.59528 12.694 6.37028 12.1315 6.25778C11.6815 6.16872 10.7722 6.13122 10.3409 6.18747Z" fill="url(#paint2_linear_883_1668)"/>
<path d="M10.9686 10.6031C10.0921 10.7015 9.30459 11.4984 9.19677 12.389C9.10771 13.1109 9.30927 13.725 9.79209 14.2078C10.2749 14.6906 10.889 14.8922 11.6108 14.8031C12.5061 14.6953 13.289 13.9125 13.3968 13.0172C13.4436 12.6515 13.3968 12.1781 13.289 11.925L13.214 11.7469L12.5015 12.4594L11.789 13.1719L11.3061 12.6937L10.828 12.2109L11.5405 11.4984L12.2483 10.7906L12.0655 10.7109C11.8218 10.6078 11.3436 10.5609 10.9686 10.6031Z" fill="url(#paint3_linear_883_1668)"/>
</g>
<defs>
<linearGradient id="paint0_linear_883_1668" x1="18.623" y1="2.68851" x2="24.0001" y2="2.68851" gradientUnits="userSpaceOnUse">
<stop stop-color="#0BAA84"/>
<stop offset="1" stop-color="#FFCC31"/>
</linearGradient>
<linearGradient id="paint1_linear_883_1668" x1="0.00341797" y1="12.7038" x2="22.5704" y2="12.7038" gradientUnits="userSpaceOnUse">
<stop stop-color="#0BAA84"/>
<stop offset="1" stop-color="#FFCC31"/>
</linearGradient>
<linearGradient id="paint2_linear_883_1668" x1="4.58936" y1="12.7793" x2="17.9915" y2="12.7793" gradientUnits="userSpaceOnUse">
<stop stop-color="#0BAA84"/>
<stop offset="1" stop-color="#FFCC31"/>
</linearGradient>
<linearGradient id="paint3_linear_883_1668" x1="9.17627" y1="12.7056" x2="13.4149" y2="12.7056" gradientUnits="userSpaceOnUse">
<stop stop-color="#0BAA84"/>
<stop offset="1" stop-color="#FFCC31"/>
</linearGradient>
<clipPath id="clip0_883_1668">
<rect width="24" height="24" fill="white"/>
</clipPath>
</defs>
</svg>
