<svg width="36" height="36" viewBox="0 0 36 36" fill="none" xmlns="http://www.w3.org/2000/svg">
<path d="M16.8891 0.871875C15.736 1.15312 14.6039 2.07422 14.0696 3.16406C13.4157 4.5 13.4086 5.82891 14.0555 7.13672C14.5688 8.17031 15.525 9.00703 16.6008 9.35859C17.0368 9.49922 17.2618 9.52734 18 9.52734C18.7383 9.52734 18.9633 9.49922 19.3993 9.35859C20.475 9.00703 21.4313 8.17031 21.9446 7.13672C22.5914 5.82891 22.5844 4.5 21.9305 3.16406C21.3821 2.04609 20.1727 1.08984 18.9985 0.850781C18.5063 0.745313 17.3532 0.759376 16.8891 0.871875Z" fill="white"/>
<path d="M7.65737 5.91347C4.75346 6.5955 3.7269 10.1814 5.82924 12.2838C6.49721 12.9518 7.27768 13.2893 8.26205 13.3385C9.41518 13.4018 10.3644 13.0502 11.1449 12.2697C11.8761 11.5385 12.2347 10.6596 12.2347 9.59784C12.2347 8.53613 11.8761 7.67128 11.1378 6.92597C10.6597 6.44784 9.92143 6.04003 9.29565 5.91347C8.86674 5.82206 8.02299 5.82206 7.65737 5.91347Z" fill="white"/>
<path d="M26.5924 5.93456C25.6361 6.18066 24.6518 6.933 24.2088 7.77675C23.4143 9.26738 23.6814 11.0955 24.8557 12.2697C25.6361 13.0502 26.5853 13.4018 27.7385 13.3385C29.2783 13.2611 30.5088 12.3541 31.0502 10.9197C31.7744 9.00019 30.783 6.81347 28.8494 6.06816C28.2658 5.85019 27.19 5.77988 26.5924 5.93456Z" fill="white"/>
<path d="M17.0158 10.2656C14.9768 10.5187 13.1697 11.4047 11.7564 12.8461L11.2432 13.3734L12.2135 13.8586C13.1205 14.3086 13.2119 14.3438 13.6408 14.3438C13.8939 14.3438 14.3158 14.3086 14.583 14.2734C15.033 14.2031 15.1174 14.168 15.8697 13.6055C16.7627 12.9445 17.29 12.7266 18.0002 12.7266C18.7104 12.7266 19.2377 12.9445 20.1307 13.6055C20.883 14.168 20.9674 14.2031 21.4174 14.2734C21.6846 14.3086 22.1135 14.3438 22.3666 14.3438C22.7955 14.3438 22.8939 14.3156 23.6322 13.9359C24.0752 13.7039 24.5111 13.5 24.6025 13.4789C24.7713 13.4367 24.7713 13.4367 24.483 13.0922C23.7025 12.1641 22.2611 11.1937 20.9674 10.7297C19.8354 10.3289 18.1549 10.132 17.0158 10.2656Z" fill="white"/>
<path d="M17.3603 13.88C17.2126 13.9292 16.7907 14.2034 16.411 14.4847C15.3775 15.237 15.3423 15.2511 14.0696 15.3636C12.8814 15.462 12.6564 15.5253 12.2485 15.9191C11.9181 16.2214 11.8337 16.4113 11.5946 17.3745C11.4821 17.8456 11.3415 18.3378 11.2853 18.4714C11.229 18.612 10.8001 19.1042 10.3431 19.5753C9.5837 20.3488 9.4923 20.4683 9.38683 20.8409C9.21105 21.4316 9.28136 21.755 9.81573 22.8659C10.3431 23.9558 10.3431 23.998 10.1954 25.4183C10.111 26.1917 10.111 26.2972 10.2306 26.6488C10.4345 27.2534 10.8353 27.598 11.8337 28.0128C12.347 28.2238 12.7759 28.4558 12.9446 28.6105C13.0993 28.7511 13.472 29.2292 13.7743 29.6722C14.4353 30.6566 14.7165 30.8675 15.4478 30.9167C15.8556 30.9448 16.0525 30.9167 16.7626 30.6988C17.8384 30.3683 18.1618 30.3683 19.2376 30.6988C19.9478 30.9167 20.1446 30.9448 20.5525 30.9167C21.2837 30.8675 21.565 30.6566 22.2259 29.6722C22.5282 29.2292 22.9009 28.7511 23.0556 28.6105C23.2243 28.4558 23.6532 28.2238 24.1665 28.0128C25.165 27.598 25.5657 27.2534 25.7696 26.6488C25.8892 26.2972 25.8892 26.1988 25.8048 25.3831C25.6571 23.9769 25.6571 23.9628 26.1845 22.8659C26.7189 21.755 26.7892 21.4386 26.6134 20.8409C26.5079 20.4683 26.4165 20.3488 25.6571 19.5753C25.2001 19.1042 24.7712 18.612 24.715 18.4714C24.6587 18.3378 24.5181 17.8456 24.4056 17.3745C24.1665 16.4113 24.0821 16.2214 23.7517 15.9191C23.3439 15.5253 23.1189 15.462 21.9306 15.3636C20.6579 15.2511 20.6298 15.2441 19.554 14.4566C19.1603 14.1613 18.7173 13.8941 18.5696 13.8519C18.2251 13.7534 17.6696 13.7675 17.3603 13.88ZM19.2025 17.7542C20.7845 18.162 22.1767 19.5542 22.6126 21.1644C22.697 21.4667 22.7392 21.8745 22.7392 22.3597C22.7392 23.7027 22.3032 24.7363 21.34 25.7066C20.8759 26.1706 20.6579 26.3323 20.1095 26.5995C18.654 27.3097 17.3462 27.3097 15.8907 26.5995C15.3423 26.3323 15.1243 26.1706 14.6603 25.7066C13.697 24.7363 13.261 23.7027 13.261 22.3597C13.261 21.8745 13.3032 21.4667 13.3876 21.1644C13.8868 19.3292 15.4689 17.937 17.4025 17.6206C17.7681 17.5644 18.7384 17.6347 19.2025 17.7542Z" fill="white"/>
<path d="M17.7258 19.7083C17.6836 19.7645 17.5289 20.1512 17.3883 20.5731L17.1211 21.3395L16.2352 21.3747C15.2648 21.4098 15.1172 21.4661 15.1172 21.8036C15.1172 21.9794 15.2086 22.0778 15.7922 22.5067C16.1578 22.7809 16.4812 23.0481 16.4953 23.0973C16.5164 23.1465 16.418 23.5473 16.2773 23.9762C16.0453 24.7145 16.0312 24.7778 16.1367 24.9325C16.3195 25.2208 16.5797 25.1575 17.2687 24.6442C17.6133 24.3911 17.9367 24.1872 18 24.1872C18.0633 24.1872 18.3867 24.3911 18.7312 24.6442C19.4203 25.1575 19.6805 25.2208 19.8633 24.9325C19.9688 24.7778 19.9547 24.7145 19.7227 23.9762C19.582 23.5473 19.4836 23.1465 19.5047 23.0973C19.5187 23.0481 19.8422 22.7809 20.2078 22.5067C20.7914 22.0778 20.8828 21.9794 20.8828 21.8036C20.8828 21.4661 20.7352 21.4098 19.7648 21.3747L18.8789 21.3395L18.6117 20.5731C18.4711 20.1512 18.3164 19.7645 18.2742 19.7083C18.232 19.659 18.1055 19.6169 18 19.6169C17.8945 19.6169 17.768 19.659 17.7258 19.7083Z" fill="white"/>
<path d="M7.84007 14.0344C5.94866 14.2523 4.42288 14.9695 3.18538 16.2281C2.36272 17.0578 1.73694 18.0984 1.38538 19.2305C1.11819 20.0813 1.09007 20.3695 1.23772 20.5383C1.35022 20.6648 1.48382 20.6719 4.86585 20.6719C7.74866 20.6719 8.36741 20.6578 8.36741 20.5805C8.36741 20.5242 8.46585 20.2922 8.57835 20.0531C8.74007 19.7367 8.98616 19.4414 9.5135 18.9352C9.91429 18.5555 10.2658 18.2039 10.294 18.1477C10.3291 18.0984 10.4627 17.6273 10.5893 17.107C10.8494 16.0383 11.0955 15.5531 11.5948 15.1102L11.9041 14.8359L11.426 14.618C10.4065 14.1609 8.91585 13.9148 7.84007 14.0344Z" fill="white"/>
<path d="M26.5923 14.0695C25.9173 14.1539 25.1157 14.3719 24.5813 14.618L24.0962 14.8359L24.4056 15.1102C24.9048 15.5531 25.1509 16.0383 25.411 17.107C25.5376 17.6273 25.6712 18.0984 25.7063 18.1477C25.7345 18.2039 26.086 18.5555 26.4868 18.9352C27.0142 19.4414 27.2603 19.7367 27.422 20.0531C27.5345 20.2922 27.6329 20.5242 27.6329 20.5805C27.6329 20.6578 28.2517 20.6719 31.1345 20.6719C34.5165 20.6719 34.6501 20.6648 34.7626 20.5383C34.9103 20.3695 34.8821 20.0812 34.6149 19.2305C33.5392 15.7922 30.136 13.6055 26.5923 14.0695Z" fill="white"/>
<path d="M11.2289 31.2469C10.7367 32.3016 10.3359 33.2156 10.3359 33.2789C10.3359 33.3422 10.3641 33.4055 10.3992 33.4266C10.4344 33.4477 11.0039 33.3703 11.6719 33.2508C12.3398 33.1383 12.9164 33.0539 12.9586 33.068C12.9937 33.075 13.3031 33.5602 13.6406 34.1367C14.1539 35.0297 14.2734 35.1914 14.4141 35.1914C14.5687 35.1914 14.6602 35.0297 15.307 33.6445C15.7008 32.7938 16.0312 32.0766 16.0312 32.0555C16.0312 32.0273 15.757 31.9922 15.4195 31.9781C14.3438 31.9219 13.7953 31.5352 12.8672 30.157C12.5508 29.693 12.2555 29.3203 12.2133 29.3203C12.1641 29.3203 11.7211 30.1852 11.2289 31.2469Z" fill="white"/>
<path d="M23.182 30.1075C22.3102 31.4435 21.6562 31.9005 20.5172 31.9779C20.2148 31.9919 19.9688 32.0271 19.9688 32.0552C19.9758 32.0763 20.2992 32.7935 20.693 33.6443C21.6141 35.613 21.5227 35.5849 22.3664 34.1365C22.6969 33.5599 23.0062 33.0747 23.0414 33.0677C23.0836 33.0536 23.6602 33.138 24.3281 33.2505C24.9961 33.37 25.5656 33.4474 25.6008 33.4263C25.6359 33.4052 25.6641 33.3419 25.6641 33.2786C25.6641 33.0747 23.8852 29.32 23.7867 29.32C23.7375 29.32 23.4633 29.6786 23.182 30.1075Z" fill="white"/>
</svg>
