<svg width="222" height="237" viewBox="0 0 222 237" fill="none" xmlns="http://www.w3.org/2000/svg">
<path d="M194.059 203.588C201.018 199.896 216.69 191.671 217.408 191.078C218.004 190.585 217.984 190.436 217.229 190.069C215.967 189.455 214.561 189.081 213.235 188.574C196.291 182.1 179.346 175.628 162.4 169.157C161.915 168.972 161.43 168.773 160.919 168.648C160.083 168.444 159.502 168.742 159.383 169.423C159.323 169.767 159.36 170.123 159.37 170.474C159.5 175.108 159.613 179.742 159.786 184.374C159.811 185.048 159.558 185.472 158.898 185.885C155.791 187.829 152.72 189.809 149.641 191.78C149.295 192.002 148.954 192.231 148.645 192.483C147.421 193.48 147.791 194.444 149.532 194.806C149.835 194.869 150.147 194.915 150.459 194.939C154.308 195.234 158.09 195.887 161.917 196.302C162.487 196.364 162.866 196.52 163.208 196.919C166.614 200.901 170.054 204.865 173.488 208.832C174.321 209.795 175.132 210.77 176.015 211.704C176.707 212.437 177.253 212.485 177.9 212.167C183.477 209.207 188.768 206.396 194.059 203.588ZM162.073 184.05C161.942 179.806 161.827 175.561 161.71 171.317C161.708 171.222 161.742 171.127 161.779 170.922C177.065 176.76 192.291 182.574 207.538 188.396C207.294 188.735 206.951 188.56 206.69 188.539C192.23 187.348 177.77 186.148 163.311 184.946C162.134 184.848 162.096 184.831 162.073 184.05ZM154.174 192.275C153.694 192.293 153.205 192.372 152.559 192.215C154.157 191.205 155.649 190.264 157.139 189.32C158.319 188.572 159.532 187.852 160.657 187.056C161.255 186.633 161.808 186.59 162.575 186.686C164.257 186.897 165.962 186.991 167.657 187.132C179.706 188.133 191.754 189.133 203.802 190.133C204.366 190.053 204.905 190.114 205.637 190.328C204.874 190.535 204.296 190.559 203.7 190.446C193.366 190.831 183.032 191.216 172.697 191.599C166.523 191.828 160.348 192.053 154.174 192.275ZM162.15 194.508C159.939 194.221 157.73 193.921 155.52 193.625C154.965 193.673 154.439 193.587 153.714 193.388C154.483 193.183 155.062 193.185 155.651 193.267C161.755 193.034 167.859 192.796 173.964 192.569C176.637 192.47 179.312 192.392 181.985 192.305C183.951 192.062 185.944 192.131 187.921 192.019C188.096 192.009 188.271 191.996 188.445 191.983C188.422 192.066 188.399 192.148 188.376 192.231C186.132 192.407 183.902 192.694 181.639 192.715C176.213 193.154 162.451 194.547 162.15 194.508ZM176.927 209.552C174.265 206.492 171.616 203.426 168.964 200.361C167.978 199.223 166.996 198.083 166.014 196.943C165.743 196.628 165.382 196.352 165.283 195.861C180.443 194.661 195.585 193.463 210.852 192.255C210.706 192.625 210.392 192.733 210.125 192.874C204.715 195.735 199.298 198.589 193.894 201.457C188.712 204.208 183.542 206.973 178.369 209.733C177.514 210.189 177.496 210.207 176.927 209.552Z" fill="#035349"/>
<path d="M65.7299 176.479C64.919 175.808 64.1323 175.117 63.3907 174.423C62.9136 173.977 62.9859 173.314 63.5531 172.944C64.1192 172.573 64.9609 172.637 65.4437 173.081C66.1495 173.741 66.8994 174.401 67.6727 175.04L67.9527 175.27C67.9546 175.271 67.9562 175.273 67.9581 175.274C68.4673 175.696 68.4495 176.358 67.9182 176.756C67.3843 177.156 66.5349 177.139 66.0208 176.718L65.7299 176.479ZM71.6743 180.79C71.2161 180.411 71.1746 179.817 71.604 179.404C72.0702 178.956 72.915 178.891 73.4907 179.259C74.4497 179.872 75.455 180.48 76.4783 181.066C77.0802 181.409 77.2132 182.068 76.7779 182.535C76.3439 183.003 75.5053 183.103 74.9049 182.759C73.8421 182.151 72.7989 181.52 71.803 180.883C71.7571 180.854 71.7142 180.822 71.6743 180.79ZM58.9726 169.579C58.9071 169.525 58.847 169.464 58.7962 169.397C58.0997 168.496 57.4534 167.589 56.8739 166.703C56.5352 166.185 56.7949 165.553 57.4536 165.292C58.1127 165.03 58.9211 165.238 59.2607 165.756C59.8109 166.598 60.4264 167.461 61.0899 168.32C61.4742 168.818 61.273 169.463 60.6395 169.761C60.0909 170.019 59.3978 169.931 58.9726 169.579ZM81.1484 185.939C80.7468 185.606 80.6534 185.096 80.961 184.684C81.334 184.185 82.1563 184.02 82.796 184.316C83.8683 184.812 84.9794 185.299 86.0984 185.764C86.7562 186.036 87.0086 186.673 86.6641 187.186C86.3207 187.698 85.5092 187.892 84.8528 187.618C83.6981 187.138 82.5516 186.635 81.4447 186.123C81.3323 186.072 81.2338 186.009 81.1484 185.939ZM54.21 161.379C54.0671 161.261 53.9572 161.116 53.8943 160.949C53.5092 159.92 53.2082 158.892 53.0013 157.893C52.882 157.319 53.3785 156.782 54.11 156.693C54.8416 156.604 55.5317 156.996 55.6498 157.57C55.8394 158.483 56.1151 159.426 56.4692 160.371C56.6779 160.929 56.2709 161.511 55.5597 161.67C55.0609 161.782 54.5449 161.656 54.21 161.379ZM91.443 190.002C91.0858 189.706 90.9631 189.264 91.1763 188.868C91.4621 188.335 92.2486 188.087 92.9322 188.315C94.0833 188.7 95.2649 189.072 96.4449 189.422C97.1367 189.627 97.4934 190.234 97.2351 190.778C96.9773 191.32 96.2051 191.593 95.51 191.387C94.2963 191.027 93.08 190.644 91.8946 190.248C91.7181 190.189 91.5668 190.104 91.443 190.002ZM39.6448 146.179C39.1128 145.739 38.5883 145.293 38.0723 144.842C37.5757 144.408 37.6198 143.744 38.1701 143.358C38.7202 142.973 39.5674 143.011 40.0646 143.446C40.9067 144.181 41.7696 144.901 42.6559 145.607C42.6619 145.612 42.6679 145.617 42.6734 145.622C43.177 146.038 43.1669 146.692 42.6461 147.093C42.1192 147.498 41.2697 147.49 40.748 147.074C40.3768 146.778 40.0085 146.479 39.6448 146.179ZM46.3747 151.15C45.911 150.767 45.8754 150.165 46.3156 149.754C46.7899 149.31 47.636 149.254 48.2056 149.629C49.1164 150.228 50.0495 150.813 50.9784 151.369L51.155 151.474C51.7521 151.829 51.8703 152.484 51.4268 152.947C50.983 153.409 50.1421 153.499 49.5487 153.149L49.3541 153.033C48.3964 152.46 47.4311 151.854 46.4887 151.234C46.4484 151.208 46.4105 151.179 46.3747 151.15ZM33.2271 140.203C33.1906 140.173 33.1563 140.141 33.1237 140.107C32.3511 139.297 31.5878 138.459 30.8564 137.617C30.4382 137.135 30.5949 136.482 31.2069 136.158C31.8189 135.834 32.655 135.962 33.0715 136.443C33.7812 137.26 34.5207 138.072 35.2703 138.858C35.7151 139.324 35.5953 139.982 35.0025 140.327C34.453 140.647 33.6897 140.586 33.2271 140.203ZM26.9426 132.631C26.8677 132.57 26.8007 132.5 26.7448 132.422C26.1092 131.537 25.4889 130.631 24.9023 129.729C24.5654 129.21 24.827 128.578 25.4868 128.318C26.1462 128.058 26.953 128.267 27.2921 128.786C27.8622 129.662 28.4636 130.543 29.0813 131.401C29.4459 131.908 29.2185 132.548 28.5735 132.83C28.0267 133.069 27.3565 132.975 26.9426 132.631ZM55.8262 156.308C55.4414 155.99 55.3356 155.505 55.6069 155.097C55.9489 154.584 56.7592 154.389 57.4169 154.66C58.5469 155.127 59.6725 155.526 60.7614 155.848C61.4564 156.054 61.8121 156.659 61.5558 157.201C61.299 157.744 60.5274 158.019 59.8326 157.814C58.6376 157.462 57.4082 157.025 56.1779 156.518C56.0436 156.462 55.9256 156.391 55.8262 156.308ZM102.301 193.027C101.984 192.765 101.846 192.385 101.979 192.015C102.18 191.457 102.921 191.136 103.634 191.297C104.842 191.571 106.074 191.828 107.295 192.063C108.016 192.201 108.461 192.771 108.289 193.335C108.117 193.898 107.393 194.242 106.672 194.104C105.417 193.862 104.15 193.597 102.906 193.316C102.667 193.262 102.461 193.16 102.301 193.027ZM53.2709 152.474C52.9911 152.242 52.847 151.916 52.9168 151.579C53.1327 150.534 53.4772 149.496 53.9419 148.493C54.1934 147.949 54.9626 147.671 55.6596 147.872C56.3575 148.073 56.7173 148.678 56.465 149.222C56.0579 150.102 55.7551 151.012 55.5655 151.929C55.4481 152.501 54.7591 152.886 54.0267 152.79C53.7273 152.75 53.4653 152.635 53.2709 152.474ZM21.9233 124.505C21.8109 124.412 21.7185 124.302 21.6532 124.178C21.162 123.238 20.6898 122.28 20.2495 121.331C19.9958 120.784 20.3552 120.183 21.0511 119.989C21.7478 119.794 22.5176 120.08 22.7711 120.626C23.1987 121.549 23.658 122.48 24.1358 123.393C24.417 123.932 24.0894 124.544 23.4042 124.76C22.8779 124.927 22.2935 124.811 21.9233 124.505ZM66.8208 158.684C66.594 158.497 66.453 158.244 66.4504 157.966C66.444 157.386 67.0391 156.915 67.7805 156.914L68.0956 156.912C69.1281 156.895 70.1799 156.777 71.2243 156.559C71.9393 156.41 72.6766 156.744 72.8721 157.305C73.068 157.866 72.6469 158.441 71.932 158.591C70.681 158.851 69.4154 158.993 68.1712 159.012L67.8036 159.015C67.4171 159.016 67.0676 158.888 66.8208 158.684ZM113.539 194.997C113.263 194.769 113.119 194.446 113.184 194.112C113.295 193.539 113.979 193.148 114.712 193.24C115.958 193.395 117.217 193.531 118.455 193.642C119.192 193.707 119.725 194.229 119.646 194.806C119.566 195.382 118.905 195.796 118.168 195.729C116.891 195.615 115.593 195.475 114.308 195.314C114.003 195.277 113.737 195.161 113.539 194.997ZM18.2144 115.965C18.0661 115.842 17.9531 115.69 17.8921 115.516C17.5769 114.613 17.2789 113.693 17.0072 112.778L16.957 112.611L18.2495 112.33L19.5561 112.099L18.2495 112.33L19.5709 112.148L19.6217 112.321C19.8849 113.203 20.174 114.099 20.4803 114.976C20.6763 115.537 20.2551 116.112 19.5406 116.261C19.0475 116.364 18.5434 116.237 18.2144 115.965ZM58.1417 144.48C57.6585 144.08 57.6454 143.451 58.1261 143.044C58.4001 142.813 58.6837 142.588 58.9757 142.371C59.6956 141.838 60.4654 141.359 61.2637 140.945C61.88 140.625 62.7143 140.761 63.1254 141.244C63.538 141.729 63.3722 142.38 62.7563 142.699C62.0846 143.048 61.4358 143.453 60.827 143.903C60.5774 144.088 60.3355 144.28 60.1016 144.478C59.6002 144.902 58.7512 144.925 58.2058 144.529C58.1835 144.514 58.1622 144.497 58.1417 144.48ZM15.8693 107.142C15.6835 106.988 15.5546 106.79 15.513 106.565C15.3294 105.564 15.1696 104.548 15.0389 103.546C14.963 102.968 15.4997 102.455 16.2368 102.4C16.9748 102.345 17.6331 102.77 17.708 103.347C17.8355 104.321 17.9904 105.308 18.1691 106.281C18.2745 106.856 17.7658 107.386 17.0321 107.464C16.5859 107.512 16.1586 107.381 15.8693 107.142ZM124.993 195.815C124.759 195.622 124.617 195.361 124.622 195.074C124.632 194.494 125.241 194.034 125.982 194.045C127.252 194.066 128.518 194.061 129.747 194.031C130.487 194.014 131.11 194.469 131.139 195.049C131.167 195.629 130.59 196.114 129.849 196.132C128.576 196.163 127.262 196.168 125.946 196.147C125.571 196.14 125.233 196.014 124.993 195.815ZM77.2066 155.4C76.7014 154.982 76.7143 154.325 77.2386 153.925C78.0861 153.279 78.7719 152.567 79.2747 151.81C79.6158 151.297 80.4255 151.101 81.0834 151.371C81.7414 151.644 81.9988 152.278 81.6572 152.791C81.0228 153.745 80.1687 154.635 79.1175 155.436C78.5888 155.84 77.7392 155.828 77.2201 155.411C77.2157 155.408 77.2111 155.404 77.2066 155.4ZM14.9341 98.1748C14.7107 97.9901 14.5708 97.7426 14.5636 97.4689C14.5381 96.4572 14.5375 95.4344 14.5628 94.4288C14.5773 93.8485 15.1897 93.3908 15.9309 93.4063C16.6712 93.422 17.2596 93.9056 17.2461 94.4848C17.2215 95.4628 17.2217 96.4582 17.2474 97.4421C17.2617 98.0223 16.6734 98.4985 15.9326 98.5058C15.5412 98.5104 15.1853 98.3821 14.9341 98.1748ZM68.2367 140.79C68.0048 140.598 67.8634 140.339 67.8663 140.056C67.8712 139.475 68.477 139.012 69.2176 139.02C70.604 139.036 72.0045 139.219 73.3798 139.563C74.0875 139.741 74.4815 140.333 74.2603 140.885C74.0389 141.437 73.2866 141.742 72.5794 141.564C71.4569 141.283 70.3192 141.134 69.1983 141.122C68.8199 141.117 68.4785 140.99 68.2367 140.79ZM136.457 195.278C136.275 195.127 136.147 194.933 136.103 194.713C135.989 194.138 136.492 193.605 137.223 193.52C138.475 193.375 139.713 193.199 140.903 192.998C141.627 192.875 142.344 193.235 142.506 193.802C142.668 194.37 142.213 194.929 141.49 195.052C140.242 195.263 138.944 195.447 137.635 195.599C137.183 195.651 136.75 195.52 136.457 195.278ZM80.1708 147.205C80.0373 147.095 79.9322 146.961 79.8677 146.807C79.5313 146.005 78.9864 145.238 78.2483 144.529C77.7785 144.077 77.8622 143.416 78.4348 143.051C79.0082 142.686 79.8532 142.76 80.3236 143.209C81.272 144.12 81.9763 145.115 82.4171 146.164C82.649 146.717 82.2661 147.309 81.5622 147.486C81.0532 147.614 80.517 147.491 80.1708 147.205ZM15.3901 89.1902C15.1293 88.9746 14.9852 88.675 15.0253 88.3581C15.1541 87.3489 15.3093 86.3337 15.4864 85.3405C15.5886 84.7669 16.2672 84.3694 17.0009 84.4535C17.7345 84.5377 18.2469 85.0713 18.1446 85.6462C17.9721 86.6121 17.8214 87.6 17.6959 88.5823C17.6219 89.1591 16.9648 89.5767 16.2273 89.5149C15.8948 89.4868 15.6035 89.3666 15.3901 89.1902ZM17.1954 80.3131C16.8977 80.0672 16.7556 79.7151 16.8545 79.3612C17.1296 78.3801 17.4334 77.3867 17.7586 76.4081C17.9446 75.8473 18.6769 75.5141 19.3941 75.6639C20.1103 75.8135 20.542 76.3893 20.3556 76.9505C20.0399 77.9031 19.7442 78.8704 19.4768 79.8251C19.3177 80.3913 18.6027 80.7463 17.8789 80.6179C17.6074 80.5696 17.3733 80.4604 17.1954 80.3131ZM20.2874 71.6627C19.9532 71.3864 19.8208 70.9786 19.9881 70.5955C20.4069 69.639 20.8519 68.6797 21.3112 67.7443C21.5764 67.2043 22.3521 66.938 23.0441 67.1495C23.7378 67.3613 24.0815 67.9709 23.8168 68.5112C23.3697 69.4223 22.9358 70.3573 22.5272 71.2897C22.2873 71.8379 21.5248 72.1263 20.8238 71.9347C20.6134 71.8769 20.4317 71.7818 20.2874 71.6627ZM24.6008 63.3437C24.2291 63.0364 24.1146 62.5722 24.358 62.1691C24.9096 61.2553 25.4874 60.3413 26.0761 59.4522C26.4158 58.9387 27.2257 58.741 27.884 59.0111C28.5429 59.2808 28.8003 59.9169 28.4605 60.4304C27.8869 61.2968 27.3236 62.1875 26.785 63.0789C26.4693 63.6019 25.6698 63.8227 24.9994 63.571C24.8448 63.5132 24.7121 63.4353 24.6008 63.3437ZM30.0617 55.4522C29.652 55.1132 29.5646 54.5905 29.8901 54.1772C30.5651 53.3192 31.2684 52.4614 31.9798 51.6273C32.3898 51.1461 33.2223 51.0196 33.8397 51.3442C34.4583 51.6723 34.6249 52.3222 34.2149 52.803C33.5213 53.6161 32.8354 54.4525 32.177 55.289C31.7897 55.7815 30.9637 55.9318 30.3322 55.6246C30.231 55.5753 30.141 55.5172 30.0617 55.4522ZM36.5997 48.0863C36.149 47.7134 36.1001 47.1307 36.5128 46.7173C37.3058 45.9223 38.1262 45.1303 38.9508 44.3639C39.4266 43.9218 40.2728 43.8682 40.8412 44.244C41.4038 44.626 41.4839 45.2829 41.0078 45.7253C40.2042 46.4718 39.4048 47.2434 38.6319 48.0181C38.1772 48.474 37.3346 48.5521 36.749 48.1927C36.6949 48.1598 36.6459 48.1234 36.5997 48.0863ZM44.1452 41.3372C43.6496 40.9275 43.6505 40.2834 44.1557 39.88C45.0527 39.163 45.9807 38.4487 46.9138 37.7576C47.4506 37.36 48.3004 37.3805 48.8116 37.8035C49.3227 38.2262 49.3037 38.8904 48.7672 39.2876L48.7658 39.2891C47.8567 39.9623 46.9525 40.6579 46.078 41.3565C45.5614 41.7697 44.712 41.774 44.181 41.3661C44.1687 41.3567 44.1566 41.3464 44.1452 41.3372ZM52.6163 35.3014C52.5923 35.2816 52.5699 35.261 52.5473 35.2401C52.0787 34.7876 52.1637 34.1265 52.7372 33.7622C53.7398 33.1267 54.7674 32.4998 55.7917 31.8997C56.3824 31.553 57.2267 31.65 57.6704 32.1155C58.1175 32.581 58.0006 33.239 57.409 33.5858C56.4128 34.1695 55.4118 34.78 54.4353 35.3997C53.8886 35.7458 53.0955 35.6977 52.6163 35.3014ZM61.922 30.069C61.8627 30.0204 61.8089 29.9666 61.7614 29.9081C61.3625 29.417 61.5447 28.7683 62.1689 28.4593C63.2618 27.9188 64.3771 27.3904 65.4837 26.8895C66.1217 26.5998 66.9464 26.7723 67.319 27.2756C67.6939 27.7786 67.4791 28.4206 66.8391 28.7106C65.7631 29.1981 64.6778 29.7118 63.615 30.238C63.064 30.5104 62.3553 30.4279 61.922 30.069ZM71.9535 25.7325C71.8592 25.6549 71.7782 25.565 71.7162 25.4634C71.3937 24.9389 71.6737 24.3122 72.3403 24.0635C73.4906 23.635 74.6786 23.2135 75.8705 22.8118C76.5499 22.5826 77.3426 22.8288 77.6378 23.3627C77.9351 23.8961 77.6262 24.5138 76.9472 24.7426C75.7853 25.1343 74.6285 25.5446 73.5082 25.9624C72.9707 26.1629 72.3448 26.0564 71.9535 25.7325ZM82.5711 22.3316C82.4443 22.2271 82.3431 22.1003 82.2779 21.9559C82.031 21.4072 82.3968 20.809 83.0953 20.6194C84.3084 20.2901 85.5482 19.9737 86.7802 19.6781C87.4868 19.5084 88.2402 19.8204 88.4618 20.376C88.6837 20.9313 88.2903 21.5183 87.5827 21.6878C86.3818 21.9758 85.1734 22.2846 83.9908 22.6057C83.4761 22.7451 82.9248 22.6239 82.5711 22.3316ZM93.6071 19.8607C93.4467 19.7285 93.3289 19.5625 93.2726 19.3726C93.1043 18.8065 93.5528 18.2444 94.2745 18.1167C95.5461 17.8921 96.8264 17.6863 98.0804 17.5055C98.8087 17.4 99.512 17.7786 99.6509 18.3482C99.7904 18.9189 99.3137 19.4667 98.5858 19.5719C97.3663 19.7483 96.1207 19.9483 94.8838 20.167C94.4042 20.2519 93.9238 20.1228 93.6071 19.8607ZM104.948 18.4176C104.75 18.2541 104.617 18.0405 104.585 17.8001C104.509 17.2226 105.044 16.7091 105.781 16.6529C107.084 16.554 108.39 16.4786 109.662 16.4291C110.402 16.4001 111.036 16.8463 111.078 17.4261C111.121 18.0057 110.555 18.4991 109.815 18.5279C108.584 18.5758 107.321 18.6489 106.059 18.7446C105.629 18.7776 105.225 18.6474 104.948 18.4176ZM116.427 18.2074C116.183 18.0052 116.04 17.7284 116.058 17.4294C116.094 16.8502 116.723 16.4066 117.463 16.4386C118.779 16.496 120.092 16.583 121.364 16.6979C122.101 16.7636 122.635 17.285 122.554 17.8619C122.475 18.438 121.813 18.8519 121.076 18.7854C119.857 18.6758 118.598 18.5921 117.334 18.5367C116.976 18.5207 116.657 18.3969 116.427 18.2074ZM127.797 19.5353C127.491 19.2824 127.35 18.9174 127.464 18.5559C127.642 17.9938 128.369 17.654 129.089 17.797C130.372 18.0524 131.643 18.345 132.865 18.6659C133.568 18.8503 133.952 19.4464 133.721 19.9968C133.49 20.5466 132.732 20.8429 132.027 20.6576C130.87 20.3534 129.664 20.0757 128.445 19.8337C128.188 19.7824 127.967 19.6762 127.797 19.5353Z" fill="#035349"/>
</svg>
