<svg width="64" height="63" viewBox="0 0 64 63" fill="none" xmlns="http://www.w3.org/2000/svg">
<path d="M45.0512 24.9227C48.9734 21.9661 52.2186 17.7937 53.4804 13.7703L54.9131 9.2026L50.2695 10.4548C46.1793 11.5577 41.8651 14.6263 38.7471 18.4133C40.1892 13.7418 40.3621 8.48772 39.0096 4.51285L37.4745 2.05857e-05L34.438 3.72136C31.7634 6.9992 30.0687 11.9896 29.7711 16.8595C28.1824 12.2576 25.2169 7.92858 21.7668 5.52034L17.8502 2.78626L17.5805 7.55522C17.343 11.756 18.9151 16.7623 21.5523 20.8545C17.5393 18.0799 12.568 16.3296 8.33816 16.408L3.53606 16.4969L6.13622 20.492C8.42657 24.011 12.665 27.1208 17.2293 28.8726C12.3252 28.9852 7.24689 30.4822 3.85285 33.0171L-0.000238906 35.895L4.47653 37.5902C8.41985 39.0835 13.7055 39.109 18.4537 37.8512C14.5315 40.8079 11.2861 44.98 10.0244 49.0036L8.59191 53.5713L13.2352 52.3191C17.3254 51.2164 21.6396 48.1477 24.7577 44.3606C23.3157 49.0322 23.1427 54.2861 24.4951 58.261L26.0303 62.7736L29.0668 59.0527C31.7414 55.7747 33.4362 50.7843 33.7334 45.9145C35.3222 50.5164 38.2878 54.8453 41.7378 57.2536L45.6545 59.9878L45.9239 55.2188C46.1616 51.018 44.5893 46.0118 41.9523 41.9194C45.9654 44.6941 50.9367 46.4446 55.1665 46.3661L59.9682 46.277L57.3682 42.282C55.0777 38.7631 50.8394 35.6535 46.2752 33.9013C51.1794 33.7889 56.2575 32.2918 59.6516 29.757L63.5046 26.8792L59.028 25.1839C55.0849 23.6905 49.7992 23.6649 45.0512 24.9227Z" fill="#FFCC31"/>
</svg>
