<svg width="60" height="60" viewBox="0 0 60 60" fill="none" xmlns="http://www.w3.org/2000/svg">
<g clip-path="url(#clip0_888_3698)">
<path d="M19.3947 3.40012C9.17603 6.1543 9.37525 6.08398 9.37527 6.79883C9.37529 7.51367 9.21123 7.45508 18.8089 10.0212C23.7777 11.357 28.1489 12.5288 28.5356 12.6225C28.9809 12.7397 29.4965 12.7749 29.9418 12.7397C30.4457 12.6928 44.6956 8.97758 47.1448 8.25095C47.3323 8.19235 47.3441 8.39157 47.3441 11.2392L47.3442 14.2744L46.9458 14.5322C46.1841 14.9893 45.8326 16.2549 46.2193 17.1455C46.3013 17.3564 46.5357 17.6728 46.7232 17.8486L47.0748 18.1767L46.6529 19.1377L46.2311 20.0986L46.196 22.3018C46.1375 25.4775 46.1726 25.5479 48.2586 25.5478C48.9851 25.5478 49.6883 25.4892 49.8172 25.4306C50.2976 25.161 50.3914 24.7391 50.3913 22.6532C50.3913 20.5321 50.2858 19.8876 49.7584 18.7509L49.4654 18.1064L49.7467 17.8134C50.6373 16.8876 50.5786 15.5048 49.6059 14.661L49.102 14.204L49.1019 10.9696L49.1019 7.73527L49.3831 7.61808C49.9222 7.41884 50.0979 6.68056 49.7229 6.22354C49.4299 5.8837 31.0665 0.938877 29.8243 0.868597C29.0509 0.821743 28.4298 0.974103 19.3947 3.40012Z" fill="#FFEE02"/>
<path d="M17.2269 14.8838L17.227 18.622L18.1997 19.1494C20.1216 20.1923 23.2505 21.2469 25.3716 21.5632C26.8951 21.7858 26.7779 21.7155 26.942 22.4538L27.0943 23.1218L22.8405 27.3875C18.7039 31.5243 18.5633 31.6533 18.2235 31.5595C18.036 31.5126 17.4969 31.4658 17.0516 31.4658C16.3602 31.4658 16.1375 31.5244 15.6805 31.794C13.5711 33.0245 13.7705 36.1651 16.0088 37.1025C16.5361 37.3252 17.708 37.3134 18.2822 37.079C18.7041 36.915 18.7861 36.9033 18.9619 37.0556C19.0674 37.1493 20.3447 38.2157 21.7979 39.4344C23.251 40.6414 24.505 41.6961 24.5753 41.7664C24.6925 41.8718 24.6925 42.0476 24.587 42.5633C24.4699 43.114 24.4816 43.3367 24.6339 43.8758L24.8097 44.532L20.9895 48.1883C18.8919 50.1923 16.9467 52.0439 16.6771 52.3017L16.185 52.7705L15.7162 52.5713C15.4232 52.4541 14.8959 52.3838 14.3685 52.3838C13.642 52.3839 13.4076 52.4425 12.7865 52.7472C10.349 53.966 10.3726 57.5168 12.8218 58.8058C13.6187 59.2159 15.0015 59.251 15.8336 58.876C17.3335 58.1845 18.1655 56.3095 17.6499 54.7392C17.5444 54.4228 17.4623 54.1298 17.4623 54.1064C17.4623 54.0713 22.3372 49.3836 25.384 46.5007L26.0988 45.821L26.5207 45.9968C27.5754 46.4304 29.0871 46.067 29.8723 45.1764C30.423 44.5436 30.6105 44.0279 30.6105 43.1139C30.6104 41.274 29.1456 39.9498 27.294 40.114C26.9307 40.1491 26.4737 40.2546 26.2745 40.3601L25.9112 40.5476L22.9463 38.0633C21.3173 36.704 19.9697 35.579 19.9462 35.5673C19.9345 35.5556 19.9696 35.2743 20.04 34.9462C20.1454 34.4774 20.1337 34.2079 19.993 33.6688L19.8172 32.9892L24.1648 28.6531L28.5006 24.3171L28.4303 25.196C28.2077 27.9967 28.0906 28.8288 27.9265 28.8288C27.6101 28.8288 26.8718 29.2858 26.5086 29.7077C25.9812 30.2937 25.782 30.8562 25.7821 31.6882C25.7821 33.0945 26.7079 34.278 28.0321 34.5593C28.8642 34.7467 29.5204 34.6178 30.3056 34.149L30.9735 33.7506L37.7236 36.9496L44.4737 40.1369L44.544 40.8987C44.5792 41.3205 44.6964 41.8244 44.8019 42.0354L45.0011 42.4104L41.0051 47.4847C38.8021 50.2738 36.9389 52.5356 36.8685 52.5121C36.7982 52.477 36.3295 52.4418 35.8256 52.4067C34.7006 52.3481 34.056 52.5591 33.3061 53.2505C32.5795 53.9185 32.3217 54.4927 32.2514 55.5591C32.2046 56.3326 32.2397 56.5435 32.4859 57.0826C32.8726 57.938 33.2593 58.3599 34.0093 58.77C34.5601 59.0864 34.7476 59.1216 35.6265 59.1216C36.5054 59.1215 36.6929 59.0864 37.2437 58.7699C37.9937 58.3598 38.3804 57.9379 38.7671 57.0824C39.0132 56.5433 39.0483 56.3324 39.0014 55.559C38.9663 54.9496 38.8608 54.5043 38.685 54.1644C38.474 53.7426 38.4506 53.6371 38.5795 53.4613C38.6615 53.3441 40.4662 51.0472 42.5872 48.3636C46.255 43.7111 46.4542 43.4885 46.7472 43.5705C46.9113 43.6173 47.3566 43.6408 47.7199 43.6408C48.5636 43.6173 49.3253 43.2657 49.8527 42.6329C51.5753 40.6289 50.2041 37.5821 47.5791 37.5822C46.7353 37.5822 46.0439 37.8166 45.5869 38.2619L45.2822 38.5549L38.497 35.3324L31.7 32.1217L31.618 31.4068C31.5125 30.4928 31.0906 29.7428 30.3875 29.2623L29.8601 28.8873L29.9304 28.1842C29.9655 27.7975 30.0475 26.8365 30.1296 26.0514L30.2701 24.6217L30.9264 24.2936C31.6998 23.9068 32.2857 23.1334 32.4146 22.3248C32.4849 21.8326 32.5084 21.7974 32.9185 21.7388C36.1529 21.2231 38.8833 20.3558 41.0864 19.1722L42.0122 18.6565L42.0472 14.8948C42.0706 11.9065 42.0471 11.1448 41.9299 11.1917C41.8479 11.2269 39.305 11.9183 36.2698 12.7387C31.0081 14.1568 30.7152 14.2272 29.6488 14.2272C28.5003 14.2272 28.266 14.1686 17.6135 11.2509L17.2268 11.1572L17.2269 14.8838ZM30.3638 21.1998C30.563 21.4107 30.7037 21.6686 30.7037 21.8561C30.7037 22.2897 30.1178 22.8522 29.6607 22.8522C29.1217 22.8522 28.6646 22.3952 28.6646 21.8561C28.6646 20.9421 29.7075 20.5436 30.3638 21.1998ZM29.5672 30.9381C30.118 31.5475 29.9422 32.3561 29.1688 32.7663C28.079 33.3288 26.9656 31.7585 27.868 30.9147C28.0437 30.7507 28.2664 30.5866 28.3601 30.5514C28.7 30.4108 29.2391 30.5866 29.5672 30.9381ZM17.9423 33.4697C18.4579 33.9384 18.411 34.829 17.8486 35.2744C17.5087 35.5322 16.8056 35.5791 16.5126 35.3564C15.8329 34.8291 15.7977 33.9971 16.4305 33.458C16.7352 33.2002 16.8876 33.1533 17.2626 33.2002C17.5087 33.2353 17.8133 33.3525 17.9423 33.4697ZM48.2823 39.5978C48.9737 40.0782 49.0206 41.004 48.3995 41.5314C47.919 41.9298 47.6495 41.9884 47.169 41.8361C46.1612 41.508 45.9737 39.9728 46.8995 39.5275C47.5088 39.2228 47.7666 39.2462 48.2823 39.5978ZM28.3487 42.1413C29.0167 42.7038 29.0167 43.5475 28.3371 44.1217C27.716 44.6491 26.8019 44.4265 26.4386 43.653C25.8644 42.446 27.3409 41.2858 28.3487 42.1413ZM14.9662 54.2002C15.2944 54.294 15.9155 54.9971 16.0092 55.3721C16.2905 56.4971 15.1304 57.6573 14.0054 57.376C13.5601 57.2589 12.9155 56.6261 12.7866 56.1808C12.646 55.6886 12.7983 55.0792 13.1616 54.669C13.4311 54.3526 14.2397 54.0127 14.5326 54.0831C14.6264 54.1065 14.8256 54.1534 14.9662 54.2002ZM36.517 54.3872C36.9506 54.6567 37.2671 55.2426 37.2671 55.8168C37.2671 56.6723 36.3413 57.4809 35.4741 57.3755C33.6343 57.1529 33.4702 54.6685 35.2631 54.1411C35.6498 54.0239 36.0483 54.1059 36.517 54.3872Z" fill="#DFD000"/>
<path d="M35.9311 43.2675C35.2749 43.8769 34.6889 44.6738 34.6889 44.9785C34.689 45.5176 34.9937 45.8223 35.521 45.8222C35.9312 45.8222 36.0483 45.7519 36.6577 45.1074C37.4428 44.2753 37.56 44.0644 37.4545 43.6659C37.2905 42.9863 36.4819 42.7753 35.9311 43.2675Z" fill="#DFD000"/>
<path d="M32.3803 47.1679C31.8998 47.5078 30.8217 48.8789 30.8218 49.1484C30.8218 49.6055 31.2554 50.0391 31.689 50.039C32.0288 50.039 32.2046 49.9101 32.9194 49.1601C33.8686 48.164 33.9741 47.789 33.4584 47.2851C33.1303 46.9453 32.7436 46.9101 32.3803 47.1679Z" fill="#DFD000"/>
<path d="M28.0564 51.8223C26.7439 53.1934 26.5916 53.5567 27.1307 54.084C27.6346 54.5996 27.9627 54.4941 28.9705 53.4394C29.7557 52.6308 29.8846 52.4433 29.8845 52.0917C29.8845 51.5644 29.5447 51.2128 29.0291 51.2128C28.7244 51.2129 28.5369 51.33 28.0564 51.8223Z" fill="#DFD000"/>
<path d="M24.0721 56.1594C22.6425 57.6594 22.4901 58.011 23.0292 58.5383C23.5566 59.0773 23.8847 58.9484 24.9511 57.8234C25.8065 56.921 25.9003 56.7804 25.9003 56.3702C25.9002 55.8429 25.5955 55.5499 25.0213 55.55C24.7401 55.55 24.5291 55.6906 24.0721 56.1594Z" fill="#DFD000"/>
</g>
<defs>
<clipPath id="clip0_888_3698">
<rect width="60" height="60" fill="white" transform="translate(0 0.00195312)"/>
</clipPath>
</defs>
</svg>
