<svg width="60" height="60" viewBox="0 0 60 60" fill="none" xmlns="http://www.w3.org/2000/svg">
<path d="M26.3091 2.06375C15.1177 3.58759 6.01252 11.4629 2.884 22.3263C2.09894 25.0802 1.93492 26.381 1.93505 30.0021C1.93515 32.8732 1.97032 33.3888 2.21646 34.7482C4.3497 46.6309 13.3735 55.6541 25.2563 57.7864C26.6157 58.0325 27.1313 58.0676 30.0024 58.0675C32.8735 58.0674 33.3892 58.0323 34.7485 57.7861C46.5961 55.6646 55.6895 46.594 57.7751 34.8048C58.1031 32.965 58.2319 28.7931 58.0092 26.9415C57.7513 24.6564 57.1887 22.3009 56.4503 20.3322C56.2628 19.8166 56.0753 19.3713 56.0519 19.3479C56.0284 19.3127 55.5245 19.7698 54.9269 20.3557C52.9699 22.2659 52.5832 22.3949 48.3996 22.4653C46.6887 22.5005 45.259 22.5592 45.2121 22.5943C45.1653 22.6412 45.2942 23.0396 45.4817 23.4967C46.349 25.4888 46.7592 27.5982 46.7593 29.9419C46.7594 32.6607 46.2907 34.7935 45.1892 37.0904C44.4393 38.6608 43.7245 39.7624 42.6815 40.9811C37.7716 46.6532 29.6037 48.3996 22.9121 45.1889C21.3418 44.4389 20.2402 43.7241 19.0214 42.6812C16.0682 40.1149 14.0407 36.4939 13.4195 32.6384C13.1968 31.2908 13.1967 28.7127 13.4193 27.365C13.9114 24.3064 15.2824 21.3884 17.3214 19.0211C19.8642 16.0913 23.4032 14.099 27.3056 13.4075C28.6063 13.1848 31.3954 13.1847 32.6962 13.4073C33.9735 13.6299 35.4618 14.0634 36.5048 14.5204C36.9619 14.7079 37.3603 14.8368 37.4072 14.7899C37.4423 14.743 37.5009 13.3134 37.536 11.6024C37.6061 7.41882 37.735 7.0321 39.6451 5.075C40.231 4.47733 40.688 3.9734 40.6529 3.94997C40.6294 3.92653 40.1841 3.73905 39.6685 3.55156C37.7232 2.82507 35.2622 2.23922 33.1059 1.9932C31.6411 1.82919 27.7153 1.86449 26.3091 2.06375Z" fill="#21962C"/>
<path d="M47.872 2.00532C47.5087 2.20455 41.6027 8.11101 41.4152 8.46258C41.2863 8.7204 41.2512 9.48212 41.2513 12.3884L41.2514 15.9977L34.8532 22.3847C31.3377 25.9004 28.3847 28.9123 28.2909 29.088C28.1972 29.2638 28.1269 29.6857 28.1269 30.0255C28.1269 31.1623 28.8418 31.8771 29.9785 31.877C30.3184 31.877 30.7402 31.8067 30.916 31.713C31.0918 31.6192 34.1034 28.666 37.6189 25.1502L44.0054 18.7516L47.6148 18.7514C50.521 18.7513 51.2827 18.7161 51.5405 18.5872C51.9155 18.3763 57.8099 12.4698 57.9974 12.1065C58.0677 11.9659 58.1262 11.5675 58.1262 11.2276C58.1262 10.4893 57.8449 9.95028 57.2824 9.61046C56.9191 9.38782 56.6848 9.37611 53.7668 9.37621L50.6262 9.37632L50.6261 6.23569C50.6259 3.31773 50.6142 3.08335 50.3916 2.72008C50.04 2.14587 49.5126 1.87636 48.7509 1.87639C48.3993 1.8764 48.0009 1.93501 47.872 2.00532Z" fill="#77C47E"/>
<path d="M27.3062 17.1106C22.9586 18.0365 19.4782 20.9312 17.8026 24.9977C16.5488 28.0446 16.5489 31.9586 17.8029 35.0055C19.4906 39.0953 22.9829 41.9897 27.3657 42.9036C28.8306 43.2082 31.1626 43.2081 32.6977 42.8917C37.8422 41.8368 41.8148 37.864 42.9044 32.6374C43.1739 31.3249 43.1973 28.8874 42.9511 27.5866C42.7519 26.5554 42.4471 25.5476 42.3299 25.5476C42.2831 25.5476 40.2675 27.5281 37.8535 29.9423C35.4396 32.3681 33.2131 34.5127 32.8967 34.7003C31.2327 35.7784 28.7717 35.7785 27.0842 34.7005C26.3928 34.2552 25.5841 33.4115 25.1739 32.6966C24.2247 31.056 24.2715 28.6888 25.3027 27.1068C25.4901 26.7904 27.6346 24.5637 30.0603 22.1496C32.4743 19.7354 34.4547 17.7197 34.4547 17.6729C34.4547 17.5557 33.4468 17.251 32.4156 17.0518C31.1382 16.8058 28.5835 16.8293 27.3062 17.1106Z" fill="#77C47E"/>
</svg>
