<svg width="60" height="60" viewBox="0 0 60 60" fill="none" xmlns="http://www.w3.org/2000/svg">
<g clip-path="url(#clip0_888_3734)">
<path d="M33.2228 7.3724C30.8087 8.07559 28.9338 9.99751 28.3128 12.3882C28.2073 12.7866 28.1253 13.5835 28.1253 14.1811C28.1253 14.7788 28.2074 15.5757 28.3128 15.9741C28.934 18.3881 30.9497 20.4037 33.352 21.0247C34.2778 21.2591 36.0239 21.2708 36.9497 21.0246C39.3872 20.3918 41.3676 18.4112 42.0003 15.9737C42.2464 15.0597 42.2464 13.3018 42.0003 12.3878C41.3674 9.95031 39.3869 7.96989 36.9493 7.33714C35.9884 7.09107 34.1368 7.10284 33.2228 7.3724Z" fill="#96BFD7"/>
<path d="M8.6134 12.0618C6.19936 12.765 4.32441 14.687 3.70338 17.0776C3.45731 17.9917 3.45736 19.7495 3.70347 20.6635C4.32463 23.0776 6.34031 25.0932 8.74267 25.7142C9.66846 25.9485 11.4146 25.9602 12.3403 25.7141C14.7778 25.0812 16.7582 23.1007 17.391 20.6632C17.637 19.7491 17.637 17.9913 17.3909 17.0772C16.758 14.6398 14.7775 12.6593 12.34 12.0266C11.379 11.7805 9.52746 11.7923 8.6134 12.0618Z" fill="#008AD9"/>
<path d="M50.2271 19.0905C50.0514 19.2077 49.7935 19.4655 49.6764 19.6413C49.3834 20.0983 49.3717 21.153 49.6764 21.5983C50.0983 22.2545 50.3092 22.3248 52.1257 22.3834L53.7897 22.4419L44.8837 31.3484L35.9777 40.2549L33.669 37.9581C32.3917 36.6925 31.2198 35.5675 31.0557 35.4621C30.8799 35.3449 30.5283 35.2746 30.1065 35.2746C29.5674 35.2746 29.3682 35.3332 28.9932 35.6145C28.7471 35.802 25.5363 38.9661 21.8567 42.6459L15.1772 49.3375L8.1459 49.3377C1.4545 49.3379 1.10293 49.3496 0.774815 49.5605C0.235762 49.9238 0.00139884 50.3691 0.00141815 51.0957C0.00143745 51.8223 0.235824 52.2676 0.774896 52.6308C1.10303 52.8418 1.46631 52.8535 8.90771 52.8533C15.9272 52.8531 16.7358 52.8296 16.9936 52.6656C17.1577 52.5601 20.1693 49.5952 23.6966 46.0677L30.1183 39.6691L32.427 41.9659C33.7043 43.2315 34.8762 44.3565 35.0403 44.462C35.427 44.708 36.5286 44.708 36.9153 44.4619C37.0794 44.3564 41.5441 39.9383 46.8525 34.6413L56.4851 25.02L56.4851 26.6606C56.4852 28.0669 56.5203 28.3481 56.7079 28.6411C57.0711 29.1801 57.5165 29.4145 58.243 29.4145C58.9696 29.4144 59.4149 29.1801 59.7782 28.641C59.9891 28.3246 60.0008 28.0199 60.0007 24.141C60.0006 20.2621 59.9889 19.9574 59.7779 19.641C59.6607 19.4652 59.4029 19.2074 59.2271 19.0902C58.9107 18.8793 58.606 18.8676 54.7271 18.8677C50.8482 18.8678 50.5435 18.8795 50.2271 19.0905Z" fill="#008AD9"/>
<path d="M28.2668 23.7069C26.5793 25.1484 25.4426 26.9883 24.8919 29.1445C24.6341 30.1523 24.6107 30.5039 24.6108 32.7305L24.6108 35.1914L25.8999 33.9375C26.8842 32.9765 27.3647 32.6015 27.974 32.3085C28.724 31.9569 28.8412 31.9335 30.1186 31.9334C31.3959 31.9334 31.5014 31.9568 32.2865 32.3201C32.9428 32.6365 33.3764 32.9763 34.5366 34.1365L35.978 35.5544L40.2787 31.2652L44.5794 26.9643L44.3333 26.4604C43.9465 25.6518 42.8566 24.3511 41.9777 23.6363C41.5324 23.273 41.1222 22.9683 41.0636 22.9683C41.005 22.9683 40.4894 23.2027 39.9035 23.4957C39.3293 23.7887 38.3332 24.152 37.6887 24.3161C35.2981 24.9255 32.673 24.6209 30.4113 23.4959C29.8371 23.203 29.3097 22.9686 29.2394 22.9686C29.1808 22.9686 28.7355 23.2968 28.2668 23.7069Z" fill="#96BFD7"/>
<path d="M3.65676 28.3964C1.9693 29.8378 0.832632 31.6777 0.281908 33.834C0.000687346 34.9355 0.000689525 35.0176 0.00083211 40.3848L0.000976562 45.8223L7.00879 45.8221L14.0049 45.8219L17.5556 42.271L21.0945 38.7319L21.0945 36.8451C21.0944 35.228 21.0476 34.7944 20.8132 33.8334C20.4381 32.3686 19.7467 30.9741 18.8209 29.8257C18.1412 28.9702 16.6997 27.6578 16.4536 27.6578C16.395 27.6578 15.8794 27.8922 15.2935 28.1851C14.7193 28.4781 13.7232 28.8414 13.0787 29.0055C10.688 29.615 8.06304 29.3103 5.80129 28.1854C5.22706 27.8924 4.69971 27.6581 4.6294 27.6581C4.57081 27.6581 4.1255 27.9862 3.65676 28.3964Z" fill="#008AD9"/>
</g>
<defs>
<clipPath id="clip0_888_3734">
<rect width="60" height="60" fill="white" transform="translate(0 0.00195312)"/>
</clipPath>
</defs>
</svg>
