<svg width="40" height="40" viewBox="0 0 40 40" fill="none" xmlns="http://www.w3.org/2000/svg">
<path d="M17.5392 1.37638C10.0783 2.39227 4.00818 7.64248 1.9225 14.8847C1.39913 16.7207 1.28978 17.5879 1.28987 20.002C1.28994 21.916 1.31339 22.2598 1.47748 23.166C2.89963 31.0878 8.91547 37.1032 16.8374 38.5248C17.7437 38.6889 18.0874 38.7123 20.0015 38.7122C21.9155 38.7122 22.2593 38.6887 23.1655 38.5246C31.0639 37.1103 37.1262 31.0632 38.5165 23.2038C38.7353 21.9772 38.8211 19.1959 38.6726 17.9616C38.5007 16.4381 38.1256 14.8678 37.6334 13.5554C37.5084 13.2116 37.3834 12.9147 37.3677 12.8991C37.3521 12.8757 37.0162 13.1804 36.6178 13.571C35.3131 14.8445 35.0553 14.9305 32.2663 14.9774C31.1256 15.0009 30.1725 15.04 30.1413 15.0634C30.11 15.0947 30.196 15.3603 30.321 15.665C30.8991 16.9931 31.1726 18.3993 31.1727 19.9618C31.1727 21.7743 30.8603 23.1962 30.126 24.7275C29.626 25.7744 29.1495 26.5088 28.4542 27.3213C25.1809 31.1027 19.7356 32.2669 15.2746 30.1265C14.2277 29.6265 13.4933 29.15 12.6808 28.4547C10.712 26.7438 9.36033 24.3298 8.94618 21.7595C8.79771 20.8611 8.79765 19.1423 8.94606 18.2439C9.27411 16.2048 10.1881 14.2595 11.5474 12.6813C13.2427 10.7281 15.602 9.39989 18.2035 8.93886C19.0707 8.79039 20.9301 8.79032 21.7973 8.93873C22.6489 9.08714 23.6411 9.37617 24.3364 9.68083C24.6411 9.80582 24.9067 9.89175 24.9379 9.8605C24.9614 9.82925 25.0004 8.87612 25.0238 7.73549C25.0706 4.94643 25.1565 4.68861 26.4299 3.38388C26.8205 2.98543 27.1252 2.64948 27.1018 2.63386C27.0861 2.61823 26.7893 2.49324 26.4455 2.36826C25.1486 1.88393 23.508 1.49336 22.0705 1.32935C21.0939 1.22001 18.4767 1.24354 17.5392 1.37638Z" fill="#1C1A1E"/>
<path d="M31.9143 1.33743C31.6722 1.47025 27.7348 5.40789 27.6098 5.64227C27.5239 5.81414 27.5005 6.32196 27.5005 8.25946L27.5006 10.6657L23.2351 14.9237C20.8915 17.2675 18.9228 19.2754 18.8603 19.3926C18.7978 19.5098 18.7509 19.791 18.7509 20.0176C18.751 20.7754 19.2275 21.2519 19.9854 21.2519C20.2119 21.2519 20.4932 21.205 20.6103 21.1425C20.7275 21.08 22.7353 19.1112 25.0789 16.7674L29.3366 12.5016L31.7429 12.5015C33.6804 12.5014 34.1882 12.478 34.36 12.392C34.61 12.2514 38.5396 8.31376 38.6646 8.07156C38.7114 7.97781 38.7505 7.71219 38.7505 7.48562C38.7505 6.99344 38.563 6.63407 38.188 6.40752C37.9458 6.25909 37.7895 6.25128 35.8442 6.25135L33.7504 6.25143L33.7504 4.15768C33.7503 2.21236 33.7425 2.05611 33.594 1.81393C33.3597 1.43113 33.0081 1.25145 32.5003 1.25147C32.2659 1.25148 32.0003 1.29055 31.9143 1.33743Z" fill="#1C1A1E"/>
<path d="M18.204 11.407C15.3056 12.0243 12.9853 13.954 11.8682 16.665C11.0324 18.6963 11.0325 21.3057 11.8685 23.3369C12.9936 26.0634 15.3218 27.993 18.2436 28.6023C19.2202 28.8054 20.7749 28.8053 21.7983 28.5943C25.228 27.8911 27.8763 25.2426 28.6028 21.7582C28.7824 20.8832 28.798 19.2582 28.6339 18.391C28.5011 17.7035 28.2979 17.0316 28.2198 17.0316C28.1886 17.0316 26.8448 18.352 25.2355 19.9614C23.6262 21.5787 22.1419 23.0084 21.931 23.1334C20.8216 23.8522 19.181 23.8522 18.056 23.1335C17.595 22.8367 17.0559 22.2742 16.7825 21.7976C16.1496 20.7039 16.1808 19.1258 16.8683 18.0711C16.9933 17.8601 18.4229 16.3757 20.04 14.7663C21.6494 13.1568 22.9696 11.8131 22.9696 11.7818C22.9696 11.7037 22.2977 11.5006 21.6102 11.3678C20.7587 11.2038 19.0555 11.2194 18.204 11.407Z" fill="#1C1A1E"/>
</svg>
