<svg width="40" height="40" viewBox="0 0 40 40" fill="none" xmlns="http://www.w3.org/2000/svg">
<g clip-path="url(#clip0_1112_1278)">
<path d="M18.7503 0.148357C17.305 0.617145 16.2581 1.67967 15.8285 3.11718C15.6644 3.67969 15.6645 4.91406 15.8285 5.47656C16.2504 6.8828 17.2583 7.93746 18.6645 8.41398C19.063 8.54679 19.3599 8.59365 19.9692 8.59364C21.2583 8.5936 22.188 8.21858 23.0551 7.35137C23.9145 6.49197 24.2973 5.55446 24.2972 4.29665C24.2972 3.03883 23.9144 2.10134 23.055 1.24199C22.5159 0.702944 21.9143 0.343585 21.18 0.124855C20.594 -0.0470049 19.3206 -0.0391585 18.7503 0.148357Z" fill="#1C1A1E"/>
<path d="M15.1175 9.58749C14.1409 10.3922 13.1957 11.8688 12.8051 13.2047C12.641 13.7438 12.6254 13.9938 12.5942 16.2516C12.563 18.9938 12.5708 19.0563 13.0865 19.3766C13.3287 19.525 13.4849 19.5328 16.0865 19.5328L18.8287 19.5327L18.8288 22.9311L18.8289 26.3296L16.0789 28.525C14.5633 29.7359 13.2821 30.7594 13.2352 30.7985C13.1727 30.8375 12.9774 30.6969 12.6649 30.3922C11.868 29.611 11.8914 29.6188 11.3524 30.0329C9.08681 31.7751 5.75868 31.7752 3.49301 30.0331C3.03988 29.6816 3.03207 29.6816 2.82895 29.8144C2.14146 30.2675 1.07118 31.6191 0.625895 32.6113C0.0868636 33.791 0.0556196 34.0176 0.0166289 36.7207C-0.0145482 39.4629 -0.0067341 39.5254 0.508899 39.8457C0.758904 40.0019 0.922966 40.0019 7.42297 40.0018C13.923 40.0016 14.087 40.0016 14.337 39.8453C14.8526 39.525 14.8605 39.4625 14.8291 36.7203C14.7978 34.3609 14.79 34.2359 14.6025 33.6266L14.4072 32.9938L17.204 30.7515L20.0008 28.517L22.7977 30.7513L25.5947 32.9935L25.3994 33.6263C25.2119 34.2357 25.2041 34.3607 25.1729 36.72C25.1417 39.4622 25.1495 39.5247 25.6651 39.845C25.9152 40.0013 26.0792 40.0013 32.5792 40.0011C39.0792 40.0009 39.2433 40.0009 39.4933 39.8447C40.0089 39.5243 40.0167 39.4618 39.9854 36.7196C39.9462 34.0165 39.915 33.79 39.3759 32.6103C38.9306 31.6181 37.8602 30.2666 37.1727 29.8135C36.9696 29.6807 36.9618 29.6807 36.5086 30.0322C34.2431 31.7745 30.9149 31.7746 28.6493 30.0324C28.1102 29.6184 28.1336 29.6106 27.3368 30.3919C27.0243 30.6965 26.829 30.8372 26.7665 30.7981C26.7196 30.7591 25.4383 29.7357 23.9305 28.5248L21.1726 26.3295L21.1725 22.9311L21.1724 19.5326L23.9146 19.5326C27.7427 19.5325 27.4459 19.8059 27.4067 16.2512C27.3676 13.5481 27.3363 13.3215 26.7972 12.1419C26.3519 11.1497 25.2815 9.79816 24.594 9.34505C24.3909 9.21224 24.3831 9.21224 23.93 9.56382C21.6644 11.3061 18.3363 11.3062 16.0706 9.56403C15.8284 9.37653 15.6096 9.22029 15.594 9.22029C15.5784 9.22029 15.3675 9.38436 15.1175 9.58749Z" fill="#1C1A1E"/>
<path d="M6.17214 20.6203C4.72684 21.0891 3.67999 22.1516 3.25034 23.5892C3.0863 24.1517 3.08633 25.386 3.25041 25.9485C3.67232 27.3548 4.68016 28.4094 6.08642 28.8859C6.73486 29.1047 7.95362 29.1359 8.60205 28.9406C10.0552 28.503 11.1567 27.4014 11.5942 25.9483C11.7582 25.3858 11.7582 24.1514 11.5941 23.5889C11.1566 22.1358 10.055 21.0343 8.60183 20.5968C8.01588 20.425 6.74245 20.4328 6.17214 20.6203Z" fill="#1C1A1E"/>
<path d="M31.3289 20.6171C30.5867 20.8593 30.0555 21.1796 29.5242 21.7109C28.6649 22.5703 28.2821 23.5078 28.2821 24.7656C28.2821 25.9531 28.6337 26.875 29.4072 27.7109C30.2432 28.6093 31.2822 29.0546 32.5479 29.0624C33.8369 29.0624 34.7666 28.6873 35.6338 27.8201C36.4931 26.9607 36.8759 26.0232 36.8759 24.7654C36.8758 23.5076 36.493 22.5701 35.6336 21.7107C35.0945 21.1717 34.4929 20.8123 33.7586 20.5936C33.1726 20.4217 31.8992 20.4296 31.3289 20.6171Z" fill="#1C1A1E"/>
</g>
<defs>
<clipPath id="clip0_1112_1278">
<rect width="40" height="40" fill="white" transform="translate(0 0.00195312)"/>
</clipPath>
</defs>
</svg>
