<svg width="24" height="24" viewBox="0 0 24 24" fill="none" xmlns="http://www.w3.org/2000/svg">
<path d="M17.0298 1.64524C16.6548 1.70617 16.3079 1.85617 15.9564 2.10461C15.5626 2.38117 14.3298 3.56242 13.6126 4.35461C12.8017 5.24524 12.5767 5.77024 12.6235 6.65617C12.6517 7.2093 12.7876 7.60305 13.1017 8.04367C13.411 8.48899 15.5439 10.6124 15.9798 10.9171C16.7907 11.4796 17.8735 11.5452 18.7501 11.0812C19.1345 10.8796 19.9407 10.1577 20.9673 9.08899C22.1345 7.8843 22.3782 7.42961 22.3782 6.49211C22.3782 5.91555 22.261 5.50305 21.9751 5.06242C21.7501 4.71555 19.7532 2.66711 19.2329 2.24992C18.8064 1.90305 18.4923 1.75305 18.0282 1.66399C17.6298 1.58899 17.4048 1.5843 17.0298 1.64524Z" fill="white"/>
<path d="M4.35 2.32031C3.66563 2.45625 3.05156 2.89219 2.6625 3.51563C2.2875 4.11563 2.25 4.36875 2.25 6.49688C2.25 8.44688 2.28281 8.75625 2.54063 9.28125C2.72813 9.67031 3.28125 10.2328 3.68438 10.4438C4.25156 10.7391 4.41094 10.7578 6.49219 10.7578C8.12344 10.7578 8.40938 10.7438 8.69063 10.6734C9.68906 10.4203 10.4203 9.68906 10.6734 8.69063C10.7438 8.40938 10.7578 8.12344 10.7578 6.49219C10.7578 4.41094 10.7391 4.25156 10.4438 3.68438C10.2328 3.28125 9.67031 2.72813 9.28125 2.54063C8.75156 2.27813 8.45156 2.25 6.45469 2.25469C5.16563 2.25938 4.575 2.27813 4.35 2.32031Z" fill="white"/>
<path d="M4.73429 13.2656C4.00304 13.3359 3.46866 13.5938 2.97648 14.1188C2.62023 14.4938 2.41398 14.8969 2.32023 15.3891C2.22179 15.9141 2.2171 19.0969 2.32023 19.6125C2.45616 20.3297 2.87804 20.9391 3.51554 21.3375C4.11085 21.7125 4.37804 21.75 6.52491 21.75C8.44679 21.75 8.75616 21.7172 9.28116 21.4594C9.67022 21.2719 10.2327 20.7188 10.4437 20.3156C10.739 19.7531 10.753 19.5891 10.7577 17.5078C10.7577 15.8813 10.7437 15.5906 10.6733 15.3141C10.5046 14.6438 10.1108 14.0766 9.57647 13.7203C9.16866 13.4484 8.7796 13.3219 8.21241 13.2656C7.6921 13.2141 5.25929 13.2141 4.73429 13.2656Z" fill="white"/>
<path d="M15.7359 13.2656C14.5172 13.3875 13.6219 14.1516 13.3266 15.3141C13.2563 15.5906 13.2422 15.8813 13.2422 17.5078C13.2469 19.5891 13.2609 19.7531 13.5563 20.3156C13.7672 20.7188 14.3297 21.2719 14.7188 21.4594C15.2438 21.7172 15.5531 21.75 17.475 21.75C19.6219 21.75 19.8891 21.7125 20.4844 21.3375C20.9391 21.0563 21.2391 20.7188 21.4969 20.2078C21.7172 19.7625 21.75 19.4109 21.75 17.5078C21.75 15.5531 21.7172 15.2438 21.4594 14.7188C21.2719 14.3297 20.7188 13.7672 20.3156 13.5563C19.7859 13.2797 19.6031 13.2563 17.7656 13.2422C16.8516 13.2328 15.9375 13.2422 15.7359 13.2656Z" fill="white"/>
</svg>
