<svg width="40" height="40" viewBox="0 0 40 40" fill="none" xmlns="http://www.w3.org/2000/svg">
<g clip-path="url(#clip0_1112_1265)">
<path d="M22.1487 4.91493C20.5393 5.38372 19.2894 6.66501 18.8753 8.25877C18.805 8.52439 18.7504 9.05565 18.7504 9.45408C18.7504 9.85252 18.8051 10.3838 18.8754 10.6494C19.2895 12.2588 20.6333 13.6025 22.2349 14.0165C22.8521 14.1727 24.0161 14.1805 24.6333 14.0164C26.2583 13.5945 27.5786 12.2742 28.0004 10.6492C28.1644 10.0398 28.1644 8.8679 28.0003 8.25853C27.5784 6.63354 26.2581 5.31326 24.6331 4.89143C23.9924 4.72738 22.7581 4.73523 22.1487 4.91493Z" fill="#1C1A1E"/>
<path d="M5.74243 8.04188C4.13307 8.51068 2.8831 9.79196 2.46908 11.3857C2.30504 11.9951 2.30507 13.167 2.46915 13.7763C2.88325 15.3857 4.22704 16.7294 5.82861 17.1434C6.4458 17.2997 7.60986 17.3075 8.22705 17.1434C9.85204 16.7215 11.1723 15.4011 11.5941 13.7761C11.7582 13.1667 11.7582 11.9948 11.5941 11.3855C11.1722 9.76049 9.85182 8.44021 8.22681 8.01838C7.58618 7.85433 6.3518 7.86218 5.74243 8.04188Z" fill="#1C1A1E"/>
<path d="M33.4852 12.7276C33.3681 12.8058 33.1962 12.9776 33.1181 13.0948C32.9228 13.3995 32.915 14.1026 33.1181 14.3995C33.3994 14.837 33.54 14.8839 34.7509 14.9229L35.8603 14.9619L29.923 20.8996L23.9856 26.8373L22.4465 25.306C21.5949 24.4623 20.8137 23.7123 20.7043 23.642C20.5871 23.5639 20.3527 23.517 20.0715 23.517C19.7121 23.5171 19.5793 23.5561 19.3293 23.7436C19.1652 23.8686 17.0247 25.9781 14.5716 28.4313L10.1186 32.8923L5.43109 32.8924C0.970153 32.8926 0.735778 32.9004 0.517032 33.041C0.157663 33.2832 0.00142084 33.5801 0.00143371 34.0645C0.00144658 34.5488 0.157704 34.8457 0.517086 35.0879C0.73584 35.2285 0.978027 35.2363 5.93896 35.2362C10.6187 35.236 11.1577 35.2204 11.3296 35.111C11.439 35.0407 13.4467 33.0641 15.7982 30.7125L20.0794 26.4467L21.6185 27.9779C22.47 28.8217 23.2513 29.5716 23.3607 29.642C23.6185 29.806 24.3529 29.806 24.6107 29.6419C24.7201 29.5716 27.6965 26.6262 31.2355 23.0949L37.6572 16.6806L37.6573 17.7744C37.6573 18.7119 37.6807 18.8994 37.8057 19.0947C38.0479 19.4541 38.3448 19.6103 38.8292 19.6103C39.3135 19.6103 39.6104 19.454 39.8526 19.0946C39.9932 18.8837 40.001 18.6806 40.001 16.0946C40.0009 13.5087 39.9931 13.3056 39.8524 13.0946C39.7743 12.9775 39.6024 12.8056 39.4852 12.7275C39.2743 12.5868 39.0712 12.579 36.4852 12.5791C33.8993 12.5792 33.6962 12.587 33.4852 12.7276Z" fill="#1C1A1E"/>
<path d="M18.8445 15.8046C17.7195 16.7656 16.9618 17.9922 16.5946 19.4297C16.4228 20.1016 16.4071 20.3359 16.4072 21.8203L16.4072 23.4609L17.2666 22.625C17.9228 21.9843 18.2431 21.7343 18.6494 21.539C19.1494 21.3046 19.2275 21.289 20.079 21.289C20.9306 21.2889 21.0009 21.3046 21.5244 21.5467C21.9619 21.7577 22.2509 21.9842 23.0244 22.7576L23.9854 23.7029L26.8525 20.8435L29.7196 17.9762L29.5555 17.6403C29.2977 17.1012 28.5711 16.2341 27.9851 15.7575C27.6883 15.5153 27.4148 15.3122 27.3758 15.3122C27.3367 15.3122 26.9929 15.4685 26.6023 15.6638C26.2195 15.8591 25.5555 16.1013 25.1258 16.2107C23.532 16.617 21.782 16.4139 20.2742 15.664C19.8914 15.4687 19.5398 15.3124 19.4929 15.3124C19.4539 15.3124 19.157 15.5312 18.8445 15.8046Z" fill="#1C1A1E"/>
<path d="M2.43817 18.9316C1.31319 19.8925 0.555414 21.1191 0.188264 22.5566C0.000783751 23.291 0.000785204 23.3457 0.000880261 26.9238L0.000976562 30.5488L4.67285 30.5487L9.33691 30.5486L11.704 28.1813L14.0634 25.8219L14.0633 24.5641C14.0633 23.486 14.032 23.1969 13.8758 22.5563C13.6257 21.5797 13.1648 20.65 12.5476 19.8844C12.0944 19.3141 11.1335 18.4392 10.9694 18.4392C10.9303 18.4392 10.5866 18.5954 10.196 18.7907C9.81317 18.9861 9.14911 19.2283 8.71943 19.3377C7.12569 19.744 5.37568 19.5409 3.86785 18.7909C3.48503 18.5956 3.13347 18.4394 3.08659 18.4394C3.04753 18.4394 2.75066 18.6581 2.43817 18.9316Z" fill="#1C1A1E"/>
</g>
<defs>
<clipPath id="clip0_1112_1265">
<rect width="40" height="40" fill="white" transform="translate(0 0.00195312)"/>
</clipPath>
</defs>
</svg>
