<svg width="24" height="24" viewBox="0 0 24 24" fill="none" xmlns="http://www.w3.org/2000/svg">
<g clip-path="url(#clip0_1163_9587)">
<path d="M7.66869 3.49688C6.90932 3.66563 6.21088 4.03125 5.64369 4.56094C4.80932 5.33906 4.34057 6.35156 4.27963 7.5C4.21401 8.76563 4.63119 9.83438 5.55463 10.7578C6.41713 11.6203 7.33588 12 8.55932 12C9.44994 12 10.2187 11.7844 10.8843 11.3484C11.8734 10.7016 12.4921 9.82031 12.7781 8.64844C12.9046 8.14688 12.8906 7.21875 12.7546 6.67969C12.3609 5.14219 11.2781 4.03125 9.70307 3.55313C9.28588 3.42188 8.13276 3.39375 7.66869 3.49688Z" fill="#D63384"/>
<path d="M16.8281 6.075C16.4578 6.17344 15.9563 6.42188 15.6234 6.675C15.1266 7.05 14.6813 7.74844 14.5078 8.41406C14.4141 8.77969 14.4141 9.59531 14.5078 9.96094C14.8031 11.1094 15.7031 12.0094 16.8516 12.3047C17.2125 12.3984 18.0328 12.3984 18.3984 12.3047C19.0266 12.1453 19.6969 11.7234 20.1094 11.2266C20.3438 10.9406 20.6484 10.3406 20.7422 9.96094C20.8359 9.59531 20.8359 8.775 20.7422 8.41406C20.5734 7.75781 20.1375 7.07344 19.6453 6.68906C19.3219 6.43125 18.8016 6.17344 18.3984 6.07031C18.0422 5.98125 17.1797 5.98125 16.8281 6.075Z" fill="#FAB2D2"/>
<path d="M7.40167 13.2422C4.45323 13.7203 2.12354 15.6703 1.15323 18.4594C0.900104 19.1953 0.796979 19.7531 0.768854 20.5547C0.745417 21.2063 0.750104 21.2672 0.839167 21.4125C0.895417 21.4969 1.00323 21.6047 1.0876 21.6563C1.24229 21.75 1.34073 21.75 8.57823 21.75H15.9142L16.0829 21.6375C16.3735 21.4406 16.4251 21.2625 16.3923 20.5594C16.3267 19.05 15.7595 17.4891 14.8173 16.2422C14.3345 15.6 13.4814 14.8125 12.7876 14.3719C12.0517 13.9031 11.0673 13.5094 10.1485 13.3125C9.53917 13.1813 8.01573 13.1391 7.40167 13.2422Z" fill="#D63384"/>
<path d="M16.9827 13.2703C16.3077 13.35 15.1921 13.7156 14.864 13.964L14.7515 14.0531L15.1265 14.4187C16.1296 15.4078 16.9265 16.6969 17.3858 18.075C17.5312 18.5203 17.7655 19.4578 17.7655 19.6125C17.7655 19.6265 18.8765 19.6406 20.2312 19.6406C22.9921 19.6406 22.9171 19.65 23.1421 19.3031C23.2593 19.1297 23.264 19.1109 23.2358 18.5297C23.1702 16.8937 22.3312 15.3375 20.9812 14.3297C19.8562 13.5 18.3843 13.1062 16.9827 13.2703Z" fill="#FAB2D2"/>
</g>
<defs>
<clipPath id="clip0_1163_9587">
<rect width="24" height="24" fill="white"/>
</clipPath>
</defs>
</svg>
