<svg width="24" height="24" viewBox="0 0 24 24" fill="none" xmlns="http://www.w3.org/2000/svg">
<path d="M6.42188 1.60312C6.14062 1.79062 6.09375 1.95 6.09375 2.68125V3.32344L4.67813 3.3375L3.25781 3.35156L2.95312 3.49687C2.58281 3.67031 2.18438 4.02656 1.98281 4.36406C1.72031 4.80469 1.6875 5.03437 1.6875 6.40781V7.64062H11.7234H21.7547L21.7406 6.3375C21.7172 4.86562 21.6984 4.75781 21.3609 4.25625C21.1078 3.87656 20.6813 3.55312 20.2688 3.42188C19.9875 3.3375 19.8328 3.32812 18.6562 3.32812H17.3531L17.3344 2.65781C17.3203 1.91719 17.2688 1.76719 16.9875 1.58906C16.7859 1.46719 16.3875 1.46719 16.1813 1.59375C15.9188 1.75781 15.8438 1.9875 15.8438 2.70469V3.32812H11.7H7.55156L7.5375 2.60156L7.52344 1.875L7.35 1.70156C7.19063 1.54687 7.14844 1.52812 6.88125 1.50937C6.63281 1.49531 6.5625 1.50937 6.42188 1.60312Z" fill="#039129"/>
<path d="M1.68753 13.889C1.68753 19.2843 1.67816 19.0781 1.98284 19.589C2.32503 20.1609 2.93441 20.5499 3.62347 20.6249C4.01722 20.6718 12.0469 20.6906 12.0469 20.6484C12.0469 20.6343 11.9766 20.4796 11.8875 20.3062C11.6953 19.9171 11.5219 19.4109 11.4094 18.8906C11.3016 18.3937 11.2875 17.114 11.386 16.6171C11.8875 14.0437 13.8235 12.1031 16.3922 11.5921C16.9547 11.4843 18.1125 11.4843 18.6328 11.5968C19.725 11.8359 20.7 12.2999 21.4735 12.9421C21.5953 13.0452 21.7078 13.1249 21.7219 13.1249C21.736 13.1249 21.75 12.1968 21.75 11.0624V8.99994H11.7188H1.68753V13.889Z" fill="#039129"/>
<path d="M16.5797 12.9615C15.0984 13.2428 13.7765 14.2787 13.125 15.6709C12.5156 16.9693 12.525 18.4506 13.1484 19.7771C13.4062 20.3162 13.6734 20.6959 14.0906 21.1037C14.5406 21.5443 14.8547 21.7693 15.3984 22.0318C16.1625 22.4068 16.5047 22.4771 17.5312 22.4724C18.3375 22.4724 18.4265 22.4631 18.8203 22.3412C22.1062 21.3381 23.3812 17.499 21.3281 14.7756C20.6953 13.9318 19.739 13.299 18.7031 13.0271C18.1875 12.8912 17.1234 12.8584 16.5797 12.9615ZM19.2844 16.1209C19.575 16.3131 19.6828 16.7068 19.5281 17.0115C19.4906 17.0818 18.9562 17.6256 18.3375 18.2209C17.1187 19.3974 17.0344 19.4584 16.6781 19.3506C16.4484 19.2849 16.3594 19.1771 15.839 18.3756C15.4406 17.7662 15.3984 17.6771 15.3984 17.4803C15.3984 17.1053 15.6937 16.8053 16.0687 16.8053C16.3547 16.8053 16.5234 16.9271 16.7812 17.3209L16.9781 17.6256L17.7281 16.9131C18.1359 16.5193 18.5297 16.1584 18.6 16.1162C18.7687 16.0037 19.1109 16.0084 19.2844 16.1209Z" fill="#9FCEA0"/>
</svg>
