<svg width="24" height="24" viewBox="0 0 24 24" fill="none" xmlns="http://www.w3.org/2000/svg">
<g clip-path="url(#clip0_1221_12679)">
<path d="M3.56592 -0.395703C3.17842 -0.195703 3.00342 0.123047 3.00342 0.635547V1.0293H2.23467C1.32842 1.0293 0.928418 1.1168 0.190918 1.4793C-0.546582 1.83555 -1.19033 2.4793 -1.54658 3.2168C-1.89033 3.9168 -1.99658 4.36055 -1.99658 5.1043V5.7168H9.07217H20.1409L20.1159 4.94805C20.0784 4.1043 19.9534 3.6543 19.5597 2.98555C19.2847 2.5293 18.6284 1.87305 18.1722 1.59805C17.4534 1.17305 17.0722 1.07305 16.0534 1.0418L15.1284 1.0168V0.654297C15.1284 0.166797 14.9347 -0.195703 14.5659 -0.389453C14.2409 -0.564453 13.9972 -0.570703 13.6534 -0.414453C13.2597 -0.233203 13.1034 0.0355468 13.0722 0.573047L13.0534 1.0293H9.05967H5.06592V0.666797C5.05967 0.198047 4.89717 -0.158203 4.59717 -0.345703C4.25967 -0.551953 3.90967 -0.570703 3.56592 -0.395703ZM4.99092 2.48555L4.97217 3.88555L4.80342 4.1043C4.59717 4.3793 4.15967 4.56055 3.87217 4.5043C3.59717 4.4543 3.29092 4.2043 3.16592 3.94805C3.08467 3.7668 3.06592 3.5043 3.06592 2.41055V1.0918H4.04092H5.00967L4.99092 2.48555ZM15.0534 2.48555L15.0347 3.88555L14.8659 4.1043C14.5222 4.5543 13.9034 4.63555 13.4972 4.29805C13.1597 4.01055 13.1284 3.8543 13.1284 2.4043V1.0918H14.1034H15.0722L15.0534 2.48555Z" fill="#D63384"/>
<path d="M-1.99654 12.9247C-1.99654 18.7434 -2.00904 18.5247 -1.59029 19.3747C-1.12154 20.3372 -0.215292 21.1122 0.878458 21.4809C1.27846 21.6184 1.35971 21.6247 4.83471 21.6434C6.78471 21.6559 8.37846 21.6434 8.37846 21.6247C8.37846 21.6059 8.33471 21.4872 8.27846 21.3559C7.32846 19.1559 7.22221 16.5434 7.97846 14.2247C8.69096 12.0497 10.1722 10.1059 12.0972 8.83715C12.6597 8.46215 13.7722 7.88715 14.0847 7.81215C14.1785 7.78715 14.2722 7.7434 14.291 7.71215C14.3097 7.6809 10.9097 7.6559 6.16596 7.6559H-1.99654V12.9247Z" fill="#D63384"/>
<path d="M16.4972 9.16133C12.9847 9.67383 10.1784 12.4051 9.52842 15.9363C9.39092 16.6801 9.39092 18.0613 9.52842 18.8301C9.73467 19.9801 10.2222 21.1676 10.9034 22.1551C11.0784 22.4113 11.5034 22.9051 11.8472 23.2488C13.0347 24.4426 14.4034 25.1801 16.0847 25.5363C16.9847 25.7301 18.4597 25.7301 19.3597 25.5363C22.3284 24.9051 24.6472 22.8551 25.5909 20.0238C25.7159 19.6676 25.8534 19.1238 25.9097 18.8176C26.0347 18.0926 26.0347 16.6676 25.9034 15.9426C25.2909 12.4301 22.4347 9.66133 18.9097 9.15508C18.3972 9.08633 16.9972 9.08633 16.4972 9.16133ZM18.7034 12.2176C19.4159 12.4363 20.1409 13.0426 20.4972 13.7176C20.9972 14.6488 21.0034 15.7738 20.5159 16.6801C20.3472 17.0051 19.7222 17.6738 19.3034 17.9801C18.9972 18.2113 18.7534 18.7301 18.7097 19.2301C18.6472 19.9363 18.2909 20.3426 17.7284 20.3426C17.3347 20.3426 17.0534 20.1676 16.8847 19.8176C16.7284 19.4988 16.7222 19.1738 16.8534 18.5738C17.0534 17.6738 17.5534 16.8988 18.3159 16.3113C18.7347 15.9863 18.9409 15.6301 18.9409 15.2113C18.9409 14.8301 18.7222 14.4176 18.3972 14.1926C18.1659 14.0363 18.0722 14.0051 17.7409 14.0051C17.0034 14.0113 16.6159 14.3738 16.5034 15.1738C16.4159 15.7863 16.0409 16.1551 15.5034 16.1551C14.9534 16.1551 14.5659 15.7301 14.5659 15.1238C14.5659 14.0176 15.3222 12.8801 16.3909 12.3738C17.1534 12.0113 17.8847 11.9613 18.7034 12.2176ZM18.2472 20.9488C18.5659 21.1863 18.7034 21.4676 18.6784 21.8176C18.6472 22.1801 18.5034 22.4051 18.1847 22.5863C17.6222 22.9051 16.9034 22.5551 16.7847 21.8988C16.7097 21.4926 17.0159 20.9988 17.4409 20.8238C17.6097 20.7488 18.0784 20.8238 18.2472 20.9488Z" fill="#FDC6DD"/>
</g>
<defs>
<clipPath id="clip0_1221_12679">
<rect width="24" height="24" fill="white"/>
</clipPath>
</defs>
</svg>
