<svg width="114" height="66" viewBox="0 0 114 66" fill="none" xmlns="http://www.w3.org/2000/svg">
<path d="M38.4267 47.5144C34.0904 45.4204 30.8303 42.3568 28.5708 38.281C25.4854 32.688 24.8787 26.4257 26.9584 21.4301C27.7684 19.4477 28.4106 18.4674 29.9232 16.7884C30.5163 16.144 30.9652 15.5472 30.9211 15.4695C30.8771 15.3918 25.9533 13.9218 19.9573 12.2211C13.3378 10.3262 8.8808 8.98523 8.57505 8.74782C8.31897 8.56783 8.09307 8.19957 8.09949 7.93921C8.1158 7.48499 8.82028 6.67483 9.12469 6.75896C9.20587 6.78139 11.1731 7.17215 13.5169 7.62327C15.855 8.09468 21.695 9.49019 26.5217 10.7585L35.2617 13.0429L37.0957 12.4138C40.5587 11.1864 44.0024 10.74 48.201 10.9611C50.2005 11.0768 51.0032 11.2549 55.326 12.4495C62.8349 14.5247 65.7277 15.914 82.2178 25.4081C89.0981 29.3629 94.0096 31.7469 98.2629 33.2719C99.7569 33.794 100.094 33.9964 100.368 34.5089C101.034 35.6542 100.112 37.4091 98.914 37.3183C98.063 37.236 93.4353 35.5639 90.2766 34.1885C86.88 32.7256 82.0777 30.2625 75.5416 26.6431C59.9644 18.0348 52.9583 15.2466 46.0197 14.9019C44.5093 14.834 42.6881 14.9423 41.5017 15.2042L40.7828 15.3551L43.5992 16.9417C48.1536 19.511 50.8941 21.6883 53.6608 24.8776C55.8167 27.352 56.9726 29.572 57.4809 32.159C58.0493 35.003 57.8797 37.1187 56.8851 40.1642C54.7285 46.624 50.8048 49.7556 45.3066 49.4157C43.5212 49.3155 40.2741 48.4181 38.4267 47.5144ZM44.6546 45.6094C49.3032 46.0203 52.9644 42.969 54.053 37.765C54.659 34.9398 54.2626 32.5803 52.6709 29.803C50.3268 25.6382 45.0298 21.4875 38.1946 18.3971L36.0778 17.4407L34.9359 18.1737C32.5024 19.7074 30.3411 22.6271 29.5783 25.3872C28.6025 28.9184 29.4224 32.7494 32.0018 36.6952C35.3638 41.8403 40.1538 45.2174 44.6546 45.6094Z" fill="white"/>
<path d="M93.5475 43.8536C93.351 43.5372 93.1699 43.0066 93.147 42.6944C93.0474 41.5528 93.6285 41.1892 97.4995 39.9871C102.539 38.4308 105.342 37.4578 105.337 37.2381C105.324 37.1254 103.92 35.8852 102.224 34.4335C98.8353 31.5966 98.2121 30.7691 98.5206 29.6529C98.7729 28.7396 99.1447 28.5802 100.342 28.9111C101.499 29.2308 104.936 31.7318 108.672 34.9705C110.788 36.8003 110.931 36.9929 111.113 37.9168C111.292 38.9276 111.089 39.5049 110.434 39.9791C110.267 40.1078 108.52 40.739 106.527 41.3897C104.554 42.046 101.881 42.9455 100.618 43.4048C96.3914 44.9454 94.2839 45.062 93.5475 43.8536Z" fill="white"/>
</svg>
