<svg width="48" height="48" viewBox="0 0 48 48" fill="none" xmlns="http://www.w3.org/2000/svg">
<g clip-path="url(#clip0_451_7277)">
<path d="M17.7469 0.187504C14.1844 0.731251 10.9969 2.09063 8.01562 4.34063C7.11563 5.02501 5.20312 6.91875 4.48125 7.82813C1.49063 11.6531 0 15.9656 0 20.8031C0 22.8094 0.178125 24.3281 0.61875 26.0438C2.38125 32.9438 7.54688 38.4563 14.3719 40.6969C20.2031 42.6188 26.9813 41.7563 32.0531 38.4656C32.4844 38.1844 32.8406 37.9688 32.8594 37.9875C32.8688 38.0063 33.3563 38.7281 33.9375 39.6094C36.3656 43.2656 37.6688 44.9813 39.1875 46.5094C40.3969 47.7281 40.8 47.925 42.2156 47.9813C43.8656 48.0469 44.8688 47.5781 46.3781 46.0125C47.6063 44.7281 48 43.8563 48 42.375C48 40.8656 47.5688 40.1063 45.8531 38.55C44.5688 37.3969 43.1063 36.3094 40.3594 34.4813C39.1219 33.6469 38.0719 32.9438 38.0344 32.9063C37.9875 32.8688 38.1938 32.475 38.4844 32.025C39.1313 31.0313 40.2 28.8375 40.5844 27.7031C41.2875 25.6125 41.6063 23.8313 41.6906 21.5625C41.9531 14.2594 38.4938 7.51875 32.3906 3.43125C30.525 2.175 27.9469 1.05938 25.6875 0.525002C23.3906 -0.0281219 20.0813 -0.168747 17.7469 0.187504ZM23.2031 5.68126C28.3031 6.51563 32.4844 9.64688 34.6875 14.2688C35.8031 16.6031 36.2625 18.8719 36.1594 21.4688C35.9906 25.5656 34.2563 29.2875 31.1719 32.1656C27.4688 35.6156 22.0594 36.9844 17.1 35.7188C9.1875 33.6938 4.24688 25.9313 5.775 17.9063C6.65625 13.2375 9.90938 9.04688 14.2688 6.98438C17.1 5.64375 20.2125 5.19375 23.2031 5.68126Z" fill="white"/>
<path d="M19.4249 10.6407C17.2687 11.1094 15.4312 12.9188 14.8593 15.1407C14.6812 15.8532 14.6718 17.4188 14.8593 18.1407C15.4124 20.3157 17.1281 22.05 19.2749 22.5938C20.1562 22.8188 21.4499 22.8375 22.3124 22.6313C24.0655 22.2282 25.6499 20.9157 26.4187 19.2469C27.2156 17.5125 27.1874 15.6282 26.3343 13.875C25.8281 12.8438 24.6562 11.6438 23.6999 11.175C22.3874 10.5375 20.8124 10.3407 19.4249 10.6407Z" fill="white"/>
<path d="M15.9564 24.2813C14.9626 24.3188 13.9313 24.4125 13.6595 24.4688C12.0095 24.8625 10.8563 26.1938 10.697 27.9L10.6313 28.6219L11.0626 29.1469C12.8438 31.2844 15.4689 32.8219 18.3751 33.4407C19.5939 33.6938 22.2189 33.675 23.522 33.3844C25.1907 33.0282 26.7001 32.3719 28.172 31.3688C29.1189 30.7219 30.9001 28.9969 30.9939 28.6313C31.0314 28.5 31.0032 28.0875 30.947 27.7219C30.6376 25.8 29.3251 24.6 27.2814 24.375C26.1282 24.2438 18.2907 24.1782 15.9564 24.2813Z" fill="white"/>
</g>
<defs>
<clipPath id="clip0_451_7277">
<rect width="48" height="48" fill="white"/>
</clipPath>
</defs>
</svg>
