<svg width="48" height="48" viewBox="0 0 48 48" fill="none" xmlns="http://www.w3.org/2000/svg">
<g clip-path="url(#clip0_451_7332)">
<path d="M9.31863 0.16875C8.19363 0.5625 7.32176 1.35 6.83426 2.38125C5.49363 5.25 7.50926 8.4375 10.678 8.4375C11.8968 8.4375 12.9374 7.9875 13.7436 7.09687C14.353 6.43125 14.6905 5.7375 14.8311 4.85625C15.1124 2.98125 14.1749 1.20937 12.4686 0.384375C11.8124 0.0749998 11.6905 0.046875 10.7811 0.0281248C10.0311 0.00937462 9.68426 0.046875 9.31863 0.16875Z" fill="white"/>
<path d="M35.109 0.131254C32.5497 0.946879 31.3215 3.83438 32.5497 6.17813C33.909 8.78438 37.5372 9.23438 39.4872 7.04063C41.5309 4.74375 40.4809 1.03125 37.5278 0.140629C36.9747 -0.028121 35.6247 -0.028121 35.109 0.131254Z" fill="white"/>
<path d="M7.2655 10.1625C6.63737 10.3594 6.31862 10.5656 5.92487 11.0156C5.13737 11.9062 5.203 10.2937 5.203 29.3438C5.203 45.9656 5.203 46.275 5.3905 46.6406C5.64362 47.1469 6.20612 47.6719 6.703 47.8687C7.20925 48.0563 8.33425 48.0188 8.7655 47.7844C9.19675 47.5594 9.6655 47.0625 9.88112 46.5938C10.078 46.1719 10.078 46.0875 10.1061 36.8625L10.1249 27.5625H10.6405H11.1561V36.7687C11.1561 42.825 11.1936 46.1062 11.2499 46.3312C11.5124 47.2687 12.5155 48 13.5374 48C14.353 48 14.7374 47.8687 15.2624 47.3812C16.1436 46.5938 16.078 47.6812 16.078 34.5281C16.078 28.1812 16.0499 22.9594 16.0124 22.9219C15.9749 22.8844 15.1217 22.7625 14.1092 22.6406C11.9999 22.3875 11.5874 22.2469 11.1749 21.6281C10.978 21.3375 8.803 17.2969 8.08112 15.8906C8.053 15.8344 9.04675 16.8 10.2842 18.0187C11.9061 19.6219 12.6467 20.2969 12.9467 20.4281C13.2467 20.5594 14.3717 20.7281 17.203 21.0562C21.6374 21.5719 21.6561 21.5719 22.3686 20.85C23.3999 19.8281 23.0624 18.0469 21.7405 17.4937C21.553 17.4187 19.9499 17.1844 18.1405 16.9687L14.878 16.5937L13.7905 15.5719C13.1905 15.0094 12.2999 14.1375 11.8124 13.6312L10.9217 12.7219L12.1874 13.3781C12.8811 13.7437 13.6874 14.1656 13.9686 14.3062C14.3155 14.4844 14.7374 14.6062 15.2624 14.6719L16.0311 14.775V13.575C16.0311 12.1219 15.8624 11.5781 15.2249 10.9219C14.4186 10.0875 14.3717 10.0781 10.7811 10.0594C8.428 10.0406 7.54675 10.0687 7.2655 10.1625Z" fill="white"/>
<path d="M32.8403 10.2094C32.1934 10.425 31.6028 10.9312 31.2747 11.5406C31.0591 11.9344 30.9934 12.1969 30.9466 12.825L30.8903 13.6125L28.1247 15.1969C26.6059 16.0687 25.1434 16.9125 24.8716 17.0625L24.3841 17.3437L24.5622 17.7656C24.6653 18 24.7966 18.4687 24.8622 18.7969C25.0684 19.95 24.6091 21.3375 23.7466 22.1906C22.9497 22.9594 23.0153 22.9312 27.4122 20.4187C29.2028 19.3875 30.7403 18.525 30.8153 18.4969C30.9278 18.45 30.9372 20.3344 30.9184 32.2594C30.8903 47.9906 30.8153 46.5844 31.7059 47.3812C32.2309 47.8687 32.6153 48 33.4309 48C34.4528 48 35.4559 47.2687 35.7184 46.3312C35.7841 46.1062 35.8122 42.8906 35.8122 36.7969L35.8028 27.6094L36.3934 23.9531L36.9747 20.2969L36.7684 17.8687C36.6559 16.5281 36.5809 15.4219 36.5997 15.4031C36.6091 15.3844 37.0778 16.65 37.6309 18.2156L38.6341 21.0469L38.0622 24.6094C37.6872 26.9437 37.5091 28.2844 37.5466 28.4906C37.7434 29.5312 38.5309 30.2062 39.5528 30.2156C40.4809 30.225 41.2216 29.7375 41.5309 28.9312C41.7278 28.4062 42.8622 21.0656 42.8059 20.625C42.7778 20.2969 41.2309 15.7594 40.6028 14.1281C40.5466 13.9875 40.5184 13.875 40.5372 13.875C40.5559 13.875 40.8184 14.25 41.1184 14.7188C41.4278 15.1781 41.7091 15.5625 41.7559 15.5625C41.8684 15.5625 41.7559 12.3937 41.6247 12C41.4559 11.5031 41.0622 10.9688 40.6122 10.6219C39.8903 10.0687 39.5809 10.0312 36.2903 10.0312C33.6934 10.0406 33.2716 10.0594 32.8403 10.2094Z" fill="white"/>
<path d="M36.8625 38.5406C36.8906 46.2656 36.8906 46.2656 37.0969 46.65C37.575 47.55 38.3063 47.9906 39.3094 48C40.3688 48 41.0719 47.5781 41.5312 46.6594L41.8125 46.0969V38.7375C41.8125 31.7813 41.8031 31.3875 41.6531 31.4344C41.5594 31.4625 41.2125 31.6031 40.8844 31.7344C40.3406 31.9594 40.1906 31.9875 39.4313 31.95C38.4844 31.9031 37.7719 31.6406 37.1625 31.1063L36.8438 30.825L36.8625 38.5406Z" fill="white"/>
</g>
<defs>
<clipPath id="clip0_451_7332">
<rect width="48" height="48" fill="white"/>
</clipPath>
</defs>
</svg>
