<svg width="45" height="45" viewBox="0 0 45 45" fill="none" xmlns="http://www.w3.org/2000/svg">
<path d="M6.67598 0.1875C6.2916 0.421875 6.00098 0.890625 6.00098 1.28437C6.00098 1.56562 5.98223 1.58437 5.32598 1.78125C3.34785 2.38125 1.7166 3.74062 0.797852 5.57812C0.113477 6.9375 0.000976562 7.54688 0.000976562 9.95625V12H22.501H45.001V9.95625C45.001 7.54688 44.8885 6.9375 44.2041 5.57812C43.2854 3.74062 41.6541 2.38125 39.6854 1.78125C39.0197 1.58437 39.001 1.56562 39.001 1.28437C39.001 0.5625 38.3354 0 37.501 0C36.6854 0 36.001 0.5625 36.001 1.2375V1.5H33.751H31.501V1.2375C31.501 0.5625 30.8166 0 30.001 0C29.1854 0 28.501 0.5625 28.501 1.2375V1.5H26.251H24.001V1.2375C24.001 0.5625 23.3166 0 22.501 0C21.6854 0 21.001 0.5625 21.001 1.2375V1.5H18.751H16.501V1.2375C16.501 0.5625 15.8166 0 15.001 0C14.1854 0 13.501 0.5625 13.501 1.2375V1.5H11.251H9.00098V1.2375C9.00098 0.5625 8.3166 0 7.50098 0C7.1541 0 6.88223 0.0562496 6.67598 0.1875ZM8.98223 2.42812C8.94473 3.12187 8.88848 3.43125 8.75723 3.66562C8.17598 4.65 6.82598 4.65937 6.2541 3.675C6.12285 3.45937 6.05723 3.1125 6.01973 2.53125L5.97285 1.69687L6.2916 1.65C6.72285 1.575 7.3041 1.5375 8.2416 1.51875L9.0291 1.5L8.98223 2.42812ZM16.4822 2.42812C16.4354 3.47812 16.276 3.84375 15.751 4.19062C15.1041 4.63125 14.1666 4.3875 13.7447 3.66562C13.6135 3.43125 13.5572 3.12187 13.5197 2.42812L13.4729 1.5H15.001H16.5291L16.4822 2.42812ZM23.9822 2.42812C23.9447 3.12187 23.8885 3.43125 23.7572 3.66562C23.176 4.65937 21.826 4.65937 21.2447 3.66562C21.1135 3.43125 21.0572 3.12187 21.0197 2.42812L20.9729 1.5H22.501H24.0291L23.9822 2.42812ZM31.4822 2.42812C31.4354 3.47812 31.276 3.84375 30.751 4.19062C30.1041 4.63125 29.1666 4.3875 28.7447 3.66562C28.6135 3.43125 28.5572 3.12187 28.5197 2.42812L28.4729 1.5H30.001H31.5291L31.4822 2.42812ZM38.7197 1.65L39.0291 1.71562L38.9822 2.54062C38.9447 3.1125 38.8791 3.45937 38.7479 3.675C38.176 4.65937 36.826 4.65 36.2447 3.66562C36.1135 3.43125 36.0572 3.12187 36.0197 2.40937L35.9729 1.47187L37.1916 1.52812C37.8666 1.56562 38.551 1.62187 38.7197 1.65Z" fill="white"/>
<path d="M0.000763503 26.7937C0.000763503 40.1906 -0.0554865 39.2156 0.797638 40.9219C1.74451 42.8344 3.56326 44.2875 5.66326 44.8125C6.38514 44.9906 6.73201 45 16.2289 45H26.0539L25.0508 43.9875C23.0164 41.9437 21.7226 39.4594 21.2351 36.6656C21.057 35.6531 21.057 33.4781 21.2351 32.3906C21.6289 29.9437 22.7258 27.6094 24.357 25.7156C26.3914 23.3719 29.2226 21.7781 32.3445 21.225C33.2914 21.0656 35.4945 21.0375 36.4226 21.1875C39.3664 21.6562 41.8601 22.9312 43.9976 25.05L45.0008 26.0531V20.5219V15H22.5008H0.000763503V26.7937ZM9.73201 21.2812C10.632 21.8344 10.632 23.1656 9.73201 23.7188C9.32889 23.9625 8.67264 23.9625 8.26951 23.7188C7.05076 22.9781 7.57576 21.0938 9.00076 21.0938C9.25389 21.0938 9.54451 21.1687 9.73201 21.2812ZM18.732 21.2812C19.9508 22.0219 19.4258 23.9062 18.0008 23.9062C17.2039 23.9062 16.5945 23.2969 16.5945 22.5C16.5945 21.7031 17.2039 21.0938 18.0008 21.0938C18.2539 21.0938 18.5445 21.1687 18.732 21.2812ZM9.73201 28.7812C10.9508 29.5219 10.4258 31.4062 9.00076 31.4062C7.57576 31.4062 7.05076 29.5219 8.26951 28.7812C8.67264 28.5375 9.32889 28.5375 9.73201 28.7812ZM18.732 28.7812C19.9508 29.5219 19.4258 31.4062 18.0008 31.4062C17.2039 31.4062 16.5945 30.7969 16.5945 30C16.5945 28.9125 17.8039 28.2188 18.732 28.7812ZM9.73201 36.2812C10.9508 37.0219 10.4258 38.9062 9.00076 38.9062C8.20389 38.9062 7.59451 38.2969 7.59451 37.5C7.59451 36.7031 8.20389 36.0938 9.00076 36.0938C9.25389 36.0938 9.54451 36.1687 9.73201 36.2812ZM18.732 36.2812C19.9508 37.0219 19.4258 38.9062 18.0008 38.9062C17.2039 38.9062 16.5945 38.2969 16.5945 37.5C16.5945 36.7031 17.2039 36.0938 18.0008 36.0938C18.2539 36.0938 18.5445 36.1687 18.732 36.2812Z" fill="white"/>
<path d="M32.2506 24.1969C28.2006 25.0688 25.0225 28.275 24.1881 32.3438C24.01 33.1875 23.9912 33.5438 24.0287 34.8281C24.085 36.5438 24.2444 37.3594 24.8256 38.7C26.11 41.6719 28.7819 43.9406 31.96 44.7469C32.6444 44.925 33.0287 44.9531 34.5006 44.9531C35.9725 44.9531 36.3569 44.925 37.0412 44.7469C40.8194 43.7813 43.7819 40.8188 44.7475 37.0406C44.9256 36.3563 44.9537 35.9719 44.9537 34.5C44.9537 33.0281 44.9256 32.6438 44.7475 31.9594C43.7912 28.2 40.8194 25.2188 37.0881 24.2625C35.935 23.9719 33.46 23.9344 32.2506 24.1969ZM35.2506 28.8094C35.8787 29.2219 35.9537 29.475 35.9819 31.3219L36.0194 32.9719L36.9381 33.0188C37.6225 33.0563 37.9319 33.1125 38.1662 33.2438C39.16 33.825 39.16 35.175 38.1569 35.7563C37.8569 35.9344 37.6787 35.9531 36.0006 35.9531C34.3225 35.9531 34.1444 35.9344 33.8444 35.7563C33.3944 35.4938 33.1225 35.0531 33.0475 34.4719C33.01 34.2 33.0006 33.0094 33.0194 31.8281C33.0475 29.85 33.0662 29.6438 33.2444 29.3438C33.6756 28.6125 34.5944 28.3594 35.2506 28.8094Z" fill="white"/>
</svg>
