<svg width="120" height="120" viewBox="0 0 120 120" fill="none" xmlns="http://www.w3.org/2000/svg">
<path fill-rule="evenodd" clip-rule="evenodd" d="M61.8858 0C63.2112 0 64.2858 1.07452 64.2858 2.4V25.6049C64.2858 28.2428 67.923 28.9498 68.9112 26.504L77.6034 4.98874C78.1002 3.75977 79.4988 3.16601 80.7282 3.66255L84.225 5.07535C85.4538 5.57189 86.0478 6.97068 85.551 8.19966L76.284 31.1369C75.3042 33.561 78.357 35.5817 80.2062 33.733L97.6986 16.2401C98.6364 15.3029 100.156 15.3029 101.093 16.2401L103.76 18.907C104.697 19.8442 104.697 21.3638 103.76 22.301L88.0512 38.0096C86.1762 39.8849 88.2792 42.9677 90.7092 41.9059L111.066 33.0118C112.281 32.4811 113.696 33.0355 114.226 34.2501L115.736 37.7061C116.267 38.9207 115.712 40.3355 114.498 40.8662L91.0404 51.115C88.6572 52.1562 89.4006 55.7143 92.001 55.7143H117.6C118.925 55.7143 120 56.7888 120 58.1143V61.8858C120 63.2112 118.925 64.2858 117.6 64.2858H92.0016C89.4006 64.2858 88.6578 67.8438 91.0404 68.8848L114.498 79.134C115.712 79.6644 116.267 81.0792 115.736 82.2936L114.226 85.7496C113.696 86.9646 112.281 87.519 111.066 86.988L90.7092 78.0942C88.2792 77.0322 86.1762 80.115 88.0512 81.9906L103.76 97.6986C104.697 98.6364 104.697 100.156 103.76 101.093L101.093 103.76C100.156 104.697 98.6364 104.697 97.6986 103.76L80.2062 86.2668C78.357 84.4182 75.3042 86.439 76.284 88.863L85.551 111.8C86.0478 113.029 85.4538 114.428 84.225 114.925L80.7282 116.338C79.4988 116.834 78.1002 116.24 77.6034 115.011L68.9112 93.4962C67.923 91.05 64.2858 91.7574 64.2858 94.395V117.6C64.2858 118.925 63.2112 120 61.8858 120H58.1143C56.7888 120 55.7143 118.925 55.7143 117.6V94.395C55.7143 91.7574 52.0772 91.05 51.089 93.4962L42.3963 115.011C41.8997 116.24 40.501 116.834 39.272 116.338L35.7752 114.925C34.5462 114.428 33.9525 113.029 34.449 111.8L43.7163 88.863C44.6957 86.439 41.6428 84.4182 39.794 86.2668L22.3011 103.76C21.3638 104.697 19.8442 104.697 18.907 103.76L16.2402 101.093C15.3029 100.156 15.3029 98.6364 16.2402 97.6986L31.9487 81.99C33.824 80.115 31.721 77.0322 29.2908 78.0942L8.9337 86.988C7.71912 87.519 6.30426 86.9646 5.77359 85.7496L4.26364 82.2936C3.73297 81.0792 4.28741 79.6644 5.50202 79.134L28.9594 68.8848C31.3424 67.8438 30.5991 64.2858 27.9985 64.2858H2.4C1.07452 64.2858 0 63.2112 0 61.8858V58.1143C0 56.7888 1.07452 55.7143 2.4 55.7143H27.9986C30.5992 55.7143 31.3426 52.1562 28.9595 51.115L5.50201 40.8662C4.28739 40.3355 3.73295 38.9207 4.26362 37.7061L5.77357 34.2501C6.30426 33.0355 7.71906 32.4811 8.9337 33.0118L29.2908 41.9059C31.721 42.9677 33.824 39.8849 31.9487 38.0096L16.2402 22.3011C15.3029 21.3638 15.3029 19.8442 16.2402 18.907L18.907 16.2402C19.8442 15.3029 21.3638 15.3029 22.3011 16.2402L39.794 33.7331C41.6427 35.5818 44.6957 33.5611 43.7163 31.1369L34.449 8.19966C33.9525 6.97068 34.5463 5.57189 35.7752 5.07535L39.272 3.66255C40.501 3.16601 41.8998 3.75977 42.3963 4.98874L51.089 26.504C52.0772 28.9498 55.7143 28.2428 55.7143 25.6049V2.4C55.7143 1.07452 56.7888 0 58.1143 0H61.8858ZM60 85.7142C74.2014 85.7142 85.7142 74.2014 85.7142 60C85.7142 45.7984 74.2014 34.2857 60 34.2857C45.7984 34.2857 34.2857 45.7984 34.2857 60C34.2857 74.2014 45.7984 85.7142 60 85.7142Z" fill="#19189B"/>
</svg>
