<svg width="18" height="18" viewBox="0 0 18 18" fill="none" xmlns="http://www.w3.org/2000/svg">
<path d="M3.99004 3.06228C2.3377 3.2697 0.966603 4.53884 0.632619 6.18064C0.544728 6.61306 0.537697 7.31267 0.615041 7.724C0.755666 8.46931 1.11074 9.15486 1.63106 9.69978C2.15488 10.2412 2.67871 10.5576 3.40996 10.7685L3.69121 10.8494L3.43106 11.3767C3.06543 12.1115 2.6084 12.7935 2.05645 13.4299C1.83145 13.69 1.75762 13.8588 1.75762 14.1189C1.75762 14.5373 2.01074 14.8572 2.41504 14.9451C2.64356 14.9978 2.81582 14.9627 3.39942 14.7482C5.9377 13.806 7.63223 11.8795 8.24043 9.24275C8.43027 8.40954 8.51816 7.12986 8.42676 6.52165C8.28965 5.63923 7.91699 4.87634 7.32285 4.25407C6.95723 3.86736 6.66543 3.6529 6.20488 3.4279C5.49121 3.07986 4.7916 2.96384 3.99004 3.06228Z" fill="white"/>
<path d="M12.9794 3.05868C10.754 3.37157 9.24231 5.38602 9.57981 7.59384C9.80833 9.09852 10.9333 10.3782 12.3712 10.7614C12.5259 10.8036 12.656 10.8493 12.656 10.8599C12.656 10.8704 12.554 11.0884 12.431 11.345C12.0865 12.0552 11.6611 12.695 11.0634 13.4087C10.7927 13.7356 10.7048 13.9501 10.7329 14.2067C10.7857 14.6532 11.1197 14.952 11.5661 14.9556C12.1497 14.9591 13.7283 14.2067 14.6072 13.5071C16.4318 12.0552 17.4372 9.81571 17.4372 7.21415C17.4372 6.52509 17.3634 6.10321 17.1525 5.57587C16.5478 4.06415 15.2048 3.09384 13.6404 3.0411C13.3978 3.03407 13.1025 3.0411 12.9794 3.05868Z" fill="white"/>
</svg>
