<svg width="126" height="126" viewBox="0 0 126 126" fill="none" xmlns="http://www.w3.org/2000/svg">
<path fill-rule="evenodd" clip-rule="evenodd" d="M44.3121 75.6641C54.4702 68.5067 56.9028 54.4697 49.7454 44.3116C56.9028 54.4697 70.9399 56.9022 81.0979 49.7448C70.9399 56.9022 68.5073 70.9393 75.6646 81.0973C68.5073 70.9393 54.4702 68.5067 44.3121 75.6641ZM44.3121 75.6641C34.154 82.8214 31.7215 96.8585 38.8788 107.017C46.0362 117.175 60.0732 119.607 70.2313 112.45C80.3894 105.292 82.822 91.2554 75.6646 81.0973C82.822 91.2554 96.8591 93.688 107.017 86.5306C117.175 79.3733 119.608 65.3361 112.45 55.1781C105.293 45.0201 91.2559 42.5875 81.0979 49.7448C91.2559 42.5875 93.6886 28.5504 86.5312 18.3923C79.3738 8.23423 65.3367 5.80172 55.1787 12.9591C45.0206 20.1164 42.588 34.1535 49.7454 44.3116C42.588 34.1535 28.551 31.7209 18.3929 38.8783C8.23479 46.0357 5.80223 60.0727 12.9596 70.2308C20.117 80.3889 34.154 82.8214 44.3121 75.6641Z" fill="#FFB627"/>
</svg>
