<svg width="24" height="24" viewBox="0 0 24 24" fill="none" xmlns="http://www.w3.org/2000/svg">
<path d="M1.51803 0.0624943C0.819589 0.282806 0.318026 0.770308 0.0883386 1.44531C-0.00541139 1.73125 -0.0054114 1.77343 0.00396361 10.0187L0.0180261 18.3016L0.177401 18.6297C0.369589 19.0187 0.758651 19.4312 1.11021 19.6094C1.63053 19.8719 1.59303 19.8719 5.96178 19.8719C8.16959 19.8719 9.97896 19.8578 9.97896 19.8437C9.97896 19.825 9.91334 19.6141 9.83834 19.3703C9.60865 18.6484 9.54303 18.1703 9.57115 17.3641C9.61803 16.075 9.9274 15.1469 10.7477 13.825C10.9493 13.5062 11.0899 13.2344 11.0618 13.225C10.9399 13.1828 10.8696 12.9297 10.8696 12.5359C10.8696 11.8469 10.9587 11.7672 11.7087 11.7625C12.229 11.7625 12.2383 11.7625 12.3415 11.6359C12.393 11.5609 12.6649 11.2469 12.9462 10.9281C13.2227 10.6094 13.4477 10.3281 13.4477 10.3047C13.4477 10.2766 13.3774 10.1734 13.2977 10.075L13.143 9.88749H12.168H11.1883L11.0243 9.72343L10.8602 9.55937L10.879 9.07187C10.9024 8.32187 10.9493 8.29374 12.2852 8.29374C13.1102 8.29374 13.1618 8.28906 13.1899 8.20468C13.204 8.15312 13.3446 7.99374 13.4946 7.85312C13.6493 7.71249 13.7758 7.57656 13.7758 7.55781C13.7758 7.53437 13.6258 7.37031 13.443 7.19218C13.0962 6.84999 12.8712 6.47499 12.8149 6.13281L12.7821 5.94999L7.71959 5.94062L2.65709 5.92656L2.52115 5.77187L2.38521 5.62187V4.49218V3.36249L2.52115 3.22656L2.65709 3.09062H8.21178C13.7337 3.09062 13.7618 3.09062 13.8837 3.18437C14.0337 3.30156 14.104 3.53593 14.104 3.90624V4.18281L14.3149 4.15468C14.5024 4.12656 14.7837 4.15937 15.0696 4.24374C15.1493 4.26249 15.1915 4.22968 15.2899 4.06093C15.4633 3.76562 15.843 3.44218 16.1477 3.32968C16.2883 3.27343 16.429 3.23125 16.4571 3.23125C16.5368 3.23125 16.4758 1.76406 16.3821 1.46406C16.1899 0.859369 15.6087 0.27812 15.0133 0.09062C14.7087 -0.00312996 14.6149 -0.00312996 8.2024 0.0015564C3.08834 0.0015564 1.66803 0.0156193 1.51803 0.0624943ZM5.20709 8.34062C5.5024 8.42499 5.57271 8.56562 5.57271 9.07187C5.57271 9.86874 5.54459 9.88749 4.22271 9.88749C3.67896 9.88749 3.18209 9.86874 3.11646 9.84062C2.90553 9.76093 2.80709 9.53593 2.80709 9.12343C2.80709 8.60312 2.89615 8.43437 3.22896 8.32656C3.3649 8.27968 5.03365 8.29374 5.20709 8.34062ZM9.23365 8.34062C9.52896 8.42499 9.58053 8.52343 9.59459 9.07187L9.61334 9.55937L9.44459 9.72812L9.28053 9.89218L8.2024 9.87812L7.11959 9.86406L6.99303 9.73281C6.87115 9.61093 6.86178 9.57343 6.84771 9.14687C6.83365 8.61249 6.90865 8.42499 7.17584 8.34531C7.38209 8.28906 9.02271 8.28437 9.23365 8.34062ZM5.43678 11.8984C5.56803 12.0344 5.57271 12.0484 5.57271 12.5359C5.57271 13.0234 5.56803 13.0375 5.43678 13.1734L5.30084 13.3094H4.21803H3.13521L2.98521 13.1734L2.83053 13.0375V12.5359V12.0344L2.98521 11.8984L3.13521 11.7625H4.21803H5.30084L5.43678 11.8984ZM9.39771 11.8469C9.56647 11.9781 9.60396 12.1141 9.60396 12.5359C9.60396 12.9578 9.56647 13.0937 9.39771 13.225C9.31334 13.2953 9.17272 13.3094 8.25865 13.3094C7.60709 13.3094 7.17584 13.2906 7.10553 13.2578C6.90396 13.1641 6.83834 12.9859 6.83834 12.5125C6.83834 12.0859 6.83834 12.0812 6.99771 11.9219L7.15709 11.7625H8.23053C9.17272 11.7625 9.31334 11.7719 9.39771 11.8469ZM5.33834 15.2641C5.53053 15.3766 5.57271 15.5125 5.57271 16C5.57271 16.7453 5.48365 16.7922 4.09615 16.7687C3.28521 16.7547 3.1399 16.7453 3.03209 16.6703C2.86334 16.5578 2.80709 16.3656 2.80709 15.9391C2.80709 15.5453 2.90553 15.3109 3.1024 15.2312C3.15865 15.2078 3.65553 15.1891 4.20396 15.1891C5.05709 15.1844 5.22584 15.1937 5.33834 15.2641ZM9.44928 15.3484L9.61334 15.5125L9.59459 16C9.57115 16.75 9.51959 16.7781 8.22115 16.7781C7.24615 16.7781 7.05865 16.7406 6.9274 16.5297C6.84771 16.4031 6.83834 16.3141 6.84771 15.9297C6.86178 15.4516 6.91803 15.3203 7.14303 15.2266C7.19459 15.2078 7.69615 15.1891 8.26334 15.1891L9.28522 15.1844L9.44928 15.3484Z" fill="#151515"/>
<path d="M16.4898 3.95312C16.3726 3.98124 16.2133 4.05624 16.1336 4.11249C15.9976 4.21093 15.7445 4.62812 15.7445 4.75937C15.7445 4.85781 15.4633 5.05937 15.3273 5.05937C15.2523 5.05937 15.0929 5.01249 14.9664 4.96093C14.2914 4.66093 13.5601 5.04999 13.5039 5.73906C13.4711 6.15624 13.5789 6.36718 14.1179 6.92031L14.5867 7.40312H16.7523H18.9179L19.4101 6.89687C19.9586 6.33437 20.0336 6.19374 20.0008 5.75781C19.9773 5.42031 19.7992 5.13437 19.5039 4.97499C19.2414 4.82968 18.8336 4.82031 18.5476 4.96093C18.4351 5.01249 18.2758 5.05937 18.1961 5.05937C18.0133 5.05937 17.7836 4.87187 17.7367 4.69843C17.6008 4.13593 17.0476 3.80312 16.4898 3.95312Z" fill="#151515"/>
<path d="M14.2493 8.15702C14.0196 8.25077 13.8509 8.41015 13.7431 8.65859C13.5368 9.09921 13.6634 9.58671 14.0525 9.86327L14.254 10.0039L16.7243 10.018L19.1993 10.032L19.4243 9.87734C19.7196 9.67577 19.8462 9.43671 19.8462 9.0664C19.8462 8.71015 19.7196 8.46171 19.4525 8.26952L19.2509 8.1289L16.8087 8.11952C15.3368 8.11484 14.3196 8.1289 14.2493 8.15702Z" fill="#151515"/>
<path d="M13.4993 11.3406C11.0759 14.1484 10.2603 15.7141 10.2603 17.5422C10.2603 19.075 10.8415 20.3969 11.9993 21.4891C12.8571 22.2953 13.9024 22.8391 15.1353 23.1156C15.5759 23.2141 15.7446 23.2234 16.7524 23.2234C17.9571 23.2234 18.2196 23.1906 19.0493 22.9328C19.6024 22.7641 20.4931 22.3094 20.9478 21.9672C22.0165 21.1562 22.7337 20.1297 23.0946 18.8875C23.2306 18.4094 23.2868 17.2984 23.2024 16.75C22.9774 15.2828 22.0493 13.7078 20.0712 11.4203L19.4712 10.7266L16.7571 10.7172L14.0431 10.7078L13.4993 11.3406ZM16.8931 12.9906C17.0571 13.0656 17.1509 13.2578 17.1509 13.5109V13.7125L17.4087 13.7969C17.704 13.8906 18.1024 14.1437 18.2899 14.3547C18.4774 14.5703 18.6509 14.9266 18.6509 15.0906C18.6509 15.3672 18.3321 15.55 18.0837 15.4187C18.0368 15.3906 17.9243 15.2547 17.8353 15.1187C17.5587 14.6875 17.2446 14.5141 16.7337 14.5187C16.0118 14.5234 15.529 15.0062 15.6931 15.5594C15.7915 15.8969 16.0728 16.0562 16.8368 16.2203C17.4415 16.3469 17.7649 16.4641 18.0837 16.675C18.8431 17.1766 19.0212 18.1656 18.4774 18.8781C18.2993 19.1125 17.8493 19.3844 17.479 19.4828L17.1509 19.5625V19.7687C17.1509 20.0359 17.0478 20.2234 16.8696 20.2891C16.579 20.3875 16.3493 20.1906 16.3165 19.8062L16.2978 19.5531L16.0212 19.4734C15.3415 19.2672 14.779 18.6859 14.6853 18.0953C14.6571 17.9266 14.6712 17.8937 14.7978 17.7625C15.0415 17.5187 15.3696 17.6125 15.4728 17.9547C15.5431 18.1937 15.7962 18.4891 16.0446 18.6203C16.2087 18.7094 16.3118 18.7234 16.7571 18.7234C17.2399 18.7234 17.2915 18.7141 17.5493 18.5828C17.8962 18.4047 18.0228 18.1937 17.9712 17.875C17.9056 17.4344 17.5446 17.1953 16.6587 17.0125C15.6743 16.8062 15.1634 16.4781 14.9524 15.9109C14.6243 15.0344 15.1071 14.1109 16.0587 13.8016L16.2978 13.7219L16.3165 13.4687C16.3399 13.2109 16.4337 13.0516 16.6118 12.9766C16.7384 12.925 16.7524 12.925 16.8931 12.9906Z" fill="#151515"/>
</svg>
