<svg width="24" height="21" viewBox="0 0 24 21" fill="none" xmlns="http://www.w3.org/2000/svg">
<path d="M20.1094 0.0816422C20.0438 0.128517 19.8047 0.320704 19.5703 0.51758C17.4375 2.3082 14.7234 3.63008 11.9531 4.23945C11.0953 4.42695 10.6781 4.48789 9.4125 4.61914L9.14062 4.64727V9.14258V13.6379L9.38906 13.6613C10.3359 13.7598 10.6922 13.8066 11.25 13.9051C14.3063 14.4582 17.25 15.8223 19.5703 17.7676C20.1797 18.2785 20.1891 18.2832 20.4844 18.2832C20.775 18.2832 20.9531 18.1895 21.0984 17.9738C21.1828 17.8426 21.1875 17.5801 21.1875 9.14258C21.1875 0.70508 21.1828 0.442579 21.0984 0.311329C21.0516 0.241016 20.9484 0.137892 20.8781 0.0910168C20.7 -0.0261707 20.2688 -0.030859 20.1094 0.0816422Z" fill="#151515"/>
<path d="M3.825 4.77851C3.75469 4.82539 3.65156 4.92852 3.60469 4.99883C3.52031 5.13008 3.51562 5.29414 3.51562 9.14258C3.51562 12.991 3.52031 13.1551 3.60469 13.2863C3.65156 13.3566 3.75469 13.4598 3.825 13.5066C3.95156 13.591 4.07812 13.5957 5.85 13.5957H7.73438V9.14258V4.68945H5.85C4.07812 4.68945 3.95156 4.69414 3.825 4.77851Z" fill="#151515"/>
<path d="M0.375 6.03945C0.285938 6.08164 0.164062 6.18945 0.107813 6.27852L0 6.43789V9.14258V11.8473L0.107813 12.0066C0.295313 12.2926 0.440625 12.3301 1.32656 12.3301H2.10938V9.14258V5.95508H1.32656C0.670313 5.95508 0.510938 5.96914 0.375 6.03945Z" fill="#151515"/>
<path d="M22.5938 9.14258C22.5938 10.6988 22.6125 11.9551 22.6359 11.9551C22.6547 11.9551 22.8328 11.791 23.025 11.5848C23.4094 11.1863 23.6531 10.7926 23.8453 10.2629C23.9625 9.93945 23.9719 9.86445 23.9719 9.14258C23.9719 8.4207 23.9625 8.3457 23.8453 8.02227C23.6531 7.49258 23.4094 7.09883 23.025 6.70039C22.8328 6.49414 22.6547 6.33008 22.6359 6.33008C22.6125 6.33008 22.5938 7.58633 22.5938 9.14258Z" fill="#151515"/>
<path d="M4.21875 17.3551C4.21875 19.5863 4.22344 19.7223 4.30781 19.8488C4.50938 20.1535 4.52813 20.1582 5.97656 20.1582C7.425 20.1582 7.44375 20.1535 7.64531 19.8488C7.72969 19.7223 7.73438 19.5863 7.73438 17.3551V15.002H5.97656H4.21875V17.3551Z" fill="#151515"/>
</svg>
