<svg width="19" height="23" viewBox="0 0 19 23" fill="none" xmlns="http://www.w3.org/2000/svg">
<path d="M1.9125 0.0750008C1.47656 0.178125 1.0875 0.403126 0.75 0.745314C0.389063 1.11094 0.220313 1.41094 0.09375 1.90313C0 2.25937 0 2.45156 0 11.0156C0 19.5797 0 19.7719 0.09375 20.1281C0.145313 20.3297 0.24375 20.6016 0.314063 20.7328C0.501563 21.0797 0.998438 21.5672 1.35 21.7453C1.93594 22.0406 1.71563 22.0312 7.38281 22.0266C10.6406 22.0219 12.3938 22.0031 12.1406 21.9797C8.70469 21.6234 6.63281 18.1828 7.96406 15.0516C8.50313 13.7859 9.66094 12.7266 11.0016 12.2859C12.0188 11.9484 13.2984 11.9813 14.2969 12.375C15.4031 12.8063 16.4531 13.7391 16.9031 14.6813C16.95 14.7797 17.0016 14.8594 17.025 14.8594C17.0438 14.8594 17.0625 12.8672 17.0625 10.4297V6H15.2203C14.1094 6 13.2656 5.98125 13.0969 5.94844C12.1828 5.78438 11.3719 5.02031 11.1328 4.09219C11.0766 3.87656 11.0625 3.45469 11.0625 1.9125V0L6.62344 0.00468826C3.00469 0.00937462 2.12813 0.0187511 1.9125 0.0750008ZM9.3375 4.68281C9.46406 4.79531 9.49219 4.85156 9.49219 5.01563C9.49219 5.17969 9.46406 5.23594 9.3375 5.34844L9.1875 5.48438H6.28125H3.375L3.225 5.34844C3.09844 5.23594 3.07031 5.17969 3.07031 5.01563C3.07031 4.85156 3.09844 4.79531 3.225 4.68281L3.375 4.54688H6.28125H9.1875L9.3375 4.68281ZM13.8375 7.68281C13.9641 7.79531 13.9922 7.85156 13.9922 8.01563C13.9922 8.17969 13.9641 8.23594 13.8375 8.34844L13.6875 8.48438H9.28125H4.875L4.725 8.34844C4.59844 8.23594 4.57031 8.17969 4.57031 8.01563C4.57031 7.85156 4.59844 7.79531 4.725 7.68281L4.875 7.54688H9.28125H13.6875L13.8375 7.68281ZM13.7344 10.1016C13.9125 10.1953 14.0297 10.4203 13.9922 10.5938C13.9547 10.7719 13.7672 10.95 13.5891 10.9875C13.3969 11.025 3.66563 11.025 3.47344 10.9875C3.16406 10.9219 2.97656 10.5797 3.1125 10.3172C3.26719 10.0172 2.94844 10.0359 8.52188 10.0313C12.9703 10.0313 13.6172 10.0406 13.7344 10.1016ZM6.61875 12.5625C7.07813 12.6938 7.11563 13.2891 6.67031 13.4578C6.60938 13.4813 5.85938 13.5 5.01094 13.5C3.72188 13.5 3.44063 13.4859 3.32813 13.4297C3.15 13.3359 3.03281 13.1109 3.07031 12.9375C3.10313 12.7781 3.29531 12.5766 3.43594 12.5484C3.66563 12.5063 6.45469 12.5203 6.61875 12.5625ZM5.76094 15.1125C6.07031 15.2766 6.07031 15.7547 5.76094 15.9188C5.65781 15.9703 5.38594 15.9844 4.50469 15.9844H3.375L3.225 15.8484C3.09844 15.7359 3.07031 15.6797 3.07031 15.5156C3.07031 15.3516 3.09844 15.2953 3.225 15.1828L3.375 15.0469H4.50469C5.38594 15.0469 5.65781 15.0609 5.76094 15.1125ZM6.23438 17.6016C6.4125 17.6953 6.52969 17.9203 6.49219 18.0938C6.45469 18.2719 6.26719 18.45 6.08906 18.4875C5.89688 18.525 3.66563 18.525 3.47344 18.4875C3.16406 18.4219 2.97656 18.0797 3.1125 17.8172C3.25313 17.5453 3.31406 17.5359 4.77188 17.5312C5.86875 17.5312 6.12188 17.5453 6.23438 17.6016Z" fill="#151515"/>
<path d="M12 1.88304C12 3.8846 12.0141 4.01585 12.3094 4.41897C12.4875 4.66272 12.8109 4.89241 13.0781 4.96741C13.1719 4.99554 14.0297 5.01429 15.1078 5.01429H16.9734L16.9172 4.90647C16.8422 4.76116 12.3328 0.242411 12.1781 0.158036C12.1078 0.120536 12.0422 0.092411 12.0234 0.092411C12.0094 0.092411 12 0.898661 12 1.88304Z" fill="#151515"/>
<path d="M11.789 13.0352C10.9078 13.2086 10.214 13.593 9.58119 14.2633C7.73901 16.1992 8.31557 19.4196 10.7109 20.6055C11.3484 20.9196 11.7562 21.0133 12.5156 21.0133C13.2374 21.0133 13.6546 20.9242 14.2312 20.6524L14.564 20.493L15.7078 21.6414C16.4343 22.3727 16.9218 22.8227 17.039 22.8789C17.3906 23.043 17.9109 22.9727 18.1781 22.7196C18.4781 22.4383 18.5859 21.8758 18.4031 21.5149C18.3562 21.4258 17.8031 20.8352 17.1749 20.1977L16.0265 19.0492L16.1671 18.7399C16.6031 17.7789 16.664 16.668 16.3312 15.693C16.0921 14.9805 15.6328 14.3242 15.0562 13.8649C14.6765 13.5649 14.0109 13.218 13.5703 13.1008C13.2328 13.0071 12.1312 12.9649 11.789 13.0352ZM13.2656 14.6617C13.6874 14.8071 13.9031 14.9336 14.2171 15.2336C14.864 15.8336 15.1453 16.7711 14.9296 17.5961C14.8078 18.0555 14.6249 18.3742 14.2734 18.7305C13.4859 19.5274 12.4265 19.7055 11.4374 19.2133C10.5843 18.7821 10.0781 17.9664 10.0781 17.0149C10.0781 16.5555 10.1578 16.2321 10.3734 15.8242C10.6734 15.2571 11.3578 14.7461 12.014 14.5961C12.3796 14.5164 12.9187 14.5446 13.2656 14.6617Z" fill="#151515"/>
</svg>
