<svg width="21" height="24" viewBox="0 0 21 24" fill="none" xmlns="http://www.w3.org/2000/svg">
<path d="M5.29688 1.17695V2.35352L5.85 2.33477C6.32344 2.3207 6.43594 2.30195 6.65625 2.19883C7.05 2.01133 7.28906 1.77695 7.48125 1.3832C7.63594 1.06445 7.65469 0.998828 7.67812 0.520703L7.70156 0.00039053H6.49687H5.29688V1.17695Z" fill="#151515"/>
<path d="M9.03281 0.548437C8.98125 1.55625 8.74219 2.13281 8.10938 2.77031C7.44844 3.43125 6.78281 3.70312 5.80313 3.70312H5.29688V6.14062V8.57812H6.63281H7.96875V8.44687C7.96875 8.0625 8.25469 7.35 8.60625 6.85781C9.00938 6.29531 9.77813 5.77969 10.5 5.59219C10.9031 5.48906 11.6484 5.48906 12.0469 5.59687C12.7266 5.77031 13.4109 6.20625 13.8328 6.72187C14.2172 7.19531 14.5781 8.025 14.5781 8.44687V8.57812H15.9141H17.25V6.14062V3.70312H16.7438C15.7641 3.70312 15.0984 3.43125 14.4375 2.77031C13.8047 2.13281 13.5656 1.55625 13.5141 0.548437L13.4859 0H11.2734H9.06094L9.03281 0.548437Z" fill="#151515"/>
<path d="M14.8687 0.520703C14.8921 0.998828 14.9108 1.06445 15.0655 1.3832C15.2577 1.77695 15.4968 2.01133 15.8905 2.19883C16.1108 2.30195 16.2233 2.3207 16.7015 2.33477L17.2499 2.35352V1.17695V0.00039053H16.0499H14.8452L14.8687 0.520703Z" fill="#151515"/>
<path d="M10.8421 6.91406C10.678 6.95156 10.439 7.03594 10.3124 7.10625C9.85771 7.35469 9.41709 7.94531 9.34209 8.41406L9.31396 8.57812H11.2733H13.2327L13.2046 8.41406C13.1296 7.94531 12.689 7.35469 12.2343 7.10625C12.0046 6.97969 11.4749 6.84375 11.2499 6.84844C11.1843 6.84844 11.0015 6.88125 10.8421 6.91406Z" fill="#151515"/>
<path d="M0 16.9687V24H1.92188H3.84375V16.9687V9.9375H1.92188H0V16.9687Z" fill="#151515"/>
<path d="M5.20312 16.9687V24H11.7891C18.3375 24 18.3797 24 18.6703 23.9016C19.05 23.775 19.3406 23.5875 19.6313 23.2781C20.3625 22.5047 20.4469 21.2812 19.8281 20.4L19.6547 20.1516L19.8469 19.8609C20.1281 19.4437 20.2266 19.1016 20.2266 18.5625C20.2266 18.0187 20.1281 17.6812 19.8422 17.2547L19.6406 16.9594L19.7625 16.8141C20.0391 16.4859 20.25 15.8906 20.25 15.4406C20.25 14.9203 20.0672 14.3672 19.7766 14.0016L19.6359 13.8281L19.7719 13.65C20.1891 13.1203 20.3484 12.3562 20.1797 11.6953C19.9688 10.8703 19.4438 10.3266 18.5672 10.0266C18.3234 9.94219 18.0375 9.9375 11.7563 9.9375H5.20312V16.9687Z" fill="#151515"/>
</svg>
