<svg width="24" height="24" viewBox="0 0 24 24" fill="none" xmlns="http://www.w3.org/2000/svg">
<path d="M10.6172 1.57396C6.59062 2.11771 3.27187 4.87396 2.00156 8.72709C1.65 9.78646 1.5 10.7568 1.5 11.999C1.5 13.4802 1.71562 14.6099 2.23594 15.913C2.60625 16.8411 3.35625 18.1302 3.63281 18.3083C3.8625 18.4583 4.21875 18.2427 4.21875 17.9568C4.21875 17.8865 4.07344 17.6146 3.8625 17.2958C2.79844 15.6786 2.29687 13.9911 2.29687 12.0458C2.29687 10.4521 2.59219 9.15365 3.27656 7.75677C4.73437 4.78021 7.59375 2.75052 10.8984 2.34271C11.8547 2.22552 13.1906 2.30052 14.1562 2.52552C14.9625 2.71302 16.0078 3.12084 16.6172 3.47709L16.8937 3.64584L16.8797 4.05834C16.8656 4.58802 16.9734 4.91615 17.2781 5.22552C17.5969 5.55834 17.9344 5.69427 18.4219 5.69427C18.7641 5.69427 18.8578 5.67552 19.0828 5.56302C19.3922 5.41302 19.7016 5.09896 19.8422 4.78959C19.9922 4.47084 19.9875 3.81459 19.8375 3.5099C19.6641 3.16302 19.4297 2.92396 19.1016 2.7599C18.6187 2.52552 18.0234 2.55365 17.5734 2.83959L17.4047 2.94271L16.7297 2.6099C15.6656 2.07552 14.5125 1.71927 13.3453 1.56927C12.6656 1.4849 11.2687 1.4849 10.6172 1.57396Z" fill="#151515"/>
<path d="M8.90664 6.12069C7.29882 6.80038 5.96289 7.37694 5.93945 7.40038C5.81757 7.52225 5.67226 8.62382 5.63945 9.70194C5.54101 12.9457 6.53945 15.5941 8.51289 17.3144C9.26757 17.9754 10.3457 18.6035 11.3816 18.9832C11.9113 19.1754 12.1176 19.166 12.7223 18.941C15.2769 17.9801 17.0113 16.1988 17.8316 13.6863C18.0285 13.0816 18.1598 12.5098 18.291 11.6941C18.3707 11.1785 18.3707 9.06444 18.2863 8.48319C18.2066 7.88788 18.1129 7.45194 18.0613 7.40038C18.0379 7.37694 16.6926 6.79569 15.0754 6.116C13.191 5.31913 12.0801 4.87382 11.9863 4.8785C11.9019 4.8785 10.5754 5.41288 8.90664 6.12069ZM12.6941 8.83475C13.2566 9.13944 13.5004 9.65507 13.5004 10.5504V10.8598L13.791 10.8926C14.2879 10.9441 14.5457 11.1832 14.6019 11.6379C14.6207 11.7738 14.6254 12.3691 14.616 12.9598C14.6019 13.9348 14.5926 14.0519 14.5082 14.1973C14.3863 14.4035 14.2176 14.5254 13.9879 14.5769C13.7488 14.6332 10.2519 14.6332 10.0129 14.5769C9.7832 14.5254 9.61445 14.4035 9.49257 14.1973C9.4082 14.0519 9.39882 13.9348 9.38476 12.9598C9.37539 12.3691 9.38007 11.7738 9.39882 11.6379C9.45507 11.1832 9.71289 10.9441 10.2051 10.8926L10.4863 10.8598L10.5144 10.3629C10.5332 10.091 10.566 9.78632 10.5941 9.69257C10.7113 9.28944 11.1473 8.84413 11.5504 8.71757C11.6301 8.69413 11.8644 8.68007 12.0707 8.68475C12.3801 8.69882 12.4879 8.72225 12.6941 8.83475Z" fill="#151515"/>
<path d="M11.5875 9.46875C11.3109 9.6375 11.25 9.80156 11.25 10.3687V10.875H12H12.75V10.3687C12.75 9.95156 12.7359 9.84375 12.6562 9.7125C12.5156 9.4875 12.3047 9.375 12 9.375C11.8266 9.375 11.6906 9.40312 11.5875 9.46875Z" fill="#151515"/>
<path d="M19.9311 5.7418C19.692 5.93867 19.7249 6.07461 20.1374 6.70273C21.1967 8.30586 21.703 10.0074 21.703 11.9668C21.6983 13.5371 21.4077 14.8262 20.742 16.1949C19.2842 19.2043 16.4248 21.248 13.1014 21.6559C12.5108 21.7309 11.3155 21.7215 10.7342 21.6371C9.64204 21.4824 8.78422 21.2199 7.81391 20.7371C7.05922 20.3621 7.11547 20.4324 7.1061 19.8652C7.10141 19.4574 7.08266 19.3449 6.98891 19.1527C6.83422 18.8434 6.56235 18.5809 6.23891 18.4262C6.0186 18.323 5.91079 18.3043 5.57797 18.3043C5.23579 18.3043 5.14204 18.323 4.91704 18.4355C4.4061 18.684 4.08266 19.1668 4.04047 19.7387C3.95141 20.9715 5.24985 21.7918 6.35141 21.1965L6.60454 21.0559L7.27485 21.3934C8.33422 21.923 9.49204 22.2793 10.6545 22.4293C11.367 22.5184 12.6373 22.5184 13.3452 22.4293C16.7624 21.984 19.7295 19.9215 21.3233 16.8746C22.1342 15.3184 22.4999 13.8137 22.4999 11.9996C22.4999 10.2605 22.1952 8.9293 21.4452 7.38242C21.1686 6.80586 20.5827 5.8543 20.428 5.73242C20.278 5.60586 20.0858 5.61055 19.9311 5.7418Z" fill="#151515"/>
</svg>
