<svg width="44" height="44" viewBox="0 0 44 44" fill="none" xmlns="http://www.w3.org/2000/svg">
<g clip-path="url(#clip0_797_717)">
<path d="M18.9263 3.116C18.0275 3.5023 17.3531 4.2058 17.0044 5.13117C16.7069 5.92646 16.7005 6.46825 16.9666 8.3034C17.4519 11.6249 18.1698 14.1256 19.5008 17.1676C19.818 17.9079 20.0865 18.5427 20.09 18.5816C20.0935 18.6205 19.6934 18.0053 19.1987 17.2103C17.2023 14.0082 15.221 11.6755 12.6312 9.46771C11.6125 8.6019 11.1043 8.35714 10.1722 8.28365C9.04275 8.19642 8.04483 8.61512 7.24639 9.51012C6.08381 10.8064 6.04772 12.7705 7.14777 14.1075C7.50009 14.5388 9.20419 15.8766 10.4719 16.7202C12.4236 18.0202 14.1594 18.9239 16.724 19.973C17.6684 20.3591 18.3774 20.6565 18.306 20.6472C18.2417 20.6294 17.5537 20.4792 16.7844 20.297C13.517 19.5461 10.9852 19.3019 7.67693 19.4096C5.83925 19.472 5.29164 19.5759 4.55468 20.0183C3.39298 20.7105 2.74676 21.9919 2.87065 23.377C2.99872 24.8088 3.84375 25.9254 5.15794 26.4118C5.95254 26.7016 6.53393 26.7123 8.38395 26.437C11.651 25.9565 14.0597 25.2626 17.1568 23.9346C17.8667 23.6279 18.4938 23.36 18.5546 23.3389C18.6148 23.31 17.9705 23.7363 17.1096 24.2839C13.8827 26.353 11.7171 28.1861 9.542 30.7024C8.93126 31.4159 8.72996 31.7084 8.55175 32.1714C7.99157 33.6256 8.33461 35.093 9.47825 36.1281C10.3231 36.8918 11.315 37.1952 12.4052 37.0193C13.5881 36.8272 14.2424 36.3373 15.4493 34.7469C17.4392 32.0903 18.6717 29.9093 20.0459 26.594C20.3937 25.7471 20.6733 25.1025 20.6555 25.1668C20.6455 25.2305 20.4747 25.9517 20.2889 26.7683C19.5466 29.9565 19.3117 32.4169 19.4187 35.7174C19.4825 37.5706 19.5871 38.126 20.0302 38.8708C20.3914 39.4895 21.1191 40.0833 21.8423 40.3637C22.3944 40.5732 22.434 40.5775 23.3911 40.4918C24.356 40.4055 24.3638 40.4048 24.9287 40.0563C25.866 39.4861 26.5005 38.5116 26.6315 37.4332C26.6952 36.9176 26.6131 35.9994 26.3838 34.5767C25.8903 31.5147 25.1168 28.9171 23.8076 25.9438C23.5404 25.3245 23.3127 24.7958 23.3106 24.7724C23.3085 24.7491 23.7729 25.4684 24.3396 26.3668C26.2492 29.3884 28.1712 31.6715 30.5603 33.7404C31.6729 34.6919 32.1443 34.9635 32.9483 35.0955C35.5669 35.5201 37.7634 32.8921 36.8807 30.3905C36.6081 29.6227 36.2572 29.207 35.124 28.2887C32.6633 26.2968 30.1326 24.8368 26.7621 23.4597C25.7774 23.0615 25.0267 22.7365 25.091 22.7542C25.1547 22.7642 25.8271 22.9159 26.5724 23.0924C29.8723 23.8561 32.3652 24.1037 35.6968 23.994C37.5741 23.9359 38.1217 23.832 38.8522 23.4058C39.4561 23.0538 40.1207 22.2413 40.3799 21.5436C40.5759 21.0162 40.5781 20.9533 40.4946 20.0195C40.4097 19.0702 40.3984 19.0319 40.0943 18.5258C39.4959 17.5361 38.4486 16.8768 37.3015 16.7676C36.9932 16.7403 36.4004 16.7776 35.6258 16.8861C32.1762 17.3437 29.4131 18.1085 26.1808 19.5036C25.4412 19.8286 24.8134 20.0887 24.7823 20.0915C24.7582 20.0858 25.3664 19.6941 26.1394 19.2171C29.127 17.3654 31.4561 15.4315 33.5227 13.1053C34.7271 11.7504 34.9462 11.3936 35.0925 10.4863C35.3016 9.22829 34.8302 7.99193 33.8221 7.15655C32.6698 6.20071 31.0425 6.07174 29.7223 6.83302C28.8643 7.32548 26.7411 10.1587 25.3759 12.6104C24.5051 14.1864 24.2156 14.8085 23.4376 16.7213C23.0585 17.6572 22.742 18.415 22.7399 18.3917C22.7378 18.3683 22.8681 17.8076 23.0211 17.1507C23.7818 13.9923 24.082 11.2986 24.0243 8.19764C23.9814 6.05231 23.8538 5.32642 23.362 4.47622C23.0558 3.94671 22.237 3.29833 21.5633 3.04485C21.0522 2.85525 20.9171 2.83596 20.1758 2.87874C19.5285 2.92094 19.266 2.96795 18.9263 3.116Z" fill="#390574"/>
</g>
<defs>
<clipPath id="clip0_797_717">
<rect width="40" height="40" fill="white" transform="translate(0 3.56364) rotate(-5.11131)"/>
</clipPath>
</defs>
</svg>
