<svg width="75" height="78" viewBox="0 0 75 78" fill="none" xmlns="http://www.w3.org/2000/svg">
<path d="M37.5 0L38.0555 35.7738L50.5235 2.35199L39.0992 36.1629L61.9764 9.12428L39.9503 36.8942L70.477 19.5L40.5055 37.8795L75 32.2277L40.6985 39L75 45.7723L40.5055 40.1205L70.477 58.5L39.9503 41.1056L61.9764 68.8756L39.0992 41.8372L50.5235 75.6479L38.0555 42.2261L37.5 78L36.9445 42.2261L24.4764 75.6479L35.9007 41.8372L13.0236 68.8756L35.0497 41.1056L4.52306 58.5L34.4943 40.1205L0 45.7723L34.3014 39L0 32.2277L34.4943 37.8795L4.52306 19.5L35.0497 36.8942L13.0236 9.12428L35.9007 36.1629L24.4764 2.35199L36.9445 35.7738L37.5 0Z" fill="url(#paint0_linear_636_763)"/>
<defs>
<linearGradient id="paint0_linear_636_763" x1="37.5" y1="0" x2="37.5" y2="78" gradientUnits="userSpaceOnUse">
<stop stop-color="#035349"/>
<stop offset="1" stop-color="#E8E828"/>
</linearGradient>
</defs>
</svg>
