<svg width="40" height="60" viewBox="0 0 40 60" fill="none" xmlns="http://www.w3.org/2000/svg">
<path d="M16.5234 0.201172C14.2148 0.623047 12.7266 1.12695 10.7344 2.14648C5.34375 4.90039 1.60547 9.83398 0.269531 15.916C0.0351562 17.0176 0 17.4512 0 20.0176C0.0117188 23.2285 0.140625 24.1426 0.949219 26.5801C2.12109 30.1191 3.97266 33.0488 9.50391 40.1504C11.1445 42.248 12.457 43.9824 12.4336 44.0059C12.4102 44.0293 11.6367 44.2051 10.6992 44.3926C5.33203 45.4824 1.62891 47.4512 0.339844 49.9004C0.0234375 50.4863 0 50.6504 0 51.7754C0 52.9473 0.0117188 53.041 0.398438 53.7441C1.71094 56.1582 5.57812 58.1738 10.9102 59.2051C14.168 59.8262 15.2695 59.9199 19.8633 59.9199C24.457 59.9199 25.5586 59.8262 28.8164 59.2051C34.1719 58.1621 38.0156 56.1699 39.3281 53.7441C39.7148 53.041 39.7266 52.9473 39.7266 51.7754C39.7266 50.6035 39.7148 50.5098 39.3281 49.8066C38.0156 47.3926 34.3594 45.4707 29.0273 44.3926C28.0898 44.2051 27.3164 44.0293 27.293 44.0059C27.2695 43.9824 27.8672 43.1738 28.6172 42.2129C34.9805 34.1152 36.9609 31.1738 38.332 27.7402C38.9648 26.1699 39.4805 24.2246 39.668 22.6777C39.8789 20.9902 39.7617 17.3574 39.4336 15.8574C37.7695 8.0293 31.7695 2.0293 23.9062 0.318359C22.207 -0.0449219 18.2109 -0.115234 16.5234 0.201172ZM22.2656 2.56836C27.5625 3.25977 32.4023 6.58789 35.168 11.4277C35.8711 12.6582 36.5742 14.498 36.9492 16.0801C37.2422 17.2871 37.2656 17.5684 37.2656 19.959C37.2539 22.3262 37.2305 22.6426 36.9492 23.8262C36.3398 26.4277 35.2266 28.8535 33.375 31.6777C32.0859 33.6348 30.7383 35.4395 26.9062 40.3496C25.1953 42.541 22.9336 45.4941 21.8789 46.9121C20.8125 48.3301 19.9102 49.4902 19.8516 49.4902C19.8047 49.4902 19.3008 48.8574 18.7383 48.084C17.4023 46.2559 14.8477 42.916 12.1406 39.4707C10.9453 37.959 9.44531 36.002 8.78906 35.1348C4.80469 29.8496 3.22266 26.7207 2.57812 22.8535C2.27344 21.0723 2.37891 17.7441 2.78906 16.0215C3.57422 12.7402 5.17969 9.88086 7.55859 7.51367C11.4961 3.61133 16.7344 1.85352 22.2656 2.56836ZM15.0586 47.2988C15.4688 47.8613 16.4648 49.209 17.2617 50.3105C19.1602 52.9238 19.1836 52.9473 19.8633 52.9473C20.5195 52.9473 20.6484 52.8301 22.207 50.6621C22.8164 49.8184 23.8008 48.5059 24.3984 47.7207L25.4766 46.3027L26.5195 46.4551C32.6367 47.3691 37.3242 49.6543 37.3242 51.752C37.3242 52.4316 37.1133 52.7832 36.293 53.5449C33.7031 55.9355 27.1289 57.5293 19.8633 57.5293C13.8984 57.5293 8.60156 56.5215 5.16797 54.7285C4.07812 54.166 2.87109 53.1582 2.56641 52.584C2.34375 52.1387 2.35547 51.3066 2.60156 50.9551C4.03125 48.7988 8.08594 47.1816 14.2383 46.291C14.2734 46.2793 14.6367 46.7363 15.0586 47.2988Z" fill="white"/>
<path d="M19.1955 4.87717C18.8791 5.11154 18.6916 5.67404 18.7736 6.10764C18.9494 6.99826 20.2033 7.34982 20.8361 6.68185C21.2932 6.2131 21.2815 5.42795 20.8244 4.98264C20.426 4.59592 19.6174 4.54904 19.1955 4.87717Z" fill="#FFB627"/>
<path d="M23.7306 5.81445C23.0861 6.4707 23.3322 7.47852 24.2228 7.83008C28.3712 9.4707 31.2189 12.6465 32.297 16.8301C32.4259 17.3223 32.5783 18.3652 32.6369 19.127C32.7306 20.416 32.7658 20.5449 33.0587 20.8496C33.3283 21.1309 33.4806 21.1895 33.9259 21.1895C34.3712 21.1895 34.5236 21.1309 34.7814 20.8613C35.0744 20.5566 35.0978 20.4629 35.0978 19.4082C35.0978 17.4395 34.4884 14.9316 33.5627 13.0801C32.5314 11.0176 30.6564 8.80273 28.8048 7.49023C27.3986 6.48242 25.5236 5.58008 24.715 5.50977C24.1408 5.46289 24.0587 5.48633 23.7306 5.81445Z" fill="#FFB627"/>
<path d="M17.8125 11.8848C17.4258 11.9785 16.6641 12.2715 16.1133 12.541C15.3047 12.9395 14.918 13.2324 14.0625 14.0996C12.3516 15.7988 11.6602 17.4629 11.6602 19.9004C11.6602 21.4238 11.8711 22.3613 12.5039 23.6504C12.9023 24.459 13.1953 24.8457 14.0625 25.7012C15.7617 27.4121 17.4258 28.1035 19.8633 28.1035C21.3867 28.1035 22.3242 27.8926 23.6133 27.2598C24.4219 26.8613 24.8086 26.5684 25.6641 25.7012C27.375 24.002 28.0664 22.3379 28.0664 19.9004C28.0664 18.377 27.8555 17.4395 27.2227 16.1504C26.8242 15.3418 26.5312 14.9551 25.6641 14.0996C23.9414 12.3652 22.2891 11.6973 19.8047 11.709C19.1016 11.709 18.1992 11.791 17.8125 11.8848ZM22.2422 14.6504C23.4961 15.248 24.5156 16.2676 25.1016 17.5215C25.5 18.3418 25.5469 18.5527 25.582 19.5605C25.6641 21.3887 25.1602 22.7129 23.918 23.9551C23.1797 24.6934 22.1953 25.2793 21.293 25.5254C20.6016 25.7012 18.9844 25.6777 18.3281 25.4785C16.6992 24.9746 15.3516 23.8145 14.6133 22.2793C14.1797 21.377 14.1797 21.3535 14.1797 19.9004C14.1797 18.4473 14.1797 18.4238 14.6133 17.5215C15.3281 16.0215 16.6758 14.8496 18.2812 14.3223C18.5859 14.2168 19.207 14.1699 20.0391 14.1934C21.2578 14.2168 21.375 14.2402 22.2422 14.6504Z" fill="#FFB627"/>
</svg>
