<svg width="60" height="60" viewBox="0 0 60 60" fill="none" xmlns="http://www.w3.org/2000/svg">
<path d="M28.1953 0.175781C26.3555 0.679688 24.7148 2.0625 23.918 3.77344C23.168 5.36719 23.0273 6.76172 23.4375 8.36719C23.7656 9.64453 24.3047 10.5938 25.2188 11.5312C25.6641 11.9648 26.0156 12.3398 26.0156 12.3516C26.0156 12.375 25.793 12.457 25.5234 12.5391C23.4492 13.1484 20.9766 15.2344 19.7695 17.3555C19.1016 18.5391 18.5742 20.1328 18.3984 21.457C18.3398 21.9961 18.2812 23.5898 18.2812 24.9961C18.2812 27.6562 18.3516 28.1133 18.8086 28.2891C19.0664 28.3828 40.9336 28.3828 41.1914 28.2891C41.6484 28.1133 41.7188 27.6562 41.7188 25.0547C41.7188 23.6836 41.6602 22.0898 41.6016 21.5273C41.4492 20.1797 40.9219 18.5742 40.2305 17.3555C39.0234 15.2344 36.5508 13.1484 34.4883 12.5391C34.207 12.457 33.9844 12.375 33.9844 12.3516C33.9844 12.3398 34.3359 11.9648 34.7812 11.5312C37.4648 8.8125 37.4531 4.60547 34.7578 1.92188C33.8672 1.04297 32.918 0.480469 31.7578 0.175781C30.9609 -0.0351562 28.9805 -0.0351562 28.1953 0.175781ZM31.5938 2.25C33.3633 2.89453 34.5703 4.44141 34.7578 6.31641C34.957 8.20312 33.832 10.1484 32.0273 11.0391C31.2773 11.4023 31.1602 11.4258 30 11.4258C28.8398 11.4258 28.7109 11.4023 27.9961 11.0508C26.0391 10.0898 24.9141 7.96875 25.2891 5.96484C25.8398 3 28.8398 1.23047 31.5938 2.25ZM30.4688 13.9102C30.4688 13.957 30.6797 15.5391 30.9492 17.4258L31.4297 20.8711L31.1367 21.2461C30.9727 21.457 30.6562 21.832 30.4219 22.0898L30 22.5586L29.5781 22.0898C29.3438 21.832 29.0273 21.457 28.8633 21.2461L28.5703 20.8711L29.0508 17.4258C29.3203 15.5391 29.5312 13.957 29.5312 13.9102C29.5312 13.8633 29.7422 13.8281 30 13.8281C30.2578 13.8281 30.4688 13.8633 30.4688 13.9102ZM27.4688 14.2617C27.2812 15.0938 26.5078 21.3633 26.5664 21.5273C26.6016 21.6445 27.2695 22.4883 28.0312 23.4023C29.4375 25.1016 29.6953 25.3008 30.293 25.1484C30.5977 25.0664 33.3047 21.9375 33.4336 21.5039C33.4805 21.375 33.2812 19.6641 33 17.6953C32.7305 15.7266 32.5195 14.0977 32.5312 14.0859C32.5898 13.9922 33.9492 14.4492 34.6172 14.7891C36.832 15.8906 38.4492 17.7305 39.2109 19.9922C39.5977 21.1641 39.7148 22.1953 39.7266 24.457V26.3672H38.4961H37.2656V23.9648C37.2656 21 37.1836 20.7422 36.1992 20.7422C35.9883 20.7422 35.7422 20.8594 35.5664 21.0352C35.2734 21.3164 35.2734 21.3164 35.2734 23.8477V26.3672H30H24.7266V23.8477C24.7266 21.3164 24.7266 21.3164 24.4336 21.0352C24.2578 20.8594 24.0117 20.7422 23.8008 20.7422C22.8164 20.7422 22.7344 21 22.7344 23.9648V26.3672H21.5039H20.2734V24.3984C20.2734 23.3203 20.332 22.0781 20.3906 21.6328C20.8945 18.2109 23.3086 15.3516 26.6016 14.2852C27.4219 14.0156 27.5273 14.0156 27.4688 14.2617Z" fill="#FFB627"/>
<path d="M7.76945 12.1406C7.49992 12.2461 7.04289 12.5273 6.76164 12.7734C5.87101 13.5586 5.76554 13.9102 5.44914 17.3789C5.09757 21.0586 4.58195 25.6641 4.08976 29.4141C3.89054 30.9258 3.70304 32.9883 3.66789 33.9961C3.58585 36.1523 3.74992 37.125 4.41789 38.4727C4.88664 39.4102 5.63664 40.1836 11.4023 45.7734C13.5937 47.8945 14.414 48.7617 14.414 48.9492C14.414 49.207 14.3788 49.2188 13.3476 49.2188C12.328 49.2188 12.2694 49.2305 11.9413 49.5703L11.5898 49.9102L11.6249 54.7266L11.6601 59.5547L11.9413 59.7773C12.1991 59.9883 12.5155 60 20.2968 60H28.371L28.664 59.707L28.9569 59.4141L28.9218 54.5391L28.8866 49.6641L28.6054 49.4414C28.3944 49.2656 28.1484 49.2188 27.4687 49.2188H26.6132L26.578 45.0234C26.5429 41.0742 26.5312 40.8047 26.2968 40.2305C26.039 39.6211 25.0898 38.2266 21.0702 32.6016C16.9804 26.8828 15.6093 25.1133 14.9648 24.7148C14.7304 24.5742 14.3788 24.4922 14.039 24.4922C13.7226 24.4922 13.4765 24.457 13.4765 24.3984C13.4765 23.543 11.8593 13.9805 11.6484 13.5234C11.0624 12.293 9.21085 11.6367 7.76945 12.1406ZM9.4921 14.1211C9.6796 14.2266 9.8671 14.4141 9.90226 14.5664C10.0663 15.3047 10.9687 20.9297 11.3085 23.4023L11.7069 26.2383L11.2968 27.3633C10.664 29.1562 10.6405 29.0977 12.4687 32.8242C13.9569 35.8828 15.1288 38.4258 15.6913 39.8672C15.9843 40.582 16.3827 40.875 16.9335 40.7344C17.4491 40.6055 17.7187 40.1953 17.6601 39.6562C17.5898 38.9766 16.6523 36.8438 14.6366 32.707C13.6757 30.75 12.8905 29.0625 12.8905 28.957C12.9023 28.6055 13.7694 26.543 13.9101 26.543C14.0859 26.543 15.3984 28.2305 17.7304 31.4297C20.3554 35.0625 24.0937 40.3477 24.3398 40.8047C24.5273 41.1562 24.5507 41.5898 24.5859 45.1992L24.621 49.2188H20.5077H16.4062V48.7852C16.4062 47.9531 15.996 47.4141 13.7226 45.1875C8.4257 40.0312 6.37492 37.9219 6.1171 37.3594C5.49601 36 5.48429 34.6406 6.03507 30.0586C6.65617 24.9844 7.23039 19.8984 7.4296 17.4609C7.66398 14.8125 7.74601 14.4727 8.2382 14.1797C8.69523 13.8984 9.03507 13.8867 9.4921 14.1211ZM26.953 54.6094V58.0078H23.1796C21.0937 58.0078 18.0937 58.043 16.4999 58.0898L13.5937 58.1602V54.6914V51.2109H20.2734H26.953V54.6094Z" fill="white"/>
<path d="M49.9688 12.1406C49.3477 12.3633 48.5977 13.0078 48.3516 13.5234C48.1406 13.9805 46.5234 23.543 46.5234 24.3984C46.5234 24.457 46.2773 24.4922 45.9727 24.4922C45.6211 24.4922 45.2695 24.5742 45.0352 24.7148C44.3906 25.1133 43.0195 26.8828 38.9297 32.6016C34.9102 38.2266 33.9609 39.6211 33.7031 40.2305C33.4688 40.8047 33.457 41.0742 33.4219 45.0234L33.3867 49.2188H32.5312C31.8516 49.2188 31.6055 49.2656 31.3945 49.4414L31.1133 49.6641L31.0781 54.5391L31.043 59.4141L31.3359 59.707L31.6289 60H39.7031C47.4844 60 47.8008 59.9883 48.0586 59.7773L48.3398 59.5547L48.375 54.7266L48.4102 49.9102L48.0586 49.5703C47.7305 49.2305 47.6719 49.2188 46.6523 49.2188C45.6211 49.2188 45.5859 49.207 45.5859 48.9492C45.5859 48.7617 46.4062 47.8945 48.5977 45.7734C54.2812 40.2773 55.1016 39.4102 55.5703 38.4609C56.5312 36.5625 56.5781 34.7109 55.8516 29.0039C55.3125 24.6914 54.9141 21.1406 54.5508 17.3789C54.2344 13.9102 54.1289 13.5586 53.2383 12.7852C52.3594 12 51.0703 11.7539 49.9688 12.1406ZM51.6914 14.1328C52.1602 14.3672 52.3359 14.8359 52.4297 16.0547C52.6289 18.5156 53.1445 23.332 53.7305 28.1836C54.5391 34.793 54.5508 35.8945 53.8828 37.3594C53.625 37.9102 51.6445 39.9609 46.2773 45.1992C43.9922 47.4141 43.5938 47.9648 43.5938 48.7852V49.2188H39.4922H35.3789L35.4141 45.1992C35.4492 41.5898 35.4727 41.1562 35.6602 40.8047C35.9062 40.3477 39.6328 35.0625 42.2461 31.4648C44.5547 28.2773 45.9141 26.543 46.0898 26.543C46.2305 26.543 47.0977 28.6055 47.1094 28.957C47.1094 29.0625 46.3242 30.75 45.3633 32.707C43.3359 36.8555 42.4102 38.9883 42.3398 39.6562C42.2109 40.8398 43.7461 41.2031 44.2148 40.1016C44.3203 39.8672 44.6133 39.1523 44.8711 38.5312C45.4336 37.207 47.1094 33.6211 48.2812 31.2891C49.2773 29.3086 49.3008 29.0391 48.7031 27.3633L48.293 26.2383L48.6914 23.4023C49.0312 20.9297 49.9336 15.3047 50.0977 14.5664C50.168 14.2734 50.6602 13.957 51.0703 13.9453C51.2227 13.9453 51.5039 14.0273 51.6914 14.1328ZM46.4062 54.6914V58.1602L43.5117 58.0898C41.9062 58.043 38.9062 58.0078 36.832 58.0078H33.0469V54.6094V51.2109H39.7266H46.4062V54.6914Z" fill="white"/>
</svg>
