<svg width="60" height="60" viewBox="0 0 60 60" fill="none" xmlns="http://www.w3.org/2000/svg">
<path d="M6.57562 0.165038C5.42718 0.446288 4.43109 1.03222 3.49359 1.98144C1.7475 3.75097 1.1264 6.00097 1.73578 8.37988C2.89594 12.915 8.19281 14.8955 12.0717 12.2353C14.31 10.7119 15.3881 7.96972 14.8022 5.23925C14.5444 3.98535 13.9819 2.98925 12.9858 1.98144C12.0248 1.00879 10.9116 0.375976 9.72796 0.129882C8.91937 -0.0341806 7.34906 -0.0224619 6.57562 0.165038ZM10.2436 2.46191C11.6381 3.1416 12.6108 4.43066 12.892 5.9541C13.3491 8.40332 11.4272 11.0166 8.94281 11.3447C7.38421 11.5439 6.0014 11.0869 4.92328 9.99707C3.09515 8.18066 3.07172 5.28613 4.85297 3.46972C5.94281 2.37988 6.97406 1.96972 8.50921 2.04004C9.30609 2.07519 9.6225 2.15722 10.2436 2.46191Z" fill="#FFB627"/>
<path d="M21.5991 0.282228C21.271 0.434572 20.8609 0.727542 20.6851 0.938479C20.0054 1.74707 20.0171 1.55957 20.0171 8.77832C20.0171 15.1533 20.0288 15.4228 20.2515 15.7861C20.7202 16.5596 21.7515 16.7588 22.5366 16.2197C22.7827 16.0557 23.5679 15.4111 24.2827 14.7783C24.9976 14.1455 25.7007 13.5713 25.8413 13.4893C26.0171 13.3955 27.6226 13.3604 31.3374 13.3604C34.9702 13.3604 36.7163 13.3135 37.021 13.2197C37.6187 13.0439 38.3569 12.4111 38.6851 11.79C38.9429 11.3213 38.9429 11.2393 38.9429 6.68067C38.9429 2.15723 38.9429 2.04004 38.6851 1.58301C38.5444 1.3252 38.2632 0.950198 38.0405 0.739261C37.2437 -0.0224571 37.5249 0.000980377 29.4859 0.000980377H22.1851L21.5991 0.282228ZM36.4819 2.06348C36.9624 2.25098 37.0093 2.61426 37.0093 6.66895C37.0093 10.7119 36.9741 10.9932 36.4937 11.2393C36.3296 11.3213 34.5015 11.3799 30.7984 11.3916C25.8648 11.4268 25.314 11.4502 24.939 11.6377C24.7046 11.7432 23.9663 12.3174 23.2984 12.915L22.0679 13.9814L22.0327 8.25098L22.0093 2.52051L22.3023 2.25098L22.6069 1.99317H29.4507C33.2124 1.99317 36.3765 2.02832 36.4819 2.06348Z" fill="#FFB627"/>
<path d="M24.5289 4.2793C24.1187 4.67773 24.1422 5.19336 24.5757 5.63867L24.9156 5.97852H29.439C32.1343 5.97852 34.0679 5.93164 34.2554 5.86133C34.6773 5.69727 34.9351 5.06445 34.7711 4.58398C34.7007 4.38477 34.5484 4.16211 34.4312 4.10352C34.3023 4.0332 32.357 3.98633 29.5093 3.98633H24.8101L24.5289 4.2793Z" fill="#FFB627"/>
<path d="M24.7399 7.52539C24.1774 7.79492 24.1071 8.83789 24.6227 9.20117C24.8219 9.3418 25.3375 9.37695 27.3531 9.37695C29.6852 9.37695 29.8492 9.36523 30.1422 9.13086C30.5641 8.80273 30.5758 8.08789 30.1539 7.67773C29.8727 7.38477 29.8727 7.38477 27.4352 7.39648C25.9821 7.39648 24.8922 7.45508 24.7399 7.52539Z" fill="#FFB627"/>
<path d="M50.0522 0.164891C48.4585 0.55161 46.7827 1.81723 45.9155 3.27036C44.1342 6.27036 45.0131 10.2782 47.8842 12.2352C50.5678 14.075 54.2006 13.7469 56.4741 11.4735C58.5014 9.44614 59.0053 6.27036 57.728 3.65708C57.1655 2.50864 55.853 1.21958 54.7045 0.668797C54.2241 0.446141 53.5444 0.200047 53.2045 0.129735C52.396 -0.0343275 50.8256 -0.0226088 50.0522 0.164891ZM53.6967 2.45005C56.6733 3.91489 57.3413 7.70005 55.0327 9.99692C52.2905 12.7391 47.7788 11.2508 47.0639 7.38364C46.7241 5.60239 47.6967 3.6102 49.3725 2.62583C50.2163 2.13364 50.8725 1.99302 51.9858 2.03989C52.7827 2.07505 53.0991 2.15708 53.6967 2.45005Z" fill="white"/>
<path d="M5.42734 15.7044C3.77499 15.9505 2.29843 17.2161 1.80624 18.8098C1.56015 19.5833 -0.0570405 40.7239 0.00155323 42.3059C0.0367095 43.302 0.0835845 43.513 0.470303 44.3333C1.19687 45.845 2.3453 46.8177 3.96249 47.2747C4.31405 47.3684 6.17734 47.6497 8.09921 47.8841L11.5797 48.3294V53.2864C11.5797 59.1223 11.568 59.0637 12.6812 59.0637C12.9273 59.0637 13.15 58.97 13.3141 58.7942C13.5719 58.5247 13.5719 58.513 13.5719 52.7591C13.5719 47.1692 13.5601 46.9817 13.3375 46.7591C13.0445 46.4661 13.1617 46.4895 9.23593 45.9973C4.8414 45.4466 4.48984 45.388 3.95077 45.1184C2.79062 44.5208 1.9703 43.2786 1.9703 42.1067C1.9703 41.0403 3.61093 19.888 3.72812 19.4544C4.20859 17.6731 6.81015 17.0872 8.07577 18.47C8.25155 18.6575 9.50546 20.6497 10.8766 22.9114C12.2476 25.1614 13.4898 27.1301 13.6539 27.2708C13.8062 27.4231 14.0875 27.5403 14.2633 27.5403C14.4508 27.5403 16.6539 26.72 19.15 25.7122C23.0289 24.1536 23.8023 23.8841 24.3531 23.8723C25.1266 23.8606 25.818 24.177 26.3219 24.7864C27.1539 25.7942 27.107 27.0364 26.2047 28.0676C25.7711 28.5598 25.5484 28.6536 19.5719 31.0442C12.7633 33.763 12.7633 33.763 11.7203 33.2356C11.4156 33.0833 11.0875 32.8606 10.982 32.7434C10.8766 32.6145 10.068 31.3372 9.17734 29.8841C8.29843 28.4309 7.51327 27.177 7.43124 27.095C7.34921 27.013 7.0914 26.9192 6.85702 26.8723C6.49374 26.8137 6.38827 26.8606 6.06015 27.177C5.75546 27.4817 5.69687 27.6223 5.75546 27.927C5.79062 28.138 6.5289 29.4739 7.4078 30.9036L9.00156 33.5051V35.9192C9.00156 38.3216 9.00156 38.3333 9.29452 38.6145C9.44687 38.7786 9.64609 38.9075 9.73984 38.9075C10.3141 38.9075 17.9312 39.8567 18.2594 39.9739C19.1969 40.302 19.9937 41.0403 20.4508 42.013C20.65 42.4466 20.6617 42.9856 20.6969 50.5091C20.732 58.513 20.732 58.5364 20.9781 58.7942C21.2945 59.1341 21.9859 59.1575 22.3727 58.8411L22.6539 58.6184V50.427C22.6539 42.7161 22.6422 42.2122 22.4312 41.6028C22.1266 40.7239 21.7281 40.0559 21.1305 39.4466C19.9 38.1809 19.1969 37.9583 14.7906 37.4427C12.8453 37.22 11.2047 37.0325 11.1226 37.0325C11.0406 37.0325 10.9937 36.7161 10.9937 36.1067V35.1809L11.4976 35.3567C11.8375 35.4856 12.3062 35.5208 13.0445 35.4856L14.0992 35.427L20.3102 32.9426C24.107 31.4192 26.7203 30.3059 27.0484 30.0716C28.3023 29.1692 28.9937 27.6575 28.9 26.0637C28.8531 25.3723 28.7594 25.0208 28.4078 24.3176C27.9039 23.3098 27.3297 22.7591 26.2281 22.22C25.5367 21.8919 25.3609 21.8567 24.3531 21.8684H23.2398L18.9977 23.5794L14.7555 25.2903L14.4039 24.7395C14.2164 24.4466 13.1266 22.6653 11.9898 20.802C10.8531 18.927 9.79843 17.2747 9.66952 17.1223C8.73202 16.0911 6.93905 15.4817 5.42734 15.7044Z" fill="#FFB627"/>
<path d="M52.1852 16.4544C50.3923 17.0286 49.9001 17.5794 46.8649 22.595C45.0954 25.5012 44.2751 26.7434 44.111 26.7786C43.9704 26.8137 41.779 27.1301 39.236 27.4817C35.1931 28.0559 34.5134 28.1848 33.8923 28.4661C32.8728 28.9348 32.2751 29.5325 31.7712 30.552C31.4196 31.2669 31.3376 31.5716 31.3024 32.3216C31.2673 32.9075 31.3142 33.4114 31.4196 33.7747L31.5954 34.3372H25.8298H20.0525L19.8064 34.6067C19.5134 34.9114 19.4665 35.5677 19.7009 35.8723C20.029 36.3059 20.2751 36.3294 24.4001 36.3294H28.4548L28.4782 47.4739L28.5134 58.6184L28.7946 58.8411C29.1814 59.1575 29.8728 59.1341 30.1892 58.7942L30.447 58.5247V47.427V36.3294H31.7829C33.0251 36.3294 33.1657 36.3528 33.8923 36.6927C35.1462 37.2786 35.4157 37.2669 42.0485 36.3411C45.3063 35.8841 48.1892 35.4387 48.4704 35.345L48.9626 35.1927V36.1067C48.9626 36.6223 48.9157 37.0325 48.8688 37.0325C48.8102 37.0325 47.1696 37.22 45.2009 37.4427C40.7595 37.9583 40.0563 38.1692 38.8259 39.4466C38.2282 40.0559 37.8298 40.7239 37.5251 41.6028C37.3142 42.2122 37.3024 42.7161 37.3024 50.427V58.6184L37.5837 58.8411C37.9704 59.1575 38.6618 59.1341 38.9782 58.7942C39.2243 58.5247 39.2243 58.5247 39.2595 50.5091L39.2946 42.4817L39.6228 41.8372C39.8103 41.4856 40.0446 41.0989 40.1501 40.97C40.4548 40.6419 41.2399 40.138 41.697 39.9739C42.0251 39.8567 49.6423 38.9075 50.2165 38.9075C50.3102 38.9075 50.5095 38.7786 50.6618 38.6145C50.9548 38.3333 50.9548 38.3216 50.9548 35.9309V33.5169L52.5485 30.9153C53.4274 29.4739 54.1657 28.138 54.2009 27.927C54.2595 27.6106 54.2009 27.4817 53.8962 27.177C53.5681 26.8606 53.4626 26.8137 53.0993 26.8723C52.8649 26.9192 52.6071 27.013 52.5251 27.095C52.4431 27.177 51.6579 28.4309 50.779 29.8841C49.8884 31.3372 49.0681 32.638 48.9392 32.7786C48.4001 33.3528 47.9079 33.47 41.7204 34.3372C36.1657 35.1223 35.6618 35.1692 35.1579 35.0286C34.1735 34.7591 33.2595 33.5755 33.2595 32.5794C33.2595 31.5481 34.197 30.3645 35.2048 30.1301C35.5212 30.0598 37.8649 29.7083 40.4079 29.345C44.404 28.7942 45.0954 28.6653 45.447 28.4309C45.7751 28.22 46.4313 27.2239 48.3767 24.0247C49.7595 21.763 51.0954 19.6653 51.3532 19.3841C52.0563 18.5755 52.5837 18.3411 53.7673 18.3411C54.9157 18.3411 55.4079 18.5403 56.1345 19.302C57.072 20.263 57.0017 19.6887 57.5173 30.9622C57.7751 36.5286 57.986 41.4387 57.986 41.8958C57.986 43.2903 57.2595 44.4739 56.0173 45.1067C55.4431 45.3997 55.4196 45.3997 50.9196 45.927C47.2868 46.3489 47.0524 46.3958 46.7829 46.6653L46.4899 46.9466L46.4196 52.7122L46.3493 58.4778L46.6188 58.7708C46.8063 58.97 47.0173 59.0637 47.2751 59.0637C48.3181 59.0637 48.3767 58.888 48.3884 55.3489C48.4001 53.7552 48.4353 51.4934 48.4821 50.3333L48.5524 48.2239L51.8337 47.8489C53.6384 47.6497 55.3845 47.4153 55.7243 47.345C57.3415 46.9934 58.7595 45.8567 59.486 44.3333C59.8845 43.4895 59.9196 43.3255 59.9548 42.1887C60.0017 40.8294 59.2282 22.8528 59.0524 21.1184C58.9001 19.6887 58.4782 18.7512 57.5407 17.8255C56.4274 16.7122 55.361 16.2903 53.6501 16.302C53.0993 16.302 52.4431 16.3723 52.1852 16.4544Z" fill="white"/>
</svg>
