<svg width="60" height="60" viewBox="0 0 60 60" fill="none" xmlns="http://www.w3.org/2000/svg">
<g clip-path="url(#clip0_387_76)">
<path d="M6.59759 0.632812C5.44916 0.914062 4.45306 1.5 3.51556 2.44922C1.76947 4.21875 1.14838 6.46875 1.75775 8.84765C2.91791 13.3828 8.21478 15.3633 12.0937 12.7031C14.332 11.1797 15.4101 8.4375 14.8242 5.70703C14.5663 4.45312 14.0038 3.45703 13.0077 2.44922C12.0468 1.47656 10.9335 0.843749 9.74994 0.597655C8.94134 0.433593 7.37103 0.445312 6.59759 0.632812ZM10.2656 2.92968C11.6601 3.60937 12.6327 4.89843 12.914 6.42187C13.371 8.87109 11.4492 11.4844 8.96478 11.8125C7.40619 12.0117 6.02338 11.5547 4.94525 10.4648C3.11713 8.64843 3.09369 5.7539 4.87494 3.9375C5.96478 2.84765 6.99603 2.4375 8.53119 2.50781C9.32806 2.54297 9.64447 2.625 10.2656 2.92968Z" fill="#0BAA84"/>
<path d="M21.6211 0.750002C21.293 0.902346 20.8828 1.19532 20.707 1.40625C20.0274 2.21485 20.0391 2.02735 20.0391 9.24609C20.0391 15.6211 20.0508 15.8906 20.2735 16.2539C20.7422 17.0273 21.7735 17.2266 22.5586 16.6875C22.8047 16.5234 23.5899 15.8789 24.3047 15.2461C25.0195 14.6133 25.7227 14.0391 25.8633 13.957C26.0391 13.8633 27.6445 13.8281 31.3594 13.8281C34.9922 13.8281 36.7383 13.7812 37.043 13.6875C37.6406 13.5117 38.3789 12.8789 38.707 12.2578C38.9649 11.7891 38.9649 11.707 38.9649 7.14844C38.9649 2.625 38.9649 2.50781 38.707 2.05078C38.5664 1.79297 38.2852 1.41797 38.0625 1.20703C37.2656 0.445316 37.5469 0.468754 29.5078 0.468754H22.207L21.6211 0.750002ZM36.5039 2.53125C36.9844 2.71875 37.0313 3.08203 37.0313 7.13672C37.0313 11.1797 36.9961 11.4609 36.5156 11.707C36.3516 11.7891 34.5234 11.8477 30.8203 11.8594C25.8867 11.8945 25.3359 11.918 24.9609 12.1055C24.7266 12.2109 23.9883 12.7852 23.3203 13.3828L22.0899 14.4492L22.0547 8.71875L22.0313 2.98828L22.3242 2.71875L22.6289 2.46094H29.4727C33.2344 2.46094 36.3984 2.4961 36.5039 2.53125Z" fill="#0BAA84"/>
<path d="M24.5508 4.74609C24.1407 5.14453 24.1641 5.66016 24.5977 6.10547L24.9376 6.44531H29.461C32.1563 6.44531 34.0899 6.39844 34.2774 6.32812C34.6993 6.16406 34.9571 5.53125 34.793 5.05078C34.7227 4.85156 34.5704 4.62891 34.4532 4.57031C34.3243 4.5 32.379 4.45312 29.5313 4.45312H24.8321L24.5508 4.74609Z" fill="#0BAA84"/>
<path d="M24.7618 7.99219C24.1993 8.26172 24.129 9.30469 24.6447 9.66797C24.8439 9.80859 25.3595 9.84375 27.3751 9.84375C29.7072 9.84375 29.8712 9.83203 30.1642 9.59766C30.5861 9.26953 30.5978 8.55469 30.1759 8.14453C29.8947 7.85156 29.8947 7.85156 27.4572 7.86328C26.004 7.86328 24.9142 7.92188 24.7618 7.99219Z" fill="#0BAA84"/>
<path d="M50.0742 0.632817C48.4804 1.01954 46.8046 2.28516 45.9375 3.73828C44.1562 6.73828 45.0351 10.7461 47.9062 12.7031C50.5898 14.543 54.2226 14.2148 56.496 11.9414C58.5234 9.91406 59.0273 6.73828 57.75 4.125C57.1875 2.97657 55.875 1.6875 54.7265 1.13672C54.246 0.914067 53.5664 0.667974 53.2265 0.597661C52.4179 0.433599 50.8476 0.445317 50.0742 0.632817ZM53.7187 2.91797C56.6953 4.38282 57.3632 8.16797 55.0546 10.4648C52.3125 13.207 47.8007 11.7188 47.0859 7.85156C46.7461 6.07031 47.7187 4.07813 49.3945 3.09375C50.2382 2.60157 50.8945 2.46094 52.0078 2.50782C52.8046 2.54297 53.121 2.625 53.7187 2.91797Z" fill="#050505"/>
<path d="M5.44931 16.1719C3.79696 16.418 2.3204 17.6836 1.82821 19.2774C1.58212 20.0508 -0.0350679 41.1914 0.0235259 42.7734C0.0586821 43.7695 0.105557 43.9805 0.492276 44.8008C1.21884 46.3125 2.36728 47.2852 3.98446 47.7422C4.33603 47.8359 6.19931 48.1172 8.12118 48.3516L11.6017 48.7969V53.7539C11.6017 59.5899 11.5899 59.5313 12.7032 59.5313C12.9493 59.5313 13.172 59.4375 13.336 59.2617C13.5938 58.9922 13.5938 58.9805 13.5938 53.2266C13.5938 47.6367 13.5821 47.4492 13.3595 47.2266C13.0665 46.9336 13.1837 46.957 9.2579 46.4649C4.86337 45.9141 4.51181 45.8555 3.97275 45.5859C2.81259 44.9883 1.99228 43.7461 1.99228 42.5742C1.99228 41.5078 3.6329 20.3555 3.75009 19.9219C4.23056 18.1406 6.83212 17.5547 8.09775 18.9375C8.27353 19.125 9.52743 21.1172 10.8985 23.3789C12.2696 25.6289 13.5118 27.5977 13.6759 27.7383C13.8282 27.8906 14.1095 28.0078 14.2852 28.0078C14.4727 28.0078 16.6759 27.1875 19.172 26.1797C23.0509 24.6211 23.8243 24.3516 24.3751 24.3399C25.1485 24.3281 25.8399 24.6445 26.3438 25.2539C27.1759 26.2617 27.129 27.5039 26.2267 28.5352C25.7931 29.0274 25.5704 29.1211 19.5938 31.5117C12.7852 34.2305 12.7852 34.2305 11.7423 33.7031C11.4376 33.5508 11.1095 33.3281 11.004 33.2109C10.8985 33.082 10.0899 31.8047 9.19931 30.3516C8.3204 28.8984 7.53525 27.6445 7.45321 27.5625C7.37118 27.4805 7.11337 27.3867 6.879 27.3399C6.51571 27.2813 6.41025 27.3281 6.08212 27.6445C5.77743 27.9492 5.71884 28.0899 5.77743 28.3945C5.81259 28.6055 6.55087 29.9414 7.42978 31.3711L9.02353 33.9727V36.3867C9.02353 38.7891 9.02353 38.8008 9.3165 39.082C9.46884 39.2461 9.66806 39.375 9.76181 39.375C10.336 39.375 17.9532 40.3242 18.2813 40.4414C19.2188 40.7695 20.0157 41.5078 20.4727 42.4805C20.672 42.9141 20.6837 43.4531 20.7188 50.9766C20.754 58.9805 20.754 59.0039 21.0001 59.2617C21.3165 59.6016 22.0079 59.625 22.3946 59.3086L22.6759 59.0859V50.8945C22.6759 43.1836 22.6642 42.6797 22.4532 42.0703C22.1485 41.1914 21.7501 40.5234 21.1524 39.9141C19.922 38.6484 19.2188 38.4258 14.8126 37.9102C12.8673 37.6875 11.2267 37.5 11.1446 37.5C11.0626 37.5 11.0157 37.1836 11.0157 36.5742V35.6484L11.5196 35.8242C11.8595 35.9531 12.3282 35.9883 13.0665 35.9531L14.1212 35.8945L20.3321 33.4102C24.129 31.8867 26.7423 30.7734 27.0704 30.5391C28.3243 29.6367 29.0157 28.125 28.922 26.5313C28.8751 25.8399 28.7813 25.4883 28.4298 24.7852C27.9259 23.7774 27.3517 23.2266 26.2501 22.6875C25.5587 22.3594 25.3829 22.3242 24.3751 22.3359H23.2618L19.0196 24.0469L14.7774 25.7578L14.4259 25.207C14.2384 24.9141 13.1485 23.1328 12.0118 21.2695C10.8751 19.3945 9.8204 17.7422 9.6915 17.5899C8.754 16.5586 6.96103 15.9492 5.44931 16.1719Z" fill="#0BAA84"/>
<path d="M52.2072 16.9219C50.4143 17.4961 49.9221 18.0469 46.8869 23.0625C45.1174 25.9687 44.2971 27.2109 44.133 27.2461C43.9924 27.2812 41.801 27.5976 39.258 27.9492C35.215 28.5234 34.5354 28.6523 33.9143 28.9336C32.8947 29.4023 32.2971 30 31.7932 31.0195C31.4416 31.7344 31.3596 32.0391 31.3244 32.7891C31.2893 33.375 31.3361 33.8789 31.4416 34.2422L31.6174 34.8047H25.8518H20.0744L19.8283 35.0742C19.5354 35.3789 19.4885 36.0352 19.7229 36.3398C20.051 36.7734 20.2971 36.7969 24.4221 36.7969H28.4768L28.5002 47.9414L28.5354 59.0859L28.8166 59.3086C29.2033 59.625 29.8947 59.6016 30.2111 59.2617L30.469 58.9922V47.8945V36.7969H31.8049C33.0471 36.7969 33.1877 36.8203 33.9143 37.1602C35.1682 37.7461 35.4377 37.7344 42.0705 36.8086C45.3283 36.3516 48.2111 35.9062 48.4924 35.8125L48.9846 35.6602V36.5742C48.9846 37.0898 48.9377 37.5 48.8908 37.5C48.8322 37.5 47.1916 37.6875 45.2229 37.9102C40.7814 38.4258 40.0783 38.6367 38.8479 39.9141C38.2502 40.5234 37.8518 41.1914 37.5471 42.0703C37.3361 42.6797 37.3244 43.1836 37.3244 50.8945V59.0859L37.6057 59.3086C37.9924 59.625 38.6838 59.6016 39.0002 59.2617C39.2463 58.9922 39.2463 58.9922 39.2814 50.9766L39.3166 42.9492L39.6447 42.3047C39.8322 41.9531 40.0666 41.5664 40.1721 41.4375C40.4768 41.1094 41.2619 40.6055 41.7189 40.4414C42.0471 40.3242 49.6643 39.375 50.2385 39.375C50.3322 39.375 50.5314 39.2461 50.6838 39.082C50.9768 38.8008 50.9768 38.7891 50.9768 36.3984V33.9844L52.5705 31.3828C53.4494 29.9414 54.1877 28.6055 54.2228 28.3945C54.2814 28.0781 54.2228 27.9492 53.9182 27.6445C53.59 27.3281 53.4846 27.2812 53.1213 27.3398C52.8869 27.3867 52.6291 27.4805 52.5471 27.5625C52.465 27.6445 51.6799 28.8984 50.801 30.3516C49.9103 31.8047 49.09 33.1055 48.9611 33.2461C48.4221 33.8203 47.9299 33.9375 41.7424 34.8047C36.1877 35.5898 35.6838 35.6367 35.1799 35.4961C34.1955 35.2266 33.2814 34.043 33.2814 33.0469C33.2814 32.0156 34.2189 30.832 35.2268 30.5976C35.5432 30.5273 37.8869 30.1758 40.4299 29.8125C44.426 29.2617 45.1174 29.1328 45.4689 28.8984C45.7971 28.6875 46.4533 27.6914 48.3986 24.4922C49.7814 22.2305 51.1174 20.1328 51.3752 19.8516C52.0783 19.043 52.6057 18.8086 53.7893 18.8086C54.9377 18.8086 55.4299 19.0078 56.1564 19.7695C57.0939 20.7305 57.0236 20.1562 57.5392 31.4297C57.7971 36.9961 58.008 41.9062 58.008 42.3633C58.008 43.7578 57.2814 44.9414 56.0392 45.5742C55.465 45.8672 55.4416 45.8672 50.9416 46.3945C47.3088 46.8164 47.0744 46.8633 46.8049 47.1328L46.5119 47.4141L46.4416 53.1797L46.3713 58.9453L46.6408 59.2383C46.8283 59.4375 47.0393 59.5312 47.2971 59.5312C48.34 59.5312 48.3986 59.3555 48.4103 55.8164C48.4221 54.2227 48.4572 51.9609 48.5041 50.8008L48.5744 48.6914L51.8557 48.3164C53.6603 48.1172 55.4064 47.8828 55.7463 47.8125C57.3635 47.4609 58.7814 46.3242 59.508 44.8008C59.9064 43.957 59.9416 43.793 59.9767 42.6562C60.0236 41.2969 59.2502 23.3203 59.0744 21.5859C58.9221 20.1562 58.5002 19.2187 57.5627 18.293C56.4494 17.1797 55.383 16.7578 53.6721 16.7695C53.1213 16.7695 52.465 16.8398 52.2072 16.9219Z" fill="#050505"/>
</g>
<defs>
<clipPath id="clip0_387_76">
<rect width="60" height="60" fill="white"/>
</clipPath>
</defs>
</svg>
