<svg width="60" height="60" viewBox="0 0 60 60" fill="none" xmlns="http://www.w3.org/2000/svg">
<g clip-path="url(#clip0_438_686)">
<path d="M26.6602 0.222656C24.3516 0.644531 22.8633 1.14844 20.8711 2.16797C15.4805 4.92188 11.7422 9.85547 10.4062 15.9375C10.1719 17.0391 10.1367 17.4727 10.1367 20.0391C10.1484 23.25 10.2773 24.1641 11.0859 26.6016C12.2578 30.1406 14.1094 33.0703 19.6406 40.1719C21.2812 42.2695 22.5938 44.0039 22.5703 44.0273C22.5469 44.0508 21.7734 44.2266 20.8359 44.4141C15.4688 45.5039 11.7656 47.4727 10.4766 49.9219C10.1602 50.5078 10.1367 50.6719 10.1367 51.7969C10.1367 52.9688 10.1484 53.0625 10.5352 53.7656C11.8477 56.1797 15.7148 58.1953 21.0469 59.2266C24.3047 59.8477 25.4062 59.9414 30 59.9414C34.5938 59.9414 35.6953 59.8477 38.9531 59.2266C44.3086 58.1836 48.1523 56.1914 49.4648 53.7656C49.8516 53.0625 49.8633 52.9688 49.8633 51.7969C49.8633 50.625 49.8516 50.5312 49.4648 49.8281C48.1523 47.4141 44.4961 45.4922 39.1641 44.4141C38.2266 44.2266 37.4531 44.0508 37.4297 44.0273C37.4062 44.0039 38.0039 43.1953 38.7539 42.2344C45.1172 34.1367 47.0977 31.1953 48.4688 27.7617C49.1016 26.1914 49.6172 24.2461 49.8047 22.6992C50.0156 21.0117 49.8984 17.3789 49.5703 15.8789C47.9062 8.05078 41.9062 2.05078 34.043 0.339844C32.3438 -0.0234375 28.3477 -0.09375 26.6602 0.222656ZM32.4023 2.58984C37.6992 3.28125 42.5391 6.60938 45.3047 11.4492C46.0078 12.6797 46.7109 14.5195 47.0859 16.1016C47.3789 17.3086 47.4023 17.5898 47.4023 19.9805C47.3906 22.3477 47.3672 22.6641 47.0859 23.8477C46.4766 26.4492 45.3633 28.875 43.5117 31.6992C42.2227 33.6562 40.875 35.4609 37.043 40.3711C35.332 42.5625 33.0703 45.5156 32.0156 46.9336C30.9492 48.3516 30.0469 49.5117 29.9883 49.5117C29.9414 49.5117 29.4375 48.8789 28.875 48.1055C27.5391 46.2773 24.9844 42.9375 22.2773 39.4922C21.082 37.9805 19.582 36.0234 18.9258 35.1562C14.9414 29.8711 13.3594 26.7422 12.7148 22.875C12.4102 21.0938 12.5156 17.7656 12.9258 16.043C13.7109 12.7617 15.3164 9.90234 17.6953 7.53516C21.6328 3.63281 26.8711 1.875 32.4023 2.58984ZM25.1953 47.3203C25.6055 47.8828 26.6016 49.2305 27.3984 50.332C29.2969 52.9453 29.3203 52.9688 30 52.9688C30.6562 52.9688 30.7852 52.8516 32.3438 50.6836C32.9531 49.8398 33.9375 48.5273 34.5352 47.7422L35.6133 46.3242L36.6562 46.4766C42.7734 47.3906 47.4609 49.6758 47.4609 51.7734C47.4609 52.4531 47.25 52.8047 46.4297 53.5664C43.8398 55.957 37.2656 57.5508 30 57.5508C24.0352 57.5508 18.7383 56.543 15.3047 54.75C14.2148 54.1875 13.0078 53.1797 12.7031 52.6055C12.4805 52.1602 12.4922 51.3281 12.7383 50.9766C14.168 48.8203 18.2227 47.2031 24.375 46.3125C24.4102 46.3008 24.7734 46.7578 25.1953 47.3203Z" fill="#050505"/>
<path d="M29.3322 4.89844C29.0158 5.13281 28.8283 5.69531 28.9104 6.12891C29.0861 7.01953 30.3401 7.37109 30.9729 6.70313C31.4299 6.23438 31.4182 5.44922 30.9611 5.00391C30.5627 4.61719 29.7541 4.57031 29.3322 4.89844Z" fill="#0BAA84"/>
<path d="M33.8673 5.83594C33.2228 6.49219 33.4689 7.5 34.3595 7.85156C38.508 9.49219 41.3556 12.668 42.4337 16.8516C42.5627 17.3438 42.715 18.3867 42.7736 19.1484C42.8673 20.4375 42.9025 20.5664 43.1955 20.8711C43.465 21.1523 43.6173 21.2109 44.0627 21.2109C44.508 21.2109 44.6603 21.1523 44.9181 20.8828C45.2111 20.5781 45.2345 20.4844 45.2345 19.4297C45.2345 17.4609 44.6252 14.9531 43.6994 13.1016C42.6681 11.0391 40.7931 8.82422 38.9416 7.51172C37.5353 6.50391 35.6603 5.60156 34.8517 5.53125C34.2775 5.48438 34.1955 5.50781 33.8673 5.83594Z" fill="#0BAA84"/>
<path d="M27.9492 11.9063C27.5625 12 26.8008 12.293 26.25 12.5625C25.4414 12.9609 25.0547 13.2539 24.1992 14.1211C22.4883 15.8203 21.7969 17.4844 21.7969 19.9219C21.7969 21.4453 22.0078 22.3828 22.6406 23.6719C23.0391 24.4805 23.332 24.8672 24.1992 25.7227C25.8984 27.4336 27.5625 28.125 30 28.125C31.5234 28.125 32.4609 27.9141 33.75 27.2813C34.5586 26.8828 34.9453 26.5898 35.8008 25.7227C37.5117 24.0234 38.2031 22.3594 38.2031 19.9219C38.2031 18.3984 37.9922 17.4609 37.3594 16.1719C36.9609 15.3633 36.668 14.9766 35.8008 14.1211C34.0781 12.3867 32.4258 11.7188 29.9414 11.7305C29.2383 11.7305 28.3359 11.8125 27.9492 11.9063ZM32.3789 14.6719C33.6328 15.2695 34.6523 16.2891 35.2383 17.543C35.6367 18.3633 35.6836 18.5742 35.7188 19.582C35.8008 21.4102 35.2969 22.7344 34.0547 23.9766C33.3164 24.7148 32.332 25.3008 31.4297 25.5469C30.7383 25.7227 29.1211 25.6992 28.4648 25.5C26.8359 24.9961 25.4883 23.8359 24.75 22.3008C24.3164 21.3984 24.3164 21.375 24.3164 19.9219C24.3164 18.4688 24.3164 18.4453 24.75 17.543C25.4648 16.043 26.8125 14.8711 28.418 14.3438C28.7227 14.2383 29.3438 14.1914 30.1758 14.2148C31.3945 14.2383 31.5117 14.2617 32.3789 14.6719Z" fill="#0BAA84"/>
</g>
<defs>
<clipPath id="clip0_438_686">
<rect width="60" height="60" fill="white"/>
</clipPath>
</defs>
</svg>
