<svg width="36" height="36" viewBox="0 0 36 36" fill="none" xmlns="http://www.w3.org/2000/svg">
<path d="M6.10965 0.133594C3.06512 0.801562 0.695589 3.31875 0.0909013 6.51797C-0.0637862 7.36875 -0.0145675 9.08437 0.189339 9.85781C0.470589 10.8914 1.08934 12.0867 1.75731 12.8672L1.90496 13.043L2.05965 12.8531C2.137 12.7547 2.36903 12.4734 2.55887 12.2344C2.96668 11.7281 3.85262 10.9898 4.40106 10.7086C4.60496 10.6031 4.77371 10.4836 4.77371 10.4484C4.77371 10.4133 4.69637 10.2867 4.60496 10.1672C3.47293 8.67656 3.64168 6.525 5.00574 5.09062C5.77918 4.275 6.70731 3.86719 7.81825 3.86719C8.92215 3.86719 9.787 4.23281 10.5815 5.03437C11.9456 6.39844 12.1776 8.45156 11.144 9.99844L10.8276 10.4695L11.2284 10.6945C12.0159 11.1375 13.0214 12.0445 13.4925 12.7477C13.5909 12.8883 13.7034 12.9937 13.7386 12.9867C13.8792 12.9445 14.5542 11.9742 14.8565 11.3906C15.2222 10.6805 15.412 10.0969 15.5737 9.24609C15.7354 8.34609 15.6792 6.89062 15.4331 5.97656C14.6737 3.07969 12.6206 0.970312 9.82918 0.196875C9.05575 -0.0140629 6.94637 -0.0492191 6.10965 0.133594Z" fill="white"/>
<path d="M26.4232 0.162499C25.9028 0.50703 25.938 -0.00625038 25.938 7.84062C25.938 14.5484 25.945 14.8859 26.0716 15.118C26.4724 15.8773 27.6114 15.8773 27.9911 15.118C28.1107 14.8859 28.1177 14.3937 28.1177 7.84062C28.1177 1.2875 28.1107 0.795312 27.9911 0.563281C27.8083 0.197656 27.4708 0.000781059 27.0278 0.000781059C26.7677 0.000781059 26.5919 0.0429678 26.4232 0.162499Z" fill="white"/>
<path d="M22.5067 3.51577C22.3802 3.59311 22.2185 3.75483 22.1411 3.8814C22.0075 4.1064 22.0005 4.24702 22.0005 7.80483C22.0005 11.1798 22.0146 11.5173 22.1271 11.7353C22.5138 12.5017 23.6669 12.4806 24.0396 11.7072C24.1731 11.4259 24.1802 11.2712 24.1802 7.83296C24.1802 4.25405 24.1802 4.24702 24.0255 3.93765C23.7442 3.40327 23.0271 3.19936 22.5067 3.51577Z" fill="white"/>
<path d="M34.4103 3.50931C34.0939 3.69916 33.9673 3.87494 33.89 4.21947C33.7915 4.65541 33.7845 10.9906 33.89 11.4546C34.0657 12.2843 35.0572 12.5796 35.697 11.989L35.9572 11.757V7.85463V3.95228L35.7814 3.76244C35.4087 3.36166 34.8181 3.25619 34.4103 3.50931Z" fill="white"/>
<path d="M30.4239 5.21016C29.9247 5.47031 29.9106 5.54063 29.9106 7.85391C29.9106 9.81563 29.9177 9.91406 30.0583 10.0969C30.3255 10.4625 30.5575 10.582 30.9864 10.582C31.2958 10.582 31.4435 10.5469 31.6263 10.4133C32.0341 10.118 32.0552 9.99844 32.0552 7.78359C32.0552 5.82188 32.0552 5.77969 31.8935 5.54766C31.5841 5.08359 30.9442 4.93594 30.4239 5.21016Z" fill="white"/>
<path d="M7.10104 6.02596C6.67214 6.18064 6.16589 6.70096 6.01823 7.13689C5.53308 8.54314 6.55261 9.88611 8.00808 9.75252C8.68308 9.69627 9.24558 9.30955 9.57604 8.6908C9.69558 8.4658 9.73073 8.28299 9.73073 7.84002C9.73073 7.34783 9.70261 7.2283 9.51979 6.89783C9.30183 6.50408 8.90104 6.15252 8.47917 5.99783C8.16276 5.88533 7.46667 5.89939 7.10104 6.02596Z" fill="white"/>
<path d="M18.5552 6.10291C18.4216 6.17322 18.2388 6.33494 18.1544 6.46854C18.0067 6.68651 17.9927 6.78494 17.9927 7.62869C17.9927 8.64119 18.063 8.86619 18.4567 9.12635C18.738 9.30916 19.3989 9.2951 19.6591 9.10526C20.0599 8.80291 20.1372 8.56385 20.1372 7.63572C20.1372 6.71463 20.0599 6.46151 19.6661 6.17322C19.406 5.97635 18.8646 5.94119 18.5552 6.10291Z" fill="white"/>
<path d="M7.05879 11.8892C5.74395 12.079 4.47129 12.8876 3.7752 13.9563L3.50098 14.3782L3.6627 14.5118C3.96504 14.7649 5.11816 15.2642 5.80723 15.4399C6.32051 15.5735 6.74941 15.6298 7.48066 15.6579C8.66895 15.7001 9.5127 15.5806 10.4971 15.229C11.1229 15.004 12.0369 14.554 12.1143 14.4204C12.1775 14.322 11.5518 13.4712 11.158 13.1126C10.0541 12.1071 8.57754 11.6712 7.05879 11.8892Z" fill="white"/>
<path d="M6.34173 20.4188C4.18314 20.8266 2.31986 22.1414 1.13861 24.0891C0.386265 25.3266 0.0628279 26.4445 0.0136092 27.9844C-0.0426408 29.5664 0.203453 30.6844 0.878453 31.9148C1.1808 32.4703 1.81361 33.3281 1.92611 33.3281C1.9683 33.3281 2.0597 33.2297 2.13705 33.1031C2.38314 32.6813 3.39564 31.7039 4.00736 31.2891C4.34486 31.0711 4.66127 30.8672 4.71048 30.8531C4.78783 30.825 4.79486 30.7898 4.72455 30.6844C4.11986 29.7773 3.92298 29.25 3.8808 28.4414C3.83861 27.6539 3.9722 27.0352 4.3308 26.3461C5.58939 23.9555 8.68314 23.4563 10.5745 25.3477C11.9527 26.7188 12.1847 28.7859 11.137 30.3469L10.8347 30.7969L11.2566 31.05C12.0933 31.5352 12.8175 32.182 13.387 32.9414C13.5347 33.1313 13.6824 33.293 13.7245 33.293C13.9566 33.293 14.9199 31.7602 15.2222 30.9234C15.6441 29.7563 15.7847 28.2023 15.5738 27.0281C15.2644 25.2563 14.5753 23.8852 13.366 22.6266C12.3745 21.593 11.2144 20.9109 9.85033 20.5523C9.2808 20.3977 8.97845 20.3695 8.00814 20.3484C7.2347 20.3344 6.67923 20.3555 6.34173 20.4188Z" fill="white"/>
<path d="M26.8449 20.3906C25.8183 20.5664 24.6581 21.0234 23.8214 21.5859C23.2027 22.0078 22.2113 22.9852 21.7824 23.6039C21.2831 24.3211 20.7628 25.4602 20.5519 26.2758C20.4113 26.8031 20.3621 27.2039 20.3339 27.9844C20.2777 29.4469 20.4886 30.4383 21.1003 31.6828C21.4027 32.2945 22.1269 33.3281 22.2535 33.3281C22.2956 33.3281 22.4222 33.1945 22.5277 33.0258C22.9777 32.3578 23.8706 31.5492 24.7285 31.043L25.1574 30.7898L24.9183 30.4523C24.2292 29.4961 24.0253 28.3992 24.3206 27.2461C24.6581 25.9242 25.5863 24.8836 26.8519 24.4055C27.5058 24.1594 28.7081 24.1453 29.3972 24.3844C30.4097 24.7359 31.2253 25.4742 31.6964 26.4656C32.0128 27.1266 32.1253 27.5906 32.1253 28.2516C32.1253 29.0461 31.7878 30.0164 31.3167 30.5719L31.1339 30.7898L31.366 30.9094C32.1535 31.3102 33.4964 32.4984 33.8621 33.1172C33.9253 33.2367 34.0167 33.3281 34.0589 33.3281C34.1011 33.3281 34.305 33.1102 34.5019 32.843C35.5214 31.4789 35.9925 30.0586 35.9925 28.3359C35.9925 26.8523 35.6761 25.5797 34.9941 24.3492C33.841 22.2539 31.8652 20.8195 29.6011 20.4258C28.9824 20.3133 27.4074 20.2992 26.8449 20.3906Z" fill="white"/>
<path d="M7.34018 26.2901C6.38393 26.5432 5.84253 27.3166 5.91284 28.3291C5.99018 29.3416 6.65112 30.0026 7.67065 30.0799C8.49331 30.1362 9.13315 29.7987 9.5269 29.0955C9.70268 28.7721 9.73081 28.6526 9.73081 28.1604C9.73081 27.7526 9.69565 27.5276 9.59721 27.3518C9.4144 27.0072 9.00659 26.5924 8.67612 26.4237C8.37378 26.269 7.68471 26.1987 7.34018 26.2901Z" fill="white"/>
<path d="M27.5058 26.3539C26.9855 26.5437 26.6761 26.8039 26.4511 27.2609C26.0503 28.0836 26.2401 29.1242 26.9011 29.6656C27.7026 30.3265 29.0034 30.207 29.6573 29.4125C30.0511 28.9343 30.1987 28.0836 29.9948 27.514C29.6292 26.5226 28.5042 25.9953 27.5058 26.3539Z" fill="white"/>
<path d="M7.08689 32.2101C6.5033 32.2945 5.85642 32.5266 5.30095 32.85C4.4572 33.3492 3.32517 34.643 3.58533 34.8117C4.29548 35.2898 5.3783 35.7117 6.32048 35.8875C7.5158 36.1195 9.26658 36 10.3775 35.6203C10.8064 35.4726 11.7275 35.0367 12.0791 34.8117C12.2127 34.7273 11.7908 34.0805 11.2564 33.5601C10.1666 32.4914 8.59861 31.9851 7.08689 32.2101Z" fill="white"/>
<path d="M27.3088 32.2383C26.0081 32.4703 24.7776 33.2648 24.0745 34.3336C23.7581 34.8047 23.7159 34.7344 24.6018 35.1844C25.7338 35.768 26.7674 36 28.1948 36C29.2143 36 29.9596 35.8805 30.8456 35.5711C31.4291 35.3672 32.4768 34.8328 32.4768 34.7344C32.4768 34.6078 31.9776 33.9469 31.5909 33.5672C30.8456 32.8289 29.8963 32.3578 28.8416 32.2031C28.237 32.1188 27.9206 32.1258 27.3088 32.2383Z" fill="white"/>
</svg>
