<svg width="24" height="24" viewBox="0 0 24 24" fill="none" xmlns="http://www.w3.org/2000/svg">
<path d="M11.25 3.02344V4.45312H11.9766H12.7031V3.02344V1.59375H11.9766H11.25V3.02344Z" fill="url(#paint0_linear_883_1701)"/>
<path d="M6.4453 2.52654C5.99061 2.68123 5.79373 2.77029 5.79842 2.81716C5.8078 2.85466 6.00467 3.46404 6.24373 4.18123L6.67967 5.47498L7.35467 5.24529C7.72498 5.11873 8.03905 5.00623 8.04842 4.99685C8.07186 4.9781 7.15311 2.29685 7.12498 2.30154C7.11092 2.30154 6.80623 2.40466 6.4453 2.52654Z" fill="url(#paint1_linear_883_1701)"/>
<path d="M16.3968 3.6469C16.1483 4.38284 15.9514 4.9969 15.9561 5.00628C15.9843 5.02971 17.3108 5.48909 17.3202 5.47503C17.3577 5.41409 18.2296 2.79378 18.2155 2.77503C18.1968 2.76096 17.1749 2.39534 16.9452 2.32971C16.8608 2.30159 16.8139 2.41409 16.3968 3.6469Z" fill="url(#paint2_linear_883_1701)"/>
<path d="M1.94531 4.66404C1.81875 4.74842 1.54688 4.92654 1.35 5.0531L0.984375 5.28279L1.74375 6.47342C2.16094 7.12967 2.50781 7.67342 2.5125 7.68279C2.52656 7.69685 3.47344 7.12029 3.675 6.97029C3.75938 6.90935 3.72188 6.83904 2.99531 5.70467C2.57344 5.03904 2.21719 4.49998 2.20312 4.50467C2.18906 4.50467 2.07656 4.57498 1.94531 4.66404Z" fill="url(#paint3_linear_883_1701)"/>
<path d="M21.0048 5.69534C20.5829 6.35627 20.2501 6.9094 20.2688 6.92346C20.2829 6.94221 20.5548 7.12034 20.8688 7.3219C21.3188 7.60784 21.4548 7.67346 21.4969 7.62659C21.6469 7.4719 22.9735 5.32971 22.9548 5.27815C22.936 5.23596 21.8298 4.50002 21.7829 4.50002C21.7735 4.50002 21.4266 5.03909 21.0048 5.69534Z" fill="url(#paint4_linear_883_1701)"/>
<path d="M11.1236 6.58594C9.37981 6.9 7.94075 8.11875 7.34544 9.77812C6.96575 10.8422 6.97981 12.2156 7.38294 13.2422C7.88919 14.5359 8.94856 15.5859 10.2189 16.0594C10.8892 16.3125 11.2314 16.3734 12.0236 16.3734C12.6236 16.3687 12.7923 16.3547 13.1767 16.2516C13.7579 16.1016 14.2501 15.8906 14.6392 15.6375L14.9439 15.4359L15.4829 15.9797L16.0173 16.5234L15.9329 16.7812C15.7595 17.3062 15.8486 18.0328 16.1392 18.525C16.2048 18.6375 17.0954 19.5609 18.1126 20.5781L19.9689 22.4297L21.4782 20.9156L22.9923 19.4062L21.2579 17.6672C20.3017 16.7109 19.4017 15.8344 19.2517 15.7266C18.8345 15.4078 18.5345 15.3141 17.9767 15.3094C17.6392 15.3094 17.4423 15.3328 17.2782 15.3937L17.0486 15.4781L16.5142 14.9437L15.9798 14.4094L16.1486 14.1516C16.5048 13.6125 16.7626 12.9469 16.8798 12.2625C16.9595 11.7891 16.9126 10.6641 16.7907 10.2094C16.4204 8.83594 15.5017 7.68281 14.2736 7.06406C13.2939 6.57187 12.1548 6.39844 11.1236 6.58594ZM12.8157 9.55312C13.2282 9.74531 13.4298 9.90937 13.6689 10.2281C13.9642 10.6359 14.0767 11.0156 14.0532 11.5547C14.0392 11.9391 14.0157 12.0281 13.8657 12.3328C13.4392 13.1859 12.5486 13.6594 11.6673 13.5C10.3126 13.2609 9.54387 11.7891 10.1298 10.5609C10.3173 10.1672 10.6689 9.80625 11.0532 9.61406C11.4517 9.4125 11.6298 9.375 12.1032 9.39375C12.4361 9.40781 12.5626 9.43594 12.8157 9.55312Z" fill="url(#paint5_linear_883_1701)"/>
<path d="M11.6252 10.8422C11.0627 11.2172 11.2315 12.061 11.8924 12.1688C12.1502 12.2063 12.4784 12.061 12.6096 11.85C12.7362 11.6438 12.7362 11.2782 12.6096 11.0719C12.4034 10.7391 11.9393 10.6266 11.6252 10.8422Z" fill="url(#paint6_linear_883_1701)"/>
<path d="M6.20625 7.96405C4.6125 8.74218 3.06562 9.81561 1.58437 11.175C0.91875 11.7844 0 12.7734 0 12.8812C0 12.9797 1.86562 14.8266 2.4375 15.2906C5.10937 17.4609 7.73906 18.7078 10.4766 19.1062C11.2453 19.2187 12.7547 19.2187 13.5234 19.1062C14.0344 19.0312 14.7187 18.9 14.7562 18.8672C14.7656 18.8578 14.7187 18.675 14.6484 18.4594C14.5734 18.2297 14.5125 17.9062 14.4984 17.6578C14.475 17.3062 14.4609 17.25 14.3953 17.2781C13.0266 17.8453 11.4094 17.8969 9.95625 17.4094C8.15625 16.8094 6.64687 15.2812 6.01875 13.4344C5.63906 12.3187 5.61094 10.8516 5.94844 9.70311C6.12656 9.09374 6.4125 8.47968 6.76406 7.95468C6.88125 7.78124 6.95156 7.64061 6.91875 7.64061C6.89062 7.64061 6.56719 7.78593 6.20625 7.96405Z" fill="url(#paint7_linear_883_1701)"/>
<path d="M17.2361 7.95469C17.7002 8.64844 18.0658 9.56719 18.2065 10.3828C18.3002 10.9266 18.3049 11.9578 18.2111 12.4969C18.1502 12.8344 17.9346 13.6219 17.8315 13.8562C17.8174 13.8891 17.9346 13.9172 18.1736 13.9359C18.6846 13.9781 19.0315 14.0766 19.5424 14.325C19.9268 14.5125 20.0533 14.6109 20.5549 15.0984C20.869 15.4078 21.1408 15.6562 21.1549 15.6562C21.2205 15.6562 22.0924 14.8969 22.6361 14.3672C23.3065 13.7156 24.0002 12.9328 24.0002 12.8297C24.0002 12.7312 22.444 11.1656 21.8205 10.6359C21.1127 10.0359 20.1096 9.3 19.383 8.84531C18.7736 8.46094 17.2033 7.64062 17.0861 7.64062C17.0486 7.64062 17.1096 7.76719 17.2361 7.95469Z" fill="url(#paint8_linear_883_1701)"/>
<defs>
<linearGradient id="paint0_linear_883_1701" x1="11.25" y1="3.02344" x2="12.7031" y2="3.02344" gradientUnits="userSpaceOnUse">
<stop stop-color="#0BAA84"/>
<stop offset="1" stop-color="#FFCC31"/>
</linearGradient>
<linearGradient id="paint1_linear_883_1701" x1="5.79834" y1="3.88825" x2="8.04886" y2="3.88825" gradientUnits="userSpaceOnUse">
<stop stop-color="#0BAA84"/>
<stop offset="1" stop-color="#FFCC31"/>
</linearGradient>
<linearGradient id="paint2_linear_883_1701" x1="15.9561" y1="3.90075" x2="18.2157" y2="3.90075" gradientUnits="userSpaceOnUse">
<stop stop-color="#0BAA84"/>
<stop offset="1" stop-color="#FFCC31"/>
</linearGradient>
<linearGradient id="paint3_linear_883_1701" x1="0.984375" y1="6.09384" x2="3.70698" y2="6.09384" gradientUnits="userSpaceOnUse">
<stop stop-color="#0BAA84"/>
<stop offset="1" stop-color="#FFCC31"/>
</linearGradient>
<linearGradient id="paint4_linear_883_1701" x1="20.2681" y1="6.0702" x2="22.955" y2="6.0702" gradientUnits="userSpaceOnUse">
<stop stop-color="#0BAA84"/>
<stop offset="1" stop-color="#FFCC31"/>
</linearGradient>
<linearGradient id="paint5_linear_883_1701" x1="7.07031" y1="14.4709" x2="22.9923" y2="14.4709" gradientUnits="userSpaceOnUse">
<stop stop-color="#0BAA84"/>
<stop offset="1" stop-color="#FFCC31"/>
</linearGradient>
<linearGradient id="paint6_linear_883_1701" x1="11.2856" y1="11.4532" x2="12.7045" y2="11.4532" gradientUnits="userSpaceOnUse">
<stop stop-color="#0BAA84"/>
<stop offset="1" stop-color="#FFCC31"/>
</linearGradient>
<linearGradient id="paint7_linear_883_1701" x1="0" y1="13.4156" x2="14.7574" y2="13.4156" gradientUnits="userSpaceOnUse">
<stop stop-color="#0BAA84"/>
<stop offset="1" stop-color="#FFCC31"/>
</linearGradient>
<linearGradient id="paint8_linear_883_1701" x1="17.0752" y1="11.6484" x2="24.0002" y2="11.6484" gradientUnits="userSpaceOnUse">
<stop stop-color="#0BAA84"/>
<stop offset="1" stop-color="#FFCC31"/>
</linearGradient>
</defs>
</svg>
