<svg width="16" height="16" viewBox="0 0 16 16" fill="none" xmlns="http://www.w3.org/2000/svg">
<g clip-path="url(#clip0_48_1346)">
<path d="M7.77806 0.25C7.72806 0.278125 7.23431 0.99375 7.08744 1.25C6.87494 1.62187 6.49369 2.72813 6.43744 3.14062C6.34056 3.83125 6.50619 4.74062 6.86244 5.5C7.19056 6.19375 7.78431 7 7.96556 7C8.10931 7 8.69369 6.18125 8.99994 5.55313C9.35619 4.825 9.48119 4.30312 9.48119 3.5625C9.48119 2.86875 9.36556 2.37187 9.04994 1.70312C8.79994 1.17812 8.29994 0.41875 8.09994 0.25625C8.04369 0.2125 7.84994 0.20625 7.77806 0.25Z" fill="#035349"/>
<path d="M13.7344 3.20942C13.4063 3.23754 12.6 3.35004 12.3844 3.39379C11.6063 3.55317 11.0313 3.85004 10.5031 4.35629C9.82188 5.01567 9.35626 5.86567 9.07813 6.97192C8.98126 7.35004 8.97813 7.51567 9.05938 7.56254C9.15626 7.61254 9.79376 7.59692 10.2531 7.53129C11.4688 7.35942 12.2688 6.99379 12.9875 6.28129C13.5688 5.70317 13.9969 4.91254 14.25 3.95629C14.3844 3.43754 14.3938 3.33129 14.3156 3.25317C14.25 3.18754 14.1063 3.17504 13.7344 3.20942Z" fill="#035349"/>
<path d="M1.53746 3.25619C1.47183 3.32181 1.49683 3.48744 1.65308 4.00619C1.99371 5.13119 2.34058 5.74994 2.96558 6.35306C3.70621 7.06556 4.57496 7.41869 5.99683 7.57806C6.44683 7.63119 6.75621 7.62181 6.83746 7.55619C6.96871 7.44681 6.70933 6.41869 6.37496 5.73431C6.13433 5.23744 5.86871 4.86556 5.48746 4.48119C5.29683 4.29056 5.04371 4.07181 4.92183 3.99369C4.27808 3.57181 3.57183 3.34369 2.62808 3.24994C2.17808 3.20619 1.58433 3.20931 1.53746 3.25619Z" fill="#035349"/>
<path d="M3.2906 7.87807C2.2781 7.99682 1.34685 8.52182 0.499972 9.44994C0.00934696 9.99369 -0.084403 10.1812 0.071847 10.3187C0.212472 10.4437 1.26247 10.8312 1.7406 10.9374C3.03747 11.2187 4.1906 10.9624 5.28435 10.1499C5.69685 9.84682 6.39997 9.13119 6.5281 8.88432C6.62497 8.69369 6.54372 8.56869 6.20935 8.40307C5.4031 7.99682 4.17185 7.77494 3.2906 7.87807Z" fill="#035349"/>
<path d="M11.3281 7.8937C10.5156 8.02495 9.39685 8.44058 9.30622 8.6437C9.24372 8.7812 9.37497 8.9687 9.90622 9.50308C10.2875 9.88745 10.4656 10.0406 10.75 10.2281C11.1156 10.4687 11.6906 10.7593 12.0218 10.8718C12.4562 11.0187 13.65 11.0375 14.2625 10.9062C14.5718 10.8406 15 10.6906 15.625 10.425C16.0875 10.2312 16.0906 10.2218 15.7343 9.8062C14.8312 8.75933 14.0375 8.20933 13.0375 7.94683C12.7781 7.87808 12.6531 7.86558 12.1718 7.8562C11.7843 7.84995 11.5218 7.86245 11.3281 7.8937Z" fill="#035349"/>
<path d="M6.9375 9.7219C6.39687 10.0188 6.1875 10.1469 5.91562 10.3469C4.98437 11.0375 4.41875 11.85 4.16562 12.8656C4.09062 13.1688 4.08125 13.2625 4.07812 13.7656C4.07812 14.2594 4.09062 14.4063 4.18437 14.9688C4.24062 15.3219 4.30312 15.6438 4.325 15.6875C4.38437 15.8188 4.52187 15.8063 4.85312 15.6375C6.24062 14.9281 7.15 13.9469 7.48125 12.8C7.65 12.2219 7.70625 11.6281 7.65625 10.9781C7.6125 10.4625 7.49375 9.77502 7.425 9.66877C7.35 9.55627 7.21562 9.5719 6.9375 9.7219Z" fill="#035349"/>
<path d="M8.49687 9.64375C8.475 9.67188 8.4 10.0219 8.32812 10.425C8.20937 11.1156 8.20312 11.1781 8.225 11.5687C8.25937 12.2844 8.37812 12.8156 8.6125 13.3094C8.975 14.0781 9.55312 14.7031 10.4062 15.2562C10.75 15.4812 11.325 15.7812 11.4094 15.7812C11.4969 15.7812 11.5812 15.7312 11.6094 15.6656C11.6531 15.5438 11.7844 14.3969 11.8031 13.9688C11.8656 12.3844 11.2094 11.1875 9.74062 10.2156C9.36875 9.97187 8.66875 9.59375 8.58437 9.59375C8.55937 9.59375 8.51875 9.61562 8.49687 9.64375Z" fill="#035349"/>
</g>
<defs>
<clipPath id="clip0_48_1346">
<rect width="16" height="16" fill="white"/>
</clipPath>
</defs>
</svg>
