<svg width="60" height="60" viewBox="0 0 60 60" fill="none" xmlns="http://www.w3.org/2000/svg">
<path d="M29.0154 0.222787C28.2771 0.715001 28.242 0.867346 28.2421 3.51578C28.2421 5.67203 28.2656 5.95328 28.4648 6.25796C28.8281 6.79701 29.2734 7.03137 30 7.03135C30.7266 7.03132 31.1719 6.79693 31.5351 6.25786C31.7343 5.95316 31.7578 5.67191 31.7577 3.51566C31.7576 1.35941 31.7342 1.07816 31.5349 0.77348C31.1716 0.23443 30.7263 7.09782e-05 29.9998 9.65476e-05C29.5662 0.000111807 29.2498 0.0704354 29.0154 0.222787Z" fill="#6547EB"/>
<path d="M18.469 3.74027C17.9182 4.10357 17.6956 4.54889 17.6956 5.28717C17.6956 5.82623 17.7542 6.02545 18.0355 6.40044C18.434 6.92777 21.5981 10.0683 22.0317 10.3612C22.4419 10.6308 23.52 10.6073 23.9536 10.326C24.5044 9.96271 24.727 9.51739 24.727 8.77911C24.727 8.24005 24.6684 8.04083 24.3871 7.66584C23.9886 7.13851 20.8245 3.998 20.3909 3.70505C19.9807 3.43553 18.9026 3.459 18.469 3.74027Z" fill="#6547EB"/>
<path d="M39.4222 3.85548C38.8949 4.25394 35.7544 7.41811 35.4614 7.85171C35.1919 8.26188 35.2154 9.34 35.4967 9.77359C35.86 10.3126 36.3053 10.547 37.0318 10.547C37.442 10.547 37.7935 10.4766 37.9693 10.3594C38.4029 10.0665 41.5669 6.92572 41.9653 6.39836C42.2465 6.02335 42.3051 5.82413 42.3051 5.28507C42.305 4.14835 41.6722 3.51556 40.5355 3.5156C39.9964 3.51562 39.7972 3.57422 39.4222 3.85548Z" fill="#6547EB"/>
<path d="M28.2544 14.4035C26.6138 15.0246 25.4185 16.2551 24.9147 17.8723C24.821 18.1887 24.6804 19.1731 24.6218 20.0403C24.493 21.8216 24.1414 23.2044 23.4852 24.5989C21.9502 27.8685 19.0089 30.3647 15.5402 31.3492C14.4386 31.6657 12.5168 31.8767 10.9582 31.865L10.0207 31.865L10.7238 31.6541C13.1378 30.9509 15.0127 29.0289 15.6338 26.6383C15.7392 26.2398 15.8212 25.443 15.8212 24.8453C15.8211 22.8297 15.1648 21.236 13.782 19.8532C12.3991 18.4704 10.8053 17.8142 8.7897 17.8143C6.77407 17.8144 5.18035 18.4707 3.79758 19.8535C2.41482 21.2364 1.75862 22.8302 1.7587 24.8458C1.75877 26.8614 2.41507 28.4552 3.79793 29.8379C4.70031 30.7285 6.10659 31.5488 7.03237 31.7011C7.64175 31.8065 7.52457 31.912 6.62223 32.0995C6.23552 32.1816 5.41521 32.4863 4.80585 32.791C3.84493 33.2481 3.52853 33.4825 2.56763 34.4434C1.60672 35.4161 1.37236 35.7208 0.915362 36.6818C-0.0337878 38.6388 0.00134913 38.088 0.00173721 49.1154C0.00206714 58.4904 0.0138003 58.9005 0.224749 59.2287C0.341943 59.4044 0.599765 59.6622 0.77555 59.7794C1.10368 59.9904 1.46696 60.0021 8.81462 60.0018L16.5021 60.0015L16.8771 59.6968C17.6154 59.064 17.5802 59.5327 17.5799 50.2984L17.5796 41.8726L18.3765 41.6616C21.2124 40.9115 24.3881 39.2825 26.8373 37.3019C27.8685 36.4699 29.72 34.5714 30.4817 33.5753C32.6612 30.7275 34.1377 27.5048 34.8758 23.9657C35.1571 22.6298 35.2039 22.1727 35.2038 20.2157L35.2155 17.9892L34.817 17.1689C34.2896 16.0907 33.3638 15.165 32.2857 14.6494C31.5239 14.2744 31.3599 14.2393 30.1763 14.2159C29.1216 14.1808 28.77 14.2159 28.2544 14.4035Z" fill="#6547EB"/>
<path d="M49.2783 18.0347C46.8643 18.7379 44.9893 20.6599 44.3683 23.0505C44.2629 23.449 44.1809 24.2458 44.1809 24.8435C44.1809 25.4412 44.263 26.238 44.3685 26.6365C44.9779 29.0036 46.8999 30.9723 49.2788 31.6519L49.9819 31.8628L48.9858 31.8629C46.2905 31.8747 44.4155 31.488 42.4819 30.5389C40.8998 29.7655 39.9623 29.0624 38.6966 27.7148C38.1575 27.1523 37.7122 26.707 37.6888 26.7304C37.6653 26.7539 37.4544 27.3867 37.1966 28.125C36.3413 30.6446 34.7125 33.6329 33.0719 35.672L32.4157 36.4923L32.9899 36.9962C35.1462 38.8829 38.2518 40.5937 41.2166 41.5194L42.4237 41.8943L42.424 50.3084C42.4243 59.5311 42.3891 59.0623 43.1274 59.6951L43.5024 59.9998L51.1899 59.9995C58.5376 59.9992 58.9009 59.9875 59.229 59.7766C59.4048 59.6594 59.6626 59.4015 59.7798 59.2258C59.9907 58.8976 60.0024 58.4875 60.0021 49.089L60.0017 39.2804L59.697 38.2492C59.2282 36.6086 58.7008 35.7297 57.4234 34.4524C56.1812 33.1985 55.0913 32.554 53.6147 32.1791C53.1694 32.0619 52.7124 31.9448 52.6186 31.9096C52.5249 31.8745 52.7593 31.7573 53.146 31.6518C55.5483 30.9603 57.4349 29.0266 58.056 26.636C58.302 25.7219 58.302 23.9641 58.0558 23.05C57.4229 20.6126 55.4424 18.6322 53.0049 17.9994C52.0439 17.7534 50.1924 17.7652 49.2783 18.0347Z" fill="#C2B4FF"/>
</svg>
