<svg width="60" height="60" viewBox="0 0 60 60" fill="none" xmlns="http://www.w3.org/2000/svg">
<path d="M46.3475 1.47461C42.5037 2.08398 39.5506 4.11133 38.2147 7.05273C37.7225 8.11914 37.5819 9.04492 37.6405 10.5215L37.7108 11.7754L36.785 12.7246C35.8123 13.7207 35.6952 14.0137 36.0819 14.4004C36.2577 14.5762 36.5389 14.623 37.7225 14.6699L39.1405 14.7285L39.9373 15.4902C41.3787 16.8848 43.1366 17.8457 45.2108 18.3613C45.7967 18.5137 46.5116 18.5605 48.0467 18.5723C49.9217 18.5723 50.1912 18.5371 51.2577 18.2441C53.4491 17.6348 55.3475 16.4746 56.6366 14.9277C59.5077 11.5293 58.9686 6.7832 55.3944 3.86523C54.4569 3.0918 52.3592 2.06054 51.0936 1.74414C50.1092 1.50976 47.2147 1.3457 46.3475 1.47461ZM44.6131 9.19726C45.1639 9.58398 45.1287 10.5801 44.5428 10.8848C43.5233 11.4355 42.5272 10.0527 43.4061 9.30273C43.7694 8.98633 44.2498 8.93945 44.6131 9.19726ZM48.6912 9.31445C49.3006 9.91211 48.8787 11.0137 48.0584 11.0137C47.1561 11.0137 46.7108 9.87695 47.3905 9.30273C47.8123 8.93945 48.328 8.93945 48.6912 9.31445ZM52.6756 9.31445C53.285 9.91211 52.8631 11.0137 52.0311 11.0137C51.7733 11.0137 51.5506 10.8965 51.3045 10.6621C51.0116 10.3574 50.9647 10.2402 51.0233 9.92383C51.1756 9.10351 52.1248 8.75195 52.6756 9.31445Z" fill="#E04F16"/>
<path d="M22.9219 7.92016C21.8555 8.17797 20.7305 8.83422 19.9336 9.66625C17.6133 12.0803 17.625 15.842 19.9688 18.2209C20.7305 18.9944 21.7618 19.6038 22.793 19.8733C23.6016 20.0959 25.2422 20.0842 26.0274 19.8498C28.125 19.2288 29.7891 17.553 30.3516 15.467C30.5743 14.635 30.5274 12.9475 30.2461 12.0569C29.2969 9.02172 26.0274 7.17016 22.9219 7.92016Z" fill="#E04F16"/>
<path d="M30.8906 18.1504C29.9648 19.6621 27.9961 21.0449 26.1328 21.5137C24.9609 21.8066 22.9453 21.6895 21.7969 21.2676C20.9297 20.9512 19.8633 20.3418 19.3711 19.8965L19.1133 19.6621L18.7266 19.9668C18.5156 20.1309 18.1055 20.5527 17.8125 20.9043C17.5195 21.2559 15 25.4395 12.2109 30.1973L7.14844 38.8457L10.3359 38.8809C13.2773 38.9043 13.5469 38.8926 13.6875 38.7051C13.7695 38.5879 15.3516 36.0566 17.1914 33.0684C19.0312 30.0918 20.5547 27.666 20.5781 27.6895C20.6016 27.7012 20.5664 30.3848 20.5078 33.6309L20.4023 39.5488L20.6719 39.8418C21.2109 40.4277 21.3867 40.8613 22.793 45.2676C23.5781 47.7285 24.2695 49.7441 24.3281 49.7441C24.3867 49.7441 25.1719 48.4551 26.0859 46.873C27.9375 43.6621 28.6055 42.8066 29.7305 42.2324L30.4219 41.8691L29.8008 41.1777C28.6289 39.8887 27.7852 37.7441 27.7734 36.0684C27.7734 33.8652 28.8984 31.3926 30.5156 30.0684C31.3008 29.4355 32.2969 28.8496 33.0117 28.627C33.7383 28.4043 33.7148 28.4746 33.4687 26.4824C33.375 25.8027 33.3164 25.2402 33.3281 25.2285C33.3398 25.2168 34.1953 25.5215 35.2266 25.9082C37.4648 26.752 37.793 27.0098 37.7812 27.877V28.4512L38.4258 28.7207C39.3281 29.084 40.5 29.8574 41.1328 30.5137C41.4141 30.8066 41.6836 31.0527 41.7305 31.0527C41.7773 31.0527 42.0937 30.2207 42.4336 29.2012C43.1367 27.1152 43.2187 26.2949 42.8437 25.2168C42.5039 24.209 41.7422 23.5527 38.0273 20.998C34.1367 18.3379 33.8789 18.1738 32.7187 17.7637C31.4766 17.3184 31.3945 17.3418 30.8906 18.1504Z" fill="#E04F16"/>
<path d="M34.7342 29.8847C32.2146 30.2597 30.1756 32.123 29.5896 34.5957C29.0975 36.705 29.7771 38.9433 31.3709 40.4316C32.6131 41.6035 33.8904 42.1074 35.5662 42.1191C39.0701 42.1308 41.7185 39.4824 41.7185 35.9668C41.7185 33.8574 40.7459 31.9941 39.035 30.8574C37.8514 30.0605 36.1404 29.6738 34.7342 29.8847Z" fill="#FFB598"/>
<path d="M2.37891 40.7221C1.92188 40.9213 1.52344 41.519 1.52344 42.0229C1.52344 42.4096 6.1875 57.1752 6.50391 57.7729C6.89062 58.5229 5.4375 58.476 26.8125 58.476H46.2539L46.9688 58.1244C48.9258 57.14 49.5352 54.8549 48.3398 52.9682C47.6016 51.808 42.832 44.9057 42.5625 44.6127C42.0703 44.0854 41.2383 43.6166 40.4648 43.4174C39.8555 43.265 39.0586 43.2416 35.4844 43.265L31.2305 43.3002L30.5625 43.6283C30.1875 43.8158 29.7188 44.1674 29.5078 44.4135C29.2031 44.765 25.957 50.2143 25.8047 50.6361C25.7812 50.6947 28.9336 50.7416 33.082 50.7416C40.3008 50.7416 40.4062 50.7416 40.7109 50.9877C41.0508 51.2572 41.1211 51.7377 40.8516 52.0893C40.6172 52.4174 39.5391 52.476 33.293 52.4877C29.4492 52.4994 27.8438 52.5346 27.4922 52.64C27.1992 52.7338 26.7773 53.015 26.4023 53.3783C25.7109 54.058 25.4883 54.6674 25.582 55.64L25.6523 56.2611L25.1133 56.226L24.5742 56.1908L22.1953 48.7729C20.8477 44.5541 19.7344 41.2494 19.6172 41.1205C19.0898 40.5346 19.3008 40.5463 10.7578 40.5463C4.14844 40.558 2.68359 40.5815 2.37891 40.7221Z" fill="#FFB598"/>
</svg>
