<svg width="60" height="60" viewBox="0 0 60 60" fill="none" xmlns="http://www.w3.org/2000/svg">
<g clip-path="url(#clip0_888_3722)">
<path d="M28.1252 0.222535C25.9572 0.925718 24.3869 2.51951 23.7425 4.67578C23.4964 5.51953 23.4964 7.3711 23.7426 8.21484C24.3754 10.3242 25.8872 11.9062 27.9966 12.621C28.5942 12.8202 29.0396 12.8905 29.9536 12.8905C31.8872 12.8904 33.2817 12.3279 34.5825 11.0271C35.8715 9.73795 36.4457 8.33169 36.4456 6.44497C36.4456 4.55825 35.8713 3.15202 34.5822 1.86299C33.7736 1.05442 32.8713 0.515378 31.7697 0.187282C30.8908 -0.0705073 28.9806 -0.0587378 28.1252 0.222535Z" fill="#F1B3FF"/>
<path d="M22.676 14.3803C21.2111 15.5873 19.7932 17.8022 19.2074 19.8061C18.9613 20.6147 18.9379 20.9897 18.8911 24.3765C18.8443 28.4897 18.856 28.5835 19.6295 29.0639C19.9928 29.2866 20.2271 29.2983 24.1295 29.2982L28.2428 29.2981L28.2429 34.3957L28.243 39.4934L24.1181 42.7865C21.8447 44.6029 19.9229 46.1381 19.8526 46.1967C19.7588 46.2553 19.4659 46.0444 18.9971 45.5874C17.8018 44.4155 17.8369 44.4273 17.0283 45.0484C13.63 47.6617 8.63778 47.6619 5.23928 45.0487C4.55957 44.5214 4.54786 44.5214 4.24317 44.7206C3.21194 45.4003 1.60653 47.4277 0.938598 48.916C0.130051 50.6855 0.0831853 51.0254 0.0246992 55.0801C-0.0220665 59.1934 -0.0103453 59.2871 0.763105 59.7676C1.13811 60.0019 1.3842 60.0019 11.1342 60.0017C20.8842 60.0014 21.1303 60.0014 21.5053 59.767C22.2787 59.2865 22.2904 59.1928 22.2434 55.0795C22.1965 51.5404 22.1848 51.3529 21.9035 50.4389L21.6105 49.4897L25.8057 46.1263L30.0009 42.7746L34.1963 46.126L38.3917 49.4892L38.0988 50.4384C37.8176 51.3525 37.8059 51.54 37.7591 55.0791C37.7123 59.1924 37.724 59.2861 38.4975 59.7666C38.8725 60.0009 39.1186 60.0009 48.8686 60.0007C58.6186 60.0004 58.8647 60.0004 59.2397 59.766C60.0131 59.2855 60.0248 59.1918 59.9778 55.0785C59.9191 51.0238 59.8722 50.684 59.0636 48.9144C58.3956 47.4262 56.7901 45.3989 55.7588 44.7192C55.4541 44.52 55.4424 44.52 54.7627 45.0474C51.3643 47.6607 46.3722 47.6609 42.9737 45.0477C42.165 44.4266 42.2002 44.4149 41.0049 45.5868C40.5362 46.0438 40.2432 46.2548 40.1495 46.1962C40.0791 46.1376 38.1572 44.6025 35.8955 42.7862L31.7587 39.4933L31.7585 34.3956L31.7584 29.298L35.8717 29.2979C41.6139 29.2977 41.1686 29.7079 41.1098 24.3759C41.0511 20.3212 41.0042 19.9813 40.1956 18.2118C39.5276 16.7236 37.9221 14.6963 36.8908 14.0166C36.5861 13.8174 36.5744 13.8174 35.8947 14.3447C32.4963 16.9581 27.5042 16.9583 24.1056 14.3451C23.7424 14.0638 23.4142 13.8295 23.3908 13.8295C23.3674 13.8295 23.051 14.0756 22.676 14.3803Z" fill="#D272E8"/>
<path d="M9.25796 30.9285C7.09001 31.6317 5.51974 33.2255 4.87527 35.3818C4.6292 36.2255 4.62925 38.0771 4.87536 38.9208C5.50823 41.0302 7.01999 42.6122 9.12939 43.327C10.1021 43.6551 11.9302 43.7019 12.9028 43.4089C15.0825 42.7526 16.7348 41.1002 17.391 38.9205C17.6371 38.0767 17.637 36.2252 17.3909 35.3814C16.7346 33.2018 15.0822 31.5495 12.9025 30.8933C12.0236 30.6355 10.1134 30.6473 9.25796 30.9285Z" fill="#F1B3FF"/>
<path d="M46.9928 30.9257C45.8796 31.289 45.0827 31.7695 44.2858 32.5664C42.9968 33.8555 42.4226 35.2617 42.4227 37.1484C42.4227 38.9297 42.9501 40.3125 44.1103 41.5664C45.3642 42.914 46.9229 43.5819 48.8213 43.5936C50.7549 43.5935 52.1494 43.031 53.4501 41.7302C54.7392 40.4411 55.3134 39.0348 55.3133 37.1481C55.3133 35.2614 54.739 33.8551 53.4499 32.5661C52.6413 31.7575 51.7389 31.2185 50.6374 30.8904C49.7584 30.6326 47.8483 30.6444 46.9928 30.9257Z" fill="#F1B3FF"/>
</g>
<defs>
<clipPath id="clip0_888_3722">
<rect width="60" height="60" fill="white" transform="translate(0 0.00195312)"/>
</clipPath>
</defs>
</svg>
