<svg width="48" height="48" viewBox="0 0 48 48" fill="none" xmlns="http://www.w3.org/2000/svg">
<path d="M6.69375 1.25625L6.375 1.575V3.31875V5.0625H5.15625C3.62813 5.0625 3.10313 5.23125 2.38125 5.94375C1.54688 6.7875 1.5 7.0125 1.5 10.2187V12.9375H22.5H43.5V10.2187C43.5 7.0125 43.4531 6.7875 42.6188 5.94375C41.8969 5.23125 41.3719 5.0625 39.8438 5.0625H38.625V3.31875V1.575L38.3063 1.25625C38.025 0.975 37.9313 0.9375 37.5 0.9375C37.0688 0.9375 36.975 0.975 36.6938 1.25625L36.375 1.575V3.31875V5.0625H30H23.625V3.31875V1.575L23.3063 1.25625C23.025 0.975 22.9313 0.9375 22.5 0.9375C22.0688 0.9375 21.975 0.975 21.6938 1.25625L21.375 1.575V3.31875V5.0625H15H8.625V3.31875V1.575L8.30625 1.25625C8.025 0.975 7.93125 0.9375 7.5 0.9375C7.06875 0.9375 6.975 0.975 6.69375 1.25625Z" fill="white"/>
<path d="M1.5 28.4062V41.6156L1.70625 42.1594C1.97813 42.8812 2.68125 43.5844 3.40313 43.8562L3.94688 44.0625H15.9844C22.6125 44.0625 28.0313 44.0437 28.0313 44.025C28.0313 44.0062 27.8813 43.7156 27.6938 43.3875C27.1969 42.5156 26.7563 41.3156 26.5313 40.2094C26.2406 38.8312 26.2969 36.6656 26.6531 35.3156C27.2063 33.2344 28.0594 31.7531 29.625 30.1875C31.2 28.6125 32.7 27.75 34.7531 27.225C37.4625 26.5406 40.6313 26.9437 42.8719 28.275C43.1719 28.4437 43.4344 28.5937 43.4625 28.5937C43.4813 28.5937 43.5 25.575 43.5 21.8906V15.1875H22.5H1.5V28.4062ZM13.9969 19.1531C14.5875 19.5375 14.5781 19.5 14.5781 23.0625C14.5781 26.625 14.5875 26.5875 13.9969 26.9719C13.7625 27.1219 13.4438 27.1406 10.5 27.1406C7.55625 27.1406 7.2375 27.1219 7.00313 26.9719C6.43125 26.5969 6.42188 26.5781 6.39375 23.3906C6.375 21.7969 6.39375 20.3062 6.42188 20.0906C6.49688 19.6031 6.84375 19.1625 7.24688 19.0406C7.41563 18.9844 8.925 18.9562 10.6406 18.9656C13.425 18.9844 13.7719 19.0031 13.9969 19.1531ZM25.9969 19.1531C26.5875 19.5375 26.5781 19.5 26.5781 23.0625C26.5781 26.625 26.5875 26.5875 25.9969 26.9719C25.7625 27.1219 25.4438 27.1406 22.5 27.1406C19.5563 27.1406 19.2375 27.1219 19.0031 26.9719C18.4313 26.5969 18.4219 26.5781 18.3938 23.3906C18.375 21.7969 18.3938 20.3062 18.4219 20.0906C18.4969 19.6031 18.8438 19.1625 19.2469 19.0406C19.4156 18.9844 20.925 18.9562 22.6406 18.9656C25.425 18.9844 25.7719 19.0031 25.9969 19.1531ZM13.9969 31.1531C14.5875 31.5375 14.5781 31.5 14.5781 35.0625C14.5781 38.625 14.5875 38.5875 13.9969 38.9719C13.7625 39.1219 13.4438 39.1406 10.5 39.1406C7.55625 39.1406 7.2375 39.1219 7.00313 38.9719C6.43125 38.5969 6.42188 38.5781 6.39375 35.3906C6.375 33.7969 6.39375 32.3062 6.42188 32.0906C6.49688 31.6031 6.84375 31.1625 7.24688 31.0406C7.41563 30.9844 8.925 30.9562 10.6406 30.9656C13.425 30.9844 13.7719 31.0031 13.9969 31.1531Z" fill="white"/>
<path d="M8.625 23.0625V24.9375H10.5H12.375V23.0625V21.1875H10.5H8.625V23.0625Z" fill="white"/>
<path d="M20.625 23.0625V24.9375H22.5H24.375V23.0625V21.1875H22.5H20.625V23.0625Z" fill="white"/>
<path d="M8.625 35.0625V36.9375H10.5H12.375V35.0625V33.1875H10.5H8.625V35.0625Z" fill="white"/>
<path d="M35.625 29.2031C32.2781 29.9531 29.7188 32.3625 28.7625 35.6812C28.575 36.3281 28.5469 36.6281 28.5469 38.0625C28.5469 39.4969 28.575 39.7969 28.7625 40.4437C29.6719 43.575 31.9875 45.8906 35.1188 46.8C35.7656 46.9875 36.0656 47.0156 37.5 47.0156C38.9344 47.0156 39.2344 46.9875 39.8813 46.8C43.0125 45.8906 45.3281 43.575 46.2375 40.4437C46.425 39.7969 46.4531 39.4969 46.4531 38.0625C46.4531 36.6281 46.425 36.3281 46.2375 35.6812C45.3375 32.5687 43.0219 30.2437 39.9281 29.3344C39.0188 29.0719 36.5625 28.9969 35.625 29.2031ZM38.1469 32.775C38.55 33.1125 38.625 33.4969 38.625 35.3156V36.9375H39.4969C40.5656 36.9375 40.9781 37.05 41.2875 37.4156C41.8406 38.0719 41.4094 39 40.4813 39.1406C40.2469 39.1781 39.4219 39.1875 38.6531 39.1687C37.1344 39.1406 36.9281 39.075 36.5906 38.5594C36.4406 38.3437 36.4219 38.0156 36.3938 36.1406C36.375 34.9594 36.3938 33.7969 36.4219 33.5719C36.5625 32.6531 37.4906 32.2219 38.1469 32.775Z" fill="white"/>
</svg>
