<svg width="40" height="40" viewBox="0 0 40 40" fill="none" xmlns="http://www.w3.org/2000/svg">
<path d="M30.8985 0.982421C28.336 1.38867 26.3672 2.74023 25.4766 4.70117C25.1485 5.41211 25.0547 6.0293 25.0938 7.01367L25.1407 7.84961L24.5235 8.48242C23.8751 9.14648 23.7969 9.3418 24.0547 9.59961C24.1719 9.7168 24.3594 9.74805 25.1485 9.7793L26.0938 9.81836L26.6251 10.3262C27.586 11.2559 28.7579 11.8965 30.1407 12.2402C30.5313 12.3418 31.0079 12.373 32.0313 12.3809C33.2813 12.3809 33.461 12.3574 34.1719 12.1621C35.6329 11.7559 36.8985 10.9824 37.7579 9.95117C39.6719 7.68555 39.3126 4.52148 36.9297 2.57617C36.3047 2.06055 34.9063 1.37305 34.0626 1.16211C33.4063 1.00586 31.4766 0.896483 30.8985 0.982421ZM29.7422 6.13086C30.1094 6.38867 30.086 7.05273 29.6954 7.25586C29.0157 7.62305 28.3516 6.70117 28.9376 6.20117C29.1797 5.99023 29.5001 5.95898 29.7422 6.13086ZM32.461 6.20898C32.8672 6.60742 32.586 7.3418 32.0391 7.3418C31.4376 7.3418 31.1407 6.58398 31.5938 6.20117C31.8751 5.95898 32.2188 5.95898 32.461 6.20898ZM35.1172 6.20898C35.5235 6.60742 35.2422 7.3418 34.6876 7.3418C34.5157 7.3418 34.3672 7.26367 34.2032 7.10742C34.0079 6.9043 33.9766 6.82617 34.0157 6.61523C34.1172 6.06836 34.7501 5.83398 35.1172 6.20898Z" fill="#1C1A1E"/>
<path d="M15.2813 5.28011C14.5703 5.45198 13.8203 5.88948 13.2891 6.44417C11.7422 8.05354 11.75 10.5614 13.3125 12.1473C13.8203 12.6629 14.5078 13.0692 15.1953 13.2489C15.7344 13.3973 16.8282 13.3895 17.3516 13.2332C18.75 12.8192 19.8594 11.702 20.2344 10.3114C20.3828 9.75667 20.3516 8.63167 20.1641 8.03792C19.5313 6.01448 17.3516 4.78011 15.2813 5.28011Z" fill="#1C1A1E"/>
<path d="M20.5937 12.0996C19.9766 13.1074 18.6641 14.0293 17.4219 14.3418C16.6406 14.5371 15.2969 14.459 14.5312 14.1777C13.9531 13.9668 13.2422 13.5605 12.9141 13.2637L12.7422 13.1074L12.4844 13.3105C12.3437 13.4199 12.0703 13.7012 11.875 13.9355C11.6797 14.1699 10 16.959 8.14062 20.1309L4.76562 25.8965L6.89062 25.9199C8.85156 25.9355 9.03125 25.9277 9.125 25.8027C9.17969 25.7246 10.2344 24.0371 11.4609 22.0449C12.6875 20.0605 13.7031 18.4434 13.7187 18.459C13.7344 18.4668 13.7109 20.2559 13.6719 22.4199L13.6016 26.3652L13.7812 26.5605C14.1406 26.9512 14.2578 27.2402 15.1953 30.1777C15.7187 31.8184 16.1797 33.1621 16.2187 33.1621C16.2578 33.1621 16.7812 32.3027 17.3906 31.248C18.625 29.1074 19.0703 28.5371 19.8203 28.1543L20.2812 27.9121L19.8672 27.4512C19.0859 26.5918 18.5234 25.1621 18.5156 24.0449C18.5156 22.5762 19.2656 20.9277 20.3437 20.0449C20.8672 19.623 21.5312 19.2324 22.0078 19.084C22.4922 18.9355 22.4766 18.9824 22.3125 17.6543C22.25 17.2012 22.2109 16.8262 22.2187 16.8184C22.2266 16.8105 22.7969 17.0137 23.4844 17.2715C24.9766 17.834 25.1953 18.0059 25.1875 18.584V18.9668L25.6172 19.1465C26.2187 19.3887 27 19.9043 27.4219 20.3418C27.6094 20.5371 27.7891 20.7012 27.8203 20.7012C27.8516 20.7012 28.0625 20.1465 28.2891 19.4668C28.7578 18.0762 28.8125 17.5293 28.5625 16.8105C28.3359 16.1387 27.8281 15.7012 25.3516 13.998C22.7578 12.2246 22.5859 12.1152 21.8125 11.8418C20.9844 11.5449 20.9297 11.5605 20.5937 12.0996Z" fill="#1C1A1E"/>
<path d="M23.1563 19.9238C21.4766 20.1738 20.1172 21.416 19.7266 23.0644C19.3985 24.4707 19.8516 25.9629 20.9141 26.9551C21.7422 27.7363 22.5938 28.0722 23.711 28.0801C26.0469 28.0879 27.8125 26.3222 27.8125 23.9785C27.8125 22.5722 27.1641 21.3301 26.0235 20.5722C25.2344 20.041 24.0938 19.7832 23.1563 19.9238Z" fill="#1C1A1E"/>
<path d="M1.58594 27.1481C1.28125 27.2809 1.01562 27.6793 1.01562 28.0152C1.01562 28.2731 4.125 38.1168 4.33594 38.5152C4.59375 39.0152 3.625 38.984 17.875 38.984H30.8359L31.3125 38.7496C32.6172 38.0934 33.0234 36.5699 32.2266 35.3121C31.7344 34.5387 28.5547 29.9371 28.375 29.7418C28.0469 29.3902 27.4922 29.0777 26.9766 28.9449C26.5703 28.8434 26.0391 28.8277 23.6562 28.8434L20.8203 28.8668L20.375 29.0856C20.125 29.2106 19.8125 29.4449 19.6719 29.609C19.4688 29.8434 17.3047 33.4762 17.2031 33.7574C17.1875 33.7965 19.2891 33.8277 22.0547 33.8277C26.8672 33.8277 26.9375 33.8277 27.1406 33.9918C27.3672 34.1715 27.4141 34.4918 27.2344 34.7262C27.0781 34.9449 26.3594 34.984 22.1953 34.9918C19.6328 34.9996 18.5625 35.0231 18.3281 35.0934C18.1328 35.1559 17.8516 35.3434 17.6016 35.5856C17.1406 36.0387 16.9922 36.4449 17.0547 37.0934L17.1016 37.5074L16.7422 37.484L16.3828 37.4606L14.7969 32.5152C13.8984 29.7027 13.1562 27.4996 13.0781 27.4137C12.7266 27.0231 12.8672 27.0309 7.17188 27.0309C2.76562 27.0387 1.78906 27.0543 1.58594 27.1481Z" fill="#1C1A1E"/>
</svg>
