<svg width="23" height="23" viewBox="0 0 23 23" fill="none" xmlns="http://www.w3.org/2000/svg">
<path d="M10.4938 0.0619588C9.72502 0.249459 8.97033 0.863522 8.61408 1.59008C8.17815 2.48071 8.17346 3.36665 8.60471 4.23852C8.9469 4.92759 9.5844 5.4854 10.3016 5.71978C10.5922 5.81353 10.7422 5.83228 11.2344 5.83228C11.7266 5.83228 11.8766 5.81353 12.1672 5.71978C12.8844 5.4854 13.5219 4.92759 13.8641 4.23852C14.2953 3.36665 14.2906 2.48071 13.8547 1.59008C13.4891 0.844772 12.6828 0.207271 11.9 0.0478959C11.5719 -0.0224166 10.8031 -0.0130415 10.4938 0.0619588Z" fill="white"/>
<path d="M4.3388 3.42286C2.40286 3.87755 1.71848 6.26817 3.12005 7.66974C3.56536 8.11505 4.08567 8.34005 4.74192 8.37286C5.51067 8.41505 6.14349 8.18068 6.6638 7.66036C7.1513 7.17286 7.39036 6.58693 7.39036 5.87911C7.39036 5.1713 7.1513 4.59474 6.65911 4.09786C6.34036 3.77911 5.84817 3.50724 5.43099 3.42286C5.14505 3.36192 4.58255 3.36192 4.3388 3.42286Z" fill="white"/>
<path d="M16.9623 3.43693C16.3248 3.60099 15.6686 4.10255 15.3732 4.66505C14.8436 5.6588 15.0217 6.87755 15.8045 7.66036C16.3248 8.18068 16.9576 8.41505 17.7264 8.37286C18.7529 8.3213 19.5732 7.71661 19.9342 6.76036C20.417 5.48068 19.7561 4.02286 18.467 3.52599C18.0779 3.38068 17.3607 3.3338 16.9623 3.43693Z" fill="white"/>
<path d="M10.5779 6.32446C9.21855 6.49321 8.01387 7.08384 7.07168 8.04477L6.72949 8.39634L7.37637 8.71978C7.98105 9.01978 8.04199 9.04321 8.32793 9.04321C8.49668 9.04321 8.77793 9.01978 8.95605 8.99634C9.25605 8.94946 9.3123 8.92603 9.81387 8.55102C10.4092 8.1104 10.7607 7.96509 11.2342 7.96509C11.7076 7.96509 12.0592 8.1104 12.6545 8.55102C13.1561 8.92603 13.2123 8.94946 13.5123 8.99634C13.6904 9.01978 13.9764 9.04321 14.1451 9.04321C14.4311 9.04321 14.4967 9.02446 14.9889 8.77134C15.2842 8.61665 15.5748 8.48071 15.6357 8.46665C15.7482 8.43852 15.7482 8.43852 15.5561 8.20884C15.0357 7.59009 14.0748 6.94321 13.2123 6.63384C12.4576 6.36665 11.3373 6.2354 10.5779 6.32446Z" fill="white"/>
<path d="M10.8076 8.7338C10.7091 8.76661 10.4279 8.94943 10.1748 9.13693C9.48569 9.63849 9.46225 9.64786 8.61381 9.72286C7.82162 9.78849 7.67162 9.83068 7.39975 10.0932C7.17944 10.2947 7.12319 10.4213 6.96381 11.0635C6.88881 11.3776 6.79506 11.7057 6.75756 11.7947C6.72006 11.8885 6.43412 12.2166 6.12944 12.5307C5.62318 13.0463 5.56225 13.126 5.49193 13.3744C5.37475 13.7682 5.42162 13.9838 5.77787 14.7244C6.12944 15.451 6.12944 15.4791 6.031 16.426C5.97475 16.9416 5.97475 17.0119 6.05444 17.2463C6.19037 17.6494 6.45756 17.8791 7.12319 18.1557C7.46537 18.2963 7.75131 18.451 7.86381 18.5541C7.96694 18.6479 8.21537 18.9666 8.41694 19.2619C8.85756 19.9182 9.04506 20.0588 9.53256 20.0916C9.80444 20.1104 9.93569 20.0916 10.4091 19.9463C11.1263 19.726 11.3419 19.726 12.0591 19.9463C12.5326 20.0916 12.6638 20.1104 12.9357 20.0916C13.4232 20.0588 13.6107 19.9182 14.0513 19.2619C14.2529 18.9666 14.5013 18.6479 14.6044 18.5541C14.7169 18.451 15.0029 18.2963 15.3451 18.1557C16.0107 17.8791 16.2779 17.6494 16.4138 17.2463C16.4935 17.0119 16.4935 16.9463 16.4373 16.4026C16.3388 15.4651 16.3388 15.4557 16.6904 14.7244C17.0466 13.9838 17.0935 13.7729 16.9763 13.3744C16.906 13.126 16.8451 13.0463 16.3388 12.5307C16.0341 12.2166 15.7482 11.8885 15.7107 11.7947C15.6732 11.7057 15.5794 11.3776 15.5044 11.0635C15.3451 10.4213 15.2888 10.2947 15.0685 10.0932C14.7966 9.83068 14.6466 9.78849 13.8544 9.72286C13.006 9.64786 12.9873 9.64318 12.2701 9.11818C12.0076 8.9213 11.7123 8.74318 11.6138 8.71505C11.3841 8.64943 11.0138 8.6588 10.8076 8.7338ZM12.0357 11.3166C13.0904 11.5885 14.0185 12.5166 14.3091 13.5901C14.3654 13.7916 14.3935 14.0635 14.3935 14.3869C14.3935 15.2822 14.1029 15.9713 13.4607 16.6182C13.1513 16.9276 13.006 17.0354 12.6404 17.2135C11.6701 17.6869 10.7982 17.6869 9.82788 17.2135C9.46225 17.0354 9.31694 16.9276 9.00756 16.6182C8.36537 15.9713 8.07475 15.2822 8.07475 14.3869C8.07475 14.0635 8.10287 13.7916 8.15912 13.5901C8.49194 12.3666 9.54663 11.4385 10.8357 11.2276C11.0794 11.1901 11.7263 11.2369 12.0357 11.3166Z" fill="white"/>
<path d="M11.0516 12.6197C11.0234 12.6572 10.9203 12.915 10.8266 13.1963L10.6484 13.7072L10.0578 13.7307C9.41094 13.7541 9.3125 13.7916 9.3125 14.0166C9.3125 14.1338 9.37344 14.1994 9.7625 14.4853C10.0063 14.6682 10.2219 14.8463 10.2313 14.8791C10.2453 14.9119 10.1797 15.1791 10.0859 15.465C9.93125 15.9572 9.92188 15.9994 9.99219 16.1025C10.1141 16.2947 10.2875 16.2525 10.7469 15.9103C10.9766 15.7416 11.1922 15.6057 11.2344 15.6057C11.2766 15.6057 11.4922 15.7416 11.7219 15.9103C12.1813 16.2525 12.3547 16.2947 12.4766 16.1025C12.5469 15.9994 12.5375 15.9572 12.3828 15.465C12.2891 15.1791 12.2234 14.9119 12.2375 14.8791C12.2469 14.8463 12.4625 14.6682 12.7063 14.4853C13.0953 14.1994 13.1563 14.1338 13.1563 14.0166C13.1563 13.7916 13.0578 13.7541 12.4109 13.7307L11.8203 13.7072L11.6422 13.1963C11.5484 12.915 11.4453 12.6572 11.4172 12.6197C11.3891 12.5869 11.3047 12.5588 11.2344 12.5588C11.1641 12.5588 11.0797 12.5869 11.0516 12.6197Z" fill="white"/>
<path d="M4.46076 8.83697C3.19982 8.98228 2.18264 9.4604 1.35764 10.2995C0.809199 10.8526 0.392011 11.5463 0.157636 12.301C-0.0204887 12.8682 -0.0392387 13.0604 0.0591988 13.1729C0.134199 13.2573 0.223261 13.262 2.47795 13.262C4.39982 13.262 4.81232 13.2526 4.81232 13.201C4.81232 13.1635 4.87795 13.0088 4.95295 12.8495C5.06076 12.6385 5.22482 12.4417 5.57639 12.1042C5.84357 11.851 6.07795 11.6167 6.0967 11.5792C6.12014 11.5463 6.2092 11.2323 6.29357 10.8854C6.46701 10.1729 6.63107 9.84946 6.96389 9.55415L7.17014 9.37134L6.85139 9.22603C6.1717 8.92134 5.17795 8.75728 4.46076 8.83697Z" fill="white"/>
<path d="M16.9624 8.8604C16.5124 8.91665 15.978 9.06196 15.6218 9.22603L15.2983 9.37134L15.5046 9.55415C15.8374 9.84946 16.0015 10.1729 16.1749 10.8854C16.2593 11.2323 16.3483 11.5463 16.3718 11.5792C16.3905 11.6167 16.6249 11.851 16.8921 12.1042C17.2437 12.4417 17.4077 12.6385 17.5155 12.8495C17.5905 13.0088 17.6562 13.1635 17.6562 13.201C17.6562 13.2526 18.0687 13.262 19.9905 13.262C22.2452 13.262 22.3343 13.2573 22.4093 13.1729C22.5077 13.0604 22.489 12.8682 22.3108 12.301C21.5937 10.0088 19.3249 8.55103 16.9624 8.8604Z" fill="white"/>
<path d="M6.72031 20.312C6.39219 21.0151 6.125 21.6245 6.125 21.6667C6.125 21.7088 6.14375 21.751 6.16719 21.7651C6.19063 21.7792 6.57031 21.7276 7.01563 21.6479C7.46094 21.5729 7.84531 21.5167 7.87344 21.526C7.89688 21.5307 8.10313 21.8542 8.32812 22.2385C8.67031 22.8338 8.75 22.9417 8.84375 22.9417C8.94688 22.9417 9.00781 22.8338 9.43906 21.9104C9.70156 21.3432 9.92188 20.8651 9.92188 20.851C9.92188 20.8323 9.73906 20.8088 9.51406 20.7995C8.79688 20.762 8.43125 20.5042 7.8125 19.5854C7.60156 19.276 7.40469 19.0276 7.37656 19.0276C7.34375 19.0276 7.04844 19.6042 6.72031 20.312Z" fill="white"/>
<path d="M14.6891 19.5525C14.1078 20.4431 13.6719 20.7478 12.9125 20.7994C12.7109 20.8087 12.5469 20.8322 12.5469 20.8509C12.5516 20.865 12.7672 21.3431 13.0297 21.9103C13.6438 23.2228 13.5828 23.2041 14.1453 22.2384C14.3656 21.8541 14.5719 21.5306 14.5953 21.5259C14.6234 21.5166 15.0078 21.5728 15.4531 21.6478C15.8984 21.7275 16.2781 21.7791 16.3016 21.765C16.325 21.7509 16.3438 21.7087 16.3438 21.6666C16.3438 21.5306 15.1578 19.0275 15.0922 19.0275C15.0594 19.0275 14.8766 19.2666 14.6891 19.5525Z" fill="white"/>
</svg>
