<svg width="24" height="24" viewBox="0 0 24 24" fill="none" xmlns="http://www.w3.org/2000/svg">
<path d="M4.88899 3.25781C4.72962 3.29063 4.45306 3.38906 4.27962 3.47344C3.85306 3.675 3.30931 4.21406 3.10306 4.64063C2.79837 5.26406 2.80774 4.95 2.82181 12.225L2.83587 18.8203L2.93899 19.1297C3.21087 19.9219 3.87649 20.5781 4.66399 20.8266L4.99212 20.9297H10.0781H15.164L15.4406 20.8266C16.2515 20.5172 16.8562 19.9078 17.1234 19.1297L17.2265 18.8203L17.2406 12.225C17.2546 4.95 17.264 5.25938 16.9593 4.64063C16.7577 4.22813 16.2093 3.67969 15.7968 3.47813C15.1968 3.18281 15.3187 3.1875 10.0077 3.19219C6.14056 3.19219 5.12337 3.20625 4.88899 3.25781ZM10.2796 6.72188C10.364 6.75469 10.4906 6.85313 10.5609 6.93281C10.6781 7.07813 10.6874 7.11563 10.6874 7.54219V7.99688L10.9593 8.08125C11.4984 8.25469 12.0843 8.61563 12.2109 8.86406C12.3562 9.14063 12.2577 9.49219 11.9859 9.65625C11.7421 9.80625 11.5452 9.77813 11.1749 9.54375C10.7437 9.26719 10.3968 9.16875 9.94212 9.19688C9.56243 9.22031 9.29056 9.32813 9.11243 9.525C8.82181 9.83906 8.77493 10.2563 8.99524 10.5984C9.18274 10.8938 9.46868 11.0906 10.3593 11.5219C10.7859 11.7281 11.264 11.9906 11.4234 12.1125C12.4499 12.8859 12.7827 13.8516 12.3796 14.9063C12.164 15.4688 11.6577 15.9234 11.0156 16.1297L10.6874 16.2375V16.6313C10.6874 17.0906 10.6031 17.2875 10.3406 17.4094C10.1296 17.5078 10.0077 17.5031 9.79212 17.3813C9.54837 17.2453 9.46868 17.0578 9.46868 16.6031V16.2328L9.15462 16.1484C8.66712 16.0172 8.12806 15.7219 7.81868 15.4219C7.55618 15.1688 7.54681 15.15 7.54681 14.9203C7.54681 14.625 7.69681 14.4188 7.96868 14.3391C8.19837 14.2688 8.33431 14.3063 8.59681 14.5078C9.03743 14.8453 9.59993 15.0469 10.1062 15.0469C10.3874 15.0469 10.7999 14.9344 10.9874 14.7984C11.2781 14.5922 11.3906 14.0063 11.2077 13.65C11.0202 13.2844 10.5421 12.9422 9.75462 12.5906C8.48431 12.0328 7.79524 11.3438 7.63118 10.4672C7.44837 9.49219 8.17024 8.38594 9.18274 8.08594L9.45931 8.00156L9.47806 7.51875C9.49212 7.08281 9.50149 7.02656 9.60931 6.91406C9.72649 6.7875 9.95149 6.66094 10.0687 6.65625C10.1015 6.65625 10.1952 6.68438 10.2796 6.72188Z" fill="white"/>
<path d="M18.8764 7.89372C18.6514 7.9781 18.5858 8.03435 18.4967 8.22185C18.4311 8.36716 18.4217 8.91091 18.4217 13.4625C18.4217 19.1343 18.3983 18.7406 18.7498 18.975C18.9092 19.0828 18.942 19.0828 19.6873 19.0687C20.3623 19.0547 20.4889 19.0406 20.6811 18.9515C20.9905 18.8109 21.3514 18.4593 21.5014 18.1453L21.6326 17.8828L21.6467 13.575C21.6608 8.82654 21.6701 9.01404 21.3701 8.55935C21.1967 8.29685 20.878 8.0531 20.578 7.9406C20.2826 7.83279 19.1201 7.79997 18.8764 7.89372Z" fill="white"/>
</svg>
