<svg width="24" height="24" viewBox="0 0 24 24" fill="none" xmlns="http://www.w3.org/2000/svg">
<path d="M8.55469 0.0527391C7.88438 0.268364 7.35938 0.788677 7.125 1.46368C7.04063 1.70743 7.03125 1.85743 7.03125 2.84649C7.03125 3.82618 7.04063 3.99024 7.12031 4.21993C7.34063 4.86211 7.82813 5.34961 8.475 5.56993C8.70938 5.64961 8.87813 5.65899 10.2 5.65899H11.6719L13.0734 7.03711C14.5875 8.52774 14.5688 8.51836 15.0141 8.45743C15.1641 8.43868 15.2531 8.38711 15.3844 8.2418L15.5625 8.0543V6.81211V5.56993L15.7641 5.48086C16.2703 5.25118 16.7109 4.7543 16.875 4.21993C16.9594 3.95274 16.9688 3.78399 16.9688 2.82774C16.9688 1.68399 16.9453 1.51524 16.7156 1.07461C16.5563 0.769927 16.1297 0.366801 15.7594 0.188677L15.4031 0.0105515L12.075 0.00117683C9.47344 -0.00351143 8.7 0.00586414 8.55469 0.0527391Z" fill="white"/>
<path d="M3.52969 3.64318C2.64844 3.95725 2.10938 4.726 2.10938 5.65881C2.10938 6.87287 3.00469 7.76818 4.21875 7.76818C5.43281 7.76818 6.32812 6.87287 6.32812 5.65881C6.32812 4.71662 5.77969 3.94787 4.88906 3.6385C4.5375 3.52131 3.87656 3.52131 3.52969 3.64318Z" fill="white"/>
<path d="M19.0922 3.64318C18.2109 3.95725 17.6719 4.726 17.6719 5.65881C17.6719 6.87287 18.5672 7.76818 19.7812 7.76818C20.9953 7.76818 21.8906 6.87287 21.8906 5.65881C21.8906 4.71662 21.3422 3.94787 20.4516 3.6385C20.1 3.52131 19.4391 3.52131 19.0922 3.64318Z" fill="white"/>
<path d="M2.32969 8.53702C2.02031 8.64952 1.69687 8.93546 1.5375 9.24014C1.48594 9.33858 1.12969 10.8386 0.721875 12.6714C-0.05625 16.1823 -0.084375 16.3651 0.09375 16.7636C0.253125 17.1058 0.454687 17.3167 0.773437 17.4714C0.932812 17.5464 1.13437 17.612 1.21875 17.612C1.33594 17.612 1.35937 17.6261 1.34062 17.6917C1.18125 18.198 0 23.1526 0 23.312C0 23.7058 0.234375 23.9448 0.646875 23.9776C0.95625 24.0058 1.17656 23.9073 1.30781 23.687C1.35469 23.6073 1.52344 23.0073 1.6875 22.3558L1.97812 21.1745L4.9125 21.1839L7.84219 21.198L8.20312 22.2151C8.4 22.7776 8.62031 23.3214 8.69062 23.4245C8.82656 23.6355 9.15937 23.8698 9.42187 23.9401C9.72656 24.0245 10.1719 23.9964 10.4344 23.8745C10.9359 23.6401 11.2078 23.237 11.2406 22.6745L11.2594 22.3183L10.1578 18.9714C9.03281 15.5683 8.925 15.2964 8.64375 15.0948C8.26875 14.8323 8.24062 14.823 7.17187 14.7995C6.23906 14.7761 6.15 14.7667 6 14.673C5.55469 14.3964 5.55937 13.7823 6.00937 13.5105C6.15 13.4261 6.27187 13.4167 7.52344 13.3933C8.82187 13.3698 8.89219 13.3651 9.07969 13.262C9.57656 12.9995 9.84375 12.5495 9.84375 11.987C9.84375 11.4245 9.57656 10.9745 9.07969 10.712C8.8875 10.6042 8.85469 10.6042 6.73594 10.5808L4.58906 10.5573L4.34062 9.90108C4.06406 9.15577 3.95156 8.94483 3.72656 8.77139C3.36094 8.49483 2.74219 8.39171 2.32969 8.53702ZM6.72187 17.9495C6.7875 18.137 6.95625 18.6245 7.09687 19.0276L7.34531 19.7683H4.84687C3.46875 19.7683 2.34375 19.7589 2.34375 19.7495C2.34375 19.7401 2.45156 19.2995 2.57812 18.7698C2.70937 18.2401 2.8125 17.762 2.8125 17.7105C2.8125 17.612 2.82187 17.612 4.70625 17.612H6.6L6.72187 17.9495Z" fill="white"/>
<path d="M20.6579 8.56046C20.147 8.76671 20.011 8.94952 19.6595 9.90108L19.411 10.5573L17.2642 10.5808C15.1454 10.6042 15.1126 10.6042 14.9204 10.712C14.4235 10.9745 14.1563 11.4245 14.1563 11.987C14.1563 12.5495 14.4235 12.9995 14.9204 13.262C15.1079 13.3651 15.1782 13.3698 16.4767 13.3933C17.6673 13.412 17.8548 13.4261 17.9907 13.5011C18.197 13.6136 18.3282 13.8386 18.3282 14.087C18.3282 14.3401 18.2157 14.537 18.0001 14.673C17.8501 14.7667 17.761 14.7761 16.8282 14.7995C15.7595 14.823 15.7313 14.8323 15.3563 15.0948C15.0751 15.2964 14.9673 15.5683 13.8423 18.9714L12.7407 22.3183L12.7595 22.6745C12.7923 23.237 13.0642 23.6401 13.5657 23.8745C13.8282 23.9964 14.2735 24.0245 14.5782 23.9401C14.8407 23.8698 15.1735 23.6355 15.3095 23.4245C15.3798 23.3214 15.6001 22.7776 15.797 22.2151L16.1579 21.198L19.0876 21.1839L22.022 21.1745L22.3126 22.3558C22.4767 23.0073 22.6454 23.6073 22.6923 23.687C22.8235 23.9073 23.0438 24.0058 23.3532 23.9776C23.7657 23.9448 24.0001 23.7058 24.0001 23.312C24.0001 23.1526 22.8188 18.198 22.6595 17.6917C22.6407 17.6261 22.6642 17.612 22.7813 17.612C22.8657 17.612 23.0673 17.5464 23.2267 17.4714C23.5454 17.3167 23.747 17.1058 23.9063 16.7636C24.0845 16.3651 24.0563 16.1823 23.2782 12.6714C22.8751 10.8526 22.5142 9.33858 22.4626 9.23546C22.3454 9.01046 22.1204 8.78077 21.8485 8.62139C21.5673 8.45733 20.9907 8.42452 20.6579 8.56046ZM21.1876 17.7058C21.1876 17.7573 21.2954 18.2308 21.422 18.7651C21.5532 19.2995 21.6563 19.7401 21.6563 19.7495C21.6563 19.7589 20.5313 19.7683 19.1579 19.7683H16.6548L16.9548 18.887C17.1188 18.4042 17.2829 17.9214 17.3251 17.8089L17.4001 17.612H19.2938C21.1501 17.612 21.1876 17.612 21.1876 17.7058Z" fill="white"/>
</svg>
