<svg width="24" height="24" viewBox="0 0 24 24" fill="none" xmlns="http://www.w3.org/2000/svg">
<path d="M7.03125 1.58437C6.9375 1.63594 6.825 1.75781 6.76406 1.875C6.67031 2.05312 6.65625 2.14687 6.65625 2.64844V3.22031L5.96719 3.24844C5.16094 3.28125 4.69688 3.38437 4.22344 3.63281C3.55313 3.98437 3.0375 4.51406 2.71875 5.17969C2.45625 5.72812 2.39062 6.06094 2.39062 6.81094V7.45312H10.8516H19.3125V6.82969C19.3125 6.35625 19.2891 6.10781 19.2188 5.83125C18.9703 4.8375 18.2859 4.0125 17.3578 3.58125C16.8797 3.35625 16.5281 3.28594 15.7406 3.24844L15.0469 3.22031V2.6625C15.0469 2.04375 15.0047 1.88437 14.7703 1.66406C14.6438 1.54688 14.5781 1.52344 14.3203 1.50937C14.0719 1.49062 13.9922 1.50469 13.8516 1.59375C13.5656 1.77187 13.5 1.96875 13.5 2.64844V3.23438H10.8516H8.20312V2.67188C8.20312 2.04375 8.16094 1.88437 7.92656 1.66406C7.80469 1.55156 7.73438 1.52344 7.48594 1.50937C7.26562 1.5 7.15781 1.51406 7.03125 1.58437Z" fill="#DD1528"/>
<path d="M2.3998 13.2059L2.41387 17.5091L2.54043 17.8747C2.89199 18.9059 3.68887 19.7028 4.72012 20.0544L5.08574 20.1809L7.87012 20.195C10.5232 20.2091 10.6498 20.2044 10.6264 20.1247C10.6123 20.0778 10.5139 19.7966 10.4107 19.5012C10.1717 18.8075 10.0779 18.2309 10.0779 17.4669C10.0779 16.1497 10.4201 14.9966 11.1279 13.9325C11.6623 13.1169 12.2295 12.5497 13.0498 12.0106C14.0951 11.3169 15.2811 10.97 16.5701 10.97C17.3389 10.97 17.9107 11.0637 18.6092 11.3028C18.9045 11.4059 19.1857 11.4997 19.2326 11.5137C19.3076 11.5419 19.3123 11.4622 19.3123 10.2247V8.90749H10.8514H2.38574L2.3998 13.2059ZM7.33574 11.6216C7.7998 11.8841 7.80449 12.5684 7.3498 12.845C7.14824 12.9669 6.82012 12.9669 6.62324 12.845C6.09355 12.5216 6.18262 11.7622 6.77324 11.5559C6.97949 11.4856 7.12012 11.5044 7.33574 11.6216ZM11.2217 11.6169C11.6764 11.8794 11.6904 12.5309 11.2451 12.8356C11.1139 12.9294 11.0389 12.9434 10.8139 12.9294C10.5842 12.9106 10.5232 12.8872 10.3826 12.7512C10.0639 12.4419 10.0592 12.0294 10.3686 11.7247C10.617 11.4809 10.917 11.4434 11.2217 11.6169ZM7.29824 14.7528C7.3873 14.795 7.51387 14.9075 7.57949 15.0059C7.68262 15.1606 7.69668 15.2262 7.67793 15.4466C7.65449 15.7372 7.50449 15.9434 7.23262 16.0606C7.02637 16.1497 6.90918 16.145 6.68418 16.0325C6.42637 15.9059 6.27168 15.6762 6.27168 15.4091C6.27168 14.8512 6.79668 14.5137 7.29824 14.7528Z" fill="#DD1528"/>
<path d="M15.7451 12.4644C13.6545 12.8488 12.042 14.4003 11.6201 16.43C11.5029 17.0019 11.5029 17.9207 11.6201 18.4925C12.0326 20.48 13.6264 22.0503 15.6092 22.4253C16.1014 22.5191 17.0342 22.5238 17.517 22.43C19.2889 22.0925 20.7279 20.855 21.342 19.1394C21.7029 18.141 21.7029 16.7863 21.342 15.7832C20.7748 14.1894 19.467 12.9941 17.8217 12.5535C17.4232 12.4503 16.1436 12.3941 15.7451 12.4644ZM15.8436 15.7785C15.9092 15.8113 16.0873 15.966 16.242 16.1207C16.3967 16.28 16.542 16.4066 16.5654 16.4066C16.5889 16.4066 16.7576 16.2613 16.9451 16.0832C17.3107 15.7269 17.5076 15.6378 17.7936 15.7035C18.0139 15.755 18.2717 16.0035 18.3326 16.2285C18.4123 16.5238 18.3279 16.716 17.9529 17.0863C17.7748 17.2644 17.6248 17.4332 17.6248 17.4566C17.6248 17.48 17.7795 17.6582 17.9717 17.8597C18.342 18.2488 18.4123 18.4128 18.3279 18.6988C18.267 18.9191 18.0186 19.1628 17.7936 19.2238C17.5217 19.2988 17.2873 19.1863 16.9217 18.8207C16.7576 18.6519 16.5982 18.516 16.5748 18.516C16.5514 18.516 16.3732 18.6707 16.1717 18.8582C15.7826 19.2332 15.6279 19.2988 15.3326 19.2191C15.1264 19.1675 14.892 18.9285 14.817 18.7082C14.7279 18.4363 14.8217 18.216 15.192 17.8363C15.3701 17.6535 15.5154 17.4847 15.5154 17.4613C15.5154 17.4378 15.3701 17.2738 15.192 17.0863C14.7092 16.5941 14.6623 16.2425 15.0186 15.8957C15.2576 15.666 15.5436 15.6238 15.8436 15.7785Z" fill="#FFB5A7"/>
</svg>
