<svg width="24" height="24" viewBox="0 0 24 24" fill="none" xmlns="http://www.w3.org/2000/svg">
<path d="M4.0875 0.84375C3.89531 0.960938 3.75 1.19531 3.75 1.39219C3.75 1.53281 3.74063 1.54219 3.4125 1.64062C2.42344 1.94062 1.60781 2.62031 1.14844 3.53906C0.80625 4.21875 0.75 4.52344 0.75 5.72812V6.75H12H23.25V5.72812C23.25 4.52344 23.1938 4.21875 22.8516 3.53906C22.3922 2.62031 21.5766 1.94062 20.5922 1.64062C20.2594 1.54219 20.25 1.53281 20.25 1.39219C20.25 1.03125 19.9172 0.75 19.5 0.75C19.0922 0.75 18.75 1.03125 18.75 1.36875V1.5H17.625H16.5V1.36875C16.5 1.03125 16.1578 0.75 15.75 0.75C15.3422 0.75 15 1.03125 15 1.36875V1.5H13.875H12.75V1.36875C12.75 1.03125 12.4078 0.75 12 0.75C11.5922 0.75 11.25 1.03125 11.25 1.36875V1.5H10.125H9V1.36875C9 1.03125 8.65781 0.75 8.25 0.75C7.84219 0.75 7.5 1.03125 7.5 1.36875V1.5H6.375H5.25V1.36875C5.25 1.03125 4.90781 0.75 4.5 0.75C4.32656 0.75 4.19063 0.778125 4.0875 0.84375ZM5.24063 1.96406C5.22188 2.31094 5.19375 2.46562 5.12813 2.58281C4.8375 3.075 4.1625 3.07969 3.87656 2.5875C3.81094 2.47969 3.77813 2.30625 3.75938 2.01562L3.73594 1.59844L3.89531 1.575C4.11094 1.5375 4.40156 1.51875 4.87031 1.50937L5.26406 1.5L5.24063 1.96406ZM8.99063 1.96406C8.96719 2.48906 8.8875 2.67188 8.625 2.84531C8.30156 3.06562 7.83281 2.94375 7.62188 2.58281C7.55625 2.46562 7.52813 2.31094 7.50938 1.96406L7.48594 1.5H8.25H9.01406L8.99063 1.96406ZM12.7406 1.96406C12.7219 2.31094 12.6938 2.46562 12.6281 2.58281C12.3375 3.07969 11.6625 3.07969 11.3719 2.58281C11.3063 2.46562 11.2781 2.31094 11.2594 1.96406L11.2359 1.5H12H12.7641L12.7406 1.96406ZM16.4906 1.96406C16.4672 2.48906 16.3875 2.67188 16.125 2.84531C15.8016 3.06562 15.3328 2.94375 15.1219 2.58281C15.0563 2.46562 15.0281 2.31094 15.0094 1.96406L14.9859 1.5H15.75H16.5141L16.4906 1.96406ZM20.1094 1.575L20.2641 1.60781L20.2406 2.02031C20.2219 2.30625 20.1891 2.47969 20.1234 2.5875C19.8375 3.07969 19.1625 3.075 18.8719 2.58281C18.8063 2.46562 18.7781 2.31094 18.7594 1.95469L18.7359 1.48594L19.3453 1.51406C19.6828 1.53281 20.025 1.56094 20.1094 1.575Z" fill="#2B2EBD"/>
<path d="M0.749893 14.1469C0.749893 20.8453 0.721768 20.3578 1.14833 21.2109C1.62177 22.1672 2.53114 22.8937 3.58114 23.1562C3.94208 23.2453 4.11552 23.25 8.86396 23.25H13.7765L13.2749 22.7437C12.2577 21.7219 11.6108 20.4797 11.3671 19.0828C11.278 18.5766 11.278 17.4891 11.3671 16.9453C11.564 15.7219 12.1124 14.5547 12.928 13.6078C13.9452 12.4359 15.3608 11.6391 16.9218 11.3625C17.3952 11.2828 18.4968 11.2687 18.9608 11.3438C20.4327 11.5781 21.6796 12.2156 22.7483 13.275L23.2499 13.7766V11.0109V8.25H11.9999H0.749893V14.1469ZM5.61552 11.3906C6.06552 11.6672 6.06552 12.3328 5.61552 12.6094C5.41396 12.7312 5.08583 12.7312 4.88427 12.6094C4.27489 12.2391 4.53739 11.2969 5.24989 11.2969C5.37646 11.2969 5.52177 11.3344 5.61552 11.3906ZM10.1155 11.3906C10.7249 11.7609 10.4624 12.7031 9.74989 12.7031C9.35146 12.7031 9.04677 12.3984 9.04677 12C9.04677 11.6016 9.35146 11.2969 9.74989 11.2969C9.87646 11.2969 10.0218 11.3344 10.1155 11.3906ZM5.61552 15.1406C6.22489 15.5109 5.96239 16.4531 5.24989 16.4531C4.53739 16.4531 4.27489 15.5109 4.88427 15.1406C5.08583 15.0187 5.41396 15.0187 5.61552 15.1406ZM10.1155 15.1406C10.7249 15.5109 10.4624 16.4531 9.74989 16.4531C9.35146 16.4531 9.04677 16.1484 9.04677 15.75C9.04677 15.2062 9.65145 14.8594 10.1155 15.1406ZM5.61552 18.8906C6.22489 19.2609 5.96239 20.2031 5.24989 20.2031C4.85146 20.2031 4.54677 19.8984 4.54677 19.5C4.54677 19.1016 4.85146 18.7969 5.24989 18.7969C5.37646 18.7969 5.52177 18.8344 5.61552 18.8906ZM10.1155 18.8906C10.7249 19.2609 10.4624 20.2031 9.74989 20.2031C9.35146 20.2031 9.04677 19.8984 9.04677 19.5C9.04677 19.1016 9.35146 18.7969 9.74989 18.7969C9.87646 18.7969 10.0218 18.8344 10.1155 18.8906Z" fill="#2B2EBD"/>
<path d="M16.8748 12.8484C14.8498 13.2844 13.2608 14.8875 12.8436 16.9219C12.7545 17.3438 12.7451 17.5219 12.7639 18.1641C12.792 19.0219 12.8717 19.4297 13.1623 20.1C13.8045 21.5859 15.1404 22.7203 16.7295 23.1234C17.0717 23.2125 17.2639 23.2266 17.9998 23.2266C18.7358 23.2266 18.9279 23.2125 19.2701 23.1234C21.1592 22.6406 22.6404 21.1594 23.1233 19.2703C23.2123 18.9281 23.2264 18.7359 23.2264 18C23.2264 17.2641 23.2123 17.0719 23.1233 16.7297C22.6451 14.85 21.1592 13.3594 19.2936 12.8813C18.717 12.7359 17.4795 12.7172 16.8748 12.8484ZM18.3748 15.1547C18.6889 15.3609 18.7264 15.4875 18.7404 16.4109L18.7592 17.2359L19.2186 17.2594C19.5608 17.2781 19.7154 17.3063 19.8326 17.3719C20.3295 17.6625 20.3295 18.3375 19.8279 18.6281C19.6779 18.7172 19.5889 18.7266 18.7498 18.7266C17.9108 18.7266 17.8217 18.7172 17.6717 18.6281C17.4467 18.4969 17.3108 18.2766 17.2733 17.9859C17.2545 17.85 17.2498 17.2547 17.2592 16.6641C17.2733 15.675 17.2826 15.5719 17.3717 15.4219C17.5873 15.0563 18.0467 14.9297 18.3748 15.1547Z" fill="#A4B4F1"/>
</svg>
