<svg width="24" height="24" viewBox="0 0 24 24" fill="none" xmlns="http://www.w3.org/2000/svg">
<g clip-path="url(#clip0_1222_9514)">
<path d="M5.40009 1.92292C4.02665 2.17135 2.9204 3.19323 2.57352 4.54323C2.38602 5.2651 2.47509 6.23542 2.78915 6.92917C3.5954 8.69167 5.81259 9.46979 7.54227 8.59323L7.88915 8.41511L7.99227 8.01198C8.18915 7.23385 8.59228 6.53542 9.1829 5.95885L9.53915 5.60729L9.52509 5.24167C9.48759 4.27135 9.01415 3.3151 8.25946 2.69635C7.91259 2.40573 7.33134 2.10573 6.91415 1.99323C6.56727 1.90417 5.73759 1.86667 5.40009 1.92292Z" fill="#CBC9FF"/>
<path d="M17.3997 1.92214C16.5794 2.07214 15.745 2.55964 15.2575 3.17839C14.8169 3.73621 14.5075 4.50964 14.4794 5.12839L14.4653 5.39089L14.7466 5.59246C15.5294 6.16433 16.1716 7.13933 16.3825 8.06746C16.5185 8.68152 16.481 8.63464 16.9216 8.78464C17.6716 9.03777 18.6325 9.00027 19.3731 8.68621C20.3013 8.29246 21.056 7.47683 21.3513 6.54871C21.806 5.12371 21.3747 3.61433 20.2591 2.69558C19.9122 2.40496 19.331 2.10496 18.9138 1.99246C18.5669 1.90339 17.7372 1.86589 17.3997 1.92214Z" fill="#CBC9FF"/>
<path d="M11.2966 5.63097C9.52472 6.08566 8.37628 7.84816 8.69034 9.63878C8.96691 11.2278 10.1716 12.3716 11.7747 12.5685C13.4341 12.77 15.0232 11.7482 15.5435 10.1497C15.6935 9.69035 15.745 8.90753 15.6607 8.41066C15.4216 7.04191 14.306 5.88878 12.9419 5.59816C12.4919 5.50441 11.7232 5.51847 11.2966 5.63097Z" fill="#6639B8"/>
<path d="M4.01698 9.19323C2.38573 9.36667 0.937296 10.4495 0.323233 11.9589C0.023233 12.6948 0.032608 12.6151 0.013858 15.1276C0.00448302 16.3979 0.00448302 17.4385 0.0185455 17.4385C0.0279205 17.4385 0.374796 17.5323 0.782608 17.6495C2.10448 18.0245 3.7123 18.3292 4.73417 18.3995C4.97792 18.4182 5.21698 18.4417 5.26386 18.4557C5.33417 18.4745 5.34355 18.4276 5.34355 17.8979C5.34823 17.1057 5.41386 16.4729 5.55448 15.9479C5.99042 14.3167 7.23261 12.9526 8.83574 12.3526C9.01855 12.2823 9.17323 12.2214 9.18261 12.212C9.19199 12.2026 9.07011 12.0526 8.91542 11.8792C8.38574 11.2885 7.96386 10.3557 7.88886 9.58698C7.85605 9.24479 7.84199 9.21198 7.73417 9.18386C7.57011 9.13698 4.4623 9.14636 4.01698 9.19323Z" fill="#CBC9FF"/>
<path d="M16.4998 9.31446C16.4998 9.61446 16.3311 10.3176 16.1717 10.6973C15.9936 11.1285 15.7311 11.5457 15.4123 11.9207C15.2811 12.0707 15.1826 12.202 15.192 12.2066C15.2014 12.216 15.3842 12.291 15.5951 12.3754C16.992 12.9238 18.1123 14.0676 18.642 15.4738C18.8998 16.1582 18.942 16.4348 18.9701 17.4988L18.9936 18.4785L19.4951 18.4457C20.9998 18.352 22.4998 18.0238 23.6155 17.5457L24.0045 17.377L23.9858 15.0988C23.967 12.6191 23.9764 12.6941 23.6764 11.9582C23.1655 10.6973 22.0264 9.68946 20.7139 9.32852C20.1748 9.18321 19.5936 9.14102 17.9905 9.14102H16.4998V9.31446Z" fill="#CBC9FF"/>
<path d="M9.75469 12.8953C8.4 13.1813 7.2375 14.0766 6.63281 15.3047C6.20156 16.186 6.14062 16.6407 6.14062 19.1578V21.0422L6.6 21.1828C7.92656 21.5907 9.10313 21.8344 10.5938 22.0172C11.4047 22.111 13.4953 22.125 14.2266 22.036C15.7406 21.8578 16.9641 21.5578 17.8734 21.1453L18.1922 21L18.1734 18.7641C18.1547 16.3594 18.1594 16.4016 17.8922 15.675C17.4797 14.5547 16.3781 13.4766 15.2391 13.0735C14.5125 12.8157 14.2781 12.7969 12.1453 12.8016C10.3875 12.8016 10.1531 12.811 9.75469 12.8953Z" fill="#6639B8"/>
</g>
<defs>
<clipPath id="clip0_1222_9514">
<rect width="24" height="24" fill="white"/>
</clipPath>
</defs>
</svg>
