<svg width="32" height="32" viewBox="0 0 32 32" fill="none" xmlns="http://www.w3.org/2000/svg">
<path d="M17.3752 1.71875C16.019 2.1125 14.8627 2.4375 14.8065 2.4375C14.7502 2.4375 14.194 2.225 13.5752 1.96875C12.2315 1.4125 11.9877 1.35 11.4815 1.3875C10.7627 1.45 10.1252 1.88125 9.81271 2.53125C9.63146 2.90625 9.56896 3.63125 9.68771 4.025C9.73146 4.16875 10.1127 4.9 10.5377 5.65625L11.3065 7.03125L15.9002 7.0125L20.4877 7L21.2815 5.5875C22.3627 3.65625 22.3752 3.6375 22.3752 3.03125C22.3752 2.60625 22.3502 2.475 22.194 2.15625C21.9752 1.7 21.644 1.375 21.1877 1.1625C20.9065 1.03125 20.7502 1 20.344 1.00625C19.9002 1.00625 19.5752 1.0875 17.3752 1.71875Z" fill="#FBC3B1"/>
<path d="M11.3502 9.86815C11.194 10.3494 11.0627 10.7807 11.0627 10.8244C11.0627 10.8682 10.944 10.9744 10.8002 11.0619C10.1252 11.4682 9.16896 12.5994 8.77521 13.4619C8.48146 14.1057 5.13771 24.3307 5.05646 24.8307C4.95646 25.4619 5.01896 26.5182 5.18146 27.0869C5.69396 28.8307 6.96271 30.1682 8.68771 30.7619L9.28146 30.9682L15.8002 30.9869C22.1565 30.9994 22.3315 30.9994 22.8502 30.8744C24.4377 30.4994 25.7627 29.4182 26.469 27.9182C26.8315 27.1619 26.9502 26.5869 26.9502 25.6557C26.9502 25.0244 26.919 24.7307 26.819 24.3432C26.5252 23.2369 23.3502 13.7557 23.1127 13.2682C22.6627 12.3619 21.8315 11.4432 20.9877 10.9244L20.6877 10.7369L20.4127 9.8869L20.1377 9.03065L15.8877 9.0119L11.6315 8.9994L11.3502 9.86815ZM16.244 16.0619C16.5377 16.1432 16.8627 16.4744 16.944 16.7619L17.0065 16.9994H17.519C17.8002 16.9994 18.1315 17.0307 18.2627 17.0619C18.5565 17.1432 18.9065 17.5369 18.9627 17.8369C19.019 18.1432 18.8065 18.5994 18.5065 18.7932C18.3002 18.9307 18.2502 18.9369 16.6502 18.9369H15.0002V19.4619V19.9869L16.3627 20.0119C17.6252 20.0307 17.744 20.0432 18.0502 20.1807C18.2377 20.2682 18.4752 20.4369 18.6002 20.5869C18.9627 21.0057 19.0127 21.3057 18.9877 22.8369L18.969 24.1744L18.7815 24.4432C18.5065 24.8307 18.2065 24.9619 17.5502 24.9869L17.0002 25.0119L16.9377 25.2432C16.8752 25.4744 16.6502 25.7369 16.394 25.8682C16.1815 25.9807 15.744 25.9494 15.5127 25.8119C15.2877 25.6744 15.0627 25.3494 15.0627 25.1494C15.0627 25.0244 15.0252 25.0119 14.4127 24.9869C13.919 24.9619 13.719 24.9307 13.5565 24.8369C12.894 24.4494 12.894 23.5494 13.5627 23.1619C13.7627 23.0369 13.9002 23.0307 15.4252 23.0119L17.0627 22.9932V22.4994V22.0119L15.7065 21.9869C14.4252 21.9682 14.3252 21.9619 14.044 21.8244C13.7127 21.6557 13.3815 21.2869 13.194 20.8682C13.0815 20.6244 13.0627 20.4619 13.0627 19.4369C13.0627 18.3557 13.0752 18.2619 13.2127 17.9682C13.4752 17.4057 13.9627 17.0869 14.6752 17.0182C15.0252 16.9869 15.0627 16.9682 15.0627 16.8432C15.0627 16.6182 15.3252 16.2932 15.6252 16.1369C15.944 15.9807 15.9565 15.9807 16.244 16.0619Z" fill="#E04F16"/>
</svg>
