<svg width="49" height="46" viewBox="0 0 49 46" fill="none" xmlns="http://www.w3.org/2000/svg">
<path d="M19.6447 17.0427C28.6756 21.5878 32.7039 33.1032 32.7039 33.1032C32.7039 33.1032 22.0902 37.2496 13.0593 32.7044C4.02832 28.1593 1.4821e-05 16.6438 1.4821e-05 16.6438C1.4821e-05 16.6438 10.6137 12.4975 19.6447 17.0427Z" fill="#0BAA84" fill-opacity="0.2"/>
<path d="M33.1087 12.4073C28.7897 21.5485 32.7039 33.1032 32.7039 33.1032C32.7039 33.1032 43.6206 29.8371 47.9397 20.6959C52.2587 11.5547 48.3446 -1.1697e-05 48.3446 -1.1697e-05C48.3446 -1.1697e-05 37.4278 3.2661 33.1087 12.4073Z" fill="#0BAA84" fill-opacity="0.2"/>
<path d="M32.2957 53.7896C36.6148 44.6484 32.7006 33.0937 32.7006 33.0937C32.7006 33.0937 21.7839 36.3598 17.4648 45.501C13.1458 54.6422 17.0599 66.1969 17.0599 66.1969C17.0599 66.1969 27.9767 62.9308 32.2957 53.7896Z" fill="#0BAA84" fill-opacity="0.2"/>
<path d="M45.7598 49.1542C36.7289 44.6091 32.7006 33.0937 32.7006 33.0937C32.7006 33.0937 43.3143 28.9474 52.3452 33.4925C61.3762 38.0376 65.4045 49.5531 65.4045 49.5531C65.4045 49.5531 54.7908 53.6994 45.7598 49.1542Z" fill="#0BAA84" fill-opacity="0.2"/>
</svg>
