<svg width="48" height="48" viewBox="0 0 48 48" fill="none" xmlns="http://www.w3.org/2000/svg">
<path d="M22.8379 1.08786C21.2536 1.47223 19.9129 2.76598 19.4536 4.35036C19.2286 5.11911 19.2473 6.34723 19.4911 7.12536C20.5411 10.4629 24.8536 11.5129 27.3379 9.03786C28.8379 7.53786 29.1567 5.14723 28.1067 3.29098C27.0942 1.50973 24.8911 0.590984 22.8379 1.08786Z" fill="white"/>
<path d="M21.0094 11.2594C17.8125 11.9062 15.2813 14.3344 14.5313 17.4562C14.3813 18.0937 14.3438 18.5531 14.3438 19.9687C14.3531 21.1875 14.3813 21.75 14.4656 21.8531C14.7281 22.2 14.925 22.2188 18.0188 22.2188L21.0469 22.2094L21.5531 21.1125C22.1906 19.7156 22.4344 19.3594 22.9594 19.05C23.8594 18.5156 25.125 18.7969 25.7063 19.6594C25.8375 19.8562 26.175 20.5125 26.4469 21.1125L26.9531 22.2094L29.9813 22.2188C33.075 22.2188 33.2719 22.2 33.5344 21.8531C33.6188 21.75 33.6469 21.1875 33.6563 19.9687C33.6563 17.9906 33.5156 17.1844 32.9625 15.9937C31.95 13.7906 30.2156 12.2625 27.8438 11.475C27.0469 11.2125 27.0469 11.2125 24.2344 11.1937C22.6875 11.175 21.2344 11.2125 21.0094 11.2594Z" fill="white"/>
<path d="M2.10938 18.9281C1.725 19.1625 1.5 19.5188 1.5 19.9031C1.5 20.0813 1.62188 20.6438 1.77188 21.15C2.10938 22.3406 6.39375 33.7781 6.79688 34.5938C7.25625 35.5125 7.725 36.075 9.50625 37.8281C11.2594 39.5531 11.5969 39.975 12.0656 41.0625L12.3656 41.7656L16.6031 41.7938L20.8406 41.8125L20.7844 40.2C20.7094 37.7813 20.3531 36.3375 19.4625 34.8469C18.9656 34.0125 18.3469 33.375 16.7344 32.0625C15.3375 30.9188 14.0906 29.8125 12.6938 28.4906C11.6906 27.5438 11.2125 27.2813 10.5094 27.2813C9.59063 27.2813 9 27.8438 9 28.7156C9 29.8031 9.96563 31.1625 12.4125 33.5344C14.0813 35.1375 14.1563 35.2594 13.7344 35.6719C13.35 36.0656 13.2375 36.0094 11.8219 34.6969C8.325 31.4344 7.07813 29.1094 7.95938 27.4313L8.24063 26.9156L7.47188 25.4344C7.05938 24.6188 6.38438 23.25 5.99063 22.3875C5.2125 20.7094 4.88438 20.1563 4.275 19.5188C3.57188 18.7688 2.72813 18.5438 2.10938 18.9281Z" fill="white"/>
<path d="M44.4842 18.9094C43.6592 19.3406 42.9748 20.2969 42.0092 22.3969C41.6154 23.25 40.9404 24.6188 40.5279 25.4344L39.7592 26.9156L40.0404 27.4313C40.9217 29.1094 39.6748 31.4344 36.1779 34.6969C34.7623 36.0094 34.6498 36.0656 34.2654 35.6719C33.8436 35.2594 33.9186 35.1375 35.5873 33.5344C38.0342 31.1625 38.9998 29.8031 38.9998 28.7156C38.9998 27.8438 38.4092 27.2813 37.4904 27.2813C36.7779 27.2813 36.3279 27.5344 35.2217 28.575C33.7686 29.9438 32.7373 30.8531 30.9842 32.3156C29.0717 33.9 28.5186 34.575 27.9467 36.0188C27.4779 37.2094 27.2623 38.4 27.2154 40.2L27.1592 41.8125L31.3967 41.7938L35.6342 41.7656L35.9342 41.0625C36.4029 39.975 36.7404 39.5531 38.4936 37.8281C40.2748 36.075 40.7436 35.5125 41.2029 34.5938C41.6061 33.7781 45.8904 22.3406 46.2279 21.15C46.3779 20.6438 46.4998 20.0813 46.4998 19.9031C46.4998 19.5188 46.2186 19.0875 45.8436 18.8906C45.4967 18.7125 44.8404 18.7125 44.4842 18.9094Z" fill="white"/>
<path d="M23.5501 20.6254C23.4564 20.7754 23.0439 21.6098 22.6408 22.4816L21.9095 24.0566L19.9314 24.3004C17.8501 24.5629 17.7283 24.6098 17.7189 25.0691C17.7095 25.2004 18.197 25.7348 19.172 26.6723L20.6251 28.0785L20.2501 29.991C19.8751 31.9316 19.8658 32.1566 20.2126 32.2879C20.4939 32.4004 20.6251 32.3441 22.3126 31.4066L24.0095 30.4785L25.6876 31.4066C27.3658 32.3441 27.5064 32.4004 27.797 32.2879C28.1251 32.1566 28.1158 31.8566 27.7408 29.9441L27.3751 28.0785L28.8283 26.6723C29.8033 25.7348 30.2908 25.2004 30.2814 25.0691C30.272 24.6004 30.1408 24.5535 28.0689 24.3004L26.0908 24.0566L25.3033 22.3691C24.872 21.4316 24.4408 20.5973 24.3564 20.5129C24.0939 20.2504 23.747 20.2973 23.5501 20.6254Z" fill="white"/>
<path d="M12.0005 43.1437C11.6161 43.2469 11.1192 43.6969 10.9692 44.0719C10.9036 44.2312 10.8661 44.6812 10.8942 45.2062C10.9317 46.2281 11.1192 46.5937 11.7567 46.8844C12.113 47.0437 12.4505 47.0625 16.688 47.0625C20.9255 47.0625 21.263 47.0437 21.6192 46.8844C22.2567 46.5937 22.4442 46.2281 22.4817 45.2062C22.5098 44.6812 22.4723 44.2312 22.4067 44.0719C22.2473 43.6781 21.7505 43.2469 21.3286 43.1344C20.8411 43.0031 12.4692 43.0125 12.0005 43.1437Z" fill="white"/>
<path d="M26.6255 43.1437C26.2411 43.2469 25.7442 43.6969 25.5942 44.0719C25.5286 44.2312 25.4911 44.6812 25.5192 45.2062C25.5567 46.2281 25.7442 46.5937 26.3817 46.8844C26.738 47.0437 27.0848 47.0625 31.313 47.0625C35.8505 47.0625 35.8692 47.0625 36.2817 46.8562C36.9192 46.5281 37.1255 46.0969 37.1255 45.0656C37.1255 44.5219 37.0786 44.1469 36.9848 43.9781C36.7973 43.6125 36.338 43.2469 35.9255 43.125C35.4755 43.0031 27.0755 43.0125 26.6255 43.1437Z" fill="white"/>
</svg>
