<svg width="60" height="60" viewBox="0 0 60 60" fill="none" xmlns="http://www.w3.org/2000/svg">
<path d="M28.664 1.12534C26.2617 1.55893 23.0859 3.00034 19.875 5.10971C9.49214 11.9535 2.7187 21.1292 1.04292 30.6449C0.679636 32.7308 0.667918 35.9769 1.0312 37.9691C2.60151 46.6058 8.29682 52.6175 15.7734 53.5667C17.414 53.766 20.0156 53.6371 21.5625 53.2855C22.8164 52.9925 24.6679 52.3363 24.7851 52.1488C24.8203 52.0902 24.6093 51.5394 24.3164 50.93C23.1679 48.5394 22.371 45.9144 21.9609 43.2425C21.7148 41.6019 21.6796 38.1683 21.9023 36.5628C22.371 33.0941 23.4843 29.555 25.207 26.1097C25.5937 25.348 25.8984 24.7035 25.8984 24.6683C25.8984 24.6449 25.6875 24.5042 25.4414 24.3753C24.5859 23.9417 22.9921 23.5667 21.2578 23.3792C19.2773 23.18 18.7617 23.0628 18.082 22.6644C17.4726 22.3128 17.2265 21.8675 17.2265 21.1292C17.2382 19.9925 17.9531 18.7386 19.5703 17.0628C21.4218 15.141 24.0351 13.2191 28.7578 10.3246C32.1914 8.21518 33.375 7.24252 34.0312 5.94174C34.5937 4.82846 34.4531 3.29331 33.7148 2.32065C32.8007 1.12534 31.0195 0.703465 28.664 1.12534Z" fill="#B9E0D1"/>
<path d="M53.3789 6.49238C49.2656 7.41816 44.543 10.1369 39.1406 14.6838C37.3476 16.1838 34.6289 18.9611 33.2461 20.6838C29.1328 25.8166 26.4961 31.5354 25.7812 36.9143C25.582 38.3439 25.6172 41.3088 25.8398 42.8322C26.2617 45.7619 27.293 48.6447 28.7461 50.9768C29.8711 52.7697 31.7695 54.8674 33.293 55.9807C39.4336 60.4807 48.2695 59.9533 53.7773 54.7736C56.0039 52.676 57.3984 50.3088 58.1367 47.3439C58.4883 45.8908 58.582 42.8791 58.3008 41.2268C57.4687 36.2229 54.4453 31.7932 50.5664 29.883C49.1953 29.215 47.9414 28.8869 45.9844 28.7111C43.7461 28.5119 42.8555 28.1955 42.3398 27.4221C41.6133 26.3674 42.3516 24.6096 44.4023 22.465C46.3477 20.4494 48.6445 18.7385 53.2031 15.9377C56.2852 14.051 56.9531 13.5822 57.8789 12.6447C58.875 11.6252 59.2383 10.8518 59.2266 9.72676C59.2266 8.26191 58.6172 7.30098 57.3047 6.6916C56.7539 6.43379 56.4727 6.38691 55.3711 6.36348C54.5977 6.35176 53.8008 6.39863 53.3789 6.49238Z" fill="#B9E0D1"/>
</svg>
