<svg width="48" height="48" viewBox="0 0 48 48" fill="none" xmlns="http://www.w3.org/2000/svg">
<g clip-path="url(#clip0_888_2453)">
<path d="M17.7469 0.186649C14.1844 0.730396 10.9969 2.08978 8.01562 4.33978C7.11563 5.02415 5.20312 6.9179 4.48125 7.82727C1.49063 11.6523 0 15.9648 0 20.8023C0 22.8085 0.178125 24.3273 0.61875 26.0429C2.38125 32.9429 7.54688 38.4554 14.3719 40.696C20.2031 42.6179 26.9813 41.7554 32.0531 38.4648C32.4844 38.1835 32.8406 37.9679 32.8594 37.9867C32.8688 38.0054 33.3563 38.7273 33.9375 39.6085C36.3656 43.2648 37.6688 44.9804 39.1875 46.5085C40.3969 47.7273 40.8 47.9242 42.2156 47.9804C43.8656 48.046 44.8688 47.5773 46.3781 46.0117C47.6063 44.7273 48 43.8554 48 42.3742C48 40.8648 47.5688 40.1054 45.8531 38.5492C44.5688 37.396 43.1063 36.3085 40.3594 34.4804C39.1219 33.646 38.0719 32.9429 38.0344 32.9054C37.9875 32.8679 38.1938 32.4742 38.4844 32.0242C39.1313 31.0304 40.2 28.8367 40.5844 27.7023C41.2875 25.6117 41.6063 23.8304 41.6906 21.5617C41.9531 14.2585 38.4938 7.5179 32.3906 3.4304C30.525 2.17415 27.9469 1.05852 25.6875 0.524147C23.3906 -0.0289764 20.0813 -0.169601 17.7469 0.186649ZM23.2031 5.6804C28.3031 6.51477 32.4844 9.64602 34.6875 14.2679C35.8031 16.6023 36.2625 18.871 36.1594 21.4679C35.9906 25.5648 34.2563 29.2867 31.1719 32.1648C27.4688 35.6148 22.0594 36.9835 17.1 35.7179C9.1875 33.6929 4.24688 25.9304 5.775 17.9054C6.65625 13.2366 9.90938 9.04602 14.2688 6.98352C17.1 5.6429 20.2125 5.1929 23.2031 5.6804Z" fill="white"/>
<path d="M19.4249 10.6392C17.2687 11.1079 15.4312 12.9173 14.8593 15.1392C14.6812 15.8517 14.6718 17.4173 14.8593 18.1392C15.4124 20.3142 17.1281 22.0485 19.2749 22.5923C20.1562 22.8173 21.4499 22.836 22.3124 22.6298C24.0655 22.2267 25.6499 20.9142 26.4187 19.2454C27.2156 17.511 27.1874 15.6267 26.3343 13.8735C25.8281 12.8423 24.6562 11.6423 23.6999 11.1735C22.3874 10.536 20.8124 10.3392 19.4249 10.6392Z" fill="white"/>
<path d="M15.9564 24.2811C14.9626 24.3186 13.9313 24.4123 13.6595 24.4686C12.0095 24.8623 10.8563 26.1936 10.697 27.8998L10.6313 28.6217L11.0626 29.1467C12.8438 31.2842 15.4689 32.8217 18.3751 33.4404C19.5939 33.6936 22.2189 33.6748 23.522 33.3842C25.1907 33.0279 26.7001 32.3717 28.172 31.3686C29.1189 30.7217 30.9001 28.9967 30.9939 28.6311C31.0314 28.4998 31.0032 28.0873 30.947 27.7217C30.6376 25.7998 29.3251 24.5998 27.2814 24.3748C26.1282 24.2436 18.2907 24.1779 15.9564 24.2811Z" fill="white"/>
</g>
<defs>
<clipPath id="clip0_888_2453">
<rect width="48" height="48" fill="white"/>
</clipPath>
</defs>
</svg>
