<svg width="20" height="24" viewBox="0 0 20 24" fill="none" xmlns="http://www.w3.org/2000/svg">
<path d="M5.31094 0.121874C5.19844 0.1875 5.05781 0.328125 4.99219 0.440624L4.875 0.642187V3V5.35781L4.99219 5.55937C5.0625 5.68125 5.19375 5.8125 5.31563 5.88281C5.48906 5.98594 5.56875 6 5.94375 6H6.375V6.28125C6.375 6.7125 6.525 7.04531 6.8625 7.3875C7.06406 7.58906 7.22344 7.70156 7.40625 7.76719L7.66406 7.86562L7.67813 8.14687L7.69219 8.42812L7.35 8.44219C6.92813 8.46562 6.54375 8.63906 6.23438 8.94844C6.06094 9.12187 5.95312 9.32344 5.64375 10.0078L5.26875 10.8516L4.97813 10.8656L4.69219 10.8797L4.67813 10.5141L4.66406 10.1484H3H1.33594L1.32188 10.5094C1.30781 10.8328 1.29844 10.875 1.21875 10.875C1.02656 10.875 0.609375 11.0766 0.421875 11.2547C0.314063 11.3578 0.178125 11.5547 0.1125 11.6859L0 11.9297V17.4422V22.9547L0.145313 23.2406C0.304688 23.5641 0.478125 23.7281 0.820313 23.8875L1.05469 24H9.75H18.4453L18.6797 23.8875C19.0219 23.7281 19.1953 23.5641 19.3547 23.2406L19.5 22.9547V17.4422V11.9297L19.3875 11.6953C19.2563 11.4094 18.8672 11.0484 18.5953 10.9547C18.4078 10.8937 18.3984 10.8797 18.3703 10.6641C18.3328 10.3172 18.3141 10.3125 17.2406 10.3125C16.3734 10.3125 16.3078 10.3172 16.2188 10.4062C16.1578 10.4672 16.125 10.5609 16.125 10.6875V10.875L15.1781 10.8656L14.2313 10.8516L13.8703 10.0406C13.6734 9.59531 13.4531 9.15937 13.3875 9.07031C13.1109 8.70937 12.5531 8.4375 12.0891 8.4375H11.8078L11.8219 8.15156L11.8359 7.86562L12.0938 7.76719C12.2766 7.70156 12.4359 7.58906 12.6375 7.3875C12.975 7.04531 13.125 6.7125 13.125 6.28125V6H13.5563C13.9313 6 14.0109 5.98594 14.1844 5.88281C14.3063 5.8125 14.4375 5.68125 14.5078 5.55937L14.625 5.35781V3V0.642187L14.5078 0.440624C14.4375 0.318748 14.3063 0.1875 14.1844 0.117188L13.9828 0H9.74531H5.50781L5.31094 0.121874ZM13.3125 1.96875V2.625H9.75H6.1875V1.96875V1.3125H9.75H13.3125V1.96875ZM13.3125 4.03125V4.6875H9.75H6.1875V4.03125V3.375H9.75H13.3125V4.03125ZM12.0938 9.84375C12.1734 9.92344 12.1875 9.99844 12.1875 10.3125C12.1875 10.9266 12.4031 10.875 9.75 10.875C7.09688 10.875 7.3125 10.9266 7.3125 10.3125C7.3125 9.69844 7.09688 9.75 9.75 9.75C11.9391 9.75 12.0047 9.75469 12.0938 9.84375ZM2.42813 12.0703C3.05625 12.3375 3.19219 13.125 2.68594 13.6031C2.5125 13.7672 2.34375 13.8281 2.04375 13.8281C1.26562 13.8281 0.8625 12.8016 1.43438 12.2766C1.73906 12 2.08125 11.9297 2.42813 12.0703ZM10.7812 12.1219C12.8297 12.5109 14.4609 14.0484 15.0047 16.1109C15.1406 16.6266 15.1781 17.6859 15.075 18.2672C14.775 19.9828 13.6313 21.4688 12.0328 22.2187C10.0453 23.1516 7.65 22.7203 6.06094 21.1453C4.40625 19.5094 4.0125 17.0391 5.0625 14.9531C5.78438 13.5281 7.15781 12.4734 8.72344 12.1453C9.28594 12.0281 10.2375 12.0187 10.7812 12.1219ZM3.57656 13.7812C3.84844 13.9969 3.81563 14.3906 3.51094 14.55C3.30938 14.6578 3.13594 14.625 2.97188 14.4516C2.60625 14.0578 3.15469 13.4484 3.57656 13.7812Z" fill="#151515"/>
<path d="M8.92954 13.2004C8.22172 13.3551 7.53266 13.7254 6.97485 14.2457C6.24829 14.9254 5.82173 15.7129 5.66704 16.6597C5.59204 17.1472 5.63423 18.0191 5.76079 18.4597C6.17797 19.9129 7.28423 21.0191 8.7186 21.4222C9.16391 21.5488 10.0217 21.5957 10.4999 21.5207C12.0467 21.2769 13.3499 20.1847 13.8561 18.6941C14.0202 18.2019 14.0764 17.7379 14.0483 17.1004C14.0202 16.4441 13.9405 16.1207 13.6874 15.5816C13.1577 14.4379 12.1967 13.6082 11.0108 13.2613C10.5467 13.1254 9.41704 13.0926 8.92954 13.2004ZM10.4295 15.1035C11.0436 15.2535 11.6436 15.7691 11.9436 16.3926C12.0983 16.7207 12.117 16.8051 12.1311 17.2129C12.1499 17.5785 12.1311 17.7285 12.0561 17.9863C11.6858 19.191 10.4624 19.8847 9.25766 19.5707C8.25454 19.3082 7.54673 18.3894 7.54673 17.3488C7.54673 16.7019 7.76704 16.1769 8.22641 15.7176C8.82173 15.1222 9.6186 14.9019 10.4295 15.1035Z" fill="#151515"/>
</svg>
