<svg width="24" height="24" viewBox="0 0 24 24" fill="none" xmlns="http://www.w3.org/2000/svg">
<g clip-path="url(#clip0_2282_6586)">
<path d="M11.5309 0.773438C11.184 0.885937 10.8746 1.15781 10.6965 1.50469C10.5605 1.77187 10.5418 1.85625 10.5371 2.175C10.5371 2.48906 10.5559 2.57812 10.6824 2.83594C10.8465 3.16406 11.0574 3.37031 11.4043 3.52969L11.6246 3.63281V4.74375V5.85938H11.9996H12.3746V4.74375V3.63281L12.5996 3.52969C12.9418 3.37031 13.1527 3.16406 13.3121 2.84062C13.4387 2.5875 13.4574 2.49375 13.4574 2.175C13.4574 1.85156 13.4387 1.77187 13.3027 1.50469C12.9746 0.857812 12.234 0.553125 11.5309 0.773438Z" fill="#1C1A1E"/>
<path d="M4.77605 3.60938C3.99324 3.74063 3.44949 4.54219 3.60886 5.33438C3.71199 5.84531 4.09636 6.29531 4.55574 6.45C4.84636 6.54375 5.43699 6.525 5.64793 6.40781L5.78855 6.33281L6.58543 7.12969L7.3823 7.92188L7.65418 7.65L7.92136 7.38281L7.12918 6.59063L6.3323 5.79844L6.4073 5.65313C6.52449 5.43281 6.54324 4.84219 6.44949 4.55625C6.23386 3.90469 5.49324 3.4875 4.77605 3.60938Z" fill="#1C1A1E"/>
<path d="M18.6094 3.62344C18.2859 3.69375 18.0562 3.83438 17.8172 4.10625C17.5594 4.39688 17.4656 4.70156 17.4937 5.15156C17.5078 5.34844 17.55 5.57344 17.5922 5.65313L17.6672 5.79844L16.8703 6.59063L16.0781 7.38281L16.3453 7.65L16.6172 7.92188L17.4141 7.12969L18.2109 6.33281L18.3516 6.40781C18.5625 6.525 19.1531 6.54375 19.4437 6.45C19.9031 6.29531 20.2875 5.84531 20.3906 5.33438C20.6016 4.29375 19.6594 3.39375 18.6094 3.62344Z" fill="#1C1A1E"/>
<path d="M11.1984 6.58594C11.0391 6.67031 10.9875 6.82031 10.9219 7.33594C10.8422 8.01094 10.8469 7.99688 10.6266 8.0625C10.5188 8.09531 10.3313 8.17031 10.2141 8.23125L9.99844 8.33906L9.49688 7.96406C8.78906 7.44375 8.80313 7.44375 8.12344 8.12344C7.42969 8.81719 7.42969 8.80781 8.02031 9.57656L8.34375 9.98906L8.23125 10.2094C8.17031 10.3313 8.09531 10.5188 8.05781 10.6313C7.99219 10.8563 8.01562 10.8422 7.38281 10.9219C6.52031 11.0297 6.51562 11.0391 6.51562 11.9766C6.51562 12.9609 6.525 12.975 7.40625 13.0781C8.00156 13.1484 7.99219 13.1438 8.0625 13.3734C8.09531 13.4813 8.17031 13.6688 8.23125 13.7859L8.33906 14.0016L8.05313 14.3719C7.65938 14.8828 7.59375 15 7.59375 15.1828C7.59375 15.3234 7.65469 15.4031 8.1 15.8531C8.54063 16.3031 8.62969 16.3688 8.79375 16.3922C8.97656 16.4156 9.00938 16.3969 9.48281 16.0406L9.975 15.6609L10.3453 15.825C10.5469 15.9094 10.7344 15.9844 10.7672 15.9844C10.8281 15.9844 10.8563 16.0922 10.9219 16.6641C11.0203 17.4609 11.0484 17.4844 12.0188 17.4844C12.6984 17.4844 12.7031 17.4844 12.8438 17.3531C12.9797 17.2359 12.9938 17.1891 13.0688 16.6219L13.1531 16.0219L13.4344 15.9141C13.5938 15.8531 13.7859 15.7734 13.8656 15.7313L14.0063 15.6563L14.4422 15.9891C14.6813 16.1719 14.925 16.3453 14.9813 16.3688C15.2109 16.4719 15.3797 16.3828 15.8813 15.8766C16.5469 15.2109 16.5469 15.1922 16.0406 14.5172L15.6656 14.0203L15.8344 13.6078C15.9281 13.3828 16.0078 13.1859 16.0172 13.1766C16.0266 13.1625 16.3031 13.1156 16.6313 13.0734C17.1891 12.9938 17.2359 12.9797 17.3578 12.8438C17.4844 12.7031 17.4844 12.6984 17.4844 12.0234C17.4844 11.6203 17.4609 11.3016 17.4328 11.2313C17.3578 11.0672 17.1562 10.9875 16.6406 10.9266C16.0547 10.8563 15.9844 10.8375 15.9844 10.7672C15.9844 10.7391 15.9094 10.5469 15.8203 10.3406L15.6609 9.97031L16.0219 9.50156C16.3453 9.08438 16.3828 9.01406 16.3828 8.83125C16.3828 8.63438 16.3641 8.60625 15.8906 8.13281C15.3938 7.63125 15.2391 7.54219 15.0047 7.61719C14.9531 7.63125 14.7094 7.8 14.4563 7.99219L14.0063 8.33906L13.8609 8.26875C13.7859 8.22656 13.5938 8.14688 13.4344 8.08594L13.1531 7.97813L13.0734 7.40625C12.9844 6.77813 12.9375 6.64688 12.7641 6.56719C12.5906 6.4875 11.3531 6.50156 11.1984 6.58594ZM12.5016 9.90938C12.9188 10.0219 13.1813 10.1766 13.5047 10.4953C13.8609 10.8563 14.0344 11.1844 14.1188 11.6672C14.2359 12.3469 14.0203 12.9891 13.5047 13.5047C13.1438 13.8609 12.8156 14.0344 12.3328 14.1188C11.6531 14.2359 11.0109 14.0203 10.4953 13.5047C9.97969 12.9891 9.76406 12.3469 9.88125 11.6672C9.96563 11.1844 10.1391 10.8563 10.4953 10.4953C11.0578 9.9375 11.7938 9.72188 12.5016 9.90938Z" fill="#1C1A1E"/>
<path d="M1.49512 10.7016C0.44043 11.2453 0.44043 12.7547 1.49512 13.2984C1.75762 13.4344 1.83262 13.4531 2.1748 13.4531C2.5123 13.4531 2.60137 13.4344 2.8498 13.3078C3.16855 13.1484 3.37012 12.9375 3.52949 12.5953L3.63262 12.375H4.74355H5.85918V12V11.625H4.74355H3.63262L3.52949 11.4C3.37012 11.0625 3.16855 10.8516 2.8498 10.6922C2.60137 10.5656 2.5123 10.5469 2.1748 10.5469C1.83262 10.5469 1.75762 10.5656 1.49512 10.7016Z" fill="#1C1A1E"/>
<path d="M21.15 10.6922C20.8313 10.8516 20.6297 11.0625 20.4703 11.4L20.3672 11.625H19.2563H18.1406V12V12.375H19.2563H20.3672L20.4703 12.5953C20.6297 12.9375 20.8313 13.1484 21.15 13.3078C21.3984 13.4344 21.4875 13.4531 21.825 13.4531C22.1672 13.4531 22.2422 13.4344 22.5047 13.2984C22.7109 13.1953 22.8563 13.0734 22.9781 12.9141C23.5453 12.1687 23.325 11.1234 22.5047 10.7016C22.2422 10.5656 22.1672 10.5469 21.825 10.5469C21.4875 10.5469 21.3984 10.5656 21.15 10.6922Z" fill="#1C1A1E"/>
<path d="M6.59029 16.87L5.7981 17.6669L5.65279 17.5919C5.43247 17.4747 4.84185 17.456 4.55591 17.5497C4.23716 17.6575 3.88091 17.981 3.72154 18.3138C3.54341 18.6794 3.53872 19.1716 3.71216 19.5466C3.8481 19.8419 4.1106 20.1232 4.3731 20.2591C4.7856 20.47 5.39966 20.4513 5.7981 20.2216C6.06997 20.0669 6.35591 19.72 6.44966 19.4435C6.54341 19.1528 6.52466 18.5622 6.40747 18.3513L6.33247 18.2107L7.12935 17.4138L7.92154 16.6169L7.64966 16.345L7.38247 16.0778L6.59029 16.87Z" fill="#1C1A1E"/>
<path d="M16.3453 16.3503L16.0781 16.6174L16.8703 17.4096L17.6672 18.2018L17.5922 18.3471C17.475 18.5674 17.4563 19.1581 17.55 19.444C17.6438 19.7206 17.9297 20.0674 18.2016 20.2221C18.4641 20.3768 18.8672 20.4424 19.1906 20.3909C20.1984 20.2268 20.7328 19.0924 20.2219 18.2018C20.0672 17.9299 19.725 17.644 19.4438 17.5503C19.1531 17.4565 18.5625 17.4753 18.3516 17.5924L18.2109 17.6674L17.4141 16.8706L16.6172 16.0784L16.3453 16.3503Z" fill="#1C1A1E"/>
<path d="M11.6246 19.2567V20.3676L11.4043 20.4708C11.0574 20.6301 10.8465 20.8364 10.6824 21.1645C10.5559 21.4223 10.5371 21.5114 10.5371 21.8255C10.5418 22.1301 10.5605 22.2286 10.6871 22.4817C10.9168 22.9551 11.3434 23.2411 11.8777 23.2833C12.4918 23.3348 13.0262 23.0395 13.3027 22.4958C13.4387 22.2286 13.4574 22.1489 13.4574 21.8255C13.4574 21.5067 13.4387 21.413 13.3121 21.1598C13.1527 20.8364 12.9418 20.6301 12.5996 20.4708L12.3746 20.3676V19.2567V18.1411H11.9996H11.6246V19.2567Z" fill="#1C1A1E"/>
</g>
<defs>
<clipPath id="clip0_2282_6586">
<rect width="24" height="24" fill="white"/>
</clipPath>
</defs>
</svg>
