<svg width="32" height="32" viewBox="0 0 32 32" fill="none" xmlns="http://www.w3.org/2000/svg">
<path d="M15.7563 0.856249C15.65 0.94375 15.425 1.6125 14.7875 3.75C13.9625 6.49375 13.6375 7.39375 13.125 8.3125C12.1188 10.1375 10.5375 11.7875 8.73125 12.8813C7.51875 13.6187 7.04375 13.8 3.65625 14.8188C0.9 15.6438 0.75 15.7 0.75 16C0.75 16.3 0.9 16.3562 3.65625 17.1812C6.53125 18.0437 6.8625 18.1562 7.6875 18.55C8.88125 19.125 9.9 19.8375 10.9 20.8062C11.6625 21.55 12.1375 22.1187 12.6375 22.8812C13.5188 24.2312 13.8125 24.9688 14.8375 28.4062C15.6375 31.1 15.7 31.25 16 31.25C16.3 31.25 16.3562 31.1063 17.2125 28.25C17.9937 25.6625 18.4 24.5125 18.8 23.8125C19.4375 22.675 19.9688 21.9625 20.8062 21.1C21.5562 20.3375 22.1187 19.8625 22.8813 19.3625C24.2313 18.4812 24.8375 18.2437 28.25 17.2188C31.1063 16.3625 31.25 16.3 31.25 16C31.25 15.7 31.1063 15.6375 28.25 14.7812C25.325 13.9062 25.0312 13.8 24.0375 13.3C21.775 12.1687 19.8125 10.2 18.6812 7.9375C18.2 6.975 18.0938 6.6625 17.2188 3.75C16.3562 0.893749 16.3 0.75 16 0.75C15.9375 0.75 15.825 0.799999 15.7563 0.856249Z" fill="white"/>
</svg>
