<svg width="41" height="41" viewBox="0 0 41 41" fill="none" xmlns="http://www.w3.org/2000/svg">
<path d="M21.0773 1.71394C20.1242 1.93461 19.3357 2.50728 18.8284 3.3561C18.3945 4.08597 18.292 4.61802 18.2282 6.47127C18.1165 9.82622 18.3791 12.4146 19.1492 15.6445C19.33 16.4293 19.4817 17.1017 19.4782 17.1406C19.4747 17.1795 19.1901 16.5031 18.8443 15.6329C17.4479 12.1274 15.912 9.48005 13.755 6.84779C12.9061 5.81495 12.4494 5.48389 11.5452 5.24616C10.4491 4.95989 9.39273 5.19486 8.44814 5.93398C7.074 7.00334 6.68994 8.92991 7.53528 10.4409C7.80548 10.9278 9.24512 12.5469 10.343 13.602C12.0331 15.2277 13.581 16.425 15.9187 17.9126C16.7796 18.4602 17.4246 18.8787 17.356 18.8569C17.2958 18.828 16.6454 18.558 15.9206 18.2422C12.8383 16.9234 10.39 16.2338 7.11518 15.7527C5.29559 15.488 4.73823 15.4931 3.93447 15.7977C2.66837 16.2728 1.80502 17.4192 1.68116 18.8043C1.55313 20.2361 2.18659 21.485 3.39361 22.1969C4.12418 22.623 4.69444 22.7367 6.56395 22.7941C9.86442 22.901 12.358 22.6455 15.6417 21.8881C16.3947 21.7123 17.0593 21.5599 17.123 21.5499C17.1873 21.5322 16.4776 21.8374 15.5332 22.2235C11.9903 23.6872 9.53382 25.1069 6.94673 27.1973C6.21907 27.7911 5.96906 28.0432 5.71151 28.4673C4.90219 29.7989 4.97938 31.304 5.9212 32.5255C6.61711 33.427 7.53943 33.9017 8.64358 33.922C9.84179 33.9429 10.5726 33.5768 12.0425 32.2258C14.4724 29.9645 16.0723 28.0368 18.0129 25.018C18.5055 24.2463 18.8951 23.6615 18.8662 23.7217C18.845 23.7825 18.549 24.462 18.2212 25.2327C16.9249 28.2386 16.2572 30.6182 15.7768 33.8853C15.5107 35.7205 15.5151 36.2856 15.819 37.0972C16.0647 37.7702 16.6755 38.4836 17.3374 38.888C17.8436 39.1921 17.8818 39.2033 18.8389 39.2889C19.8038 39.3752 19.8116 39.3759 20.4294 39.1331C21.453 38.7383 22.2503 37.8919 22.5706 36.8538C22.7248 36.3577 22.8069 35.4395 22.8338 33.9987C22.8914 30.8978 22.5911 28.2041 21.8303 25.0456C21.6773 24.3888 21.547 23.828 21.5491 23.8047C21.5512 23.7814 21.8806 24.5716 22.2788 25.5563C23.6219 28.8688 25.1083 31.4568 27.0924 33.9167C28.0185 35.0506 28.4342 35.4015 29.202 35.6741C31.7037 36.5567 34.3316 34.3602 33.9069 31.7416C33.7749 30.9376 33.5033 30.4662 32.5511 29.3614C30.4829 26.9645 28.2514 25.0786 25.1788 23.1253C24.2803 22.5586 23.5992 22.1055 23.6594 22.1345C23.7203 22.1556 24.3551 22.4241 25.0572 22.7301C28.1692 24.0673 30.5786 24.7533 33.8768 25.2365C35.7346 25.5125 36.292 25.5074 37.0866 25.2176C37.7433 24.9783 38.5416 24.2967 38.9205 23.656C39.2069 23.1718 39.2203 23.1103 39.3038 22.1765C39.3887 21.2271 39.3844 21.1875 39.1749 20.6354C38.7616 19.5553 37.848 18.7206 36.7385 18.4096C36.4399 18.328 35.8499 18.2595 35.0682 18.2288C31.5923 18.067 28.7372 18.3294 25.3087 19.1288C24.5231 19.3174 23.8592 19.4619 23.828 19.4592C23.8054 19.4493 24.4734 19.1717 25.3188 18.8395C28.5876 17.5474 31.2229 16.0574 33.6695 14.1349C35.0952 13.0152 35.3741 12.7029 35.6791 11.836C36.1081 10.635 35.8636 9.33465 35.0197 8.33364C34.0554 7.18851 32.4767 6.77281 31.0424 7.28773C30.1106 7.62012 27.5183 10.0316 25.7398 12.2022C24.6031 13.5987 24.2078 14.1594 23.1028 15.9039C22.5636 16.7577 22.1176 17.4473 22.1197 17.4239C22.1218 17.4006 22.3495 16.8719 22.6166 16.2526C23.9257 13.2792 24.6992 10.6816 25.1927 7.61959C25.5312 5.50069 25.5343 4.76367 25.2013 3.8397C24.9939 3.26426 24.3031 2.48087 23.6851 2.11185C23.2157 1.83457 23.0862 1.79162 22.3491 1.70217C21.7046 1.62885 21.4379 1.62853 21.0773 1.71394Z" fill="#C9F31D"/>
</svg>
