<svg width="43" height="43" viewBox="0 0 43 43" fill="none" xmlns="http://www.w3.org/2000/svg">
<g clip-path="url(#clip0_438_311)">
<path d="M20.3243 2.49589C19.8649 6.56509 19.6085 12.9191 19.7415 16.9769C19.7712 17.8813 19.7587 18.2342 19.6875 18.2606C19.6322 18.2864 19.121 17.8465 18.5502 17.2964C17.2674 16.0485 16.2373 15.1769 15.0319 14.335C14.1217 13.6999 12.1109 12.4839 11.9748 12.4883C11.8388 12.4928 11.9094 12.6908 12.2758 13.3598C13.3752 15.3668 15.2972 17.5392 17.4591 19.207C17.8623 19.5302 18.1846 19.8322 18.1702 19.8807C18.1485 19.9535 17.7972 19.9891 16.9328 20.0174C13.1071 20.1428 6.62349 20.8201 2.82366 21.4895C1.40559 21.7363 1.24657 21.7736 1.32096 21.8432C1.38709 21.9052 4.40153 22.2069 6.25638 22.3304C9.54857 22.551 14.3916 22.6646 17.0168 22.5785C17.8892 22.5499 18.2341 22.5627 18.2605 22.6339C18.2863 22.6891 17.8464 23.2003 17.2962 23.7712C16.0483 25.054 15.1767 26.0841 14.3349 27.2895C13.6998 28.1996 12.4838 30.2105 12.4882 30.3465C12.4929 30.4906 12.7144 30.4032 13.4619 29.9861C15.4212 28.8963 17.5701 26.9911 19.2068 24.8623C19.5301 24.4591 19.832 24.1367 19.8806 24.1512C19.9534 24.1728 19.9892 24.5322 20.0186 25.4286C20.1202 28.5259 20.67 34.3007 21.1809 37.665C21.4353 39.3152 21.7553 41.0113 21.8114 41.0094C21.9074 41.0063 22.2354 37.8147 22.3867 35.342C22.5636 32.4278 22.6553 27.6496 22.5797 25.3446C22.5506 24.4562 22.5625 24.0873 22.6338 24.0609C22.6813 24.0433 23.2666 24.5449 23.9284 25.1802C25.1859 26.3889 26.5277 27.4826 27.7403 28.3001C28.5185 28.8195 30.2424 29.8366 30.3544 29.8329C30.4825 29.8287 30.4028 29.5989 30.0025 28.875C28.9295 26.9392 26.991 24.7513 24.8622 23.1145C24.459 22.7912 24.1366 22.4893 24.151 22.4408C24.1727 22.368 24.5241 22.3324 25.3884 22.3041C27.6854 22.2288 31.7364 21.8876 34.9126 21.5031C37.6182 21.182 41.013 20.622 41.0093 20.51C41.0057 20.3979 37.5815 20.0615 34.8607 19.9184C31.6661 19.7427 27.6015 19.6676 25.3045 19.7429C24.4481 19.771 24.0872 19.7588 24.0608 19.6876C24.0432 19.6401 24.5448 19.0548 25.1801 18.393C26.4739 17.0446 27.4673 15.8182 28.3606 14.4749C29.0861 13.3855 29.8738 11.9976 29.8074 11.9277C29.725 11.8583 28.992 12.2269 28.1207 12.7762C26.2686 13.9586 24.5435 15.5936 22.9222 17.7058C22.7067 17.9773 22.4975 18.1925 22.4407 18.1703C22.3678 18.1487 22.332 17.7893 22.3026 16.8929C22.2271 14.5879 21.8226 9.82593 21.4552 6.92958C21.1423 4.47211 20.6059 1.30888 20.5099 1.31203C20.4779 1.31308 20.3991 1.84446 20.3243 2.49589Z" fill="url(#paint0_linear_438_311)"/>
</g>
<defs>
<linearGradient id="paint0_linear_438_311" x1="1.30579" y1="21.8117" x2="41.0093" y2="20.51" gradientUnits="userSpaceOnUse">
<stop stop-color="#0BAA84"/>
<stop offset="1" stop-color="#FFCC31"/>
</linearGradient>
<clipPath id="clip0_438_311">
<rect width="41" height="41" fill="white" transform="translate(0 1.34349) rotate(-1.87781)"/>
</clipPath>
</defs>
</svg>
