<svg width="40" height="40" viewBox="0 0 40 40" fill="none" xmlns="http://www.w3.org/2000/svg">
<mask id="mask0_1928_11488" style="mask-type:luminance" maskUnits="userSpaceOnUse" x="0" y="0" width="40" height="40">
<path d="M40 0L0 0L0 40H40V0Z" fill="white"/>
</mask>
<g mask="url(#mask0_1928_11488)">
<path fill-rule="evenodd" clip-rule="evenodd" d="M0 31.681C9.23142 28.7634 11.2372 30.769 8.3195 40C13.7107 30.769 26.2894 30.769 31.6806 40C28.7648 30.769 30.7708 28.7634 40 31.681C30.7708 26.29 30.7708 13.7121 40 8.32118C30.7708 11.2366 28.7648 9.23094 31.6806 0C26.2894 9.23094 13.7107 9.23094 8.3195 0C11.2372 9.23094 9.23142 11.2366 0 8.32118C9.23142 13.7121 9.23142 26.29 0 31.681ZM20 27.4C24.087 27.4 27.4 24.087 27.4 20C27.4 15.9131 24.087 12.6 20 12.6C15.9131 12.6 12.6 15.9131 12.6 20C12.6 24.087 15.9131 27.4 20 27.4Z" fill="#FFB627"/>
</g>
</svg>
