<svg width="60" height="60" viewBox="0 0 60 60" fill="none" xmlns="http://www.w3.org/2000/svg">
<path d="M29.379 0.140392C29.2735 0.222424 28.5704 1.7107 27.8204 3.4568C27.0704 5.19117 26.4376 6.6443 26.4141 6.65602C26.4024 6.67946 24.8204 6.85524 22.8985 7.04274C19.7227 7.34742 19.3946 7.3943 19.1485 7.62867C18.8321 7.92164 18.7618 8.61305 19.0196 8.91774C19.0899 9.02321 20.2852 10.0896 21.6563 11.2966C23.0157 12.5037 24.1407 13.5584 24.1407 13.6404C24.1407 13.7341 23.8243 15.199 23.4376 16.9216C23.0509 18.6443 22.7345 20.1912 22.7345 20.3787C22.7345 20.824 23.2149 21.2576 23.7071 21.2459C23.9884 21.2341 24.9259 20.742 26.9884 19.5232C28.5704 18.5857 29.9298 17.8123 30.0001 17.8123C30.0704 17.8123 31.4298 18.5857 33.0235 19.5232C35.0743 20.742 36.0118 21.2341 36.293 21.2459C36.7735 21.2576 37.2657 20.824 37.2657 20.3904C37.2657 20.2146 36.9493 18.6677 36.5626 16.9334C36.1759 15.199 35.8595 13.7224 35.8595 13.6404C35.8595 13.5584 36.9845 12.5037 38.3556 11.2849C39.7149 10.0779 40.8985 9.01149 40.9806 8.90602C41.2266 8.60133 41.1681 7.92164 40.8516 7.62867C40.5938 7.38258 40.2891 7.33571 37.0899 7.03102C35.1798 6.84352 33.5977 6.67946 33.586 6.65602C33.5626 6.63258 32.9532 5.22633 32.2149 3.51539C31.4766 1.80445 30.7852 0.316174 30.6798 0.210705C30.4337 -0.0353889 29.672 -0.0705452 29.379 0.140392ZM31.0548 5.91774C31.5938 7.17164 32.1329 8.28492 32.2501 8.40211C32.4259 8.55446 33.0118 8.64821 35.0509 8.83571C36.4571 8.96461 37.6056 9.11696 37.5821 9.17555C37.5704 9.22242 36.7149 10.0193 35.6837 10.9334C33.9024 12.5154 33.8087 12.6209 33.7735 13.0662C33.7618 13.324 33.9727 14.5662 34.254 15.8201C34.5352 17.074 34.7579 18.117 34.7462 18.1404C34.7227 18.1638 33.7735 17.613 32.6251 16.9334C31.4649 16.2537 30.3985 15.656 30.2462 15.6209C29.836 15.5154 29.5313 15.656 27.293 16.992C26.1915 17.6482 25.2774 18.1638 25.2657 18.1404C25.2423 18.117 25.4649 17.074 25.7462 15.8201C26.0274 14.5662 26.2384 13.324 26.2266 13.0662C26.1915 12.6209 26.0977 12.5154 24.3165 10.9334C23.2852 10.0193 22.4298 9.22242 22.418 9.17555C22.3946 9.11696 23.543 8.96461 24.9493 8.83571C26.9649 8.64821 27.5743 8.55446 27.7501 8.40211C27.8673 8.29664 28.4063 7.17164 28.9454 5.91774C29.4845 4.66383 29.9649 3.63258 30.0001 3.63258C30.047 3.63258 30.5157 4.66383 31.0548 5.91774Z" fill="#FFB627"/>
<path d="M9.99633 7.78213C9.87914 7.93448 9.3518 9.03604 8.84789 10.2431C7.99242 12.247 7.89867 12.4228 7.61742 12.4228C7.45336 12.4228 6.32836 12.5282 5.12133 12.6454C3.14086 12.8329 2.89476 12.8915 2.63695 13.1259C2.33226 13.4189 2.25023 13.911 2.46117 14.2978C2.51976 14.4149 3.39867 15.2353 4.39476 16.1142C5.67211 17.2392 6.19945 17.7782 6.16429 17.9189C6.01195 18.3993 5.15648 22.4071 5.15648 22.6064C5.15648 22.7353 5.28539 22.9814 5.43773 23.1571C5.9182 23.7314 6.25804 23.6259 8.55492 22.2665C9.67992 21.5985 10.6526 21.0595 10.7229 21.0595C10.7932 21.0595 11.7659 21.5985 12.8909 22.2665C15.1877 23.6259 15.5276 23.7314 16.008 23.1571C16.1604 22.9814 16.2893 22.7353 16.2893 22.6064C16.2893 22.4071 15.4338 18.3993 15.2815 17.9189C15.2463 17.7782 15.762 17.2509 17.051 16.1142C18.0588 15.2235 18.926 14.4032 18.9846 14.286C19.1721 13.9345 19.1135 13.5126 18.8323 13.1728C18.5627 12.8681 18.4807 12.8564 16.3362 12.6454C15.1174 12.5282 13.9924 12.4228 13.8284 12.4228C13.5588 12.4228 13.4534 12.2353 12.5979 10.2314C12.0823 9.03604 11.5666 7.92276 11.4495 7.77041C11.1448 7.3837 10.301 7.3837 9.99633 7.78213ZM11.3674 12.4931C11.7424 13.372 12.094 14.0399 12.2463 14.1337C12.387 14.2274 13.1604 14.3564 14.0979 14.4384L15.7034 14.5907L14.4729 15.6806C13.7932 16.2782 13.2073 16.8993 13.1721 17.0517C13.137 17.204 13.2541 18.0126 13.4534 18.8564C13.6409 19.7001 13.7698 20.3915 13.7463 20.3915C13.7229 20.3915 13.1135 20.0517 12.4104 19.6298C11.508 19.1024 10.9924 18.8681 10.7229 18.8681C10.4534 18.8681 9.93773 19.1024 9.03539 19.6298C8.33226 20.0517 7.72289 20.3915 7.69945 20.3915C7.67601 20.3915 7.80492 19.7001 7.99242 18.8564C8.19164 18.0126 8.30883 17.204 8.27367 17.0517C8.22679 16.8876 7.66429 16.2899 6.96117 15.6806L5.71898 14.5907L7.33617 14.4384C8.28539 14.3564 9.04711 14.2274 9.19945 14.1337C9.3518 14.0399 9.70336 13.372 10.0784 12.4931C10.4182 11.6845 10.7112 11.0165 10.7229 11.0165C10.7346 11.0165 11.0276 11.6845 11.3674 12.4931Z" fill="#FFB627"/>
<path d="M48.6095 7.68838C48.5157 7.79385 47.9884 8.89541 47.4493 10.1493C46.547 12.2353 46.4415 12.4228 46.172 12.4228C46.0079 12.4228 44.8829 12.5282 43.6524 12.6454C41.5196 12.8564 41.4259 12.8798 41.168 13.1728C40.8868 13.5126 40.8282 13.9345 41.0157 14.286C41.0743 14.4032 41.9415 15.2235 42.9493 16.1142C44.2384 17.2509 44.754 17.7782 44.7188 17.9189C44.5665 18.3993 43.711 22.4071 43.711 22.6064C43.711 22.7353 43.8399 22.9814 43.9923 23.1571C44.4727 23.7314 44.8126 23.6259 47.1095 22.2665C48.2345 21.5985 49.2071 21.0595 49.2774 21.0595C49.3477 21.0595 50.3204 21.5985 51.4454 22.2665C53.7423 23.6259 54.0821 23.7314 54.5626 23.1571C54.7149 22.9814 54.8438 22.7353 54.8438 22.6064C54.8438 22.4071 53.9884 18.3993 53.836 17.9189C53.8009 17.7782 54.3282 17.2392 55.6055 16.1142C56.6016 15.2353 57.4805 14.4149 57.5391 14.2978C57.7501 13.911 57.668 13.4189 57.3634 13.1259C57.1055 12.8798 56.8595 12.8329 54.879 12.6454C53.6602 12.5282 52.547 12.4228 52.3829 12.4228C52.1134 12.4228 52.0079 12.2353 51.1524 10.2314C50.6368 9.02432 50.1212 7.92276 50.004 7.77041C49.7462 7.44229 48.9141 7.39541 48.6095 7.68838ZM49.922 12.4931C50.297 13.372 50.6485 14.0399 50.8009 14.1337C50.9532 14.2274 51.7149 14.3564 52.6641 14.4384L54.2813 14.5907L53.0391 15.6806C52.336 16.2899 51.7735 16.8876 51.7266 17.0517C51.6915 17.204 51.8087 18.0126 52.0079 18.8564C52.1954 19.7001 52.3243 20.3915 52.3009 20.3915C52.2774 20.3915 51.668 20.0517 50.9649 19.6298C50.0626 19.0907 49.5704 18.8681 49.2891 18.8681C49.0079 18.8681 48.504 19.0907 47.5899 19.6298C46.8868 20.0517 46.2774 20.3915 46.254 20.3915C46.2305 20.3915 46.3595 19.7001 46.547 18.8564C46.7462 18.0126 46.8634 17.204 46.8282 17.0517C46.793 16.8993 46.2071 16.2782 45.5274 15.6806L44.297 14.5907L45.9024 14.4384C46.8282 14.3564 47.6134 14.2274 47.754 14.1337C47.8946 14.0399 48.2579 13.3485 48.6329 12.4931C48.9845 11.6845 49.2774 11.0165 49.2891 11.0165C49.2891 11.0165 49.5821 11.6845 49.922 12.4931Z" fill="#FFB627"/>
<path d="M29.5901 20.1914C28.9339 20.4141 28.6409 20.5781 28.1018 21.0703C27.305 21.7969 27.2112 22.1016 27.0237 24.6328C26.8362 27.0703 26.6839 27.7383 25.9573 29.1797C25.2776 30.5273 23.9534 32.0156 23.0393 32.4609C22.4182 32.7539 21.0237 33.8672 19.3831 35.3555L18.094 36.5273L17.8948 35.9648C17.7542 35.5898 17.5432 35.2852 17.262 35.0742L16.8401 34.7461L11.1917 34.7109L5.55496 34.6758L5.15652 34.9453C4.93386 35.0977 4.62917 35.4023 4.48855 35.6133L4.21902 36.0117V46.4297C4.21902 58.125 4.16042 57.3867 5.07449 57.9844L5.55496 58.3008L10.805 58.3359C14.2971 58.3594 16.2073 58.3242 16.5237 58.2422C17.2034 58.0547 17.7893 57.4922 17.9534 56.8828C18.0354 56.6016 18.1526 56.3672 18.2346 56.3672C18.305 56.3672 18.8323 56.4961 19.3831 56.6602C20.9768 57.1172 22.2307 57.8086 23.4729 58.9219C23.8011 59.2148 24.3401 59.5781 24.68 59.7305L25.2893 60L33.9378 59.9766L42.5979 59.9414L43.1487 59.6719C43.9104 59.2969 44.6135 58.5703 44.9768 57.7969C45.2464 57.2227 45.2932 56.9766 45.2932 56.0625C45.2932 55.1016 45.2581 54.9258 44.93 54.3047L44.5667 53.6016L44.9417 53.3203C45.469 52.9219 46.0432 52.1367 46.3128 51.4219C46.6409 50.543 46.5706 49.2891 46.137 48.4219L45.8206 47.7891L46.137 47.543C47.2385 46.6758 47.719 45.7734 47.7893 44.3906C47.8362 43.4883 47.8128 43.3125 47.5315 42.7031C47.3323 42.2812 47.262 42 47.344 41.9766C47.7425 41.8359 48.6096 41.0977 48.9495 40.6172C50.2385 38.7422 49.7464 36.2461 47.8596 35.0039C46.8987 34.3711 46.5354 34.3359 40.0432 34.3359C34.4065 34.3359 34.0784 34.3242 34.137 34.125C34.9456 31.6172 35.1565 30.375 35.1565 28.2422C35.1565 25.1719 34.3948 22.2188 33.3401 21.1523C32.426 20.2383 30.7503 19.8164 29.5901 20.1914ZM31.3245 22.1953C31.8987 22.4414 32.18 22.8281 32.4964 23.8594C33.0589 25.6406 33.1995 26.7188 33.1292 28.7109C33.0706 30.7383 32.7893 32.0859 32.1096 33.6445C31.4534 35.1562 31.3948 35.3555 31.5354 35.6953C31.7698 36.3398 31.5237 36.3164 38.9065 36.3281C43.512 36.3281 45.9143 36.375 46.2307 36.457C47.2034 36.7266 47.8714 37.8633 47.6018 38.7773C47.4143 39.3984 47.0393 39.832 46.4768 40.0898C46.0667 40.2773 45.6917 40.3125 44.0276 40.3125C42.094 40.3125 42.0589 40.3125 41.7776 40.6055C41.2268 41.1445 41.4846 42.082 42.2112 42.2344C42.3635 42.2695 42.9612 42.3164 43.5471 42.3281C44.5081 42.3633 44.6487 42.3984 45.0471 42.7031C46.2659 43.6289 45.9964 45.4102 44.5081 46.1484C44.0159 46.3945 43.9104 46.4062 43.2659 46.2891C42.469 46.1484 42.0823 46.2422 41.7893 46.6641C41.3206 47.332 41.7307 48.0938 42.6331 48.2109C43.2776 48.293 43.8518 48.6328 44.2268 49.1367C44.4143 49.3828 44.4729 49.6406 44.4729 50.1562C44.4729 50.7422 44.426 50.8945 44.1096 51.2812C43.9104 51.5273 43.5237 51.8555 43.2425 51.9961C42.7854 52.2422 42.6214 52.2656 41.8831 52.1953C41.0745 52.125 41.0159 52.1367 40.7346 52.418C40.5237 52.6289 40.43 52.8516 40.43 53.1211C40.43 53.7188 40.7464 54.0352 41.4729 54.1523C42.305 54.2812 42.8206 54.6328 43.137 55.2656C43.4651 55.9453 43.3948 56.6719 42.9612 57.2461C42.305 58.1133 42.762 58.0664 34.3362 58.1016C30.176 58.125 26.4964 58.1016 26.1565 58.0664C25.6175 57.9961 25.4182 57.8906 24.5276 57.1523C23.9768 56.6953 23.1214 56.0977 22.6292 55.8164C21.7854 55.3359 20.0042 54.6914 18.6682 54.375L18.0471 54.2344V46.8164V39.3984L19.137 38.3672C21.68 35.9297 23.2971 34.582 24.1878 34.1367C25.0198 33.7266 26.5432 32.1445 27.2815 30.9375C28.43 29.0742 28.8753 27.5156 29.0042 24.8438C29.1096 22.9805 29.2268 22.6055 29.8479 22.2773C30.3753 21.9961 30.8089 21.9727 31.3245 22.1953ZM16.055 46.5234V56.3672H11.1331H6.21121V46.5234V36.6797H11.1331H16.055V46.5234Z" fill="white"/>
<path d="M11.3089 38.9639C10.7464 39.5147 10.9925 40.5577 11.7307 40.7217C12.6214 40.9209 13.301 40.0303 12.8675 39.2217C12.5393 38.6006 11.7893 38.4717 11.3089 38.9639Z" fill="#FFB627"/>
</svg>
