<svg width="56" height="60" viewBox="0 0 56 60" fill="none" xmlns="http://www.w3.org/2000/svg">
<path d="M27.0352 0.138519C26.9298 0.220551 26.2266 1.70883 25.4766 3.45493C24.7266 5.1893 24.0938 6.64243 24.0704 6.65415C24.0587 6.67758 22.4766 6.85336 20.5548 7.04086C17.379 7.34555 17.0509 7.39243 16.8048 7.6268C16.4884 7.91977 16.418 8.61118 16.6759 8.91586C16.7462 9.02133 17.9415 10.0877 19.3126 11.2948C20.672 12.5018 21.797 13.5565 21.797 13.6385C21.797 13.7323 21.4805 15.1971 21.0938 16.9198C20.7071 18.6424 20.3907 20.1893 20.3907 20.3768C20.3907 20.8221 20.8712 21.2557 21.3634 21.244C21.6446 21.2323 22.5821 20.7401 24.6446 19.5213C26.2266 18.5838 27.586 17.8104 27.6563 17.8104C27.7266 17.8104 29.086 18.5838 30.6798 19.5213C32.7305 20.7401 33.668 21.2323 33.9493 21.244C34.4298 21.2557 34.922 20.8221 34.922 20.3885C34.922 20.2127 34.6056 18.6659 34.2188 16.9315C33.8321 15.1971 33.5157 13.7206 33.5157 13.6385C33.5157 13.5565 34.6407 12.5018 36.0118 11.2831C37.3712 10.076 38.5548 9.00961 38.6368 8.90415C38.8829 8.59946 38.8243 7.91977 38.5079 7.6268C38.2501 7.38071 37.9454 7.33383 34.7462 7.02915C32.836 6.84165 31.254 6.67758 31.2423 6.65415C31.2188 6.63071 30.6095 5.22446 29.8712 3.51352C29.1329 1.80258 28.4415 0.314301 28.336 0.208832C28.0899 -0.037262 27.3282 -0.0724182 27.0352 0.138519ZM28.711 5.91586C29.2501 7.16977 29.7891 8.28305 29.9063 8.40024C30.0821 8.55258 30.668 8.64633 32.7071 8.83383C34.1134 8.96274 35.2618 9.11508 35.2384 9.17368C35.2266 9.22055 34.3712 10.0174 33.3399 10.9315C31.5587 12.5135 31.4649 12.619 31.4298 13.0643C31.418 13.3221 31.629 14.5643 31.9102 15.8182C32.1915 17.0721 32.4141 18.1151 32.4024 18.1385C32.379 18.162 31.4298 17.6112 30.2813 16.9315C29.1212 16.2518 28.0548 15.6541 27.9024 15.619C27.4923 15.5135 27.1876 15.6541 24.9493 16.9901C23.8477 17.6463 22.9337 18.162 22.922 18.1385C22.8985 18.1151 23.1212 17.0721 23.4024 15.8182C23.6837 14.5643 23.8946 13.3221 23.8829 13.0643C23.8477 12.619 23.754 12.5135 21.9727 10.9315C20.9415 10.0174 20.086 9.22055 20.0743 9.17368C20.0509 9.11508 21.1993 8.96274 22.6055 8.83383C24.6212 8.64633 25.2305 8.55258 25.4063 8.40024C25.5235 8.29477 26.0626 7.16977 26.6016 5.91586C27.1407 4.66196 27.6212 3.63071 27.6563 3.63071C27.7032 3.63071 28.172 4.66196 28.711 5.91586Z" fill="#0BAA84"/>
<path d="M7.65258 7.77913C7.53539 7.93147 7.00805 9.03304 6.50414 10.2401C5.64867 12.244 5.55492 12.4198 5.27367 12.4198C5.10961 12.4198 3.98461 12.5252 2.77758 12.6424C0.797107 12.8299 0.551014 12.8885 0.293201 13.1229C-0.0114865 13.4158 -0.0935177 13.908 0.11742 14.2948C0.176014 14.4119 1.05492 15.2323 2.05101 16.1112C3.32836 17.2362 3.8557 17.7752 3.82054 17.9159C3.6682 18.3963 2.81273 22.4041 2.81273 22.6033C2.81273 22.7323 2.94164 22.9783 3.09398 23.1541C3.57445 23.7283 3.91429 23.6229 6.21117 22.2635C7.33617 21.5955 8.30883 21.0565 8.37914 21.0565C8.44945 21.0565 9.42211 21.5955 10.5471 22.2635C12.844 23.6229 13.1838 23.7283 13.6643 23.1541C13.8166 22.9783 13.9455 22.7323 13.9455 22.6033C13.9455 22.4041 13.0901 18.3963 12.9377 17.9159C12.9026 17.7752 13.4182 17.2479 14.7073 16.1112C15.7151 15.2205 16.5823 14.4002 16.6409 14.283C16.8284 13.9315 16.7698 13.5096 16.4885 13.1698C16.219 12.8651 16.137 12.8533 13.9924 12.6424C12.7737 12.5252 11.6487 12.4198 11.4846 12.4198C11.2151 12.4198 11.1096 12.2323 10.2541 10.2283C9.73851 9.03304 9.22289 7.91976 9.1057 7.76741C8.80101 7.38069 7.95726 7.38069 7.65258 7.77913ZM9.02367 12.4901C9.39867 13.369 9.75023 14.0369 9.90258 14.1307C10.0432 14.2244 10.8166 14.3533 11.7541 14.4354L13.3596 14.5877L12.1291 15.6776C11.4495 16.2752 10.8635 16.8963 10.8284 17.0487C10.7932 17.201 10.9104 18.0096 11.1096 18.8534C11.2971 19.6971 11.426 20.3885 11.4026 20.3885C11.3791 20.3885 10.7698 20.0487 10.0666 19.6268C9.1643 19.0994 8.64867 18.8651 8.37914 18.8651C8.10961 18.8651 7.59398 19.0994 6.69164 19.6268C5.98851 20.0487 5.37914 20.3885 5.3557 20.3885C5.33226 20.3885 5.46117 19.6971 5.64867 18.8534C5.84789 18.0096 5.96508 17.201 5.92992 17.0487C5.88304 16.8846 5.32054 16.2869 4.61742 15.6776L3.37523 14.5877L4.99242 14.4354C5.94164 14.3533 6.70336 14.2244 6.8557 14.1307C7.00805 14.0369 7.35961 13.369 7.73461 12.4901C8.07445 11.6815 8.36742 11.0135 8.37914 11.0135C8.39086 11.0135 8.68383 11.6815 9.02367 12.4901Z" fill="#0BAA84"/>
<path d="M46.2657 7.68538C46.172 7.79085 45.6446 8.89241 45.1055 10.1463C44.2032 12.2323 44.0977 12.4198 43.8282 12.4198C43.6641 12.4198 42.5391 12.5252 41.3087 12.6424C39.1759 12.8533 39.0821 12.8768 38.8243 13.1698C38.543 13.5096 38.4845 13.9315 38.672 14.283C38.7305 14.4002 39.5977 15.2205 40.6055 16.1112C41.8946 17.2479 42.4102 17.7752 42.3751 17.9159C42.2227 18.3963 41.3673 22.4041 41.3673 22.6033C41.3673 22.7323 41.4962 22.9783 41.6485 23.1541C42.129 23.7283 42.4688 23.6229 44.7657 22.2635C45.8907 21.5955 46.8634 21.0565 46.9337 21.0565C47.004 21.0565 47.9766 21.5955 49.1016 22.2635C51.3985 23.6229 51.7384 23.7283 52.2188 23.1541C52.3712 22.9783 52.5001 22.7323 52.5001 22.6033C52.5001 22.4041 51.6446 18.3963 51.4923 17.9159C51.4571 17.7752 51.9845 17.2362 53.2618 16.1112C54.2579 15.2323 55.1368 14.4119 55.1954 14.2948C55.4063 13.908 55.3243 13.4158 55.0196 13.1229C54.7618 12.8768 54.5157 12.8299 52.5352 12.6424C51.3165 12.5252 50.2032 12.4198 50.0391 12.4198C49.7696 12.4198 49.6641 12.2323 48.8087 10.2283C48.293 9.02132 47.7774 7.91976 47.6602 7.76741C47.4024 7.43929 46.5704 7.39241 46.2657 7.68538ZM47.5782 12.4901C47.9532 13.369 48.3048 14.0369 48.4571 14.1307C48.6095 14.2244 49.3712 14.3533 50.3204 14.4354L51.9376 14.5877L50.6954 15.6776C49.9923 16.2869 49.4298 16.8846 49.3829 17.0487C49.3477 17.201 49.4649 18.0096 49.6641 18.8534C49.8516 19.6971 49.9805 20.3885 49.9571 20.3885C49.9337 20.3885 49.3243 20.0487 48.6212 19.6268C47.7188 19.0877 47.2266 18.8651 46.9454 18.8651C46.6641 18.8651 46.1602 19.0877 45.2462 19.6268C44.543 20.0487 43.9337 20.3885 43.9102 20.3885C43.8868 20.3885 44.0157 19.6971 44.2032 18.8534C44.4024 18.0096 44.5196 17.201 44.4845 17.0487C44.4493 16.8963 43.8634 16.2752 43.1837 15.6776L41.9532 14.5877L43.5587 14.4354C44.4845 14.3533 45.2696 14.2244 45.4102 14.1307C45.5509 14.0369 45.9141 13.3455 46.2891 12.4901C46.6407 11.6815 46.9337 11.0135 46.9454 11.0135C46.9454 11.0135 47.2384 11.6815 47.5782 12.4901Z" fill="#0BAA84"/>
<path d="M27.2464 20.1893C26.5901 20.4119 26.2971 20.576 25.7581 21.0682C24.9612 21.7948 24.8675 22.0994 24.68 24.6307C24.4925 27.0682 24.3401 27.7362 23.6136 29.1776C22.9339 30.5252 21.6096 32.0135 20.6956 32.4588C20.0745 32.7518 18.68 33.8651 17.0393 35.3534L15.7503 36.5252L15.5511 35.9627C15.4104 35.5877 15.1995 35.283 14.9182 35.0721L14.4964 34.744L8.84792 34.7088L3.21121 34.6737L2.81277 34.9432C2.59011 35.0955 2.28542 35.4002 2.1448 35.6112L1.87527 36.0096V46.4276C1.87527 58.1229 1.81667 57.3846 2.73074 57.9823L3.21121 58.2987L8.46121 58.3338C11.9534 58.3573 13.8636 58.3221 14.18 58.2401C14.8596 58.0526 15.4456 57.4901 15.6096 56.8807C15.6917 56.5994 15.8089 56.3651 15.8909 56.3651C15.9612 56.3651 16.4886 56.494 17.0393 56.658C18.6331 57.1151 19.887 57.8065 21.1292 58.9198C21.4573 59.2127 21.9964 59.576 22.3362 59.7284L22.9456 59.9979L31.594 59.9744L40.2542 59.9393L40.805 59.6698C41.5667 59.2948 42.2698 58.5682 42.6331 57.7948C42.9026 57.2205 42.9495 56.9744 42.9495 56.0604C42.9495 55.0994 42.9143 54.9237 42.5862 54.3026L42.2229 53.5994L42.5979 53.3182C43.1253 52.9198 43.6995 52.1346 43.969 51.4198C44.2971 50.5409 44.2268 49.2869 43.7932 48.4198L43.4768 47.7869L43.7932 47.5409C44.8948 46.6737 45.3753 45.7713 45.4456 44.3885C45.4925 43.4862 45.469 43.3104 45.1878 42.701C44.9885 42.2791 44.9182 41.9979 45.0003 41.9744C45.3987 41.8338 46.2659 41.0955 46.6057 40.6151C47.8948 38.7401 47.4026 36.244 45.5159 35.0018C44.555 34.369 44.1917 34.3338 37.6995 34.3338C32.0628 34.3338 31.7346 34.3221 31.7932 34.1229C32.6018 31.6151 32.8128 30.3729 32.8128 28.2401C32.8128 25.1698 32.051 22.2166 30.9964 21.1502C30.0823 20.2362 28.4065 19.8143 27.2464 20.1893ZM28.9807 22.1932C29.555 22.4393 29.8362 22.826 30.1526 23.8573C30.7151 25.6385 30.8557 26.7166 30.7854 28.7088C30.7268 30.7362 30.4456 32.0838 29.7659 33.6424C29.1096 35.1541 29.051 35.3534 29.1917 35.6932C29.426 36.3377 29.18 36.3143 36.5628 36.326C41.1682 36.326 43.5706 36.3729 43.887 36.4549C44.8596 36.7244 45.5276 37.8612 45.2581 38.7752C45.0706 39.3963 44.6956 39.8299 44.1331 40.0877C43.7229 40.2752 43.3479 40.3104 41.6839 40.3104C39.7503 40.3104 39.7151 40.3104 39.4339 40.6034C38.8831 41.1424 39.1409 42.0799 39.8675 42.2323C40.0198 42.2674 40.6175 42.3143 41.2034 42.326C42.1643 42.3612 42.305 42.3963 42.7034 42.701C43.9221 43.6268 43.6526 45.408 42.1643 46.1463C41.6721 46.3924 41.5667 46.4041 40.9221 46.2869C40.1253 46.1463 39.7385 46.2401 39.4456 46.6619C38.9768 47.3299 39.387 48.0916 40.2893 48.2088C40.9339 48.2909 41.5081 48.6307 41.8831 49.1346C42.0706 49.3807 42.1292 49.6385 42.1292 50.1541C42.1292 50.7401 42.0823 50.8924 41.7659 51.2791C41.5667 51.5252 41.18 51.8534 40.8987 51.994C40.4417 52.2401 40.2776 52.2635 39.5393 52.1932C38.7307 52.1229 38.6721 52.1346 38.3909 52.4159C38.18 52.6268 38.0862 52.8494 38.0862 53.119C38.0862 53.7166 38.4026 54.033 39.1292 54.1502C39.9612 54.2791 40.4768 54.6307 40.7932 55.2635C41.1214 55.9432 41.051 56.6698 40.6175 57.244C39.9612 58.1112 40.4182 58.0643 31.9925 58.0994C27.8323 58.1229 24.1526 58.0994 23.8128 58.0643C23.2737 57.994 23.0745 57.8885 22.1839 57.1502C21.6331 56.6932 20.7776 56.0955 20.2854 55.8143C19.4417 55.3338 17.6604 54.6893 16.3245 54.3729L15.7034 54.2323V46.8143V39.3963L16.7932 38.3651C19.3362 35.9276 20.9534 34.5799 21.844 34.1346C22.6761 33.7244 24.1995 32.1424 24.9378 30.9354C26.0862 29.0721 26.5315 27.5135 26.6604 24.8416C26.7659 22.9784 26.8831 22.6034 27.5042 22.2752C28.0315 21.994 28.4651 21.9705 28.9807 22.1932ZM13.7112 46.5213V56.3651H8.78933H3.86746V46.5213V36.6776H8.78933H13.7112V46.5213Z" fill="#050505"/>
<path d="M8.96511 38.9627C8.40261 39.5135 8.6487 40.5565 9.38699 40.7205C10.2776 40.9198 10.9573 40.0291 10.5237 39.2205C10.1956 38.5994 9.44558 38.4705 8.96511 38.9627Z" fill="#0BAA84"/>
</svg>
