<svg width="60" height="60" viewBox="0 0 60 60" fill="none" xmlns="http://www.w3.org/2000/svg">
<path d="M26.3672 1.35937C26.1445 1.45312 25.8398 1.65234 25.6875 1.79296C25.0664 2.3789 25.0781 2.13281 25.0781 9.96093V17.2266H14.332C3.76172 17.2266 3.5625 17.2383 3.04688 17.4727C2.34375 17.7891 1.89844 18.2227 1.57031 18.9258L1.28906 19.5117V34.1602V48.8086L1.57031 49.4062C1.88672 50.0977 2.625 50.7656 3.26953 50.9531C3.58594 51.0586 5.48438 51.0937 9.65625 51.0937H15.5859V52.3828V53.6602L11.4492 53.6953L7.30078 53.7305L6.86719 54.0703C6.22266 54.5625 6.09375 54.9609 6.09375 56.5664C6.09375 58.207 6.28125 58.7461 7.01953 59.1562L7.47656 59.4141H23.2148C37.9805 59.4141 38.9883 59.4023 39.3633 59.2031C40.1484 58.8047 40.2539 58.5352 40.2891 56.7187C40.3242 55.2187 40.3125 55.043 40.0781 54.6328C39.5742 53.7305 39.5977 53.7305 34.957 53.6953L30.8203 53.6602V52.3828V51.0937H36.8555C43.3945 51.0937 43.2539 51.1055 44.1211 50.4492C44.3438 50.2734 44.6719 49.8398 44.8477 49.4766L45.1758 48.8086L45.2109 36.9492L45.2461 25.0898L51.3047 25.0547C56.6953 25.0195 57.3984 24.9961 57.7148 24.8203C58.2305 24.5391 58.6992 24 58.8281 23.543C58.8984 23.2969 58.9453 19.2891 58.9453 13.0195C58.9453 2.92968 58.9453 2.88281 58.6992 2.36718C58.5469 2.0625 58.2539 1.73437 57.9727 1.54687L57.4922 1.23046L42.1406 1.20703C28.6055 1.18359 26.7305 1.19531 26.3672 1.35937ZM50.543 7.38281C50.9297 7.6875 51.0234 8.0039 50.8477 8.34375C50.543 8.91796 50.8828 8.89453 41.0977 8.90625H31.8633L31.582 8.61328C31.418 8.46093 31.2891 8.1914 31.2891 8.02734C31.2891 7.86328 31.418 7.59375 31.582 7.4414L31.8633 7.14843H41.0508C50.1094 7.14843 50.25 7.14843 50.543 7.38281ZM50.707 12.5859C51.0352 12.9727 51 13.4062 50.6016 13.7344C50.3789 13.9336 49.7578 13.9453 41.0977 13.9453H31.8281L31.5586 13.6875C31.1133 13.2773 31.2305 12.6445 31.8164 12.3164C31.9805 12.2344 34.7109 12.1992 41.2266 12.2227L50.4141 12.2461L50.707 12.5859ZM38.332 17.5547C38.6836 17.8477 38.6836 18.4336 38.332 18.7852C38.0859 19.0312 37.9805 19.043 35.1797 19.0781C33.5977 19.1016 32.168 19.0781 32.0156 19.043C31.3242 18.8672 31.0781 18.1172 31.5469 17.6133C31.793 17.3437 31.8047 17.3437 34.9336 17.3437C37.793 17.3437 38.0859 17.3672 38.332 17.5547ZM25.1016 21.4805L25.1367 23.7539L25.4648 24.1758C25.9688 24.8437 26.3672 24.9961 27.8086 25.0547L29.0625 25.1133V28.8164C29.0625 32.0273 29.0859 32.5664 29.25 32.7891C29.4844 33.1289 29.9297 33.3047 30.3047 33.2109C30.457 33.1641 32.7656 31.3242 35.4258 29.1094L40.2539 25.0781H41.7539H43.2422V34.2773V43.4766H23.2617H3.28125V31.6523V19.8398L3.57422 19.5234L3.85547 19.2187H14.4609H25.0664L25.1016 21.4805ZM25.5938 46.7812C26.0156 47.168 26.0508 47.6602 25.6641 48.0469C25.4414 48.2695 25.2773 48.2812 23.2383 48.2812C21.1523 48.2812 21.0352 48.2695 20.7773 48.0234C20.332 47.6016 20.4492 46.9805 21.0352 46.6641C21.1758 46.582 22.0547 46.5234 23.2852 46.5234C25.207 46.5234 25.3125 46.5352 25.5938 46.7812ZM28.8281 52.3828V53.6719H23.2031H17.5781V52.3828V51.0937H23.2031H28.8281V52.3828Z" fill="#F5F6F8"/>
<path d="M14.0625 21.4336C12.7969 21.8438 11.6133 22.8867 11.0391 24.1172C10.7578 24.7266 10.7227 24.9141 10.7227 26.1914C10.7227 27.5391 10.7344 27.6328 11.0977 28.3711C11.5898 29.3789 12.7148 30.4453 13.6758 30.8438C14.25 31.0664 14.5664 31.1133 15.7031 31.1133C16.9453 31.1133 17.1094 31.0898 17.7188 30.7852C19.5586 29.8828 20.625 28.1836 20.625 26.168C20.625 23.9766 19.3125 22.1484 17.25 21.457C16.3477 21.1523 14.9766 21.1406 14.0625 21.4336Z" fill="#F5F6F8"/>
<path d="M11.0398 31.4647C10.8406 31.5585 10.3015 31.8632 9.86793 32.1444C7.31324 33.7968 5.76636 36.6327 5.70777 39.7616C5.67261 41.414 4.57105 41.2499 15.6101 41.2499C21.4929 41.2499 25.0554 41.203 25.1961 41.1327C25.5711 40.9335 25.6531 40.4179 25.5359 39.1171C25.2195 35.7538 23.4148 33.035 20.5437 31.5936C19.782 31.2069 19.3367 31.2069 18.7507 31.5819C17.8836 32.1327 17.0984 32.3671 15.9968 32.4257C14.7195 32.5077 13.7586 32.285 12.7039 31.6991C11.907 31.2538 11.6257 31.2069 11.0398 31.4647Z" fill="#F5F6F8"/>
</svg>
