<svg width="60" height="60" viewBox="0 0 60 60" fill="none" xmlns="http://www.w3.org/2000/svg">
<g clip-path="url(#clip0_296_1572)">
<path d="M7.92188 0.222656C7.74609 0.339844 7.48828 0.597656 7.37109 0.773438C7.16016 1.10156 7.14844 1.53516 7.14844 12.4219C7.14844 23.3086 7.16016 23.7422 7.37109 24.0703C7.875 24.8203 7.95703 24.8438 11.2266 24.8438C12.8438 24.8438 14.1797 24.8906 14.1797 24.9375C14.1797 24.9961 14.4609 25.1016 14.8008 25.1836C16.3828 25.5352 18.1992 26.5195 19.6055 27.7852L20.2969 28.3945L22.0664 26.625L23.8477 24.8438H30H36.1523L37.9336 26.625L39.7031 28.3945L40.3945 27.7852C41.8008 26.5195 43.6172 25.5352 45.2109 25.1836C45.5391 25.1016 45.8203 24.9961 45.8203 24.9375C45.8203 24.8906 47.1562 24.8438 48.7852 24.8438C52.043 24.8438 52.125 24.8203 52.6289 24.0703C52.8398 23.7422 52.8516 23.3086 52.8516 12.4219C52.8516 1.53516 52.8398 1.10156 52.6289 0.773438C52.5117 0.597656 52.2539 0.339844 52.0781 0.222656C51.75 0.0117188 51.0938 0 30 0C8.90625 0 8.25 0.0117188 7.92188 0.222656ZM44.8594 7.53516C45.9844 8.15625 45.9844 9.89062 44.8594 10.5117C44.4961 10.7109 43.8398 10.7227 33.5156 10.7227C23.1914 10.7227 22.5352 10.7109 22.1719 10.5117C21.6445 10.2188 21.3281 9.66797 21.3281 9.02344C21.3281 8.15625 21.7852 7.59375 22.6758 7.37109C22.875 7.32422 27.8555 7.30078 33.75 7.30078C43.8281 7.32422 44.4961 7.33594 44.8594 7.53516ZM16.8398 7.61719C17.8594 8.22656 17.8125 9.9375 16.7695 10.4883C15.6211 11.0742 14.2969 10.3008 14.2969 9.04688C14.2969 8.05078 14.9531 7.38281 15.9375 7.38281C16.2539 7.38281 16.6172 7.47656 16.8398 7.61719ZM37.8281 14.5664C38.9531 15.1875 38.9531 16.9219 37.8281 17.543C37.4648 17.7422 36.8086 17.7539 26.4844 17.7539C16.1602 17.7539 15.5039 17.7422 15.1406 17.543C14.6133 17.25 14.2969 16.6992 14.2969 16.0547C14.2969 15.1875 14.7539 14.625 15.6445 14.4023C15.8438 14.3555 20.8242 14.332 26.7188 14.332C36.7969 14.3555 37.4648 14.3672 37.8281 14.5664ZM44.9648 14.6484C45.9844 15.2578 45.9375 16.9688 44.8945 17.5195C43.7461 18.1055 42.4219 17.332 42.4219 16.0781C42.4219 15.082 43.0781 14.4141 44.0625 14.4141C44.3789 14.4141 44.7422 14.5078 44.9648 14.6484Z" fill="#F5F6F8"/>
<path d="M10.4887 28.582C8.07461 29.2852 6.19961 31.207 5.57852 33.5977C5.33243 34.5117 5.33243 36.2695 5.57852 37.1836C6.18789 39.5508 8.14493 41.543 10.4887 42.1992L11.1918 42.3867L10.3949 42.5273C4.66446 43.5234 0.305082 48.2813 0.0355505 53.8359C-0.0464807 55.418 0.0824256 55.8281 0.762113 56.25C1.12539 56.4727 1.37149 56.4844 7.75821 56.4844H14.3676L14.5082 55.5469C14.6723 54.4102 15.2934 52.4883 15.891 51.3047C16.8285 49.4297 18.6098 47.1914 20.0395 46.1016C20.3559 45.8555 20.6254 45.5977 20.6254 45.5273C20.6137 45.3516 19.266 44.3789 18.2816 43.8398C17.2387 43.2891 15.6215 42.7266 14.473 42.5273L13.6527 42.3867L14.3559 42.1875C16.7348 41.5313 18.6449 39.5742 19.266 37.1836C19.5121 36.2695 19.5121 34.5117 19.266 33.5977C18.6332 31.1602 16.6527 29.1797 14.2152 28.5469C13.2543 28.3008 11.4027 28.3125 10.4887 28.582Z" fill="#F5F6F8"/>
<path d="M45.6445 28.582C43.2305 29.2852 41.3555 31.207 40.7344 33.5977C40.6289 33.9961 40.5469 34.793 40.5469 35.3906C40.5469 35.9883 40.6289 36.7852 40.7344 37.1836C41.3437 39.5508 43.3008 41.543 45.6445 42.1992L46.3477 42.3867L45.5273 42.5273C44.3789 42.7266 42.7617 43.2891 41.7187 43.8398C40.7109 44.3906 39.3867 45.3516 39.375 45.5391C39.375 45.6211 39.5156 45.7617 39.6797 45.8789C40.3242 46.2891 41.7773 47.8008 42.5859 48.8672C44.0508 50.8125 45.1875 53.4258 45.4922 55.5469L45.6328 56.4844H52.2422C58.6289 56.4844 58.875 56.4727 59.2383 56.25C59.918 55.8281 60.0469 55.418 59.9648 53.8359C59.8242 50.9414 58.7227 48.457 56.5664 46.207C54.7148 44.2852 52.2891 42.9961 49.6055 42.5273L48.8086 42.3867L49.5117 42.1875C51.8906 41.5313 53.8008 39.5742 54.4219 37.1836C54.668 36.2695 54.668 34.5117 54.4219 33.5977C53.7891 31.1602 51.8086 29.1797 49.3711 28.5469C48.4102 28.3008 46.5586 28.3125 45.6445 28.582Z" fill="#F5F6F8"/>
<path d="M28.0668 32.0977C25.6527 32.8008 23.7777 34.7227 23.1566 37.1133C23.0512 37.5117 22.9691 38.3086 22.9691 38.9063C22.9691 39.5039 23.0512 40.3008 23.1566 40.6992C23.766 43.0664 25.7231 45.0586 28.0668 45.7148L28.7699 45.9023L27.9731 46.043C22.2777 47.0391 17.977 51.7734 17.7309 57.3516C17.6488 58.9336 17.7777 59.3438 18.4574 59.7656C18.8324 60 19.0902 60 30.0004 60C40.9105 60 41.1684 60 41.5434 59.7656C42.223 59.3438 42.352 58.9336 42.2699 57.3516C42.0238 51.7734 37.723 47.0391 32.0277 46.043L31.2309 45.9023L31.934 45.7031C34.3129 45.0469 36.223 43.0898 36.8441 40.6992C37.0902 39.7852 37.0902 38.0273 36.8441 37.1133C36.5395 35.9063 35.9066 34.8281 34.9926 33.9141C34.0785 33 33.0004 32.3672 31.7934 32.0625C30.8324 31.8164 28.9809 31.8281 28.0668 32.0977Z" fill="#F5F6F8"/>
</g>
<defs>
<clipPath id="clip0_296_1572">
<rect width="60" height="60" fill="white"/>
</clipPath>
</defs>
</svg>
