<svg width="55" height="52" viewBox="0 0 55 52" fill="none" xmlns="http://www.w3.org/2000/svg">
<path d="M26.8359 0.0880804C26.625 0.193549 26.2852 0.756048 25.582 2.17402L24.6211 4.11933L22.5469 4.40058C20.1914 4.70527 19.9219 4.82245 19.9219 5.5373C19.9219 5.93574 20.0273 6.07636 21.4922 7.49433L23.0742 9.01777L22.7344 10.8342C22.2891 13.1545 22.2891 13.4357 22.6992 13.7639C22.9219 13.9279 23.1211 13.9982 23.3203 13.9514C23.4844 13.9162 24.4219 13.4592 25.4062 12.9318L27.1875 11.9826L28.9805 12.9435C29.9531 13.4709 30.8906 13.9279 31.0547 13.9631C31.2539 13.9982 31.4648 13.9279 31.6758 13.7639C32.0859 13.4357 32.0859 13.1545 31.6406 10.8342L31.3008 9.01777L32.8828 7.49433C34.3359 6.08808 34.4648 5.93574 34.4531 5.54902C34.4531 4.83417 34.2188 4.7287 32.0156 4.42402C30.9375 4.28339 29.9883 4.15449 29.9062 4.15449C29.8242 4.15449 29.3438 3.29902 28.8398 2.24433C28.3477 1.20136 27.8555 0.287299 27.7617 0.216987C27.4688 -0.0173883 27.1406 -0.0642633 26.8359 0.0880804Z" fill="#F5F6F8"/>
<path d="M6.76172 8.61927C6.65625 8.68958 6.14062 9.60364 5.63672 10.6583C4.88672 12.2052 4.65234 12.5919 4.42969 12.6388C4.28906 12.674 3.35156 12.8146 2.37891 12.9435C1.39453 13.0724 0.503906 13.213 0.410156 13.2482C0.164062 13.3536 0 13.6818 0 14.1036C0 14.42 0.222656 14.6896 1.55859 15.9904L3.12891 17.5138L2.80078 19.295C2.40234 21.4279 2.37891 21.9786 2.67188 22.2365C3.07031 22.5997 3.53906 22.4708 5.36719 21.4982C6.32812 20.9825 7.18359 20.5607 7.26562 20.5607C7.34766 20.5607 8.19141 20.9825 9.15234 21.4982C10.9922 22.4943 11.4258 22.6115 11.8359 22.2013C12.1406 21.8966 12.1289 21.6622 11.7188 19.4005L11.3672 17.4904L12.9492 15.9552C14.3086 14.631 14.5312 14.3615 14.5312 14.045C14.5312 13.6818 14.168 13.1779 13.9102 13.1779C13.6172 13.1661 9.83203 12.6154 9.79688 12.5802C9.77344 12.5568 9.35156 11.6896 8.85938 10.6583C8.36719 9.62708 7.875 8.71302 7.76953 8.63099C7.53516 8.46692 7.05469 8.45521 6.76172 8.61927Z" fill="#F5F6F8"/>
<path d="M46.6055 8.63115C46.5 8.71318 46.0078 9.62724 45.5156 10.6585C45.0234 11.6897 44.6016 12.5569 44.5898 12.5804C44.543 12.6155 40.7461 13.1663 40.4648 13.178C40.1953 13.178 39.8438 13.6819 39.8438 14.0687C39.8438 14.3968 40.043 14.6312 41.4258 15.9671L43.0078 17.4788L42.6562 19.4007C42.2461 21.6858 42.2344 21.8968 42.5391 22.2015C42.9492 22.6116 43.4062 22.4944 45.3281 21.4515L47.1328 20.4788L48.9609 21.4632C50.8594 22.471 51.3633 22.6233 51.7031 22.2249C52.0195 21.8616 52.0195 21.639 51.6797 19.7757C51.4805 18.7562 51.3281 17.8069 51.3281 17.6663C51.3281 17.5022 51.7969 16.9632 52.793 16.0257C54.2695 14.596 54.4922 14.303 54.3984 13.7991C54.3164 13.3421 53.9414 13.2132 52.0312 12.9437C51.0352 12.803 50.0977 12.6741 49.9453 12.639C49.7227 12.5921 49.4883 12.2171 48.75 10.6585C48.2109 9.52178 47.7422 8.68974 47.6016 8.61943C47.2852 8.44365 46.8516 8.45537 46.6055 8.63115Z" fill="#F5F6F8"/>
<path d="M24.316 17.7482C18.4567 18.9787 14.027 23.4436 12.8785 29.2912C12.6325 30.5334 12.6676 33.7209 12.9371 34.9748C14.1793 40.7522 18.691 45.1701 24.4567 46.2951C25.7223 46.5412 28.3942 46.5764 29.6481 46.3537C35.2731 45.3576 39.8668 41.1623 41.2496 35.7248C41.9528 32.9826 41.8473 29.9357 40.9567 27.2873C39.4215 22.7287 35.5895 19.1779 30.8434 17.9123C29.859 17.6428 29.4137 17.5959 27.5387 17.5607C25.734 17.5256 25.195 17.5607 24.316 17.7482ZM29.5895 22.4357C33.1989 23.3615 35.941 26.1506 36.8082 29.7951C37.1364 31.1662 37.0778 33.5568 36.6793 34.799C36.1403 36.4865 35.2731 37.8928 34.0309 39.0881C32.7184 40.3303 31.7457 40.9162 29.9996 41.4904C29.0856 41.7834 28.8512 41.8186 27.1871 41.8186C25.4996 41.8186 25.3004 41.7951 24.3746 41.4904C22.6168 40.9045 21.6442 40.3303 20.3434 39.0881C19.1012 37.8928 18.234 36.4865 17.695 34.799C17.2965 33.5451 17.2379 31.1662 17.566 29.76C18.8317 24.4162 24.316 21.0764 29.5895 22.4357Z" fill="#F5F6F8"/>
<path d="M25.1827 24.0179C22.921 24.5687 20.9171 26.1976 19.8507 28.3539C19.1593 29.7484 18.9484 30.8148 19.0187 32.3968C19.171 35.9242 21.339 38.725 24.7843 39.85C25.5577 40.1078 25.9562 40.1664 27.0695 40.1781C28.6398 40.1898 29.3312 40.0375 30.6788 39.4164C32.9874 38.35 34.5343 36.4633 35.1671 33.9203C35.5187 32.5492 35.4366 30.7562 34.9913 29.4086C34.1007 26.7836 31.7921 24.6273 29.1788 24.0179C28.2413 23.807 26.0851 23.807 25.1827 24.0179ZM31.6749 29.4906C32.1437 30.0414 32.0499 30.1586 28.7921 33.4164C26.1085 36.1 25.6749 36.4984 25.3585 36.4984C25.1359 36.4984 24.9132 36.4047 24.7609 36.2289C24.4093 35.8304 22.4991 32.4672 22.4991 32.2328C22.4991 31.6703 23.0851 31.2601 23.6007 31.4593C23.7882 31.5297 24.1398 32.0218 24.6671 32.9125C25.1007 33.6625 25.4874 34.2718 25.5343 34.2718C25.5695 34.2718 26.7179 33.1586 28.0656 31.7992C29.4249 30.4398 30.632 29.2914 30.7609 29.2328C31.0773 29.1039 31.4171 29.1976 31.6749 29.4906Z" fill="#F5F6F8"/>
<path d="M13.0773 45.885C12.0695 47.6428 11.2609 49.0959 11.296 49.1194C11.3195 49.1545 12.2218 49.0256 13.2999 48.8616C14.7062 48.6389 15.339 48.5803 15.5148 48.6624C15.6437 48.7209 16.2882 49.4358 16.9327 50.2444C17.5773 51.053 18.1281 51.7209 18.1632 51.7209C18.2218 51.7209 20.8585 47.1155 20.8585 47.01C20.8585 46.9631 20.3781 46.6936 19.7921 46.3889C18.3859 45.6624 17.0382 44.6897 15.9249 43.5999C15.4327 43.1077 14.9992 42.7092 14.9757 42.7092C14.9406 42.7092 14.0851 44.1389 13.0773 45.885Z" fill="#F5F6F8"/>
<path d="M39.0234 43.0256C38.2969 43.9866 36.1172 45.6272 34.4766 46.4475C33.9492 46.717 33.5156 46.9631 33.5156 47.01C33.5156 47.1624 36.1406 51.6155 36.2344 51.6155C36.2813 51.6155 36.8555 50.9592 37.5117 50.1506C38.2031 49.3069 38.8242 48.6506 38.9766 48.6155C39.1172 48.5803 40.0898 48.6858 41.1328 48.8499C42.1875 49.0256 43.0664 49.1428 43.0898 49.1077C43.1719 49.0374 39.4922 42.7092 39.375 42.7092C39.3164 42.7092 39.1641 42.8499 39.0234 43.0256Z" fill="#F5F6F8"/>
</svg>
