<svg width="46" height="60" viewBox="0 0 46 60" fill="none" xmlns="http://www.w3.org/2000/svg">
<path d="M15.1955 0.234234C14.4924 0.620953 13.9768 1.20689 12.8166 2.98814C11.1408 5.56627 10.8713 5.76548 8.0705 6.50377C5.42207 7.19517 4.62519 7.64048 4.05097 8.71861C3.80488 9.17564 3.79316 9.3397 3.79316 12.1874V15.1756L3.47675 15.8202C3.30097 16.1717 2.70332 17.0155 2.14082 17.6952C-0.671683 21.0936 -0.695121 22.0428 1.96504 25.2538C2.60957 26.0272 3.28925 26.953 3.46503 27.3045L3.79316 27.9491L3.758 30.7147C3.73457 33.0233 3.758 33.5858 3.92207 34.0545C4.39082 35.4256 5.0705 35.8592 8.04707 36.6327C8.92597 36.867 9.92207 37.1835 10.2619 37.3358C11.0588 37.7225 11.8088 38.5545 12.8752 40.2538C14.8322 43.3944 15.84 43.7694 19.0275 42.5389C22.2268 41.2967 22.7775 41.2616 24.9103 42.0702C27.9807 43.2538 28.5432 43.371 29.5627 43.078C30.4533 42.8202 31.2385 42.0233 32.3166 40.2772C33.8869 37.7577 34.4377 37.3475 37.133 36.6444C39.3478 36.0702 39.9689 35.8124 40.5783 35.2147C41.3986 34.4178 41.4924 33.9725 41.4455 30.7381L41.4103 28.0663L41.7853 27.3045C41.9963 26.8827 42.6643 25.9335 43.2736 25.1952C44.7971 23.3553 45.1603 22.6874 45.1603 21.621C45.1603 20.496 44.8439 19.8749 43.2736 17.9295C41.3283 15.5389 41.4103 15.7733 41.4103 12.1874C41.4103 9.35142 41.3986 9.17564 41.1525 8.73033C40.8361 8.14439 40.2619 7.59361 39.6408 7.28892C39.3713 7.1483 38.3518 6.83189 37.3674 6.56236C36.383 6.30455 35.3518 5.98814 35.0705 5.87095C34.2502 5.50767 33.5236 4.72252 32.3869 2.97642C30.7463 0.468609 30.1721 -0.000141144 28.7189 -0.000141144C27.8049 -0.000141144 27.7463 0.0115776 25.4143 0.92564C23.7736 1.55845 23.6799 1.58189 22.6018 1.57017C21.5119 1.57017 21.4416 1.54673 19.6135 0.820171C17.8908 0.140484 17.6564 0.0818901 16.6838 0.0350151C15.7932 -0.000141144 15.5588 0.0350151 15.1955 0.234234ZM24.7111 8.44908C26.3986 8.69517 28.6369 9.57408 30.0666 10.5702C35.5627 14.3436 37.4611 21.6795 34.4728 27.5858C32.0353 32.4139 26.6096 35.3905 21.3127 34.8163C17.3283 34.3827 13.7893 32.2733 11.5744 28.992C8.21113 23.9999 8.59785 17.5077 12.5588 12.8788C15.5236 9.41002 20.0002 7.76939 24.7111 8.44908Z" fill="#F5F6F8"/>
<path d="M21.031 14.3906L19.5192 17.4141L16.3435 17.8594C14.5974 18.1172 13.0974 18.3516 13.0153 18.3984C12.9216 18.4453 13.7067 19.3008 15.277 20.8477L17.6794 23.2148L17.1052 26.5547C16.8005 28.3828 16.5661 29.8828 16.6013 29.8828C16.6364 29.8828 17.9724 29.1914 19.5661 28.3594C21.1599 27.5156 22.531 26.8359 22.6013 26.8359C22.6833 26.8359 24.0661 27.5273 25.6716 28.3711C27.277 29.2148 28.613 29.8945 28.6247 29.8711C28.6481 29.8477 28.402 28.3359 28.0974 26.5195L27.5231 23.2148L29.9255 20.8477C31.5075 19.2891 32.281 18.4453 32.1872 18.3984C32.1052 18.3516 30.6052 18.1055 28.8591 17.8594L25.6716 17.4141L24.1716 14.3906C23.3395 12.7266 22.6364 11.3672 22.6013 11.3672C22.5661 11.3672 21.863 12.7266 21.031 14.3906Z" fill="#F5F6F8"/>
<path d="M5.44588 46.0079C3.47713 50.4376 1.88338 54.0821 1.91854 54.1173C1.9537 54.1524 3.89901 53.8712 6.24276 53.5079C8.58651 53.1329 10.5904 52.8516 10.6842 52.8751C10.7779 52.8868 12.1373 54.4102 13.6959 56.2501C16.7779 59.8829 16.942 60.0704 17.024 59.9883C17.0474 59.9649 17.8443 56.3321 18.7935 51.9141C19.731 47.4962 20.5513 43.6876 20.6099 43.4415C20.7271 42.9024 20.8678 42.8907 19.0279 43.5938C17.9849 44.004 17.5514 44.1094 16.7193 44.1563C15.7818 44.2032 15.6529 44.1915 14.9615 43.8633C13.9771 43.3946 13.1685 42.5508 12.1373 40.9102C11.0943 39.2579 10.4029 38.4727 9.73495 38.1915C9.4537 38.0626 9.18416 37.9688 9.13729 37.9688C9.09041 37.9688 7.42635 41.5899 5.44588 46.0079Z" fill="#F5F6F8"/>
<path d="M35.4213 38.1914C34.7533 38.4961 34.1908 39.1172 33.3002 40.5351C32.0111 42.6093 31.3197 43.3476 30.2416 43.8632C29.5502 44.1914 29.4213 44.2031 28.4838 44.1562C27.6518 44.1093 27.2182 44.0039 26.1752 43.5937C24.3002 42.8789 24.476 42.8672 24.6518 43.7343C25.9408 49.8164 28.1322 59.9414 28.1791 59.9882C28.2494 60.0703 28.2025 60.1172 31.5072 56.25C33.1244 54.3515 34.5189 52.8047 34.5893 52.8164C41.5736 53.9179 43.2377 54.164 43.2846 54.1172C43.39 54.0234 36.1713 37.9687 36.0307 37.9687C35.9603 37.9687 35.6908 38.0742 35.4213 38.1914Z" fill="#F5F6F8"/>
</svg>
