<svg width="300" height="300" viewBox="0 0 300 300" fill="none" xmlns="http://www.w3.org/2000/svg">
<g clip-path="url(#clip0_1719_6430)">
<path d="M300 150C300 232.842 232.842 300 150 300C67.1578 300 0 232.842 0 150C0 150.035 150 0.0169922 150 0C232.842 0 300 67.1578 300 150Z" fill="#0052B4"/>
<path d="M149.597 150.006H149.999C149.999 149.87 149.999 149.74 149.999 149.604C149.865 149.739 149.731 149.872 149.597 150.006Z" fill="#F0F0F0"/>
<path d="M150 78.2617C150 51.8682 150 34.573 150 0.000976562H149.975C67.1437 0.0144531 0 67.1658 0 150H78.2607V105.931L122.33 150H149.599C149.733 149.867 149.867 149.733 150.001 149.599C150.001 139.493 150.001 130.476 150.001 122.332L105.93 78.2617H150Z" fill="#F0F0F0"/>
<path d="M75.8905 19.5557C52.4302 32.9145 32.9267 52.418 19.5679 75.8783V149.991H58.6985V58.6869V58.6863H150.003C150.003 46.3447 150.003 34.5873 150.003 19.5557H75.8905Z" fill="#D80027"/>
<path d="M150.003 131.544L96.7101 78.2522H78.2642C78.2642 78.2516 78.2642 78.2522 78.2642 78.2522L150.002 149.99H150.003C150.003 149.99 150.003 137.273 150.003 131.544Z" fill="#D80027"/>
<path d="M90.4661 176.089L98.6985 193.303L117.289 189.006L108.964 206.175L123.913 218.03L105.3 222.226L105.352 241.306L90.4661 229.369L75.581 241.306L75.6331 222.226L57.019 218.03L71.9692 206.175L63.6431 189.006L82.2343 193.303L90.4661 176.089Z" fill="#F0F0F0"/>
<path d="M224.581 208.693L228.697 217.3L237.992 215.152L233.829 223.736L241.304 229.664L231.997 231.762L232.023 241.302L224.581 235.333L217.138 241.302L217.164 231.762L207.857 229.664L215.332 223.736L211.17 215.152L220.464 217.3L224.581 208.693Z" fill="#F0F0F0"/>
<path d="M186.289 117.389L190.405 125.996L199.7 123.847L195.538 132.431L203.013 138.359L193.706 140.457L193.731 149.997L186.289 144.028L178.847 149.997L178.872 140.457L169.565 138.359L177.04 132.431L172.878 123.847L182.173 125.996L186.289 117.389Z" fill="#F0F0F0"/>
<path d="M224.581 65.2148L228.697 73.8223L237.992 71.6736L233.83 80.2582L241.304 86.1855L231.997 88.2838L232.023 97.824L224.581 91.8551L217.138 97.824L217.164 88.2838L207.857 86.1855L215.332 80.2582L211.17 71.6736L220.464 73.8223L224.581 65.2148Z" fill="#F0F0F0"/>
<path d="M258.028 104.341L262.143 112.948L271.438 110.799L267.276 119.384L274.751 125.312L265.444 127.41L265.47 136.949L258.028 130.981L250.585 136.949L250.61 127.41L241.304 125.312L248.779 119.384L244.616 110.799L253.911 112.948L258.028 104.341Z" fill="#F0F0F0"/>
<path d="M234.115 150L237.353 159.964H247.83L239.354 166.123L242.592 176.087L234.115 169.929L225.639 176.087L228.877 166.123L220.4 159.964H230.878L234.115 150Z" fill="#F0F0F0"/>
</g>
<defs>
<clipPath id="clip0_1719_6430">
<rect width="300" height="300" fill="white"/>
</clipPath>
</defs>
</svg>
