<svg width="300" height="300" viewBox="0 0 300 300" fill="none" xmlns="http://www.w3.org/2000/svg">
<g clip-path="url(#clip0_1719_6429)">
<path d="M150 300C232.843 300 300 232.843 300 150C300 67.1573 232.843 0 150 0C67.1573 0 0 67.1573 0 150C0 232.843 67.1573 300 150 300Z" fill="#6DA544"/>
<path d="M150 58.6953L273.913 150L150 241.304L26.0872 150L150 58.6953Z" fill="#FFDA44"/>
<path d="M150 202.173C178.815 202.173 202.174 178.815 202.174 150C202.174 121.185 178.815 97.8262 150 97.8262C121.185 97.8262 97.8264 121.185 97.8264 150C97.8264 178.815 121.185 202.173 150 202.173Z" fill="#F0F0F0"/>
<path d="M123.913 146.739C114.84 146.739 106.085 148.119 97.8428 150.68C98.2078 179.18 121.413 202.174 150 202.174C167.677 202.174 183.288 193.375 192.726 179.927C176.579 159.714 151.735 146.739 123.913 146.739Z" fill="#0052B4"/>
<path d="M201.207 159.996C201.835 156.759 202.174 153.42 202.174 150C202.174 121.185 178.815 97.8262 150.001 97.8262C128.5 97.8262 110.043 110.835 102.056 129.408C109.116 127.945 116.426 127.174 123.914 127.174C154.217 127.173 181.631 139.77 201.207 159.996Z" fill="#0052B4"/>
</g>
<defs>
<clipPath id="clip0_1719_6429">
<rect width="300" height="300" fill="white"/>
</clipPath>
</defs>
</svg>
