<svg width="128" height="27" viewBox="0 0 128 27" fill="none" xmlns="http://www.w3.org/2000/svg">
<g clip-path="url(#clip0_35_1195)">
<path d="M32.2412 8.17888C33.4324 7.46418 34.7824 7.06712 36.2118 7.06712C36.9265 7.06712 37.5618 7.14653 38.1176 7.38477C38.6735 7.54359 39.15 7.86122 39.547 8.33769C39.9441 8.81416 40.2618 9.37006 40.5 10.1642C40.7382 10.9583 40.8176 11.8318 40.8176 13.023C40.8176 14.9289 40.6588 16.4377 40.3412 17.5495C40.0235 18.6612 39.6265 19.5348 39.15 20.1701C38.6735 20.8054 38.1971 21.2024 37.6412 21.3612C37.0853 21.5201 36.6088 21.5995 36.2118 21.5995C35.6559 21.5995 35.1 21.5201 34.7029 21.2818C34.3059 21.0436 33.9088 20.8848 33.75 20.5671V26.6818C33.5912 26.6818 33.5118 26.7612 33.3529 26.7612C33.1941 26.7612 33.1147 26.7612 32.9559 26.7612C32.7176 26.7612 32.4794 26.6818 32.4 26.6024C32.3206 26.523 32.2412 26.3642 32.2412 26.1259V8.17888ZM33.75 18.8201C33.9882 19.2171 34.3059 19.5348 34.7029 19.773C35.1 20.0112 35.4177 20.0906 35.8147 20.0906C36.0529 20.0906 36.45 20.0112 36.7676 19.8524C37.1647 19.6936 37.4824 19.3759 37.8794 18.8995C38.1971 18.423 38.5147 17.7083 38.7529 16.8348C38.9912 15.9612 39.15 14.6906 39.15 13.1818C39.15 12.2289 39.0706 11.4348 38.9912 10.7995C38.9118 10.1642 38.6735 9.6877 38.4353 9.29064C38.1971 8.89359 37.8794 8.65535 37.4824 8.57594C37.0853 8.41712 36.6882 8.33769 36.2118 8.33769C35.3382 8.33769 34.5441 8.57595 33.8294 9.05242V18.8201H33.75ZM32.9559 26.9995C32.7085 27.0029 32.4638 26.9485 32.2412 26.8406C32.0824 26.6818 32.0029 26.4436 32.0029 26.1259V8.02005L32.1618 7.94063C33.4324 7.14652 34.7824 6.82887 36.2912 6.82887C37.0059 6.82887 37.7206 6.90828 38.2765 7.14652C38.9118 7.38475 39.3882 7.70241 39.8647 8.17888C40.2618 8.65535 40.5794 9.29064 40.8176 10.0848C41.0559 10.8789 41.1353 11.8318 41.1353 13.023C41.1353 14.9289 40.9765 16.4377 40.6588 17.6289C40.3412 18.8201 39.9441 19.6936 39.4677 20.3289C38.9912 20.9642 38.4353 21.3612 37.8794 21.5995C37.3235 21.7583 36.7676 21.9171 36.3706 21.9171C35.7353 21.9171 35.1794 21.8377 34.7029 21.5995C34.4647 21.5201 34.3059 21.3612 34.1471 21.2818V26.9201L33.9882 26.9995C33.8294 27.0789 33.6706 27.0789 33.5118 27.0789C33.1941 26.9201 33.0353 26.9995 32.9559 26.9995ZM32.4794 8.33769V26.0465C32.4794 26.2848 32.5588 26.3642 32.5588 26.3642C32.5588 26.3642 32.6382 26.4436 32.9559 26.4436C33.0353 26.4436 33.1941 26.4436 33.3529 26.4436C33.4324 26.4436 33.4324 26.4436 33.5118 26.4436V19.773L33.9882 20.4083C34.147 20.6465 34.4647 20.8053 34.8618 21.0436C35.2588 21.2024 35.7353 21.3612 36.2912 21.3612C36.6882 21.3612 37.1647 21.2818 37.6412 21.123C38.1176 20.9642 38.5941 20.5671 38.9912 20.0112C39.4677 19.4554 39.7853 18.5818 40.1029 17.47C40.4206 16.3583 40.5794 14.8495 40.5794 13.023C40.5794 11.9112 40.5 11.0377 40.2618 10.2436C40.0235 9.52889 39.7853 8.973 39.3882 8.57594C38.9912 8.17888 38.5941 7.86123 38.0382 7.70241C37.4823 7.54358 36.9265 7.46418 36.2118 7.46418C34.8618 7.30536 33.5912 7.7024 32.4794 8.33769ZM35.8147 20.4083C35.4177 20.4083 34.9412 20.2495 34.5441 20.0906C34.1471 19.8524 33.75 19.5348 33.5118 19.0583V8.973L33.5912 8.89359C34.3059 8.41711 35.1794 8.17888 36.1324 8.17888C36.6882 8.17888 37.1647 8.25829 37.5618 8.41711C37.9588 8.57593 38.3559 8.89359 38.5941 9.29064C38.8324 9.6877 39.0706 10.2436 39.2294 10.8789C39.3882 11.5142 39.4677 12.3083 39.4677 13.3406C39.4677 14.9289 39.3088 16.1995 39.0706 17.073C38.8324 18.0259 38.5147 18.7406 38.1176 19.2171C37.7206 19.6936 37.3235 20.0906 36.9265 20.2495C36.45 20.3289 36.1324 20.4083 35.8147 20.4083ZM33.9882 18.7406C34.2265 19.0583 34.4647 19.3759 34.7823 19.5348C35.1 19.6936 35.4177 19.8524 35.8147 19.8524C36.0529 19.8524 36.3706 19.773 36.6882 19.6936C37.0059 19.5348 37.3235 19.2965 37.6412 18.8995C37.9588 18.423 38.2765 17.7877 38.4353 16.9142C38.6735 16.0406 38.7529 14.8495 38.7529 13.2612C38.7529 12.3083 38.6735 11.5142 38.5941 10.9583C38.5147 10.323 38.3559 9.84652 38.1176 9.52887C37.8794 9.21122 37.6412 8.973 37.3235 8.89359C37.0059 8.73476 36.6088 8.73475 36.1324 8.73475C35.3382 8.73475 34.6235 8.89359 33.9882 9.29064V18.7406ZM42.3265 8.33769C42.3265 8.09946 42.4059 7.86124 42.5647 7.78183C42.8824 7.623 43.3588 7.46417 44.1529 7.30535C44.9471 7.14653 45.9 7.06712 46.8529 7.06712C47.9647 7.06712 48.7588 7.30535 49.3147 7.78183C49.8706 8.2583 50.1088 9.13181 50.1088 10.4024V12.0701C50.1088 13.6583 50.1088 15.1671 50.0294 16.6759C50.0294 18.1053 49.95 19.3759 49.95 20.4877C49.6323 20.7259 49.1559 20.8848 48.6 21.123C47.9647 21.3612 47.1706 21.4406 46.2177 21.4406C45.7412 21.4406 45.2647 21.4407 44.7088 21.3612C44.2323 21.2818 43.8353 21.123 43.4382 20.8053C43.0412 20.5671 42.8029 20.0906 42.5647 19.5348C42.3265 18.9789 42.2471 18.2642 42.2471 17.3112C42.2471 16.3583 42.3265 15.5642 42.5647 14.9289C42.8029 14.373 43.1206 13.8965 43.5176 13.5789C43.9147 13.2612 44.3118 13.023 44.8676 12.9436C45.3441 12.8642 45.9 12.7848 46.3765 12.7848C46.7735 12.7848 47.1706 12.7848 47.5676 12.8642C47.9647 12.9436 48.3618 13.023 48.6794 13.1024V10.6407C48.6794 10.1642 48.6 9.84652 48.5206 9.52887C48.4412 9.21122 48.2824 9.0524 48.0441 8.81417C47.8853 8.65534 47.6471 8.57594 47.3294 8.49653C47.0912 8.41711 46.7735 8.41711 46.4559 8.41711C45.0996 8.40867 43.7535 8.65097 42.4853 9.13181C42.4059 8.97299 42.3265 8.65534 42.3265 8.33769ZM48.7588 14.2936C48.5206 14.2142 48.2029 14.1348 47.8853 14.0553C47.5676 13.9759 47.25 13.9759 47.0118 13.9759C46.6147 13.9759 46.2176 13.9759 45.9 14.0553C45.5029 14.1348 45.1853 14.2936 44.9471 14.4524C44.7088 14.6906 44.4706 15.0083 44.3118 15.4054C44.1529 15.8024 44.0735 16.4377 44.0735 17.1524C44.0735 17.7877 44.1529 18.3436 44.3118 18.7406C44.4706 19.1377 44.6294 19.3759 44.8676 19.6142C45.1059 19.773 45.4235 19.9318 45.7412 20.0112C46.0588 20.0906 46.3765 20.0906 46.7735 20.0906C47.25 20.0906 47.6471 20.0112 48.0441 19.9318C48.4412 19.773 48.6794 19.6936 48.8382 19.5348C48.8382 19.2171 48.8382 18.8995 48.9177 18.5024C48.9177 18.1054 48.9177 17.6289 48.9971 17.1524C48.9971 16.6759 48.9971 16.1995 48.9971 15.723C48.7588 15.2465 48.7588 14.77 48.7588 14.2936ZM46.2971 21.7583C45.8206 21.7583 45.2647 21.7583 44.7882 21.6789C44.2323 21.5995 43.7559 21.4406 43.3588 21.123C42.9618 20.8053 42.6441 20.3289 42.4059 19.773C42.1676 19.2171 42.0088 18.423 42.0088 17.3907C42.0088 16.3583 42.1676 15.5642 42.4059 14.9289C42.5941 14.38 42.9187 13.8879 43.3494 13.4989C43.78 13.11 44.3025 12.8369 44.8676 12.7053C45.4235 12.6259 45.9 12.5465 46.4559 12.5465C46.8529 12.5465 47.25 12.5465 47.6471 12.6259C47.9647 12.6259 48.2029 12.7053 48.4412 12.7848V10.72C48.4412 10.323 48.3618 10.0053 48.2823 9.6877C48.2029 9.44947 48.0441 9.29063 47.8853 9.13181C47.8157 9.05388 47.7298 8.99216 47.6338 8.951C47.5378 8.90983 47.4339 8.89024 47.3294 8.89359C47.0912 8.81417 46.7735 8.81417 46.4559 8.81417C45.5824 8.81417 44.7882 8.89359 44.1529 9.05242C43.4382 9.21124 42.9618 9.37005 42.5647 9.52887L42.3265 9.60829L42.2471 9.37006C42.0882 9.05241 42.0088 8.73475 42.0088 8.33769C42.0088 8.02005 42.0882 7.7024 42.3265 7.54357C42.6441 7.38475 43.2 7.22594 44.0735 6.98771C44.8676 6.82888 45.8206 6.74946 46.8529 6.74946C48.0441 6.74946 48.9176 6.98769 49.5529 7.54357C50.1882 8.09946 50.5059 9.0524 50.5059 10.4024V12.0701C50.5059 13.6583 50.5059 15.1671 50.4265 16.6759C50.4265 18.1053 50.3471 19.3759 50.3471 20.4877V20.6465L50.2676 20.7259C49.95 20.9642 49.4735 21.2024 48.8382 21.4406C48.2029 21.6789 47.3294 21.7583 46.2971 21.7583ZM46.4559 13.1024C45.9794 13.1024 45.5029 13.1818 44.9471 13.2612C44.4706 13.3406 44.0735 13.5789 43.7559 13.8171C43.4382 14.1348 43.1206 14.5318 42.8824 15.0877C42.6441 15.6436 42.5647 16.4377 42.5647 17.3112C42.5647 18.1848 42.6441 18.8995 42.8824 19.4553C43.1206 19.9318 43.3588 20.3289 43.6765 20.5671C43.9941 20.8054 44.3912 20.9642 44.8676 21.0436C45.3441 21.123 45.8206 21.123 46.2971 21.123C47.5227 21.1853 48.7391 20.8812 49.7912 20.2495C49.7912 19.2171 49.8706 17.9465 49.8706 16.5965C49.8706 15.1671 49.95 13.5789 49.95 11.9906V10.323C49.95 9.13181 49.7118 8.33769 49.2353 7.94063C48.7588 7.46416 47.9647 7.30535 46.9324 7.30535C45.9 7.30535 45.0265 7.38475 44.2324 7.54357C43.2794 7.7024 42.8823 7.86123 42.7235 8.02005C42.6441 8.09946 42.6441 8.17887 42.6441 8.33769C42.6441 8.49652 42.6441 8.73476 42.7235 8.89359C43.1206 8.73476 43.5177 8.65535 44.1529 8.49653C44.8677 8.3377 45.6618 8.2583 46.6147 8.2583C46.9324 8.2583 47.25 8.25828 47.5676 8.33769C47.8853 8.4171 48.1235 8.49652 48.3618 8.73475C48.6 8.89357 48.7588 9.21122 48.9177 9.52887C48.9971 9.84652 49.0765 10.2436 49.0765 10.72V13.5789L48.6794 13.4201C48.3618 13.2612 48.0441 13.1818 47.6471 13.1818C47.1706 13.1024 46.8529 13.1024 46.4559 13.1024ZM46.5353 20.4083C46.1382 20.4083 45.8206 20.4083 45.5029 20.3289C45.1059 20.2495 44.7882 20.1701 44.55 19.9318C44.3118 19.6936 44.0735 19.3759 43.9147 18.9789C43.7559 18.5818 43.6765 18.0259 43.6765 17.3112C43.6765 16.5171 43.7559 15.8818 43.9147 15.4848C44.0735 15.0083 44.3118 14.6112 44.6294 14.373C44.9471 14.1348 45.3441 13.9759 45.7412 13.8965C46.1382 13.8171 46.5353 13.8171 46.9324 13.8171C47.1706 13.8171 47.4882 13.8171 47.8853 13.8965C48.2823 13.9759 48.6 14.0554 48.8382 14.1348L48.9971 14.2142V14.2936C48.9971 14.6906 48.9971 15.1671 48.9971 15.723V17.1524C48.9971 17.6289 48.9971 18.1054 48.9177 18.5024C48.9177 18.8995 48.9176 19.2965 48.8382 19.5348V19.6142L48.7588 19.6936C48.6 19.8524 48.2823 20.0112 47.8853 20.1701C47.4882 20.4083 47.0118 20.4083 46.5353 20.4083ZM46.9324 14.2936C46.5353 14.2936 46.2177 14.2936 45.8206 14.373C45.503 14.4524 45.1853 14.5318 44.9471 14.7701C44.7088 14.9289 44.55 15.2465 44.3912 15.6436C44.2323 16.0406 44.1529 16.5965 44.1529 17.3112C44.1529 17.9465 44.2323 18.423 44.3118 18.8201C44.4706 19.1377 44.6294 19.3759 44.7882 19.5348C45.0265 19.6936 45.2647 19.773 45.5029 19.8524C45.8206 19.9318 46.1382 19.9318 46.4559 19.9318C46.8529 19.9318 47.25 19.8524 47.6471 19.773C47.9647 19.6936 48.2029 19.5348 48.2823 19.4553C48.2823 19.2171 48.2824 18.8995 48.3618 18.5024C48.3618 18.1054 48.3618 17.6289 48.4412 17.1524V15.723C48.4412 15.3259 48.4412 14.8495 48.4412 14.5318C48.2029 14.4524 48.0441 14.4524 47.8059 14.373C47.4882 14.2936 47.1706 14.2936 46.9324 14.2936ZM52.7294 8.02005C53.3647 7.78182 54.0794 7.54358 54.8735 7.30535C55.6677 7.14653 56.4618 6.98771 57.2559 6.98771C57.9706 6.98771 58.6059 7.06711 59.0824 7.22593C59.5588 7.38476 59.9559 7.62299 60.2735 7.94063C60.5912 8.25828 60.75 8.65534 60.9088 9.13181C60.9882 9.60828 61.0676 10.1642 61.0676 10.7995V20.8053C61.0676 20.8848 61.0676 20.9642 61.0676 21.0436C61.0676 21.123 60.9882 21.123 60.9088 21.123C60.8294 21.123 60.6706 21.2024 60.4324 21.2024C60.1941 21.2024 59.9559 21.2024 59.5588 21.2024V11.2759C59.5588 10.7995 59.5588 10.323 59.4794 10.0053C59.4 9.60829 59.3206 9.37005 59.1618 9.13181C59.0029 8.89357 58.7647 8.73477 58.4471 8.65536C58.1294 8.57595 57.7324 8.49653 57.2559 8.49653C56.8588 8.49653 56.3823 8.57595 55.8265 8.65536C55.2706 8.73477 54.7941 8.89357 54.3176 9.13181V20.9642C54.3176 21.0436 54.3176 21.123 54.3176 21.2024C54.3176 21.2818 54.2382 21.2818 54.1588 21.2818C54.0794 21.2818 53.9206 21.3612 53.6824 21.3612C53.4441 21.3612 53.2059 21.3612 52.8088 21.3612V8.02005H52.7294ZM60.4324 21.5201H59.2412V11.2759C59.2412 10.7995 59.2412 10.4024 59.1618 10.0053C59.1047 9.72364 58.997 9.4546 58.8441 9.21123C58.6853 9.0524 58.5265 8.89358 58.2882 8.81417C57.8118 8.65534 57.0176 8.57593 55.8265 8.81417C55.35 8.89358 54.953 9.0524 54.5559 9.21123V20.8053C54.5559 20.9642 54.5559 21.0436 54.4765 21.123C54.3971 21.2818 54.1588 21.3612 54.0794 21.3612C53.9206 21.3612 53.7618 21.4406 53.5235 21.4406H52.4118V7.86124L52.5706 7.78183C53.2059 7.46418 54 7.22595 54.7941 7.06712C55.5882 6.9083 56.3824 6.74946 57.1765 6.74946C57.9706 6.74946 58.6059 6.82888 59.0824 6.98771C59.6382 7.14653 60.0353 7.38477 60.3529 7.78183C60.6706 8.09947 60.9088 8.57593 61.0676 9.13181C61.1471 9.60828 61.2265 10.2436 61.2265 10.8789V20.8848C61.2265 21.0436 61.2265 21.123 61.1471 21.2024C61.0677 21.3612 60.8294 21.4406 60.75 21.4406C60.8294 21.4406 60.5912 21.5201 60.4324 21.5201ZM59.7971 20.9642H60.4324C60.6706 20.9642 60.75 20.9642 60.8294 20.9642C60.8294 20.9642 60.8294 20.9642 60.8294 20.8848V10.8789C60.8294 10.2436 60.75 9.6877 60.6706 9.21123C60.5912 8.81417 60.353 8.41712 60.1147 8.17888C59.8765 7.86124 59.4794 7.7024 59.0824 7.54357C58.6059 7.38475 58.05 7.30535 57.3353 7.30535C56.6206 7.30535 55.8265 7.38475 55.0323 7.54357C54.3176 7.7024 53.6824 7.94065 53.1265 8.17888V20.8848H53.6824C53.9206 20.8848 54 20.8848 54.0794 20.8848C54.0794 20.8848 54.0794 20.8848 54.0794 20.8053V8.89359L54.2382 8.81417C54.7147 8.57593 55.1912 8.4171 55.7471 8.33769C56.303 8.25828 56.7794 8.17888 57.2559 8.17888C57.8118 8.17888 58.2088 8.25828 58.5265 8.33769C58.8441 8.49652 59.1618 8.65535 59.3206 8.973C59.4794 9.21124 59.6382 9.60829 59.7177 10.0053C59.7971 10.4024 59.7971 10.7995 59.7971 11.3554V20.9642ZM70.1206 1.58769C70.1206 1.19063 70.2 1.03182 70.4382 0.952408C70.6765 0.872996 71.0735 0.793575 71.6294 0.793575V20.6465C71.1529 20.8848 70.5971 21.123 69.9618 21.2818C69.3265 21.4406 68.5324 21.5201 67.7382 21.5201C67.1029 21.5201 66.5471 21.4406 65.9912 21.2818C65.4353 21.123 64.9588 20.8053 64.5618 20.3289C64.1647 19.8524 63.8471 19.1377 63.6088 18.2642C63.3706 17.3906 63.2118 16.1201 63.2118 14.6112C63.2118 13.2612 63.3706 12.1495 63.6088 11.1965C63.8471 10.2436 64.1647 9.44946 64.5618 8.81417C64.9588 8.17887 65.4353 7.78183 66.0706 7.46418C66.7127 7.12716 67.4319 6.96447 68.1565 6.99234C68.8811 7.02021 69.5857 7.23765 70.2 7.62299V1.58769H70.1206ZM70.1206 8.973C69.8824 8.73477 69.5647 8.65535 69.3265 8.57594C69.0882 8.49653 68.6912 8.41711 68.2941 8.41711C67.8177 8.41711 67.4206 8.49652 67.0235 8.73475C66.6265 8.97299 66.2294 9.29065 65.9118 9.76712C65.5941 10.2436 65.3559 10.8789 65.1971 11.673C65.0382 12.4671 64.9588 13.4201 64.9588 14.5318C64.9588 15.723 65.0382 16.7553 65.1971 17.47C65.3559 18.1848 65.5147 18.7406 65.8324 19.1377C66.0706 19.5348 66.3882 19.773 66.7853 19.9318C67.1824 20.0906 67.5794 20.0906 67.9765 20.0906C68.3735 20.0906 68.7706 20.0112 69.1677 19.9318C69.5647 19.8524 69.8824 19.6936 70.2 19.5348L70.1206 8.973ZM67.7382 21.7583C67.1029 21.7583 66.4677 21.6789 65.9118 21.5201C65.2765 21.3612 64.8 21.0436 64.3235 20.4877C63.9265 20.0112 63.5294 19.2965 63.2912 18.3436C63.053 17.3906 62.8941 16.1995 62.8941 14.6112C62.8941 13.2612 63.053 12.07 63.2912 11.1171C63.5294 10.1642 63.8471 9.29065 64.3235 8.65536C64.705 8.07555 65.2233 7.59844 65.8326 7.26609C66.4419 6.93373 67.1236 6.7563 67.8176 6.74946C68.6118 6.74946 69.2471 6.90828 69.8029 7.14652V1.58769C69.8029 0.952398 70.0412 0.714182 70.2794 0.714182C70.5177 0.63477 70.9147 0.634766 71.6294 0.634766H71.8677V20.8848L71.7088 20.9642C71.2324 21.2024 70.6765 21.4406 69.9618 21.5995C69.3265 21.6789 68.6118 21.7583 67.7382 21.7583ZM67.8176 7.30535C67.2618 7.30535 66.7059 7.46417 66.15 7.70241C65.5941 7.94064 65.1971 8.41712 64.8 8.973C64.403 9.52888 64.0853 10.323 63.8471 11.2759C63.6088 12.2289 63.5294 13.3406 63.5294 14.6906C63.5294 16.1995 63.6088 17.3906 63.8471 18.2642C64.0853 19.1377 64.403 19.773 64.8 20.2495C65.1971 20.6465 65.5941 20.9642 66.0706 21.0436C66.6265 21.2024 67.1824 21.2818 67.7382 21.2818C68.5324 21.2818 69.2471 21.2024 69.9618 21.0436C70.5177 20.8848 70.9941 20.7259 71.4706 20.5671V1.11124C70.9147 1.11124 70.6765 1.19063 70.5971 1.19063C70.5176 1.19063 70.4382 1.42887 70.4382 1.58769V8.17888L69.9618 7.94063C69.4059 7.54357 68.6912 7.30535 67.8176 7.30535ZM67.8971 20.4083C67.4206 20.4083 67.0235 20.3289 66.6265 20.2495C66.2294 20.0906 65.8324 19.8524 65.5147 19.3759C65.1971 18.9789 65.0382 18.3436 64.8794 17.5495C64.7206 16.8348 64.6412 15.8024 64.6412 14.5318C64.6412 13.4201 64.7206 12.3877 64.9588 11.5936C65.1176 10.7995 65.4353 10.1642 65.7529 9.60829C66.0706 9.0524 66.4677 8.73476 66.9441 8.49653C67.4206 8.25829 67.8971 8.17888 68.3735 8.17888C68.85 8.17888 69.1677 8.25828 69.4853 8.33769C69.8029 8.4171 70.0412 8.57593 70.3588 8.81417L70.4382 8.89359V19.773L70.2794 19.8524C69.9618 20.0906 69.5647 20.2495 69.1677 20.3289C68.7706 20.3289 68.2941 20.4083 67.8971 20.4083ZM68.2941 8.73475C67.8971 8.73475 67.5 8.81418 67.1029 9.05242C66.7059 9.21124 66.3882 9.52887 66.15 10.0053C65.8323 10.4818 65.5941 11.0377 65.4353 11.8318C65.2765 12.5465 65.1971 13.4995 65.1971 14.6112C65.1971 15.8024 65.2765 16.7553 65.4353 17.47C65.5941 18.1848 65.753 18.7406 65.9912 19.0583C66.2294 19.3759 66.4677 19.6142 66.7853 19.6936C67.103 19.773 67.5 19.8524 67.8971 19.8524C68.2941 19.8524 68.6912 19.773 69.0882 19.773C69.4059 19.6936 69.6441 19.6142 69.9618 19.4553V9.13181C69.7671 8.99478 69.5529 8.88771 69.3265 8.81417C69.0088 8.73476 68.6912 8.73475 68.2941 8.73475ZM73.9324 8.33769C73.9324 8.09946 74.0118 7.86124 74.1706 7.78183C74.4088 7.623 74.9647 7.46417 75.7588 7.30535C76.5529 7.14653 77.5059 7.06712 78.4588 7.06712C79.5706 7.06712 80.3647 7.30535 80.9206 7.78183C81.4765 8.2583 81.7147 9.13181 81.7147 10.4024V12.0701C81.7147 13.6583 81.7147 15.1671 81.6353 16.6759C81.6353 18.1053 81.5559 19.3759 81.5559 20.4877C81.2382 20.7259 80.7618 20.8848 80.2059 21.123C79.5706 21.3612 78.7765 21.4406 77.8235 21.4406C77.3471 21.4406 76.8706 21.4407 76.3147 21.3612C75.8382 21.2818 75.4412 21.123 75.0441 20.8053C74.6471 20.5671 74.4088 20.0906 74.1706 19.5348C73.9324 18.9789 73.8529 18.2642 73.8529 17.3112C73.8529 16.3583 73.9324 15.5642 74.1706 14.9289C74.4088 14.373 74.7265 13.8965 75.1235 13.5789C75.5206 13.2612 75.9177 13.023 76.4735 12.9436C76.95 12.8642 77.5059 12.7848 77.9824 12.7848C78.3794 12.7848 78.7765 12.7848 79.1735 12.8642C79.5706 12.9436 79.9677 13.023 80.2853 13.1024V10.6407C80.2853 10.1642 80.2059 9.84652 80.1265 9.52887C80.0471 9.21122 79.8882 9.0524 79.65 8.81417C79.4912 8.65534 79.2529 8.57594 78.9353 8.49653C78.6971 8.41711 78.3794 8.41711 78.0618 8.41711C76.7055 8.40867 75.3594 8.65097 74.0912 9.13181C74.0118 8.97299 73.9324 8.65534 73.9324 8.33769ZM80.3647 14.2936C80.1265 14.2142 79.8088 14.1348 79.4912 14.0553C79.1735 13.9759 78.8559 13.9759 78.6177 13.9759C78.2206 13.9759 77.8235 13.9759 77.5059 14.0553C77.1088 14.1348 76.7912 14.2936 76.5529 14.4524C76.3147 14.6112 76.0765 15.0083 75.9177 15.4054C75.7588 15.8024 75.6794 16.4377 75.6794 17.1524C75.6794 17.7877 75.7588 18.3436 75.9177 18.7406C76.0765 19.1377 76.2353 19.3759 76.4735 19.6142C76.7118 19.773 77.0294 19.9318 77.3471 20.0112C77.6647 20.0906 77.9824 20.0906 78.3794 20.0906C78.8559 20.0906 79.253 20.0112 79.65 19.9318C80.0471 19.773 80.2853 19.6936 80.4441 19.5348C80.4441 19.2171 80.4441 18.8995 80.5235 18.5024C80.5235 18.1054 80.5235 17.6289 80.603 17.1524C80.603 16.6759 80.603 16.1995 80.603 15.723C80.3647 15.2465 80.3647 14.77 80.3647 14.2936ZM77.9824 21.7583C77.5059 21.7583 76.95 21.7583 76.4735 21.6789C75.9177 21.5995 75.4412 21.4406 75.0441 21.123C74.6471 20.8053 74.3294 20.3289 74.0912 19.773C73.853 19.2171 73.6941 18.423 73.6941 17.3907C73.6941 16.3583 73.853 15.5642 74.0912 14.9289C74.2794 14.38 74.6041 13.8879 75.0347 13.4989C75.4653 13.11 75.9878 12.8369 76.5529 12.7053C77.0294 12.6259 77.5853 12.5465 78.1412 12.5465C78.5382 12.5465 78.9353 12.5465 79.3324 12.6259C79.65 12.6259 79.8882 12.7053 80.1265 12.7848V10.72C80.1265 10.323 80.0471 10.0053 79.9677 9.6877C79.8882 9.44947 79.7294 9.29063 79.5706 9.13181C79.501 9.05388 79.4151 8.99216 79.3191 8.951C79.2231 8.90983 79.1192 8.89024 79.0147 8.89359C78.7765 8.81417 78.4588 8.81417 78.1412 8.81417C77.2677 8.81417 76.4735 8.89359 75.8382 9.05242C75.1235 9.21124 74.6471 9.37005 74.25 9.52887L74.0118 9.60829L73.9324 9.37006C73.7735 9.05241 73.6941 8.73475 73.6941 8.33769C73.6941 8.02005 73.7735 7.7024 74.0118 7.54357C74.3294 7.38475 74.8853 7.22594 75.7588 6.98771C76.5529 6.82888 77.5059 6.74946 78.5382 6.74946C79.7294 6.74946 80.603 6.98769 81.2382 7.54357C81.8735 8.09946 82.1912 9.0524 82.1912 10.4024V12.0701C82.1912 13.6583 82.1912 15.1671 82.1118 16.6759C82.1118 18.1053 82.0324 19.3759 82.0324 20.4877V20.6465L81.9529 20.7259C81.6353 20.9642 81.1588 21.2024 80.5235 21.4406C79.8088 21.6789 78.9353 21.7583 77.9824 21.7583ZM78.1412 13.1024C77.6647 13.1024 77.1088 13.1818 76.6324 13.2612C76.1559 13.3406 75.7588 13.5789 75.4412 13.8171C75.0698 14.1795 74.773 14.6112 74.5676 15.0877C74.3294 15.6436 74.25 16.4377 74.25 17.3112C74.25 18.1848 74.3294 18.8995 74.5676 19.4553C74.8059 19.9318 75.0441 20.3289 75.3618 20.5671C75.6794 20.8054 76.0765 20.9642 76.5529 21.0436C77.0294 21.123 77.5059 21.123 77.9824 21.123C79.208 21.1853 80.4244 20.8812 81.4765 20.2495C81.4765 19.2171 81.5559 17.9465 81.5559 16.5965C81.5559 15.1671 81.6353 13.5789 81.6353 11.9906V10.323C81.6353 9.13181 81.3971 8.33769 80.9206 7.94063C80.4441 7.46416 79.65 7.30535 78.6177 7.30535C77.5853 7.30535 76.7118 7.38475 75.9177 7.54357C74.9647 7.7024 74.5676 7.86123 74.4088 8.02005C74.3294 8.09946 74.3294 8.17887 74.3294 8.33769C74.3294 8.49652 74.3294 8.73476 74.4088 8.89359C74.8059 8.73476 75.2029 8.65535 75.8382 8.49653C76.5529 8.3377 77.3471 8.2583 78.3 8.2583C78.6177 8.2583 78.9353 8.25828 79.253 8.33769C79.5706 8.4171 79.8088 8.49652 80.0471 8.73475C80.2853 8.89357 80.4441 9.21122 80.603 9.52887C80.6824 9.84652 80.7618 10.2436 80.7618 10.72V13.5789L80.3647 13.4201C80.0471 13.2612 79.7294 13.1818 79.3324 13.1818C78.8559 13.1024 78.4588 13.1024 78.1412 13.1024ZM78.2206 20.4083C77.8235 20.4083 77.5059 20.4083 77.1882 20.3289C76.7912 20.2495 76.4735 20.1701 76.2353 19.9318C75.9971 19.6936 75.7588 19.3759 75.6 18.9789C75.4412 18.5818 75.3618 18.0259 75.3618 17.3112C75.3618 16.5171 75.4412 15.8818 75.6 15.4848C75.7588 15.0083 75.9971 14.6112 76.3147 14.373C76.6324 14.1348 77.0294 13.9759 77.4265 13.8965C77.8235 13.8171 78.2206 13.8171 78.6177 13.8171C78.8559 13.8171 79.1735 13.8171 79.5706 13.8965C79.9677 13.9759 80.2853 14.0554 80.5235 14.1348L80.6824 14.2142V14.2936C80.6824 14.6906 80.6824 15.1671 80.6824 15.723V17.1524C80.6824 17.6289 80.6824 18.1054 80.603 18.5024C80.603 18.8995 80.6029 19.2965 80.5235 19.5348V19.6142L80.4441 19.6936C80.2853 19.8524 79.9677 20.0112 79.5706 20.1701C79.0941 20.4083 78.6971 20.4083 78.2206 20.4083ZM78.5382 14.2936C78.1412 14.2936 77.8235 14.2936 77.4265 14.373C77.1088 14.4524 76.7912 14.5318 76.5529 14.7701C76.3147 14.9289 76.1559 15.2465 75.9971 15.6436C75.8382 16.0406 75.7588 16.5965 75.7588 17.3112C75.7588 17.9465 75.8382 18.423 75.9177 18.8201C76.0765 19.1377 76.2353 19.3759 76.3941 19.5348C76.6324 19.6936 76.8706 19.773 77.1088 19.8524C77.4265 19.9318 77.7441 19.9318 78.0618 19.9318C78.4588 19.9318 78.8559 19.8524 79.253 19.773C79.5706 19.6936 79.8088 19.5348 79.8882 19.4553C79.8882 19.2171 79.8882 18.8995 79.9677 18.5024C79.9677 18.1054 79.9677 17.6289 80.0471 17.1524V15.723C80.0471 15.3259 80.0471 14.8495 80.0471 14.5318C79.8088 14.4524 79.65 14.4524 79.4118 14.373C79.0941 14.2936 78.8559 14.2936 78.5382 14.2936Z" fill="#393939"/>
<path d="M88.5441 7.06721C89.1794 7.06721 89.7353 7.14661 90.2117 7.22602C90.6882 7.30543 91.0058 7.46425 91.3235 7.62308C91.5617 7.7819 91.8 7.94073 91.9588 8.09955C92.1176 8.25838 92.1176 8.4172 92.1176 8.49661C92.1176 8.73485 91.9588 9.0525 91.7205 9.37015C90.8405 8.74194 89.7841 8.40836 88.7029 8.4172C87.8294 8.4172 87.1147 8.57602 86.6382 8.89367C86.0823 9.21132 85.8441 9.60839 85.8441 10.2437C85.8441 10.5613 85.9235 10.879 86.0823 11.1966C86.2411 11.5143 86.6382 11.8319 87.1941 12.229L90.2117 14.3731C90.847 14.929 91.3235 15.4054 91.6411 15.9613C91.9588 16.5172 92.1176 17.0731 92.1176 17.7878C92.1176 18.979 91.7205 19.9319 90.9264 20.5672C90.1323 21.2025 89.0205 21.5201 87.5911 21.5201C86.4794 21.5201 85.6853 21.4407 85.05 21.2025C84.4147 20.9643 84.097 20.726 84.097 20.329C84.097 19.9319 84.1764 19.6937 84.4147 19.376C84.8117 19.6143 85.2882 19.8525 85.7647 19.9319C86.2411 20.0113 86.797 20.0907 87.4323 20.0907C88.3853 20.0907 89.1 19.9319 89.6558 19.6143C90.2117 19.2966 90.45 18.7407 90.45 18.026C90.45 17.4701 90.2911 16.9937 90.0529 16.5966C89.8147 16.1996 89.4176 15.7231 88.8617 15.326L85.9235 13.1819C85.1294 12.626 84.6529 12.1496 84.4147 11.6731C84.1764 11.1966 84.097 10.7202 84.097 10.2437C84.097 9.29074 84.4941 8.4966 85.2882 7.94072C86.0029 7.38484 87.1147 7.06721 88.5441 7.06721ZM87.4323 21.7584C86.3205 21.7584 85.447 21.5996 84.8117 21.3613C84.097 21.1231 83.7 20.726 83.7 20.2495C83.7 19.8525 83.8588 19.4554 84.097 19.1378L84.2558 18.979L84.4941 19.1378C84.8911 19.376 85.2882 19.5349 85.7647 19.6937C86.2411 19.7731 86.797 19.8525 87.3529 19.8525C88.2264 19.8525 88.9411 19.6937 89.4176 19.376C89.8941 19.0584 90.1323 18.6613 90.1323 17.9466C90.1323 17.4701 90.0529 16.9937 89.8147 16.676C89.5764 16.279 89.1794 15.8819 88.7029 15.4848L85.7647 13.3407C84.9705 12.7849 84.4147 12.3084 84.1764 11.7525C83.9382 11.276 83.7794 10.7201 83.7794 10.1643C83.7794 9.13191 84.2558 8.25837 85.1294 7.62308C86.0029 7.0672 87.1147 6.74954 88.6235 6.74954C89.2588 6.74954 89.8941 6.82896 90.3705 6.90838C90.847 6.98779 91.2441 7.14661 91.5617 7.30544C91.8794 7.46426 92.1176 7.62309 92.2764 7.86133C92.4352 8.09956 92.5147 8.25837 92.5147 8.4172C92.5147 8.73484 92.3558 9.13192 92.1176 9.44956L91.9588 9.60837L91.7205 9.44956C91.2441 9.13192 90.7676 8.89367 90.3705 8.81425C89.8941 8.65543 89.4176 8.65545 88.8617 8.65545C88.0676 8.65545 87.4323 8.81427 86.8764 9.0525C86.4 9.29074 86.1617 9.68779 86.1617 10.1643C86.1617 10.4025 86.2411 10.7201 86.4 10.9584C86.4794 11.1172 86.797 11.4348 87.4323 11.9113L90.45 14.0554C91.0852 14.6113 91.6411 15.1672 91.9588 15.7231C92.2764 16.279 92.4352 16.9937 92.4352 17.7084C92.4352 18.979 91.9588 20.0113 91.1647 20.726C90.1323 21.4407 88.9411 21.7584 87.4323 21.7584ZM84.4147 19.6937C84.3353 19.8525 84.2558 20.0907 84.2558 20.2495C84.2558 20.4878 84.4941 20.6466 85.05 20.8054C85.6853 21.0437 86.4794 21.1231 87.5117 21.1231C88.8617 21.1231 89.9735 20.8054 90.6882 20.2495C91.4029 19.6937 91.8 18.8201 91.8 17.7084C91.8 17.0731 91.6411 16.5172 91.4029 15.9613C91.0853 15.4848 90.6882 14.929 90.0529 14.4525L87.0353 12.3084C86.4 11.9113 86.0029 11.5143 85.8441 11.1966C85.6853 10.879 85.5264 10.4819 85.5264 10.1643C85.5264 9.44956 85.8441 8.97309 86.4794 8.57603C87.0352 8.25838 87.8294 8.09955 88.7029 8.09955C89.3382 8.09955 89.8941 8.17896 90.3705 8.33778C90.7676 8.4966 91.2441 8.65544 91.6411 8.89367C91.7205 8.73485 91.8 8.57602 91.8 8.4172C91.8 8.4172 91.8 8.33779 91.6411 8.17897C91.5617 8.02015 91.4029 7.94073 91.1647 7.78191C90.9264 7.62309 90.5294 7.54368 90.1323 7.46427C89.7353 7.38486 89.1794 7.30544 88.5441 7.30544C87.1941 7.30544 86.1617 7.54367 85.3676 8.09955C84.6529 8.57602 84.2558 9.29073 84.2558 10.1643C84.2558 10.6407 84.3353 11.0378 84.5735 11.5142C84.8117 11.9113 85.2882 12.3878 86.0029 12.8643L88.9411 15.0084C89.497 15.4849 89.9735 15.8819 90.2117 16.3584C90.45 16.8348 90.6088 17.3113 90.6088 17.9466C90.6088 18.8201 90.2911 19.376 89.6558 19.7731C89.1 20.1702 88.3058 20.329 87.3529 20.329C86.7176 20.329 86.0823 20.2496 85.6058 20.1702C85.1294 20.0907 84.7323 19.9319 84.4147 19.6937ZM102.759 20.5672C102.123 20.8849 101.488 21.1231 100.694 21.2819C99.9794 21.4407 99.1853 21.5201 98.55 21.5201C97.7558 21.5201 97.0411 21.4407 96.5647 21.2819C96.0088 21.1231 95.6117 20.8054 95.2941 20.4084C94.9764 20.0113 94.7382 19.4554 94.6588 18.8996C94.5 18.2643 94.5 17.5495 94.5 16.676V7.78191C94.5 7.7025 94.5 7.62307 94.5 7.54366C94.5 7.46425 94.5794 7.46426 94.6588 7.38485C94.7382 7.38485 94.897 7.30544 95.1353 7.30544C95.3735 7.30544 95.6117 7.30544 96.0088 7.30544V16.676C96.0088 17.3113 96.0088 17.8672 96.0882 18.2642C96.1676 18.6613 96.3264 19.0584 96.4853 19.2966C96.6441 19.5349 96.9617 19.7731 97.2794 19.8525C97.597 19.9319 98.0735 20.0113 98.6294 20.0113C98.947 20.0113 99.3441 19.9319 99.8205 19.8525C100.297 19.7731 100.773 19.6143 101.171 19.376V7.78191C101.171 7.7025 101.171 7.62307 101.171 7.54366C101.171 7.46425 101.25 7.46426 101.329 7.38485C101.409 7.38485 101.568 7.30544 101.806 7.30544C102.044 7.30544 102.282 7.30544 102.679 7.30544V20.5672H102.759ZM98.4705 21.7584C97.597 21.7584 96.9617 21.679 96.4058 21.4407C95.85 21.2025 95.3735 20.8849 95.0558 20.4878C94.7382 20.0113 94.5 19.5348 94.3411 18.8201C94.1823 18.1848 94.1823 17.3907 94.1823 16.5172V7.78191C94.1823 7.7025 94.1823 7.62307 94.1823 7.54366C94.1823 7.46425 94.2617 7.30543 94.5794 7.22602C94.7382 7.22602 94.897 7.1466 95.1353 7.1466H96.3264V16.7554C96.3264 17.3907 96.3264 17.9466 96.4058 18.3437C96.4852 18.7407 96.5647 19.0584 96.7235 19.2966C96.8823 19.5349 97.1205 19.6937 97.4382 19.7731C97.7558 19.8525 98.1529 19.9319 98.7088 19.9319C99.478 19.8858 100.232 19.6973 100.932 19.376V7.78191C100.932 7.62309 100.932 7.54368 101.012 7.46427C101.012 7.38486 101.171 7.22601 101.409 7.1466C101.568 7.1466 101.726 7.06721 101.965 7.06721H103.076V20.6466L102.918 20.726C102.282 21.0437 101.568 21.2819 100.773 21.4407C99.9794 21.679 99.1853 21.7584 98.4705 21.7584ZM94.6588 7.62308V16.5172C94.6588 17.3907 94.7382 18.1054 94.8176 18.7407C94.897 19.2966 95.1353 19.7731 95.3735 20.1702C95.6117 20.5672 96.0088 20.8054 96.4853 20.9643C96.9617 21.1231 97.597 21.2025 98.3911 21.2025C99.1058 21.2025 99.8206 21.1231 100.535 20.9643C101.171 20.8054 101.806 20.5672 102.362 20.329V7.62308H101.806C101.568 7.62308 101.488 7.62308 101.409 7.62308V19.6143L101.25 19.6937C100.773 19.9319 100.297 20.1701 99.8205 20.2495C99.3441 20.329 98.947 20.4084 98.55 20.4084C97.9941 20.4084 97.5176 20.329 97.1205 20.2495C96.7235 20.0907 96.4058 19.9319 96.1676 19.6143C95.9294 19.2966 95.7705 18.8996 95.6911 18.4231C95.6117 17.9466 95.6117 17.3907 95.6117 16.7554V7.62308H94.9764C94.897 7.62308 94.7382 7.62308 94.6588 7.62308ZM105.618 2.69956C105.618 1.82603 105.935 1.42897 106.571 1.42897C106.888 1.42897 107.126 1.50838 107.206 1.74661C107.285 1.98485 107.365 2.3025 107.365 2.69956C107.365 3.57309 107.047 3.97013 106.412 3.97013C106.287 3.97715 106.163 3.95155 106.052 3.89583C105.94 3.84011 105.845 3.75622 105.776 3.65249C105.618 3.49367 105.618 3.09662 105.618 2.69956ZM107.206 20.8849C107.206 20.9643 107.206 21.0437 107.206 21.1231C107.206 21.2025 107.126 21.2025 107.047 21.2025C106.968 21.2025 106.809 21.2819 106.571 21.2819C106.332 21.2819 106.094 21.2819 105.697 21.2819V8.09955C105.697 7.70249 105.776 7.54368 106.015 7.46427C106.253 7.38486 106.65 7.38485 107.285 7.38485L107.206 20.8849ZM106.571 21.5201H105.379V8.09955C105.379 7.46426 105.697 7.22602 105.935 7.22602C106.173 7.14661 106.65 7.1466 107.285 7.1466H107.523V20.9643C107.523 21.1231 107.523 21.2025 107.444 21.2819C107.365 21.4407 107.126 21.5201 107.047 21.5201C106.968 21.4407 106.809 21.5201 106.571 21.5201ZM105.935 20.9643H106.571C106.809 20.9643 106.888 20.9643 106.968 20.9643C106.968 20.9643 106.968 20.9643 106.968 20.8849V7.62308C106.412 7.62308 106.173 7.70249 106.094 7.70249C106.015 7.70249 105.935 7.94073 105.935 8.09955V20.9643ZM106.412 4.20838C106.015 4.20838 105.776 4.04956 105.538 3.81132C105.379 3.57309 105.3 3.17603 105.3 2.62015C105.3 1.27015 106.015 1.11133 106.491 1.11133C106.968 1.11133 107.285 1.34956 107.365 1.50839C107.523 1.74662 107.603 2.14368 107.603 2.62015C107.603 3.97015 106.968 4.20838 106.412 4.20838ZM106.491 1.6672C106.332 1.6672 105.856 1.66721 105.856 2.69956C105.856 3.17603 105.935 3.41427 106.015 3.49368C106.094 3.6525 106.253 3.65249 106.412 3.65249C106.571 3.65249 107.047 3.6525 107.047 2.62015C107.047 2.14368 106.968 1.90544 106.888 1.82603C106.888 1.74662 106.809 1.6672 106.491 1.6672ZM111.335 8.73484H109.271C109.271 8.09954 109.271 7.7819 109.35 7.62308C109.429 7.46425 109.509 7.38485 109.668 7.38485H111.335V2.93779C111.335 2.62014 111.415 2.46131 111.573 2.3819C111.732 2.30249 112.209 2.3025 112.844 2.3025V7.30544H116.179C116.179 7.94073 116.179 8.25837 116.1 8.4172C116.1 8.57602 115.941 8.65545 115.862 8.65545H112.844V17.1525C112.844 17.5495 112.844 17.9466 112.844 18.2642C112.844 18.5819 112.923 18.8996 113.003 19.2172C113.082 19.5348 113.241 19.6937 113.4 19.8525C113.559 20.0113 113.797 20.0907 114.115 20.0907C114.512 20.0907 114.829 20.0907 115.068 20.0113C115.306 19.9319 115.623 19.8525 115.941 19.6937C115.941 19.7731 116.021 19.9319 116.021 20.0907C116.021 20.2496 116.021 20.4084 116.021 20.4878C116.021 20.6466 115.941 20.8054 115.862 20.9643C115.703 21.1231 115.544 21.2025 115.385 21.2819C115.147 21.3613 114.909 21.4407 114.671 21.4407C114.432 21.4407 114.115 21.5201 113.876 21.5201C113.321 21.5201 112.844 21.4407 112.526 21.2025C112.209 20.9643 111.971 20.726 111.812 20.329C111.653 19.9319 111.573 19.5349 111.494 18.979C111.494 18.4231 111.415 17.8672 111.415 17.2319V8.73484H111.335ZM113.797 21.7584C113.162 21.7584 112.685 21.5996 112.288 21.3613C111.891 21.1231 111.653 20.8054 111.415 20.329C111.256 19.9319 111.097 19.4554 111.097 18.8996C111.097 18.3437 111.018 17.7878 111.018 17.1525V8.97309H108.953V8.73484C108.953 7.86131 108.953 7.62307 109.032 7.54366C109.112 7.30543 109.271 7.1466 109.588 7.1466H111.018V2.93779C111.018 2.38191 111.335 2.14367 111.494 2.14367C111.653 2.14367 111.891 2.06425 112.844 2.06425H113.082V7.06721H116.418V7.30544C116.418 8.17896 116.418 8.4172 116.338 8.49661C116.259 8.73485 116.1 8.89367 115.782 8.89367H113.003V17.1525C113.003 17.5495 113.003 17.9466 113.003 18.2642C113.003 18.5819 113.082 18.8995 113.162 19.1378C113.241 19.376 113.321 19.5348 113.479 19.6143C113.559 19.6937 113.797 19.7731 114.035 19.7731C114.432 19.7731 114.671 19.7731 114.909 19.6937C115.147 19.6143 115.385 19.5349 115.703 19.376L115.941 19.2172L116.021 19.5348C116.1 19.6937 116.1 19.7731 116.1 19.9319C116.1 20.0907 116.1 20.2496 116.1 20.4084C116.1 20.6466 116.021 20.8848 115.782 21.0437C115.623 21.2025 115.465 21.2819 115.147 21.4407C114.909 21.5201 114.671 21.5996 114.353 21.5996C114.432 21.7584 114.115 21.7584 113.797 21.7584ZM109.588 8.4172H111.653V17.1525C111.653 17.7878 111.653 18.3437 111.732 18.8996C111.732 19.376 111.891 19.8525 112.05 20.1702C112.209 20.4878 112.447 20.726 112.685 20.9643C113.003 21.1231 113.4 21.2025 113.876 21.2025C114.115 21.2025 114.432 21.2025 114.671 21.1231C114.909 21.1231 115.147 21.0437 115.306 20.9643C115.465 20.8849 115.623 20.8054 115.703 20.726C115.782 20.6466 115.782 20.5672 115.782 20.4878C115.782 20.329 115.782 20.2496 115.782 20.0907C115.544 20.1701 115.385 20.2495 115.226 20.329C114.988 20.4084 114.591 20.4878 114.194 20.4878C113.797 20.4878 113.479 20.4084 113.321 20.1702C113.082 20.0113 113.003 19.7731 112.844 19.4554C112.765 19.1378 112.685 18.8201 112.685 18.4231C112.685 18.1054 112.685 17.7084 112.685 17.2319V8.4172H115.941C115.941 8.33778 116.021 8.17896 116.021 7.62308H112.685V2.62015C112.05 2.62015 111.812 2.62015 111.732 2.69956C111.653 2.69956 111.653 2.85838 111.653 3.01721V7.70249H109.668C109.668 7.70249 109.668 7.70249 109.588 7.70249C109.588 7.70249 109.588 7.86131 109.588 8.4172ZM122.056 7.06721C123.247 7.06721 124.2 7.46427 124.756 8.25839C125.312 9.0525 125.55 10.0848 125.55 11.5142C125.55 12.0701 125.55 12.7054 125.471 13.2613C125.391 13.8172 125.391 14.3731 125.232 14.8496C124.676 14.929 124.041 15.0878 123.406 15.0878C122.771 15.1672 122.135 15.2466 121.5 15.2466C120.865 15.2466 120.309 15.326 119.832 15.326C119.276 15.326 118.879 15.326 118.641 15.326C118.641 16.3584 118.721 17.1525 118.879 17.7878C119.038 18.4231 119.276 18.8996 119.515 19.2172C119.832 19.5348 120.15 19.7731 120.547 19.8525C120.944 19.9319 121.421 20.0113 121.897 20.0113C122.532 20.0113 123.168 19.9319 123.723 19.7731C124.279 19.6143 124.835 19.376 125.232 19.0584C125.312 19.2172 125.391 19.4554 125.391 19.6143C125.391 19.7731 125.471 20.0113 125.471 20.0907C125.471 20.2496 125.391 20.4084 125.153 20.5672C124.915 20.726 124.676 20.8849 124.359 20.9643C124.041 21.1231 123.644 21.2025 123.168 21.2819C122.691 21.3613 122.215 21.4407 121.738 21.4407C121.103 21.4407 120.468 21.3613 119.912 21.2025C119.356 21.0437 118.879 20.726 118.482 20.2495C118.085 19.7731 117.768 19.1378 117.529 18.2642C117.291 17.3907 117.212 16.279 117.212 14.929C117.212 13.1819 117.371 11.7525 117.688 10.7201C118.006 9.68778 118.403 8.89366 118.879 8.33778C119.356 7.7819 119.912 7.46426 120.468 7.30544C120.944 7.14661 121.5 7.06721 122.056 7.06721ZM121.976 8.49661C121.659 8.49661 121.262 8.57603 120.865 8.65545C120.468 8.81427 120.15 9.0525 119.832 9.44956C119.515 9.84662 119.276 10.4025 119.038 11.1172C118.8 11.8319 118.721 12.7848 118.641 14.0554C118.879 14.0554 119.276 14.0554 119.673 14.0554C120.071 14.0554 120.547 14.0554 121.103 13.976C121.579 13.976 122.135 13.8966 122.612 13.8172C123.088 13.7378 123.565 13.6584 123.962 13.579C123.962 13.2613 124.041 12.9437 124.041 12.626C124.041 12.3084 124.041 11.9907 124.041 11.7525C124.041 10.6407 123.882 9.84661 123.565 9.29073C123.247 8.73485 122.771 8.49661 121.976 8.49661ZM121.659 21.7584C120.944 21.7584 120.309 21.679 119.753 21.5201C119.118 21.3613 118.641 21.0437 118.165 20.4878C117.768 20.0113 117.371 19.2966 117.132 18.4231C116.894 17.5496 116.815 16.4378 116.815 15.0084C116.815 13.1819 116.973 11.7525 117.291 10.7201C117.609 9.60837 118.006 8.81426 118.482 8.17897C118.959 7.62309 119.594 7.22603 120.229 6.98779C120.865 6.82897 121.421 6.74954 122.056 6.74954C123.326 6.74954 124.359 7.14661 124.915 8.02014C125.471 8.81425 125.788 10.0054 125.788 11.4349C125.788 11.9907 125.788 12.626 125.709 13.1819C125.629 13.7378 125.629 14.2937 125.471 14.7701V14.929H125.312C124.676 15.0084 124.041 15.1672 123.406 15.2466C122.771 15.326 122.135 15.4054 121.5 15.4054C120.865 15.4054 120.309 15.4848 119.832 15.4848C119.435 15.4848 119.118 15.4848 118.879 15.4848C118.879 16.3584 118.959 17.0731 119.118 17.629C119.276 18.1848 119.435 18.6613 119.753 18.979C119.991 19.2966 120.309 19.4554 120.626 19.5348C121.623 19.7576 122.66 19.7303 123.644 19.4554C124.2 19.2966 124.676 19.0584 125.073 18.8201L125.391 18.5819L125.55 18.8996C125.629 19.1378 125.709 19.2966 125.709 19.5348C125.709 19.7731 125.788 19.9319 125.788 20.0907C125.788 20.329 125.629 20.5672 125.391 20.8054C125.153 20.9643 124.835 21.1231 124.518 21.2819C124.2 21.4407 123.723 21.5201 123.247 21.5996C122.691 21.7584 122.215 21.7584 121.659 21.7584ZM122.056 7.30544C121.5 7.30544 120.944 7.38484 120.388 7.54366C119.832 7.70248 119.356 8.02014 118.959 8.49661C118.482 9.05249 118.165 9.76719 117.847 10.7995C117.529 11.8319 117.371 13.2613 117.371 15.0084C117.371 16.3584 117.45 17.4701 117.688 18.2642C117.926 19.0584 118.244 19.6937 118.562 20.0907C118.959 20.4878 119.356 20.8054 119.832 20.8849C120.388 21.0437 120.944 21.1231 121.579 21.1231C122.056 21.1231 122.532 21.0437 123.009 20.9643C123.485 20.8849 123.882 20.8054 124.2 20.6466C124.518 20.5672 124.756 20.4084 124.915 20.2495C125.073 20.1701 125.153 20.0113 125.153 19.9319C125.153 19.7731 125.153 19.6142 125.153 19.4554C125.153 19.376 125.153 19.2966 125.153 19.2966C124.756 19.5349 124.359 19.6937 123.882 19.8525C122.793 20.1426 121.649 20.1698 120.547 19.9319C120.071 19.7731 119.673 19.5348 119.435 19.2172C119.118 18.8201 118.879 18.3437 118.721 17.7084C118.562 17.0731 118.482 16.1995 118.482 15.1672V14.929H118.721C119.038 14.929 119.435 14.929 119.912 14.929C120.388 14.929 120.944 14.929 121.579 14.8496C122.135 14.8496 122.771 14.7701 123.406 14.6907C123.962 14.6113 124.518 14.5319 125.073 14.4525C125.153 14.0554 125.232 13.579 125.232 13.1025C125.312 12.5466 125.312 11.9113 125.312 11.3554C125.312 10.0054 125.073 8.97309 124.518 8.25839C124.041 7.7025 123.247 7.30544 122.056 7.30544ZM119.753 14.2937H118.403V13.976C118.482 12.7054 118.562 11.7525 118.8 10.9584C119.038 10.1643 119.276 9.60837 119.594 9.21131C119.912 8.81425 120.309 8.4966 120.706 8.33778C121.103 8.17896 121.5 8.17897 121.897 8.17897C122.85 8.17897 123.485 8.4966 123.803 9.1319C124.121 9.68778 124.279 10.5613 124.279 11.7525C124.279 12.0701 124.279 12.3878 124.279 12.7054C124.279 13.0231 124.2 13.3407 124.2 13.6584V13.8172L124.041 13.8966C123.644 13.976 123.168 14.0554 122.691 14.1349C122.215 14.2143 121.659 14.2142 121.182 14.2937C120.706 14.2937 120.229 14.2937 119.753 14.2937ZM118.959 13.7378H119.753C120.15 13.7378 120.626 13.7378 121.103 13.6584C121.579 13.6584 122.056 13.579 122.612 13.4995C123.009 13.4201 123.406 13.4201 123.723 13.3407C123.723 13.1025 123.803 12.8643 123.803 12.5466C123.803 12.229 123.803 11.9113 123.803 11.6731C123.803 10.6407 123.644 9.84661 123.406 9.29073C123.168 8.81426 122.691 8.57603 121.976 8.57603C121.659 8.57603 121.341 8.65543 120.944 8.73484C120.626 8.81425 120.309 9.0525 120.071 9.37015C119.753 9.76721 119.515 10.2437 119.356 10.9584C119.197 11.8319 119.038 12.7054 118.959 13.7378Z" fill="#33CC99"/>
<path d="M20.4882 1.90676C20.4882 1.90676 19.6941 2.70086 19.6941 3.17733C21.8382 4.44792 24.2206 6.9097 25.0941 8.89499C25.0941 8.89499 25.7294 8.895 26.2059 8.65676C27.6353 7.94206 28.1118 5.95675 27.9529 4.44793C27.7941 2.9391 26.4441 2.70088 25.9676 2.30382C25.4912 1.90676 25.65 0.874401 23.9029 0.556754C22.1559 0.159695 20.4882 1.90676 20.4882 1.90676Z" fill="#393939"/>
<path d="M9.13232 2.46235C9.13232 2.46235 14.7706 -0.158246 20.647 3.57411C26.5235 7.30646 26.2853 13.2624 26.2853 13.2624C26.2853 13.2624 29.7 19.5359 23.7441 23.9035C17.7882 28.2712 11.0382 26.7624 9.52938 26.1271C8.09997 25.5712 5.47938 4.12999 9.13232 2.46235Z" fill="#EFEFEF"/>
<path d="M15.4853 1.74753C11.8323 1.27106 9.13231 2.54165 9.13231 2.54165C5.47937 4.2093 3.73231 9.21224 3.57349 11.674C3.49408 13.7387 2.14409 14.0563 2.14409 18.2652C2.06468 23.3475 8.09996 25.5711 9.52937 26.2063C10.3235 26.524 12.6264 27.1593 15.4058 27.0005V1.74753H15.4853Z" fill="#F8F8F8"/>
<path d="M12.7059 9.13268C10.7206 8.10033 8.73531 9.52975 8.17943 10.8003C7.22649 12.865 6.11473 15.168 5.87649 15.6445C5.08237 17.3121 6.90885 18.3445 8.33826 17.9474C9.60885 17.5503 11.4353 16.9151 13.5 14.9298C15.6441 12.8651 14.7706 10.165 12.7059 9.13268ZM11.6736 13.9768C11.5147 13.6592 11.0383 13.4209 10.4824 13.4209C10.0853 13.4209 9.68826 13.5798 9.45002 13.818C9.52943 13.3415 9.84708 12.5474 10.6412 12.6268C11.4353 12.7062 11.6736 13.4209 11.6736 13.9768ZM17.0736 14.9298C19.1383 16.9151 20.9647 17.5503 22.2353 17.9474C23.6647 18.3445 25.4912 17.3915 24.6971 15.6445C24.4589 15.168 23.3471 12.865 22.3942 10.8003C21.7589 9.45034 19.853 8.02092 17.8677 9.13268C15.9618 10.165 15.0088 12.8651 17.0736 14.9298ZM18.9794 13.9768C18.9794 13.4209 19.2177 12.7062 20.0118 12.7062C20.8059 12.6268 21.1236 13.4209 21.203 13.8974C20.9647 13.6592 20.6471 13.5003 20.1706 13.5003C19.6941 13.4209 19.2177 13.6592 18.9794 13.9768C19.0588 13.9768 18.9794 13.9768 18.9794 13.9768Z" fill="#393939"/>
<path d="M19.5354 24.6963C17.6295 25.4905 14.7706 25.8875 11.3559 25.014C5.71769 23.4258 8.57652 16.1199 15.0089 16.1199C21.3618 16.0405 25.3324 22.314 19.5354 24.6963Z" fill="#F8F8F8"/>
<path d="M15.4853 25.4911V16.0411C15.3265 16.0411 15.1677 16.0411 15.0088 16.0411C8.57648 16.0411 5.79706 23.4264 11.3559 24.9353C12.8647 25.3323 14.2147 25.4911 15.4853 25.4911Z" fill="white"/>
<path d="M20.25 20.7258C20.1705 21.2817 19.5353 21.8376 18.0264 21.5993C16.9147 21.4405 16.2794 20.7258 16.0411 20.3287C16.4382 20.2493 16.6764 19.8523 17.0735 19.5346C17.55 19.1376 18.0264 18.8993 18.1058 18.5023C18.1852 18.1052 18.1058 17.6287 16.9941 17.3905C15.8823 17.2317 16.0411 17.9464 14.6117 17.4699C13.1823 16.914 12.8647 17.9464 12.8647 18.5817C12.8647 19.217 13.897 19.5346 14.6117 20.0111C14.9294 20.1699 15.0882 20.3287 15.247 20.3287C15.0088 20.6464 14.3735 21.4405 13.2617 21.5993C11.7529 21.8376 11.1176 21.2817 11.0382 20.7258C10.9588 20.1699 10.4823 20.8846 10.9588 21.5199C11.4352 22.1552 12.7058 22.9493 14.1352 22.2346C15.0882 21.7581 15.4853 21.2817 15.6441 20.8052C15.8029 21.2817 16.2 21.7581 17.1529 22.2346C18.5823 22.9493 19.8529 22.1552 20.3294 21.5199C20.8058 20.8052 20.3294 20.1699 20.25 20.7258ZM4.04996 8.73461C4.92349 8.81402 5.63818 8.41697 5.79701 8.09932C5.87642 7.9405 5.87642 7.78168 5.79701 7.70226C5.95583 7.54344 6.03525 7.30521 5.87642 6.90815C5.87642 6.82873 5.79701 6.5905 5.79701 6.51109C5.79701 6.51109 5.87644 6.43167 6.11467 6.43167C6.19409 6.43167 6.27349 6.43167 6.3529 6.43167C6.51172 6.35226 6.67054 6.35227 6.67054 6.19345C6.67054 6.03462 6.59114 5.95522 6.51173 5.8758C6.43232 5.79639 6.27348 5.71697 6.19407 5.63755C6.11465 5.55814 5.95584 5.47874 5.95584 5.39933C5.95584 5.31992 6.03526 5.2405 6.11467 5.2405C6.19409 5.2405 6.35289 5.2405 6.59112 5.31991C6.67054 5.39932 6.82938 5.39933 6.90879 5.39933C7.06761 5.47874 7.14702 5.39932 7.14702 5.31991C7.22643 5.2405 7.22643 5.08168 7.22643 4.92285C7.38526 4.92285 7.54409 5.00227 7.70291 5.08169C7.86173 5.1611 7.94114 5.16108 8.02055 5.16108C8.25879 5.16108 8.33819 5.00226 8.33819 4.84344C8.33819 4.76402 8.33819 4.76402 8.33819 4.76402C8.49702 4.76402 8.81467 4.60522 8.81467 4.28757H8.89409C8.89409 4.28757 8.97348 4.28757 9.0529 4.28757C9.21172 4.28757 9.44996 4.28755 9.60879 4.04932C9.6882 3.8905 9.7676 3.73167 9.7676 3.57284C9.7676 3.57284 9.7676 3.57286 9.7676 3.49345C9.68818 2.54051 9.29113 0.316981 6.59112 -0.0800781C6.51171 -0.000666365 6.35291 -0.000685759 6.11467 -0.000685759C4.12938 -0.000685759 2.62055 1.26991 1.58819 3.73168C0.952898 5.31991 0.873491 7.30522 2.46173 8.25816C2.69996 8.41698 2.85878 8.49639 3.09701 8.5758" fill="#393939"/>
</g>
<defs>
<clipPath id="clip0_35_1195">
<rect width="127.059" height="27" fill="white"/>
</clipPath>
</defs>
</svg>
