<svg width="175" height="27" viewBox="0 0 175 27" fill="none" xmlns="http://www.w3.org/2000/svg">
<mask id="mask0_35_1155" style="mask-type:alpha" maskUnits="userSpaceOnUse" x="26" y="9" width="15" height="18">
<path d="M35.3431 9.70911L40.2204 20.6743C41.2073 22.8933 40.2104 25.493 37.9936 26.4809C35.7769 27.4688 33.1798 26.4709 32.1928 24.252L28.2501 15.3879L26.5126 19.4854V9.70911H35.3431V9.70911Z" fill="white"/>
</mask>
<g mask="url(#mask0_35_1155)">
<path d="M35.3431 9.70911L40.2204 20.6743C41.2073 22.8933 40.2104 25.493 37.9936 26.4809C35.7769 27.4688 33.1798 26.4709 32.1928 24.252L28.2501 15.3879L26.5126 19.4854V9.70911H35.3431V9.70911Z" fill="#2AA8FF"/>
</g>
<mask id="mask1_35_1155" style="mask-type:alpha" maskUnits="userSpaceOnUse" x="27" y="10" width="10" height="8">
<path d="M35.8719 10.8984L36.881 13.1672C36.2715 12.9552 35.6167 12.84 34.935 12.84C32.1191 12.84 29.7623 14.8051 29.1619 17.4384L28.2503 15.3888L27.2842 17.6671L27.2842 10.8984H35.8719Z" fill="white"/>
</mask>
<g mask="url(#mask1_35_1155)">
<path d="M35.8715 10.8984L36.8806 13.1672C36.2711 12.9552 35.6163 12.84 34.9346 12.84C32.1187 12.84 29.7619 14.8051 29.1616 17.4384L28.25 15.3888L27.2838 17.6671L27.2838 10.8984H35.8715Z" fill="#393939" fill-opacity="0.2"/>
</g>
<mask id="mask2_35_1155" style="mask-type:alpha" maskUnits="userSpaceOnUse" x="2" y="0" width="20" height="18">
<path d="M21.194 9.51664V17.2816H13.0688L12.2265 15.388L11.4235 17.2816H2.43604V15.9641L8.06894 2.68068C8.78136 1.00066 10.4148 -0.00595543 12.1305 2.65126e-05C13.8184 -0.00585654 15.4313 0.967642 16.1619 2.61025L20.2373 11.7726L21.194 9.51664Z" fill="white"/>
</mask>
<g mask="url(#mask2_35_1155)">
<path d="M21.1937 9.51664V17.2816H13.0685L12.2262 15.388L11.4232 17.2816H2.43573V15.9641L8.06863 2.68068C8.78106 1.00066 10.4145 -0.00595543 12.1302 2.65126e-05C13.818 -0.00585654 15.431 0.967642 16.1616 2.61025L20.237 11.7726L21.1937 9.51664Z" fill="#017ACE"/>
</g>
<mask id="mask3_35_1155" style="mask-type:alpha" maskUnits="userSpaceOnUse" x="12" y="0" width="25" height="27">
<path d="M20.2314 11.7594L20.2373 11.7726L24.0928 2.68068C24.8052 1.00066 26.4387 -0.00595543 28.1544 2.65126e-05C29.8422 -0.00585654 31.4552 0.967642 32.1858 2.61025L36.877 13.1571C35.9309 12.3393 34.6983 11.8448 33.3504 11.8448C31.0083 11.8448 29.0145 13.3378 28.2669 15.4251L28.2504 15.388L24.463 24.3193C23.5148 26.5552 20.9355 27.5983 18.7019 26.6492C18.4833 26.5564 18.2762 26.4479 18.0812 26.3256C17.2621 25.8798 16.5777 25.1705 16.1692 24.2521L12.2418 15.4223C12.833 15.5918 13.4574 15.6825 14.103 15.6825C16.8195 15.6825 19.1612 14.0756 20.2314 11.7594Z" fill="white"/>
</mask>
<g mask="url(#mask3_35_1155)">
<path d="M20.2312 11.7594L20.2371 11.7726L24.0926 2.68068C24.8051 1.00066 26.4385 -0.00595543 28.1542 2.65126e-05C29.8421 -0.00585654 31.455 0.967642 32.1856 2.61025L36.8768 13.1571C35.9307 12.3393 34.6982 11.8448 33.3502 11.8448C31.0081 11.8448 29.0144 13.3378 28.2667 15.4251L28.2502 15.388L24.4628 24.3193C23.5147 26.5552 20.9353 27.5983 18.7017 26.6492C18.4831 26.5564 18.276 26.4479 18.081 26.3256C17.2619 25.8798 16.5775 25.1705 16.169 24.2521L12.2416 15.4223C12.8328 15.5918 13.4572 15.6825 14.1028 15.6825C16.8194 15.6825 19.161 14.0756 20.2312 11.7594Z" fill="#AEDEFF"/>
</g>
<mask id="mask4_35_1155" style="mask-type:alpha" maskUnits="userSpaceOnUse" x="1" y="11" width="12" height="12">
<path d="M12.2019 15.4447L9.37367 22.1142C8.68391 22.4311 7.91532 22.6076 7.10504 22.6076C4.26272 22.6076 1.9333 20.4357 1.72083 17.6494L3.66177 13.0723C4.59642 12.2977 5.79636 11.832 7.10504 11.832C9.46063 11.832 11.4639 13.3407 12.2019 15.4447Z" fill="white"/>
</mask>
<g mask="url(#mask4_35_1155)">
<path d="M12.202 15.4447L9.37373 22.1142C8.68398 22.4311 7.91538 22.6076 7.1051 22.6076C4.26278 22.6076 1.93336 20.4357 1.72089 17.6494L3.66183 13.0723C4.59648 12.2977 5.79642 11.832 7.1051 11.832C9.46069 11.832 11.464 13.3407 12.202 15.4447Z" fill="black"/>
</g>
<mask id="mask5_35_1155" style="mask-type:alpha" maskUnits="userSpaceOnUse" x="0" y="12" width="12" height="15">
<path d="M11.3721 17.4021L8.43914 24.3185C7.49102 26.5543 4.91168 27.5975 2.67804 26.6484C0.4444 25.6993 -0.597718 23.1175 0.350407 20.8816L3.60714 13.2017C4.29653 12.8962 5.059 12.7266 5.86092 12.7266C8.62946 12.7266 10.9278 14.7484 11.3721 17.4021Z" fill="white"/>
</mask>
<g mask="url(#mask5_35_1155)">
<path d="M11.3719 17.4021L8.43896 24.3185C7.49083 26.5543 4.9115 27.5975 2.67786 26.6484C0.444217 25.6993 -0.597901 23.1175 0.350224 20.8816L3.60696 13.2017C4.29635 12.8962 5.05882 12.7266 5.86074 12.7266C8.62928 12.7266 10.9276 14.7484 11.3719 17.4021Z" fill="#393939"/>
</g>
<path d="M65.1213 6.77071V20.2826C65.1213 20.4905 64.9529 20.659 64.7452 20.659H62.1123C61.9046 20.659 61.7362 20.4905 61.7362 20.2826V12.4567C61.7362 12.2488 61.5678 12.0803 61.3601 12.0803C61.2365 12.0803 61.1208 12.141 61.0506 12.2428L58.6137 15.773C58.5435 15.8747 58.4278 15.9355 58.3042 15.9355H57.008C56.8835 15.9355 56.7671 15.8738 56.697 15.7708L54.3367 12.2981C54.2198 12.1263 53.9859 12.0817 53.8141 12.1986C53.7112 12.2687 53.6495 12.3852 53.6495 12.5098V20.2826C53.6495 20.4905 53.4811 20.659 53.2734 20.659H50.6405C50.4328 20.659 50.2644 20.4905 50.2644 20.2826V6.77071C50.2644 6.56285 50.4328 6.39434 50.6405 6.39434H53.975C54.1007 6.39434 54.218 6.45712 54.2878 6.56168L57.3801 11.195C57.4955 11.3678 57.729 11.4144 57.9018 11.2989C57.9429 11.2714 57.9782 11.2361 58.0057 11.195L61.0979 6.56168C61.1677 6.45712 61.2851 6.39434 61.4107 6.39434H64.7452C64.9529 6.39434 65.1213 6.56285 65.1213 6.77071ZM69.7366 16.3495C69.8745 16.9517 70.1597 17.4222 70.5923 17.7609C71.0248 18.0996 71.6611 18.269 72.5011 18.269C72.9901 18.269 73.4571 18.2094 73.9022 18.0902C74.1447 18.0253 74.5305 17.8772 75.0594 17.6459C75.2497 17.5627 75.4715 17.6496 75.5546 17.8401C75.5591 17.8502 75.563 17.8605 75.5665 17.871L76.1743 19.682C76.2355 19.8643 76.1495 20.0634 75.9749 20.1438C75.2621 20.4718 74.7185 20.678 74.3441 20.7625C73.7047 20.9068 72.9399 20.9789 72.0498 20.9789C70.8085 20.9789 69.7523 20.7437 68.8809 20.2732C68.0095 19.8027 67.3482 19.141 66.8968 18.2878C66.4455 17.4347 66.2198 16.4436 66.2198 15.3145C66.2198 14.1351 66.4518 13.1221 66.9156 12.2752C67.3795 11.4284 68.0064 10.7885 68.7963 10.3557C69.5861 9.92286 70.47 9.70645 71.448 9.70645C73.0151 9.70645 74.2438 10.1612 75.134 11.0708C76.0241 11.9804 76.4692 13.3071 76.4692 15.051V15.9731C76.4692 16.181 76.3008 16.3495 76.0931 16.3495H69.7366ZM71.448 12.4164C70.9966 12.4164 70.6299 12.5293 70.3478 12.7551C70.1433 12.9425 69.9904 13.1576 69.8891 13.4005C69.8091 13.5923 69.8996 13.8127 70.0913 13.8928C70.1372 13.912 70.1864 13.9219 70.2362 13.9219H72.586C72.7937 13.9219 72.9621 13.7534 72.9621 13.5455C72.9621 13.5127 72.9578 13.4801 72.9494 13.4484C72.8716 13.1568 72.7441 12.932 72.5669 12.7739C72.2814 12.5383 71.9369 12.4164 71.448 12.4164ZM90.4813 9.78172C91.8354 9.78172 92.8478 10.1393 93.5185 10.8544C94.1893 11.5695 94.5247 12.7049 94.5247 14.2606V20.2826C94.5247 20.4905 94.3563 20.659 94.1485 20.659H91.6285C91.4208 20.659 91.2524 20.4905 91.2524 20.2826V14.2606C91.2524 13.7462 91.1395 13.3542 90.9139 13.0844C90.6882 12.8147 90.2995 12.6798 89.7479 12.6798C89.0709 12.6798 88.3813 12.9809 87.6792 13.5831C87.6917 13.7211 87.698 13.947 87.698 14.2606V20.2826C87.698 20.4905 87.5296 20.659 87.3219 20.659H84.8018C84.5941 20.659 84.4257 20.4905 84.4257 20.2826V14.2606C84.4257 13.7462 84.3129 13.3542 84.0872 13.0844C83.8615 12.8147 83.4729 12.6798 82.9212 12.6798C82.2567 12.6798 81.5734 12.9684 80.8713 13.5455V20.2826C80.8713 20.4905 80.7029 20.659 80.4952 20.659H77.9752C77.7674 20.659 77.599 20.4905 77.599 20.2826V10.3839C77.599 10.1761 77.7674 10.0076 77.9752 10.0076H80.4952C80.7029 10.0076 80.8713 10.1761 80.8713 10.3839V10.8356C81.3101 10.4717 81.7521 10.2051 82.1972 10.0358C82.6423 9.86641 83.1281 9.78172 83.6547 9.78172C85.3222 9.78172 86.4631 10.3149 87.0774 11.3813C87.6416 10.8293 88.1901 10.4247 88.7229 10.1675C89.2558 9.91032 89.8419 9.78172 90.4813 9.78172ZM101.955 9.70645C102.908 9.70645 103.751 9.91659 104.485 10.3369C105.218 10.7572 105.795 11.3907 106.215 12.2376C106.635 13.0844 106.845 14.1163 106.845 15.3333C106.845 16.5628 106.635 17.6009 106.215 18.4478C105.795 19.2946 105.218 19.9282 104.485 20.3485C103.751 20.7688 102.908 20.9789 101.955 20.9789C100.94 20.9789 99.9868 20.6402 99.0966 19.9627V20.2826C99.0966 20.4905 98.9282 20.659 98.7205 20.659H96.2004C95.9927 20.659 95.8243 20.4905 95.8243 20.2826V5.11466C95.8243 4.90679 95.9927 4.73828 96.2004 4.73828H98.7205C98.9282 4.73828 99.0966 4.90679 99.0966 5.11466V10.7227C99.9868 10.0452 100.94 9.70645 101.955 9.70645ZM101.241 18.0808C101.968 18.0808 102.516 17.8487 102.886 17.3845C103.256 16.9203 103.441 16.2366 103.441 15.3333C103.441 14.4425 103.256 13.765 102.886 13.3008C102.516 12.8366 101.968 12.6045 101.241 12.6045C100.526 12.6045 99.8113 12.8617 99.0966 13.3761V17.3093C99.8113 17.8236 100.526 18.0808 101.241 18.0808ZM110.99 16.3495C111.128 16.9517 111.413 17.4222 111.846 17.7609C112.278 18.0996 112.914 18.269 113.754 18.269C114.243 18.269 114.71 18.2094 115.155 18.0902C115.398 18.0253 115.784 17.8772 116.313 17.6459C116.503 17.5627 116.725 17.6496 116.808 17.8401C116.812 17.8502 116.816 17.8605 116.82 17.871L117.428 19.682C117.489 19.8643 117.403 20.0634 117.228 20.1438C116.515 20.4718 115.972 20.678 115.597 20.7625C114.958 20.9068 114.193 20.9789 113.303 20.9789C112.062 20.9789 111.006 20.7437 110.134 20.2732C109.263 19.8027 108.601 19.141 108.15 18.2878C107.699 17.4347 107.473 16.4436 107.473 15.3145C107.473 14.1351 107.705 13.1221 108.169 12.2752C108.633 11.4284 109.26 10.7885 110.05 10.3557C110.839 9.92286 111.723 9.70645 112.701 9.70645C114.268 9.70645 115.497 10.1612 116.387 11.0708C117.277 11.9804 117.723 13.3071 117.723 15.051V15.9731C117.723 16.181 117.554 16.3495 117.346 16.3495H110.99ZM112.701 12.4164C112.25 12.4164 111.883 12.5293 111.601 12.7551C111.397 12.9425 111.244 13.1576 111.142 13.4005C111.062 13.5923 111.153 13.8127 111.345 13.8928C111.39 13.912 111.44 13.9219 111.489 13.9219H113.839C114.047 13.9219 114.215 13.7534 114.215 13.5455C114.215 13.5127 114.211 13.4801 114.203 13.4484C114.125 13.1568 113.997 12.932 113.82 12.7739C113.535 12.5383 113.19 12.4164 112.701 12.4164ZM125.483 10.1581V12.3034C125.483 12.5113 125.315 12.6798 125.107 12.6798H125.051C124.949 12.6798 124.847 12.6837 124.745 12.6914C123.881 12.7565 123.018 13.0977 122.155 13.7149V20.2826C122.155 20.4905 121.986 20.659 121.778 20.659H119.258C119.051 20.659 118.882 20.4905 118.882 20.2826V10.3839C118.882 10.1761 119.051 10.0076 119.258 10.0076H121.778C121.986 10.0076 122.155 10.1761 122.155 10.3839V10.9485C122.618 10.5596 123.085 10.2679 123.556 10.0734C123.991 9.89343 124.45 9.79674 124.934 9.78334C124.972 9.78226 125.011 9.78172 125.051 9.78172H125.107C125.315 9.78172 125.483 9.95023 125.483 10.1581ZM130.562 20.9789C129.672 20.9789 128.885 20.9068 128.202 20.7625C127.79 20.6756 127.368 20.551 126.936 20.3889C126.784 20.3321 126.569 20.2422 126.291 20.1192C126.155 20.059 126.067 19.924 126.067 19.775V17.7556C126.067 17.5477 126.236 17.3792 126.443 17.3792C126.501 17.3792 126.558 17.3924 126.609 17.4178C126.75 17.4869 126.868 17.5418 126.963 17.5826C127.383 17.762 127.806 17.903 128.23 18.0055C128.957 18.1812 129.735 18.269 130.562 18.269C131.377 18.269 131.784 18.0244 131.784 17.5351C131.784 17.3343 131.728 17.1838 131.615 17.0834C131.502 16.9831 131.321 16.9015 131.07 16.8388L129.246 16.4624C128.18 16.2491 127.403 15.8853 126.914 15.3709C126.425 14.8565 126.18 14.154 126.18 13.2632C126.18 12.0588 126.553 11.1649 127.299 10.5815C128.045 9.99814 129.177 9.70645 130.694 9.70645C131.321 9.70645 131.976 9.76918 132.659 9.89464C133.05 9.96646 133.43 10.0506 133.799 10.1471C133.933 10.1822 134.113 10.2339 134.338 10.302C134.497 10.35 134.605 10.4964 134.605 10.6623V12.6097C134.605 12.8176 134.437 12.9861 134.229 12.9861C134.184 12.9861 134.139 12.9779 134.097 12.9618C134.002 12.9262 133.918 12.8967 133.845 12.8734C133.547 12.7783 133.22 12.6949 132.866 12.6234C132.183 12.4854 131.515 12.4164 130.863 12.4164C130.349 12.4164 129.992 12.4665 129.791 12.5669C129.59 12.6673 129.49 12.8241 129.49 13.0374C129.49 13.2005 129.54 13.3165 129.641 13.3855C129.741 13.4545 129.91 13.5141 130.148 13.5643L131.973 13.9407C133.076 14.1665 133.872 14.5366 134.361 15.051C134.85 15.5654 135.094 16.3307 135.094 17.3469C135.094 18.5638 134.687 19.4734 133.872 20.0756C133.057 20.6778 131.954 20.9789 130.562 20.9789ZM140.324 13.6584V16.8764C140.324 17.2904 140.393 17.5821 140.531 17.7515C140.668 17.9209 140.919 18.0055 141.283 18.0055C141.522 18.0055 141.747 17.9888 141.956 17.9552C141.957 17.9552 141.957 17.9552 141.957 17.9552C142.162 17.9223 142.355 18.0621 142.388 18.2673C142.391 18.287 142.392 18.3069 142.392 18.3268V20.3318C142.392 20.5117 142.265 20.6664 142.089 20.7012C142.072 20.7044 142.057 20.7074 142.043 20.71C141.766 20.7638 141.522 20.8064 141.311 20.8378C141.016 20.8817 140.7 20.9036 140.361 20.9036C139.245 20.9036 138.415 20.659 137.869 20.1697C137.324 19.6804 137.051 18.9779 137.051 18.062V13.6584C137.051 13.4505 136.883 13.282 136.675 13.282H135.961C135.753 13.282 135.584 13.1135 135.584 12.9056V10.7603C135.584 10.5524 135.753 10.3839 135.961 10.3839H136.675C136.883 10.3839 137.051 10.2154 137.051 10.0076V7.18473C137.051 6.97686 137.22 6.80835 137.428 6.80835H139.948C140.155 6.80835 140.324 6.97686 140.324 7.18473V10.0076C140.324 10.2154 140.492 10.3839 140.7 10.3839H142.355C142.562 10.3839 142.731 10.5524 142.731 10.7603V12.9056C142.731 13.1135 142.562 13.282 142.355 13.282H140.7C140.492 13.282 140.324 13.4505 140.324 13.6584ZM148.085 10.0076C149.464 10.0076 150.514 10.1926 151.235 10.5627C151.956 10.9328 152.435 11.4252 152.674 12.04C152.912 12.6547 153.031 13.4388 153.031 14.3923V20.2826C153.031 20.4905 152.863 20.659 152.655 20.659H150.135C149.927 20.659 149.759 20.4905 149.759 20.2826V19.7933C149.32 20.1948 148.887 20.4802 148.461 20.6496C148.035 20.819 147.565 20.9036 147.051 20.9036C145.847 20.9036 144.904 20.5869 144.22 19.9533C143.537 19.3197 143.195 18.4384 143.195 17.3093C143.195 16.1676 143.543 15.2894 144.239 14.6746C144.935 14.0599 145.903 13.7525 147.145 13.7525C148.173 13.7525 149.044 13.9407 149.759 14.3171C149.746 13.9658 149.693 13.6866 149.599 13.4796C149.505 13.2726 149.317 13.1127 149.035 12.9997C148.753 12.8868 148.342 12.8304 147.803 12.8304H146.035C145.827 12.8304 145.659 12.6619 145.659 12.454V10.3839C145.659 10.1761 145.827 10.0076 146.035 10.0076H148.085ZM147.259 18.3819C147.899 18.3819 148.569 18.0934 149.271 17.5163V16.5189C148.67 16.2303 148.062 16.086 147.447 16.086C146.996 16.086 146.645 16.1833 146.394 16.3777C146.143 16.5722 146.018 16.8701 146.018 17.2716C146.018 17.6856 146.125 17.9742 146.338 18.1373C146.551 18.3004 146.858 18.3819 147.259 18.3819ZM159.339 20.9789C157.584 20.9664 156.242 20.4677 155.315 19.4828C154.387 18.498 153.923 17.1085 153.923 15.3145C153.923 13.5329 154.387 12.156 155.315 11.1837C156.242 10.2114 157.584 9.719 159.339 9.70645C159.979 9.70645 160.524 9.74409 160.975 9.81936C161.256 9.86616 161.544 9.93721 161.839 10.0325C161.915 10.057 162.016 10.0928 162.141 10.1399C162.288 10.1949 162.386 10.3354 162.386 10.4924V12.6305C162.386 12.8383 162.217 13.0069 162.01 13.0069C161.962 13.0069 161.914 12.9976 161.869 12.9797C161.845 12.9699 161.823 12.9611 161.802 12.9533C161.552 12.8586 161.311 12.7863 161.079 12.7363C160.671 12.6485 160.217 12.6045 159.715 12.6045C158.875 12.6171 158.267 12.8492 157.891 13.3008C157.515 13.7525 157.327 14.4174 157.327 15.2956C157.327 16.1989 157.509 16.889 157.872 17.3657C158.236 17.8425 158.819 18.0808 159.621 18.0808C160.073 18.0808 160.508 18.0118 160.928 17.8738C161.159 17.7978 161.395 17.699 161.636 17.5774C161.692 17.549 161.761 17.5117 161.843 17.4656C162.024 17.3631 162.253 17.4267 162.355 17.6076C162.367 17.6281 162.377 17.6496 162.384 17.6718L163.056 19.6463C163.115 19.8198 163.04 20.0106 162.879 20.0982C162.727 20.1811 162.603 20.2449 162.509 20.2894C161.531 20.7491 160.475 20.9789 159.339 20.9789ZM168.029 17.1022L167.164 18.0244V20.2826C167.164 20.4905 166.995 20.659 166.788 20.659H164.267C164.06 20.659 163.891 20.4905 163.891 20.2826V5.11466C163.891 4.90679 164.06 4.73828 164.267 4.73828H166.66H166.788C166.995 4.73828 167.164 4.90679 167.164 5.11466V5.23281V13.9407L170.381 10.503C170.452 10.427 170.551 10.3839 170.655 10.3839H173.531C173.739 10.3839 173.907 10.5524 173.907 10.7603C173.907 10.8565 173.87 10.949 173.804 11.0189L170.173 14.8628L174.262 20.0495C174.391 20.2127 174.363 20.4494 174.2 20.5781C174.133 20.6305 174.051 20.659 173.967 20.659H171.013C170.898 20.659 170.789 20.6062 170.718 20.5156L168.029 17.1022Z" fill="#192A33"/>
</svg>
