<svg width="160" height="48" viewBox="0 0 160 48" fill="none" xmlns="http://www.w3.org/2000/svg">
<g style="mix-blend-mode:luminosity" clip-path="url(#clip0_1071_804)">
<path d="M38.8888 9.33984C34.8721 9.33984 33.4623 12.1329 33.4623 14.7397V16.3357H32.6111C31.9993 16.3357 31.5205 16.8145 31.5205 17.4263C31.5205 18.0381 31.9993 18.5169 32.6111 18.5169H33.4623V29.5294C33.4623 30.1678 33.9677 30.6998 34.6327 30.6998C35.2711 30.6998 35.8031 30.1944 35.8031 29.5294V18.5169H38.3833C38.9951 18.5169 39.474 18.0381 39.474 17.4263C39.474 16.8145 38.9951 16.3357 38.3833 16.3357H35.8031V14.7397C35.8031 13.2767 36.3351 11.5477 38.9153 11.5477C39.5272 11.5477 40.006 11.0688 40.006 10.457C39.9794 9.81864 39.5006 9.33984 38.8888 9.33984Z" fill="#4D4D4D"/>
<path d="M47.9331 15.9609C46.2041 15.9609 44.7411 16.6791 43.9165 17.8496V17.2377C43.9165 16.5993 43.4111 16.0673 42.7461 16.0673C42.1077 16.0673 41.5757 16.5727 41.5757 17.2377V29.527C41.5757 30.1654 42.0811 30.6974 42.7461 30.6974C43.3845 30.6974 43.9165 30.192 43.9165 29.527V22.744C43.9165 19.8978 45.4327 18.1953 47.9331 18.1953C48.5449 18.1953 49.0503 17.6899 49.0503 17.0781C49.0769 16.4663 48.5715 15.9609 47.9331 15.9609Z" fill="#4D4D4D"/>
<path d="M62.1645 21.9977C62.1645 21.3327 62.0581 19.6037 61.0473 18.1673C60.0098 16.6777 58.3872 15.9062 56.1794 15.9062C52.083 15.9062 49.7422 18.6195 49.7422 23.3543C49.7422 28.2487 52.083 30.8555 56.472 30.8555C59.4246 30.8555 61.0472 29.3925 61.3399 29.0999C61.5261 28.9137 61.7389 28.6743 61.7389 28.2753C61.7389 27.6901 61.2601 27.2113 60.6748 27.2113C60.3822 27.2113 60.196 27.2911 60.0098 27.4241C59.1586 28.0625 58.1744 28.7009 56.4986 28.7009C53.8652 28.7009 52.1894 26.9719 52.1096 24.1523H60.7546C62.1645 24.1257 62.1645 22.8489 62.1645 21.9977ZM56.1794 18.0343C58.5734 18.0343 59.8236 19.3909 59.8768 22.0509H52.1362C52.349 19.4707 53.7854 18.0343 56.1794 18.0343Z" fill="#4D4D4D"/>
<path d="M69.985 22.1846C68.2559 21.5994 66.7663 21.0674 66.7663 19.7906C66.7663 18.3808 68.3357 18.168 69.2667 18.168C70.9426 18.168 71.7672 18.7532 72.4322 19.3916C72.645 19.6044 72.911 19.7108 73.2036 19.7108C73.7888 19.7108 74.2676 19.232 74.2676 18.6468C74.2676 18.3276 74.1346 18.1148 74.0282 17.9552C73.044 16.6518 71.3682 15.9336 69.2667 15.9336C66.2875 15.9336 64.4521 17.4232 64.4521 19.7906C64.4521 22.69 67.0057 23.5678 69.2401 24.3126C70.9426 24.8978 72.4056 25.3767 72.4056 26.6269C72.4056 28.3293 70.5169 28.5953 69.3731 28.5953C67.8303 28.5953 66.6333 28.1165 65.6491 27.1589C65.3565 26.8663 65.0373 26.8131 64.8511 26.8131C64.2659 26.8131 63.7871 27.2919 63.7871 27.8771C63.7871 28.1165 63.8669 28.3027 64.0531 28.5687C64.9309 29.6859 66.9259 30.8297 69.3731 30.8297C72.7248 30.8297 74.7198 29.2603 74.7198 26.6535C74.7198 23.8338 72.2194 22.956 69.985 22.1846Z" fill="#4D4D4D"/>
<path d="M83.7904 15.9066C82.1944 15.9066 80.758 16.545 79.96 17.5558V9.68212C79.96 9.04372 79.4545 8.51172 78.7895 8.51172C78.1511 8.51172 77.6191 9.01712 77.6191 9.68212V29.5524C77.6191 30.1908 78.1245 30.7228 78.7895 30.7228C79.4279 30.7228 79.96 30.2174 79.96 29.5524V22.0778C79.96 19.3912 81.2634 18.0346 83.7904 18.0346C86.2376 18.0346 87.2484 19.1518 87.2484 21.865V29.5524C87.2484 30.1908 87.7538 30.7228 88.4188 30.7228C89.0572 30.7228 89.5892 30.2174 89.5892 29.5524V21.466C89.536 17.7686 87.5942 15.9066 83.7904 15.9066Z" fill="#4D4D4D"/>
<path d="M108.927 16.0938C108.422 16.0938 108.023 16.3864 107.837 16.8652L104.512 26.3348L101.798 16.8652C101.692 16.4928 101.293 16.0938 100.708 16.0938C100.123 16.0938 99.7235 16.4928 99.6171 16.8652L96.9039 26.3082L93.5789 16.8386C93.3927 16.3597 92.9937 16.0938 92.4883 16.0938C91.8499 16.0938 91.3179 16.5992 91.3179 17.2642C91.3179 17.4238 91.3445 17.5834 91.4243 17.743L95.8665 29.9524C96.0527 30.4312 96.4517 30.6972 96.9571 30.6972C97.4891 30.6972 97.9413 30.3514 98.0743 29.8726L100.681 20.9084L103.288 29.8726C103.421 30.3514 103.9 30.6972 104.405 30.6972C104.911 30.6972 105.31 30.4046 105.496 29.9258L109.938 17.7164C110.018 17.5568 110.044 17.3706 110.044 17.211C110.071 16.5991 109.566 16.0938 108.927 16.0938Z" fill="#4D4D4D"/>
<path d="M117.386 15.9062C113.157 15.9062 110.842 18.5663 110.842 23.3543C110.842 28.1955 113.157 30.8555 117.386 30.8555C121.615 30.8555 123.93 28.1955 123.93 23.3543C123.93 18.5397 121.589 15.9062 117.386 15.9062ZM117.386 28.7275C114.566 28.7275 113.183 26.9719 113.183 23.3809C113.183 19.8431 114.593 18.0609 117.386 18.0609C120.179 18.0609 121.589 19.8431 121.589 23.3809C121.589 26.9719 120.206 28.7275 117.386 28.7275Z" fill="#4D4D4D"/>
<path d="M132.921 15.9609C131.192 15.9609 129.729 16.6791 128.904 17.8496V17.2377C128.904 16.5993 128.399 16.0673 127.734 16.0673C127.095 16.0673 126.563 16.5727 126.563 17.2377V29.527C126.563 30.1654 127.069 30.6974 127.734 30.6974C128.372 30.6974 128.904 30.192 128.904 29.527V22.744C128.904 19.8978 130.42 18.1953 132.921 18.1953C133.533 18.1953 134.038 17.6899 134.038 17.0781C134.038 16.4663 133.533 15.9609 132.921 15.9609Z" fill="#4D4D4D"/>
<path d="M141.752 22.0246L146.567 18.1676C146.966 17.8484 147.019 17.4494 147.019 17.2366C147.019 16.5982 146.514 16.0662 145.849 16.0662C145.662 16.0662 145.343 16.0928 145.051 16.3588L138.214 21.9448V9.68212C138.214 9.04372 137.709 8.51172 137.044 8.51172C136.406 8.51172 135.874 9.01712 135.874 9.68212V29.5524C135.874 30.1908 136.379 30.7228 137.044 30.7228C137.682 30.7228 138.214 30.2174 138.214 29.5524V24.7644L139.837 23.461L145.077 30.1908C145.37 30.5366 145.689 30.7228 146.061 30.7228C146.7 30.7228 147.232 30.2174 147.232 29.5524C147.232 29.3662 147.205 29.1002 146.992 28.8342L141.752 22.0246Z" fill="#4D4D4D"/>
<path d="M154.866 22.1846C153.137 21.5994 151.648 21.0674 151.648 19.7906C151.648 18.3808 153.217 18.168 154.148 18.168C155.824 18.168 156.649 18.7532 157.314 19.3916C157.526 19.6044 157.792 19.7108 158.085 19.7108C158.67 19.7108 159.149 19.232 159.149 18.6468C159.149 18.301 158.963 18.0616 158.91 17.9552C157.925 16.6518 156.249 15.9336 154.148 15.9336C151.169 15.9336 149.333 17.4232 149.333 19.7906C149.333 22.69 151.887 23.5678 154.121 24.3126C155.824 24.8978 157.287 25.3767 157.287 26.6269C157.287 28.3293 155.398 28.5953 154.254 28.5953C152.712 28.5953 151.515 28.1165 150.53 27.1589C150.238 26.8663 149.945 26.8131 149.732 26.8131C149.147 26.8131 148.668 27.2919 148.668 27.8771C148.668 28.1165 148.748 28.3027 148.934 28.5687C149.812 29.6859 151.807 30.8297 154.254 30.8297C157.606 30.8297 159.601 29.2603 159.601 26.6535C159.601 23.8338 157.101 22.956 154.866 22.1846Z" fill="#4D4D4D"/>
<path d="M0.159668 28.8891C0.611871 31.8417 1.99508 34.5017 3.99009 36.4967L8.64512 31.8417C8.64512 27.1335 11.0923 22.5583 15.4548 20.0312L0.159668 28.8891Z" fill="#9B65C3"/>
<path d="M8.64512 31.8425C6.3309 31.8425 3.99009 31.2573 1.83548 30.0071C1.25027 29.6613 0.691671 29.2889 0.159668 28.8633C0.611871 31.8159 1.99508 34.4759 3.99009 36.4709L8.64512 31.8425Z" fill="#9B65C3"/>
<path d="M8.64477 31.8409L3.98975 36.4959C6.01136 38.5175 8.64477 39.9007 11.5974 40.3263L20.4286 25.0312C17.9282 29.3937 13.353 31.8409 8.64477 31.8409Z" fill="#BE63C5"/>
<path d="M10.4802 38.6768C9.22998 36.5222 8.64477 34.1814 8.64477 31.8672L3.98975 36.5222C6.01136 38.5438 8.64477 39.927 11.5974 40.3526C11.1984 39.8206 10.826 39.262 10.4802 38.6768Z" fill="#BF63C6"/>
<path d="M25.9886 13.9648L15.4815 20.0563C11.1191 22.5833 5.93209 22.3971 1.86227 20.0563C0.691859 22.0513 0.0268555 24.3921 0.0268555 26.8659C0.0268555 27.5575 0.0800554 28.2225 0.186456 28.8875C0.718459 29.3131 1.27706 29.6855 1.86227 30.0313C4.01688 31.2815 6.35769 31.8667 8.6719 31.8667L26.2812 14.2574C26.1748 14.151 26.095 14.0446 25.9886 13.9648Z" fill="#3278B1"/>
<path d="M1.83522 30.0337C3.98984 31.2839 6.33065 31.8691 8.64486 31.8691C8.64486 27.1608 11.0921 22.5856 15.4545 20.0586L0.132812 28.8898C0.691416 29.2888 1.25002 29.6878 1.83522 30.0337Z" fill="#3278B2"/>
<path d="M1.83541 20.0586C0.665004 22.0536 0 24.3944 0 26.8682C0 27.5598 0.0532004 28.2248 0.159601 28.8898L15.4813 20.0586C11.0923 22.559 5.90523 22.3994 1.83541 20.0586Z" fill="#45A4EC"/>
<path d="M26.281 14.2335C26.2012 14.1537 26.0948 14.0473 25.9884 13.9675C25.8554 13.8611 25.7224 13.7547 25.5628 13.6749C25.0574 13.3823 24.4722 13.2227 23.8604 13.2227H13.6459C8.59189 13.2227 4.20286 15.9625 1.83545 20.0323C5.90527 22.3731 11.0923 22.5593 15.4547 20.0323C11.0923 22.5593 8.64509 27.1345 8.64509 31.8428C13.3533 31.8428 17.9285 29.3956 20.4556 25.0331L26.5204 14.5261C26.4406 14.4197 26.3608 14.3133 26.281 14.2335Z" fill="#19BB7D"/>
<path d="M15.4813 20.0567L25.9884 13.9918C25.8554 13.8854 25.7224 13.779 25.5628 13.6992L1.83545 20.0567C5.90527 22.3975 11.0923 22.5571 15.4813 20.0567Z" fill="#08C7FB"/>
<path d="M23.8604 13.2227H13.6459C8.59189 13.2227 4.20286 15.9625 1.83545 20.0323L25.5628 13.6749C25.0574 13.4089 24.4988 13.2227 23.8604 13.2227Z" fill="#59F2F6"/>
<path d="M20.4555 25.0301L26.5203 14.5231C26.4405 14.4167 26.3607 14.3369 26.2543 14.2305L8.64502 31.8398C8.64502 34.154 9.23022 36.4948 10.4804 38.6494C10.8262 39.2346 11.1986 39.7932 11.6242 40.3252C12.2892 40.4316 12.9542 40.4848 13.6458 40.4848C16.1197 40.4848 18.4605 39.8198 20.4555 38.6494C18.1147 34.5796 17.9285 29.3926 20.4555 25.0301Z" fill="#DA3757"/>
<path d="M8.64502 31.8409C8.64502 34.1551 9.23022 36.4959 10.4804 38.6505C10.8262 39.2357 11.1986 39.7943 11.6242 40.3263L20.4555 25.0312C17.9285 29.3937 13.3532 31.8409 8.64502 31.8409Z" fill="#D33C4E"/>
<path d="M20.4558 25.0312L11.6245 40.3529C12.2895 40.4593 12.9545 40.5125 13.6461 40.5125C16.1199 40.5125 18.4608 39.8475 20.4558 38.6771C18.1149 34.5807 17.9287 29.3937 20.4558 25.0312Z" fill="#EE5A24"/>
<path d="M26.8132 14.949C26.7334 14.7894 26.627 14.6564 26.5206 14.5234C26.4408 14.417 26.361 14.3372 26.2546 14.2308C26.1748 14.151 26.0684 14.0446 25.962 13.9648L15.4815 20.0563C11.1191 22.5833 8.67188 27.1585 8.67188 31.8667C13.3801 31.8667 17.9553 29.4195 20.4823 25.0571C17.9553 29.4195 18.1415 34.6066 20.4823 38.6764C24.5522 36.309 27.292 31.9199 27.292 26.8659V16.6515C27.2654 16.0131 27.1058 15.4278 26.8132 14.949Z" fill="#8BDF55"/>
<path d="M25.9886 13.9648L15.4815 20.0563C11.1191 22.5833 8.67188 27.1585 8.67188 31.8667L26.2812 14.2574C26.1748 14.151 26.095 14.0446 25.9886 13.9648Z" fill="#25C16F"/>
<path d="M8.64502 31.8398C13.3532 31.8398 17.9285 29.3926 20.4555 25.0301L26.5203 14.5231C26.4405 14.4167 26.3607 14.3369 26.2543 14.2305L8.64502 31.8398Z" fill="#8BDF55"/>
<path d="M26.5203 14.5234L20.4555 25.0305C17.9285 29.3929 18.1147 34.58 20.4555 38.6498L26.8129 14.9224C26.7331 14.7894 26.6267 14.6564 26.5203 14.5234Z" fill="#FFBB00"/>
<path d="M20.4551 38.6766C24.5249 36.3091 27.2647 31.9201 27.2647 26.8661V16.6516C27.2647 16.0398 27.1051 15.4546 26.8125 14.9492L20.4551 38.6766Z" fill="#FFA800"/>
</g>
<defs>
<clipPath id="clip0_1071_804">
<rect width="160" height="48" fill="white"/>
</clipPath>
</defs>
</svg>
