<svg width="229" height="32" viewBox="0 0 229 32" fill="none" xmlns="http://www.w3.org/2000/svg">
<path d="M39.4611 32H38.9948V30.1741C38.9948 29.4918 38.9702 28.7407 38.9454 28.5149C38.5397 25.2851 36.5901 22.5559 33.6708 21.1472C33.3442 20.9901 33.0473 20.8575 33.0176 20.8575C32.8989 20.8575 32.9633 20.7642 33.2255 20.563C33.8391 20.0967 34.5219 19.2721 34.8732 18.5751C35.0909 18.1481 35.3185 17.4854 35.4125 16.9945C35.5263 16.4202 35.5264 15.3795 35.4125 14.8052C34.9474 12.4246 33.0523 10.5299 30.697 10.0881C30.2765 10.0096 29.4057 9.96052 29.0494 9.98996C27.6788 10.1176 26.4416 10.6674 25.447 11.6001C24.5218 12.4689 23.9181 13.5585 23.6757 14.8052C23.5619 15.3746 23.5619 16.4153 23.6757 16.9945C23.9577 18.4376 24.789 19.7679 25.9469 20.6318L26.1893 20.8085L25.9964 20.887C24.0518 21.6822 22.4486 23.0517 21.3996 24.8188C20.7366 25.933 20.3111 27.1847 20.1478 28.5149C20.1181 28.7407 20.0933 29.4918 20.0933 30.1741C20.0933 31.9797 20.0934 32 20.0934 32H19.2642V30.1741C19.2642 29.4918 19.2396 28.7407 19.2149 28.5149C18.8091 25.2851 16.8596 22.5559 13.9402 21.1472C13.6137 20.9901 13.3168 20.8575 13.2871 20.8575C13.1683 20.8575 13.2327 20.7642 13.495 20.563C14.1085 20.0967 14.7913 19.2721 15.1426 18.5751C15.3604 18.1481 15.588 17.4854 15.682 16.9945C15.7958 16.4202 15.7958 15.3795 15.682 14.8052C15.2169 12.4246 13.3217 10.5299 10.9665 10.0881C10.5459 10.0096 9.67512 9.96052 9.31881 9.98996C7.9482 10.1176 6.71104 10.6674 5.71648 11.6001C4.79125 12.4689 4.18756 13.5585 3.94511 14.8052C3.8313 15.3746 3.83131 16.4153 3.94511 16.9945C4.22715 18.4376 5.05848 19.7679 6.21632 20.6318L6.45871 20.8085L6.26586 20.887C4.32128 21.6822 2.71803 23.0517 1.66904 24.8188C1.00602 25.933 0.580546 27.1847 0.41726 28.5149C0.387572 28.7407 0.362694 29.4918 0.362694 30.1741C0.362695 31.9797 0.362856 32 0.362856 32H0V0L19.7306 9.86528L39.4611 0V32Z" fill="url(#paint0_linear_2444_1609)"/>
<path d="M47.4609 4.77826H49.8013C50.9768 4.77826 51.9172 4.93856 52.6225 5.25915C53.3278 5.57975 53.9369 6.09269 54.4498 6.798C54.9628 7.48193 55.5612 8.51851 56.2452 9.90774L58.1046 13.6587L59.964 9.90774C60.648 8.51851 61.2464 7.48193 61.7593 6.798C62.2723 6.09269 62.8814 5.57975 63.5867 5.25915C64.292 4.93856 65.2324 4.77826 66.4079 4.77826H68.7482V27.2197H64.6447V9.49097C64.3882 9.49097 64.1745 9.60852 64.0035 9.84362C63.8325 10.0787 63.576 10.4955 63.2341 11.0939L58.1046 20.6155L52.9751 11.0939C52.6332 10.4955 52.3767 10.0787 52.2057 9.84362C52.0347 9.60852 51.821 9.48028 51.5645 9.45891V27.2197H47.4609V4.77826Z" fill="white"/>
<path d="M81.1547 27.2197C78.3121 27.2197 76.271 26.6213 75.0313 25.4244C73.7917 24.2275 73.1719 22.4963 73.1719 20.2308V11.7672C73.1719 9.50166 73.7917 7.77046 75.0313 6.57358C76.271 5.3767 78.3121 4.77826 81.1547 4.77826H88.6565V8.30478H81.1547C79.9792 8.30478 79.1029 8.58263 78.5258 9.13832C77.9701 9.69401 77.6923 10.5703 77.6923 11.7672V14.2357H87.2459V17.7622H77.6923V20.2308C77.6923 21.4063 77.9701 22.2826 78.5258 22.8597C79.1029 23.4154 79.9792 23.6932 81.1547 23.6932H88.7206V27.2197H81.1547Z" fill="white"/>
<path d="M111.042 4.77826V21.9299C111.042 23.6611 110.689 24.9756 109.984 25.8732C109.278 26.7709 108.146 27.2197 106.585 27.2197H103.412L96.8073 11.9275V27.2197H92.5755V4.77826H97.6729L105.816 23.3726H105.88C106.243 23.3726 106.489 23.223 106.617 22.9238C106.746 22.6032 106.81 22.0368 106.81 21.2246V4.77826H111.042Z" fill="white"/>
<path d="M120.8 8.30478H114.035V4.77826H132.084V8.30478H125.32V27.2197H120.8V8.30478Z" fill="white"/>
<path d="M142.359 27.6044C139.389 27.6044 137.112 26.9205 135.531 25.5526C133.971 24.1634 133.19 22.1223 133.19 19.4293V12.5687C133.19 9.87568 133.971 7.84526 135.531 6.4774C137.112 5.08817 139.389 4.39355 142.359 4.39355C145.33 4.39355 147.596 5.08817 149.156 6.4774C150.738 7.84526 151.528 9.87568 151.528 12.5687V19.4293C151.528 22.1223 150.738 24.1634 149.156 25.5526C147.596 26.9205 145.33 27.6044 142.359 27.6044ZM142.359 24.0779C143.856 24.0779 144.999 23.6825 145.79 22.8917C146.602 22.0796 147.008 20.9254 147.008 19.4293V12.5687C147.008 11.0726 146.602 9.92911 145.79 9.13832C144.999 8.32615 143.856 7.92007 142.359 7.92007C140.863 7.92007 139.709 8.32615 138.897 9.13832C138.106 9.92911 137.711 11.0726 137.711 12.5687V19.4293C137.711 20.9254 138.106 22.0796 138.897 22.8917C139.709 23.6825 140.863 24.0779 142.359 24.0779Z" fill="white"/>
<path d="M174.183 27.2197H169.406L167.931 22.2505C167.632 21.2246 167.333 20.4338 167.033 19.8782C166.734 19.3011 166.328 18.8629 165.815 18.5637C165.302 18.2645 164.618 18.1149 163.763 18.1149H160.525V27.2197H156.005V4.77826H165.078C167.814 4.77826 169.833 5.32327 171.137 6.41328C172.441 7.48193 173.093 9.15969 173.093 11.4466C173.093 12.9213 172.697 14.1075 171.906 15.0052C171.137 15.9028 170.068 16.4799 168.701 16.7364C169.791 17.0997 170.613 17.7302 171.169 18.6278C171.725 19.5255 172.238 20.7438 172.708 22.2826L174.183 27.2197ZM165.206 14.5884C166.189 14.5884 166.991 14.3319 167.611 13.819C168.252 13.2846 168.572 12.4938 168.572 11.4466C168.572 10.3993 168.252 9.61921 167.611 9.10626C166.991 8.57194 166.189 8.30478 165.206 8.30478H160.525V14.5884H165.206Z" fill="white"/>
<path d="M177.858 4.77826H182.378V27.2197H177.858V4.77826Z" fill="white"/>
<path d="M206.28 4.77826V21.9299C206.28 23.6611 205.927 24.9756 205.222 25.8732C204.517 26.7709 203.384 27.2197 201.824 27.2197H198.65L192.046 11.9275V27.2197H187.814V4.77826H192.911L201.054 23.3726H201.118C201.482 23.3726 201.728 23.223 201.856 22.9238C201.984 22.6032 202.048 22.0368 202.048 21.2246V4.77826H206.28Z" fill="white"/>
<path d="M219.821 27.6044C216.765 27.6044 214.424 26.9205 212.8 25.5526C211.197 24.1634 210.396 22.1223 210.396 19.4293V12.5687C210.396 9.87568 211.197 7.84526 212.8 6.4774C214.424 5.08817 216.765 4.39355 219.821 4.39355C222.022 4.39355 223.818 4.74621 225.207 5.45151C226.618 6.15681 227.729 7.20408 228.541 8.59331L225.111 10.9336C224.448 9.86499 223.743 9.09557 222.995 8.62537C222.247 8.15517 221.189 7.92007 219.821 7.92007C218.111 7.92007 216.861 8.31546 216.07 9.10626C215.301 9.87568 214.916 11.0298 214.916 12.5687V19.4293C214.916 20.9682 215.301 22.133 216.07 22.9238C216.861 23.6932 218.111 24.0779 219.821 24.0779C221.317 24.0779 222.45 23.8321 223.219 23.3406C224.01 22.8276 224.405 22.0902 224.405 21.1285V20.1346C224.405 18.8095 223.796 18.147 222.578 18.147H218.923V14.6204H223.86C225.57 14.6204 226.831 15.0158 227.643 15.8066C228.456 16.5974 228.862 17.8264 228.862 19.4934V21.4491C228.862 23.3726 228.049 24.8794 226.425 25.9694C224.801 27.0594 222.599 27.6044 219.821 27.6044Z" fill="white"/>
<defs>
<linearGradient id="paint0_linear_2444_1609" x1="19.7306" y1="0" x2="19.7306" y2="32" gradientUnits="userSpaceOnUse">
<stop stop-color="#035349"/>
<stop offset="1" stop-color="#E8E828"/>
</linearGradient>
</defs>
</svg>
