<svg width="148" height="48" viewBox="0 0 148 48" fill="none" xmlns="http://www.w3.org/2000/svg">
<g style="mix-blend-mode:luminosity" clip-path="url(#clip0_1071_811)">
<path d="M36.0241 33.4798C35.9594 33.8344 35.795 34.1633 35.5501 34.4278L27.9659 42.012C27.9348 42.0742 27.8917 42.1297 27.8391 42.1753C27.7865 42.2209 27.7255 42.2557 27.6595 42.2778C27.5934 42.2998 27.5237 42.3085 27.4543 42.3036C27.3849 42.2987 27.3171 42.2801 27.2549 42.249C27.1926 42.2179 27.1371 42.1748 27.0915 42.1222C27.0459 42.0696 27.0111 42.0086 26.9891 41.9426C26.9671 41.8765 26.9583 41.8068 26.9632 41.7374C26.9682 41.668 26.9867 41.6002 27.0179 41.538V24.9476L36.0241 15.9414V33.4798Z" fill="#E34B5F"/>
<path d="M29.862 9.7787C29.862 9.65298 29.812 9.53242 29.7231 9.44352C29.6343 9.35463 29.5137 9.30469 29.388 9.30469C29.2623 9.30469 29.1417 9.35463 29.0528 9.44352C28.9639 9.53242 28.914 9.65298 28.914 9.7787L18.0117 21.155V33.9532L27.0179 24.947L36.0241 15.9408L29.862 9.7787Z" fill="#E7CE9C"/>
<path d="M0 33.4798C0.0646681 33.8344 0.229097 34.1633 0.474011 34.4278L8.05818 42.012C8.12104 42.1377 8.23126 42.2333 8.3646 42.2777C8.49794 42.3222 8.64348 42.3119 8.7692 42.249C8.89491 42.1861 8.99051 42.0759 9.03496 41.9426C9.0794 41.8092 9.06906 41.6637 9.0062 41.538V24.9476L0 15.9414V33.4798Z" fill="#1E7889"/>
<path d="M7.11016 9.7787C7.11016 9.65298 7.06022 9.53242 6.97132 9.44352C6.88243 9.35463 6.76186 9.30469 6.63615 9.30469C6.51043 9.30469 6.38987 9.35463 6.30097 9.44352C6.21208 9.53242 6.16214 9.65298 6.16214 9.7787L0 15.9408L9.0062 24.947L18.0124 33.9532V21.155L7.11016 9.7787Z" fill="#97BAA6"/>
<path d="M47.4014 33.4805V16.8902H51.6675V18.7862C52.1317 17.964 52.8308 17.2991 53.6754 16.8769C54.5199 16.4546 55.4713 16.2942 56.4076 16.4162C57.3034 16.4826 58.1669 16.7793 58.9143 17.2776C59.6618 17.7759 60.2678 18.4588 60.6737 19.2602C62.5697 17.3642 63.9917 16.4162 65.8878 16.4162C69.6799 16.4162 72.0499 18.3122 72.0499 22.5783V33.4805H67.3098V24.4743C67.3098 22.1043 66.8358 21.1563 64.9398 21.1563C63.0437 21.1563 62.0957 22.1043 62.0957 24.4743V33.4805H56.8816V24.4743C56.8816 22.1043 56.4076 21.1563 54.9855 21.1563C53.5635 21.1563 52.1415 22.1043 52.1415 24.4743V33.4805H47.4014ZM77.738 18.7862C78.9937 17.605 80.5621 16.8089 82.2568 16.4927C83.9516 16.1764 85.7015 16.3532 87.2987 17.0021C88.8959 17.651 90.2733 18.7446 91.2674 20.1532C92.2614 21.5618 92.8303 23.226 92.9064 24.9484C92.9405 26.0814 92.7485 27.2099 92.3415 28.268C91.9346 29.326 91.3209 30.2923 90.5363 31.1105C89.7054 32.0408 88.6805 32.7777 87.5339 33.269C86.3873 33.7604 85.147 33.9944 83.9002 33.9546C82.728 33.9572 81.5694 33.7041 80.5051 33.2129C79.4408 32.7217 78.4965 32.0042 77.738 31.1105C76.9535 30.2923 76.3398 29.326 75.9328 28.268C75.5259 27.2099 75.3339 26.0814 75.368 24.9484C75.3339 23.8153 75.5259 22.6868 75.9328 21.6288C76.3398 20.5707 76.9535 19.6044 77.738 18.7862ZM83.9002 29.2145C85.0316 29.2145 86.1167 28.765 86.9168 27.9649C87.7168 27.1649 88.1663 26.0798 88.1663 24.9484C88.1663 23.8798 87.7418 22.855 86.9862 22.0994C86.2306 21.3438 85.2058 20.9193 84.1372 20.9193C83.0686 20.9193 82.0438 21.3438 81.2882 22.0994C80.5326 22.855 80.1081 23.8798 80.1081 24.9484C80.1016 26.0023 80.4854 27.0213 81.1856 27.809C81.8858 28.5967 82.8528 29.0974 83.9002 29.2145ZM96.2245 33.4805V16.8902H100.965V18.7862C101.913 17.3642 103.335 16.4162 105.705 16.4162C109.023 16.4162 111.393 18.7862 111.393 22.5783V33.4805H106.653V24.4743C106.653 22.1043 106.179 21.1563 104.283 21.1563C102.387 21.1563 100.965 22.1043 100.965 24.4743V33.4805H96.2245ZM132.249 18.7862C133.505 17.605 135.073 16.8089 136.768 16.4927C138.463 16.1764 140.213 16.3532 141.81 17.0021C143.407 17.651 144.785 18.7446 145.779 20.1532C146.773 21.5618 147.341 23.226 147.418 24.9484C147.452 26.0814 147.26 27.2099 146.853 28.268C146.446 29.326 145.832 30.2923 145.048 31.1105C144.27 31.9809 143.321 32.6824 142.261 33.1716C141.202 33.6608 140.052 33.9273 138.885 33.9546C137.634 34.0292 136.383 33.811 135.231 33.3173C134.079 32.8236 133.058 32.068 132.249 31.1105C131.465 30.2923 130.851 29.326 130.444 28.268C130.037 27.2099 129.845 26.0814 129.879 24.9484C129.845 23.8153 130.037 22.6868 130.444 21.6288C130.851 20.5707 131.465 19.6044 132.249 18.7862ZM138.885 29.2145C139.933 29.0974 140.9 28.5967 141.6 27.809C142.3 27.0213 142.684 26.0023 142.677 24.9484C142.677 23.8798 142.253 22.855 141.497 22.0994C140.742 21.3438 139.717 20.9193 138.648 20.9193C137.58 20.9193 136.555 21.3438 135.799 22.0994C135.044 22.855 134.619 23.8798 134.619 24.9484C134.619 26.0798 135.069 27.1649 135.869 27.9649C136.669 28.765 137.754 29.2145 138.885 29.2145ZM115.185 33.4805V30.1625L121.821 21.1563H115.185V16.8902H127.509V20.6823L121.347 29.2145H127.509V33.4805H115.185Z" fill="black"/>
</g>
<defs>
<clipPath id="clip0_1071_811">
<rect width="148" height="48" fill="white"/>
</clipPath>
</defs>
</svg>
