<svg width="203" height="27" viewBox="0 0 203 27" fill="none" xmlns="http://www.w3.org/2000/svg">
<g clip-path="url(#clip0_35_1183)">
<path d="M139.881 10.5923C139.881 7.2692 137.804 4.88074 133.962 4.88074H121.292V22.1192H125.446V16.2H130.327L135.104 22.1192H139.777V21.7038L135.104 16.0961C138.115 15.473 139.881 13.2923 139.881 10.5923ZM133.442 12.6692H125.446V8.41151H133.442C134.896 8.41151 135.831 9.24228 135.831 10.5923C135.935 11.9423 135 12.6692 133.442 12.6692Z" fill="black"/>
<path d="M202.604 4.77734H198.762V11.3197H188.273V4.77734H184.119V22.0158H188.273V15.2658H198.762V22.0158H202.604V4.77734Z" fill="black"/>
<path d="M110.181 4.77734L105.612 19.212H105.404L100.731 4.77734H93.3577V22.0158H97.3038V7.89273H97.5115L102.081 22.0158H108.415L113.088 7.89273H113.296V22.0158H117.346V4.77734H110.181Z" fill="black"/>
<path d="M65.0077 11.8385C63.5539 11.7347 60.8539 11.4231 59.2962 11.3193C57.8423 11.2154 57.0115 10.6962 57.0115 9.76157C57.0115 8.82696 57.9462 8.10003 61.4769 8.10003C64.5923 8.10003 67.5 8.82696 70.0962 9.96927V6.12696C67.6039 4.8808 64.8 4.36157 61.2692 4.36157C56.3885 4.36157 52.9615 6.4385 52.9615 9.86542C52.9615 12.7731 54.9346 14.4347 58.9846 14.85C60.4385 15.0577 62.9308 15.2654 64.5923 15.3693C66.4615 15.4731 66.9808 16.0962 66.9808 16.927C66.9808 18.0693 65.6308 18.7962 62.4115 18.7962C59.0885 18.7962 55.6615 17.6539 53.1692 16.2V20.1462C55.1423 21.4962 58.4654 22.5347 62.3077 22.5347C67.6039 22.5347 71.0308 20.4577 71.0308 16.8231C71.0308 14.0193 69.2654 12.2539 65.0077 11.8385Z" fill="black"/>
<path d="M73.8346 4.77734V22.0158H89.8269V18.485H77.7808V14.9543H89.6192V11.4235H77.7808V8.30811H89.8269V4.77734H73.8346Z" fill="black"/>
<path d="M175.5 11.8385C174.046 11.7347 171.346 11.4231 169.788 11.3193C168.335 11.2154 167.504 10.6962 167.504 9.76157C167.504 8.82696 168.438 8.10003 171.969 8.10003C175.085 8.10003 177.992 8.72311 180.588 9.96927V6.12696C178.096 4.8808 175.292 4.36157 171.762 4.36157C166.881 4.36157 163.454 6.4385 163.454 9.86542C163.454 12.7731 165.427 14.4347 169.477 14.85C170.931 15.0577 173.423 15.2654 175.085 15.3693C176.954 15.4731 177.473 16.0962 177.473 16.927C177.473 18.0693 176.123 18.7962 172.904 18.7962C169.581 18.7962 166.154 17.6539 163.662 16.2V20.1462C165.635 21.4962 168.958 22.5347 172.8 22.5347C178.096 22.5347 181.523 20.4577 181.523 16.8231C181.523 14.0193 179.654 12.2539 175.5 11.8385Z" fill="black"/>
<path d="M156.496 4.77734V13.6043C156.496 16.9273 154.419 18.7966 151.408 18.7966C148.292 18.7966 146.319 17.0312 146.319 13.6043V4.77734H142.165V13.1889C142.165 19.4197 146.112 22.535 151.408 22.535C156.6 22.535 160.546 19.5235 160.546 13.3966V4.77734H156.496Z" fill="black"/>
<path d="M38.8385 13.2923C38.8385 14.1231 38.4231 14.2269 37.3846 14.2269C36.2423 14.2269 36.0346 14.0192 35.9308 13.1885C35.7231 11.0077 34.2692 9.13846 31.7769 9.03462C31.05 8.93077 30.8423 8.72308 30.8423 7.68462C30.8423 6.75 30.9461 6.33462 31.6731 6.33462C35.8269 6.43846 38.8385 9.86539 38.8385 13.2923ZM44.9654 13.2923C44.9654 6.85385 40.6038 0 30.4269 0H10.3846C9.96923 0 9.65769 0.207692 9.65769 0.623077C9.65769 0.830769 9.76154 1.03846 9.96923 1.14231C10.6962 1.76538 11.7346 2.38846 13.1885 3.11538C14.5385 3.84231 15.6808 4.25769 16.7192 4.67308C17.1346 4.88077 17.3423 5.08846 17.3423 5.29615C17.3423 5.60769 17.1346 5.91923 16.6154 5.91923H0.726923C0.207692 5.81538 0 6.12692 0 6.43846C0 6.75 0.103846 6.95769 0.311538 7.16538C1.55769 8.51538 3.63461 10.1769 6.64615 12.0462C9.24231 13.7077 12.5654 15.4731 15.1615 16.7192C15.5769 16.9269 15.7846 17.1346 15.7846 17.4462C15.7846 17.7577 15.5769 17.9654 15.0577 17.9654H7.68461C7.26923 17.9654 7.06154 18.1731 7.06154 18.4846C7.06154 18.6923 7.16538 18.9 7.37308 19.1077C9.03461 20.6654 11.7346 22.2231 15.2654 23.7808C20.0423 25.7538 24.8192 27 30.2192 27C40.5 27 44.9654 19.3154 44.9654 13.2923ZM31.5692 22.5346C26.5846 22.5346 22.3269 18.4846 22.3269 13.2923C22.3269 8.30769 26.4808 4.25769 31.5692 4.25769C36.7615 4.25769 40.8115 8.30769 40.8115 13.2923C40.8115 18.3808 36.7615 22.5346 31.5692 22.5346Z" fill="#FF642D"/>
</g>
<defs>
<clipPath id="clip0_35_1183">
<rect width="202.604" height="27" fill="white"/>
</clipPath>
</defs>
</svg>
