<svg width="108" height="27" viewBox="0 0 108 27" fill="none" xmlns="http://www.w3.org/2000/svg">
<path d="M34.7062 22.1075C32.6735 21.9914 30.1201 20.6149 29.0953 19.5866L31.3464 16.7506C31.9008 17.3642 34.555 18.8735 36.3693 18.5418C36.8564 18.4423 37.4108 18.0276 37.4108 17.3808C37.4444 16.9496 37.0748 16.5516 36.7556 16.4023C36.4532 16.1867 35.4957 16.1536 34.8742 16.1204C34.1686 16.0872 33.3623 16.0043 32.5055 15.656C30.9264 14.8931 29.8177 13.3176 29.7673 11.6425C29.7673 9.66895 30.5736 8.57435 31.3968 7.89438C33.0599 6.61735 35.3781 6.50126 36.974 6.91588C38.2339 7.2144 39.6282 7.89438 40.4514 8.67386L38.3851 11.5264C38.0827 11.3108 36.6212 10.6474 36.0669 10.4982C35.2101 10.2494 34.1182 10.3821 33.631 10.6806C33.4798 10.7635 33.2615 11.1118 33.3287 11.5264C33.3287 11.8249 33.6142 12.2561 33.8158 12.3722C34.2526 12.5878 34.6558 12.7039 35.2269 12.7371C36.0333 12.7371 37.3772 12.7371 38.4019 13.2181C40.0986 14.1302 41.0897 15.6892 40.9553 17.4803C40.8545 19.0393 39.7794 20.5485 38.3683 21.2783C37.3268 21.9582 35.9157 22.207 34.7062 22.1075Z" fill="#2A3137"/>
<path d="M49.6909 21.9573C47.6918 21.9573 45.8103 21.1944 44.3656 19.8345C42.8873 18.4414 42.0474 16.5507 42.0306 14.5108C41.997 12.4708 42.7697 10.5636 44.1808 9.08758C45.5919 7.66129 47.507 6.79888 49.5733 6.78229C51.6395 6.74912 53.5546 7.51202 55.0329 8.90514L52.4795 11.5255C51.7403 10.829 50.7492 10.4309 49.7077 10.4309H49.6405C48.5653 10.4309 47.5742 10.8621 46.8351 11.625C46.0959 12.3879 45.6927 13.383 45.7263 14.461C45.7263 15.5224 46.1631 16.5009 46.9358 17.2307C47.7086 17.9604 48.7165 18.3584 49.8085 18.3253C50.7996 18.3253 51.7235 17.9272 52.4627 17.2638L54.9657 19.934C53.5714 21.211 51.7571 21.9407 49.8756 21.9739H49.6909V21.9573Z" fill="#2A3137"/>
<path d="M70.4374 6.83196V21.9905H67.3632V20.6139C66.1033 21.4598 64.5914 21.9905 62.9619 21.9905C58.7118 21.9905 55.2512 18.5574 55.2512 14.3781C55.2512 10.1821 58.695 6.76562 62.9619 6.76562C64.5914 6.76562 66.1033 7.27976 67.3632 8.14217V6.83196H70.4374ZM66.9432 14.3781C66.9432 12.1889 65.1625 10.4309 62.9283 10.4309C60.7444 10.4309 58.9469 12.1889 58.9469 14.3781C58.9469 16.5341 60.7276 18.3087 62.9283 18.3087C65.1625 18.3087 66.9432 16.5341 66.9432 14.3781Z" fill="#2A3137"/>
<path d="M88.1434 14.6767C88.1434 18.8395 84.7164 22.2228 80.5335 22.2228C78.9544 22.2228 77.5097 21.7418 76.317 20.9458V26.9992H72.6549V6.93164H76.317V8.45744C77.5265 7.6282 78.9712 7.18042 80.5335 7.18042C84.7332 7.16383 88.1434 10.5471 88.1434 14.6767ZM84.4813 14.6767C84.4813 12.5207 82.7174 10.7793 80.5335 10.7793C78.3497 10.7793 76.5522 12.5207 76.5522 14.6767C76.5522 16.8327 78.3329 18.6073 80.5335 18.6073C82.7174 18.6073 84.4813 16.8493 84.4813 14.6767Z" fill="#2A3137"/>
<path d="M91.4696 5.12469C90.0921 5.12469 88.9833 4.0301 88.9833 2.62039V2.45455C88.9833 1.09459 90.0921 0 91.4696 0C92.8807 0 94.0398 1.09459 94.0398 2.45455V2.62039C94.0398 4.01351 92.8807 5.12469 91.4696 5.12469ZM93.3847 21.8919H89.7561V6.78317H93.3847V21.8919Z" fill="#2A3137"/>
<path d="M102.658 21.9573C100.659 21.9573 98.7773 21.1944 97.3326 19.8345C95.8543 18.4414 95.0143 16.5507 94.9975 14.5108C94.9639 12.4708 95.7367 10.5636 97.1478 9.08758C98.5589 7.66129 100.474 6.79888 102.54 6.78229C104.607 6.74912 106.522 7.51202 108 8.90514L105.447 11.5255C104.707 10.829 103.716 10.4309 102.675 10.4309H102.608C101.532 10.4309 100.541 10.8621 99.802 11.625C99.0629 12.3879 98.6597 13.383 98.6933 14.461C98.6933 15.5224 99.1301 16.5009 99.9028 17.2307C100.676 17.9604 101.684 18.3584 102.776 18.3253C103.767 18.3253 104.691 17.9272 105.43 17.2638L107.933 19.934C106.538 21.211 104.724 21.9407 102.843 21.9739H102.658V21.9573Z" fill="#2A3137"/>
<path d="M11.9775 20.0848C11.6751 20.118 11.5911 19.7034 11.8767 19.6205C11.8935 19.6205 11.8935 19.6205 11.9103 19.6039C17.8739 17.9454 22.2416 14.9436 21.6704 12.9036C21.0824 10.8637 15.774 10.5486 9.81036 12.2071C3.84676 13.8655 -0.520956 16.8674 0.0502056 18.9073C1.7301 24.7949 7.92888 28.2445 13.8925 26.5861C18.7474 25.2427 21.956 20.9307 22.0736 16.204C17.7563 19.8692 11.9775 20.0848 11.9775 20.0848Z" fill="#F54547"/>
<path d="M17.8907 5.04207C16.8491 1.37684 12.9854 -0.762605 9.25605 0.265651C6.43384 1.06172 4.48516 3.46652 4.19958 6.203C4.70355 5.87131 6.93781 4.54453 10.3312 4.32892C10.4152 4.32892 10.4656 4.31234 10.4656 4.31234C10.6503 4.27916 10.7007 4.56111 10.5327 4.61087H10.5159C6.78662 5.63912 4.06519 7.5132 4.41796 8.79023C4.78755 10.0672 8.08013 10.2497 11.8095 9.22143C15.5388 8.17659 18.2602 6.3191 17.8907 5.04207Z" fill="#F54547"/>
</svg>
