<svg width="102" height="27" viewBox="0 0 102 27" fill="none" xmlns="http://www.w3.org/2000/svg">
<g clip-path="url(#clip0_35_1192)">
<path fill-rule="evenodd" clip-rule="evenodd" d="M0.611702 0.00124476H7.51734C7.77013 0.00124476 7.98582 0.145744 8.08272 0.379134C8.17918 0.612525 8.12862 0.86698 7.95002 1.0456L1.04436 7.95126C0.865735 8.12987 0.61128 8.18043 0.377467 8.08397C0.144078 7.98707 0 7.77138 0 7.51859V0.612947C0 0.276342 0.274676 0.00124476 0.611702 0.00124476ZM11.4951 0.000677957C12.8579 -0.00184973 14.0131 -0.0153307 15.3881 0.376461C19.5315 1.55731 22.5883 5.38718 22.5883 9.89617C22.5883 15.3387 18.1353 19.7912 12.6932 19.7912H5.58914L9.89506 21.2025V26.327C9.89506 26.664 9.61997 26.9387 9.28338 26.9387H0.611702C0.274676 26.9387 0 26.664 0 26.327V11.4974C0 11.3289 0.0602434 11.184 0.179045 11.0648L11.0641 0.180144C11.1825 0.0613427 11.327 0.00109924 11.4951 0.000677957Z" fill="#D70432"/>
<path fill-rule="evenodd" clip-rule="evenodd" d="M31.4023 22.2738C31.4023 22.4616 31.5073 22.5682 31.6968 22.5682H33.0432C33.2328 22.5682 33.3377 22.4633 33.3377 22.2738V17.2984C33.8847 18.0138 35.0629 18.3293 35.7781 18.3293C38.2398 18.3293 40.1544 16.7933 40.1544 13.8692C40.1544 11.1553 38.2398 9.40907 35.7781 9.40907C33.3167 9.40907 31.4023 10.9455 31.4023 13.8692V22.2738ZM33.3377 13.8691C33.3377 11.7653 34.7052 11.2602 35.7781 11.2602C36.8513 11.2602 38.2189 11.7653 38.2189 13.8691C38.2189 15.973 36.8513 16.4777 35.7781 16.4777C34.7052 16.4777 33.3377 15.973 33.3377 13.8691ZM50.8836 13.953C50.8836 10.9236 48.9692 9.40907 46.5079 9.40907C44.0252 9.40907 42.0478 11.0921 42.0478 13.9324C42.0478 16.2044 43.4785 18.3082 46.087 18.3082C46.9078 18.3082 48.2332 18.0555 48.9483 16.9408V17.782C48.9483 17.9716 49.0536 18.077 49.243 18.077H50.5896C50.7789 18.077 50.8836 17.9716 50.8836 17.782V13.953ZM48.9483 13.9323C48.9483 16.0152 47.3071 16.6041 46.2554 16.5409C45.1825 16.4777 44.0043 15.8045 44.0043 13.8691C44.0043 11.8917 45.4349 11.2602 46.5079 11.2602C47.5808 11.2602 48.9483 11.7653 48.9483 13.9323ZM56.343 22.5295C56.5124 22.5885 56.6548 22.559 56.7426 22.361L62.2448 9.93486C62.3096 9.78825 62.2232 9.66142 62.0764 9.66142H60.5617C60.3724 9.66142 60.2249 9.74569 60.1408 9.93486L57.5742 15.8467L55.0284 9.93486C54.9656 9.74569 54.8181 9.66142 54.6285 9.66142H53.0719C52.9244 9.66142 52.8407 9.78741 52.9038 9.93486L56.5222 18.077L54.9332 21.7088C54.8536 21.8912 54.9113 22.0282 55.0804 22.0876L56.343 22.5295ZM68.6823 11.2602C69.6499 11.2602 70.7863 11.5968 70.7863 13.6164V17.7821C70.7863 17.9717 70.8912 18.077 71.0806 18.077H72.4272C72.6162 18.077 72.7215 17.9717 72.7215 17.7821V13.6164C72.7215 10.7555 71.0175 9.4091 68.6823 9.4091C67.6938 9.4091 66.9361 9.76675 66.4099 10.3347V4.55423C66.4099 4.3651 66.3046 4.25977 66.1156 4.25977H64.769C64.5803 4.25977 64.4747 4.3655 64.4747 4.55423V17.7821C64.4747 17.9712 64.58 18.077 64.769 18.077H66.1156C66.3049 18.077 66.4099 17.9717 66.4099 17.7821V13.4694C66.473 11.6811 67.7356 11.2602 68.6823 11.2602ZM83.6831 13.8692C83.6831 10.9447 81.7682 9.40907 79.3068 9.40907C76.8451 9.40907 74.9308 10.9447 74.9308 13.8692C74.9308 16.7933 76.8451 18.3293 79.3068 18.3293C80.8215 18.3293 82.0628 17.782 82.8414 16.7095C82.9467 16.562 82.8833 16.3935 82.7358 16.3308L81.4948 15.7835C81.3264 15.6992 81.1583 15.7624 81.0108 15.8677C80.5272 16.3514 79.8745 16.4778 79.3068 16.4778C78.297 16.4778 77.0347 16.0363 76.8663 14.2269H83.3669C83.5357 14.2269 83.6831 14.1005 83.6831 13.9324V13.8692ZM77.0138 12.8172C77.3925 11.5967 78.4441 11.2602 79.3068 11.2602C80.1694 11.2602 81.2211 11.5967 81.6001 12.8172H77.0138ZM91.2776 10.0402C91.3407 9.87165 91.2148 9.72463 91.046 9.66142C90.5206 9.514 89.9944 9.45122 89.4892 9.45122C87.5539 9.45122 85.997 10.3978 85.997 13.0064V17.7821C85.997 17.9717 86.102 18.077 86.2917 18.077H87.638C87.8273 18.077 87.9326 17.9717 87.9326 17.7821V13.0064C87.9326 11.66 88.7743 11.3234 89.6998 11.3234C90.0363 11.3234 90.3731 11.3655 90.7308 11.4287C90.8992 11.4919 91.0461 11.3655 91.0673 11.1974L91.2776 10.0402ZM101.25 13.8692C101.25 10.9447 99.3354 9.40907 96.8737 9.40907C94.4126 9.40907 92.498 10.9447 92.498 13.8692C92.498 16.7933 94.4126 18.3293 96.8737 18.3293C98.3887 18.3293 99.6297 17.782 100.408 16.7095C100.514 16.562 100.45 16.3935 100.303 16.3308L99.062 15.7835C98.8939 15.6992 98.7252 15.7624 98.5777 15.8677C98.0941 16.3514 97.4417 16.4778 96.8737 16.4778C95.8639 16.4778 94.6019 16.0363 94.4332 14.2269H100.934C101.103 14.2269 101.25 14.1005 101.25 13.9324V13.8692ZM94.5807 12.8172C94.9594 11.5967 96.0113 11.2602 96.8737 11.2602C97.7366 11.2602 98.7886 11.5967 99.1673 12.8172H94.5807Z" fill="#1C1A1A"/>
</g>
<defs>
<clipPath id="clip0_35_1192">
<rect width="101.25" height="27" fill="white"/>
</clipPath>
</defs>
</svg>
