<svg width="121" height="27" viewBox="0 0 121 27" fill="none" xmlns="http://www.w3.org/2000/svg">
<g clip-path="url(#clip0_35_1215)">
<path d="M20.6773 4.63542C16.0752 4.30485 10.9489 4.30486 6.34672 4.63542C5.38333 4.70462 4.65339 5.4423 4.58096 6.34397C4.34865 9.23562 4.31774 13.5679 4.53075 16.4566C4.60112 17.4108 5.43884 18.2298 6.57218 18.2298H10.125V22.6125L6.57942 22.61C3.32683 22.61 0.407322 20.1992 0.155132 16.7792C-0.0744621 13.6658 -0.042751 9.10818 0.207536 5.99263C0.458371 2.87027 2.96914 0.479229 6.03239 0.259202C10.8439 -0.0863997 16.1802 -0.0864012 20.9917 0.259201C24.0549 0.479227 26.5658 2.87027 26.8166 5.99263C27.0669 9.10818 27.0559 13.6658 26.8263 16.7792C26.5741 20.1992 23.6614 22.6198 20.4088 22.6198L16.8998 22.6173L10.125 27V22.6125L16.8998 18.2298H20.4093C21.5426 18.2298 22.3803 17.4108 22.4507 16.4566C22.6637 13.5679 22.6754 9.23562 22.4431 6.34397C22.3707 5.4423 21.6408 4.70462 20.6773 4.63542Z" fill="#FE5000"/>
<path d="M33.7158 19.2639H44.3187V16.6017H36.9288V3.19897H33.7158V19.2639Z" fill="#1B1B20"/>
<path d="M45.8555 19.2647H48.9767V7.33073H45.8555V19.2647ZM45.603 4.20953C45.603 5.24228 46.3604 6.02258 47.4161 6.02258C48.4718 6.02258 49.2291 5.24228 49.2291 4.20953C49.2291 3.17678 48.4718 2.39648 47.4161 2.39648C46.3604 2.39648 45.603 3.17678 45.603 4.20953Z" fill="#1B1B20"/>
<path d="M61.2147 7.33008H58.0935L55.5231 16.074L52.9527 7.33008H49.8315L53.8937 19.2641H57.1526L61.2147 7.33008Z" fill="#1B1B20"/>
<path d="M66.7844 19.5394C69.4236 19.5394 71.558 17.9558 71.9711 15.7756H69.24C68.9417 16.6018 68.1155 17.2903 66.7844 17.2903C64.9713 17.2903 64.2599 16.0739 64.2599 14.674V14.3756H72.0629V12.2872C72.0629 9.41843 70.2728 7.05457 66.7385 7.05457C63.1583 7.05457 61.2305 9.34958 61.2305 12.5855V14.215C61.2305 17.5657 63.4107 19.5394 66.7844 19.5394ZM64.2599 12.0577C64.2599 10.4512 64.9484 9.25778 66.7385 9.25778C68.4138 9.25778 69.1941 10.3823 69.1941 11.8741V12.1724H64.2599V12.0577Z" fill="#1B1B20"/>
<path d="M80.3582 19.5845C84.4203 19.5845 86.9219 16.8305 87.0825 13.5487H84.099C83.8924 15.3617 82.745 16.9453 80.3582 16.9453C77.673 16.9453 76.5255 15.1093 76.5255 12.5389V9.92259C76.5255 7.3522 77.673 5.5162 80.3582 5.5162C82.745 5.5162 83.8924 7.09975 84.099 8.9128H87.0825C86.9219 5.63095 84.4203 2.87695 80.3582 2.87695C75.5157 2.87695 73.3354 5.9752 73.3354 10.0832V12.3782C73.3354 16.4863 75.5157 19.5845 80.3582 19.5845Z" fill="#1B1B20"/>
<path d="M88.7793 19.2633H91.9007V12.1947C91.9007 10.5882 92.7953 9.76201 94.1957 9.76201C95.7104 9.76201 96.3755 10.7489 96.3755 12.1259V19.2633H99.4967V11.621C99.4967 8.79807 97.8677 7.05387 95.2739 7.05387C93.7367 7.05387 92.5199 7.71942 91.9007 8.75217V2.50977H88.7793V19.2633Z" fill="#1B1B20"/>
<path d="M105.455 19.5394C106.832 19.5394 108.346 18.9656 108.897 18.1624V19.264H111.903V11.6446C111.903 8.86762 109.861 7.05457 106.878 7.05457C104.307 7.05457 102.448 8.29387 101.759 10.6118H104.651C104.972 9.96923 105.638 9.48728 106.717 9.48728C108.002 9.48728 108.782 10.3135 108.782 11.4151V13.0445C108.231 12.5855 107.176 12.0347 105.753 12.0347C102.884 12.0347 100.933 13.2281 100.933 15.8215C100.933 18.1394 102.769 19.5394 105.455 19.5394ZM106.258 17.4739C104.95 17.4739 103.963 16.8313 103.963 15.7297C103.963 14.6281 104.881 14.0314 106.349 14.0314C107.75 14.0314 108.782 14.651 108.782 15.7067C108.782 16.7165 107.635 17.4739 106.258 17.4739Z" fill="#1B1B20"/>
<path d="M117.736 19.2632H119.893V16.7387H118.631C117.804 16.7387 117.506 16.4174 117.506 15.6371V9.85368H120.053V7.32921H117.506V4.07031H114.362V7.32921H112.664V9.85368H114.362V15.8666C114.362 17.978 115.441 19.2632 117.736 19.2632Z" fill="#1B1B20"/>
</g>
<defs>
<clipPath id="clip0_35_1215">
<rect width="120.6" height="27" fill="white"/>
</clipPath>
</defs>
</svg>
