<svg width="151" height="48" viewBox="0 0 151 48" fill="none" xmlns="http://www.w3.org/2000/svg">
<g style="mix-blend-mode:luminosity" clip-path="url(#clip0_1071_809)">
<path fill-rule="evenodd" clip-rule="evenodd" d="M11.6605 29.9919L4.96996 23.2707C3.83309 22.1285 1.98988 22.1285 0.852648 23.2707C-0.284216 24.4127 -0.284216 26.2644 0.852648 27.4068L9.60185 36.1962C10.7387 37.3382 12.5824 37.3382 13.7192 36.1962L21.9542 27.9231L17.8372 23.7868L11.6605 29.9919Z" fill="#16B8A2"/>
<path fill-rule="evenodd" clip-rule="evenodd" d="M36.879 17.0692L24.0136 29.9936L11.1467 17.0678C10.0095 15.9253 8.16627 15.9253 7.0294 17.0678C5.89254 18.2099 5.89254 20.0615 7.0294 21.204L21.9549 36.1979C23.0918 37.3401 24.9351 37.3401 26.0722 36.1979L40.9964 21.2054C42.1332 20.063 42.1332 18.2113 40.9964 17.0692C39.8591 15.9272 38.0158 15.9272 36.879 17.0692Z" fill="#FFB41F"/>
<path fill-rule="evenodd" clip-rule="evenodd" d="M47.1726 27.4077L38.4248 36.1956C37.288 37.3378 35.4448 37.3378 34.3079 36.1956L13.2057 14.9966C12.0688 13.8545 12.0688 12.0028 13.2057 10.8607C14.3429 9.71829 16.1861 9.71829 17.3229 10.8607L36.3662 29.9913L43.0553 23.2715C44.1925 22.1295 46.0357 22.1295 47.1726 23.2715C48.3094 24.4141 48.3094 26.2657 47.1726 27.4077Z" fill="#F56358"/>
<path fill-rule="evenodd" clip-rule="evenodd" d="M34.8196 10.8644C33.6827 9.72229 31.8396 9.72229 30.7023 10.8644L17.8369 23.7889L21.9543 27.9251L34.8196 15.0006C35.9566 13.8581 35.9566 12.0065 34.8196 10.8644Z" fill="#16B8A2"/>
<path fill-rule="evenodd" clip-rule="evenodd" d="M63.0967 12.8845H59.5166V34.0113H72.6342V30.8207H63.0967V12.8845ZM80.3826 19.2369C82.5594 19.2369 84.02 20.128 84.822 21.2203L84.9938 19.5244H88.0871V34.0113H84.9938L84.822 32.3155C84.02 33.4077 82.5594 34.2987 80.3826 34.2987C76.4587 34.2987 73.7951 31.1082 73.7951 26.7678C73.7951 22.3987 76.4587 19.2369 80.3826 19.2369ZM81.1273 22.2838C78.8932 22.2838 77.2893 24.0372 77.2893 26.7678C77.2893 29.4985 78.8932 31.2519 81.1273 31.2519C82.8457 31.2519 83.8769 30.3321 84.6501 29.0961V24.4395C83.8769 23.2036 82.8457 22.2838 81.1273 22.2838ZM96.752 14.6666H93.3151V19.5244H90.5941V22.4563H93.3151V28.8949C93.3151 32.4016 95.4058 34.2987 98.6996 34.2987C100.132 34.2987 101.191 33.8964 101.907 33.4364L100.991 30.7346C100.561 30.9932 99.9311 31.1944 99.0146 31.1944C97.6684 31.1944 96.752 30.3321 96.752 28.8661V22.4563H101.105V19.5244H96.752V14.6666ZM108.596 14.6666H105.159V19.5244H102.438V22.4563H105.159V28.8949C105.159 32.4016 107.25 34.2987 110.544 34.2987C111.976 34.2987 113.035 33.8964 113.751 33.4364L112.835 30.7346C112.405 30.9932 111.775 31.1944 110.859 31.1944C109.512 31.1944 108.596 30.3321 108.596 28.8661V22.4563H112.95V19.5244H108.596V14.6666ZM119.495 19.5244H116.058V34.0113H119.495V19.5244ZM117.776 12.7695C116.573 12.7695 115.657 13.6606 115.657 14.8966C115.657 16.1326 116.573 17.0236 117.776 17.0236C119.008 17.0236 119.924 16.1326 119.924 14.8966C119.924 13.6606 119.008 12.7695 117.776 12.7695ZM129.879 19.2369C125.439 19.2369 122.489 22.3987 122.489 26.7678C122.489 31.1082 125.468 34.2987 129.907 34.2987C132.513 34.2987 134.489 33.1203 135.778 31.1082L133.315 29.1824C132.627 30.3321 131.511 31.2807 129.936 31.2807C127.387 31.2807 125.983 29.2973 125.983 26.7678C125.983 24.2096 127.329 22.2551 129.907 22.2551C131.511 22.2551 132.57 23.1748 133.229 24.3246L135.721 22.4276C134.432 20.4154 132.513 19.2369 129.879 19.2369ZM144.185 19.2369C148.625 19.2369 150.802 22.5712 150.802 26.6241V27.8313H140.605C140.691 30.1308 142.066 31.3956 144.471 31.3956C146.161 31.3956 147.393 30.6482 148.052 29.7285L150.429 31.683C148.996 33.4077 147.107 34.2987 144.443 34.2987C139.976 34.2987 137.111 31.1369 137.111 26.7965C137.111 22.4276 140.033 19.2369 144.185 19.2369ZM144.128 21.9963C142.095 21.9963 140.719 23.3473 140.605 25.3594H147.422C147.336 23.376 146.19 21.9963 144.128 21.9963Z" fill="#0E0E29"/>
</g>
<defs>
<clipPath id="clip0_1071_809">
<rect width="151" height="48" fill="white"/>
</clipPath>
</defs>
</svg>
