<svg width="169" height="48" viewBox="0 0 169 48" fill="none" xmlns="http://www.w3.org/2000/svg">
<g clip-path="url(#clip0_1071_812)">
<path d="M166.801 20.3351C167.789 21.3831 168.286 22.804 168.286 24.6043V34.0751H164.621V25.678C164.621 24.6172 164.322 23.7813 163.723 23.1705C163.123 22.5597 162.314 22.2511 161.288 22.2511C160.077 22.2704 159.114 22.6883 158.407 23.4984C157.699 24.3085 157.342 25.3501 157.342 26.6168V34.0751H153.703V13.0311H157.342V21.7946C158.369 19.8078 160.172 18.7984 162.747 18.7598C164.456 18.7598 165.813 19.2806 166.801 20.3351ZM145.608 22.0196C144.397 22.0196 143.409 22.4375 142.657 23.267C141.905 24.1028 141.523 25.1765 141.523 26.501C141.523 27.8641 141.905 28.9571 142.657 29.793C143.416 30.6224 144.397 31.0403 145.615 31.0403C147.406 31.0403 148.751 30.4424 149.649 29.2529L151.918 31.156C151.249 32.1398 150.331 32.9242 149.261 33.4257C148.158 33.9529 146.883 34.2165 145.424 34.2165C143.951 34.2165 142.638 33.895 141.491 33.2521C140.363 32.6284 139.432 31.6833 138.82 30.5452C138.183 29.3815 137.864 28.0441 137.864 26.5332C137.864 25.0029 138.189 23.6463 138.833 22.4761C139.451 21.3252 140.388 20.3865 141.523 19.7564C142.67 19.1135 143.989 18.792 145.487 18.792C146.851 18.792 148.069 19.0299 149.139 19.5121C150.21 19.9943 151.083 20.6823 151.759 21.5695L149.547 23.6977C148.521 22.579 147.215 22.0196 145.608 22.0196ZM135.538 18.9013V34.0751H131.898V31.664C131.382 32.4741 130.662 33.1364 129.814 33.58C128.966 34.0236 127.991 34.2487 126.889 34.2487C125.467 34.2487 124.224 33.9208 123.147 33.2714C122.076 32.622 121.235 31.7026 120.642 30.5195C120.05 29.3365 119.75 27.9798 119.75 26.4496C119.75 24.9386 120.05 23.6013 120.649 22.4375C121.242 21.2738 122.083 20.3736 123.154 19.7307C124.224 19.0877 125.461 18.7663 126.863 18.7663C127.966 18.7663 128.947 18.9913 129.801 19.4349C130.656 19.8786 131.382 20.5344 131.898 21.3509V18.9141L135.538 18.9013ZM130.579 30.0309C131.344 29.285 131.784 28.2949 131.898 27.0668V25.9931C131.784 24.7586 131.35 23.7749 130.585 23.0291C129.821 22.2832 128.852 21.9103 127.673 21.9103C126.423 21.9103 125.404 22.3411 124.62 23.2027C123.836 24.0642 123.434 25.1765 123.415 26.5332C123.434 27.8963 123.836 29.0021 124.62 29.8637C125.404 30.7253 126.423 31.156 127.673 31.156C128.845 31.156 129.814 30.7831 130.579 30.0309ZM116.085 20.8559C117.29 22.2382 117.889 24.1735 117.889 26.6682C117.889 27.1569 117.876 27.5298 117.863 27.7741H106.805C107.047 28.8543 107.544 29.6965 108.303 30.3138C109.055 30.931 109.985 31.2332 111.088 31.2332C111.84 31.2332 112.592 31.0853 113.287 30.7896C113.982 30.5067 114.606 30.0759 115.123 29.5294L117.079 31.5997C116.321 32.442 115.39 33.0978 114.345 33.5286C113.274 33.9851 112.082 34.2101 110.776 34.2101C109.246 34.2101 107.895 33.8886 106.728 33.2457C105.588 32.6284 104.644 31.6833 104.026 30.5388C103.389 29.3751 103.076 28.0377 103.076 26.5268C103.076 25.0158 103.395 23.672 104.045 22.5018C104.67 21.3509 105.607 20.3994 106.748 19.7628C107.908 19.107 109.221 18.7855 110.693 18.7855C113.083 18.7855 114.881 19.4799 116.085 20.8559ZM114.562 25.3116C114.524 24.1928 114.16 23.3055 113.472 22.6433C112.784 21.981 111.866 21.6467 110.725 21.6467C109.66 21.6467 108.768 21.9746 108.048 22.624C107.328 23.2734 106.888 24.1671 106.716 25.3051H114.562V25.3116ZM99.1182 19.57C99.985 19.0492 100.998 18.7791 102.159 18.7598V22.3347C100.61 22.2382 99.3732 22.6047 98.449 23.4277C97.5248 24.2507 97.0595 25.363 97.0595 26.7582V34.0751H93.4201V18.9013H97.0595V21.8203C97.5694 20.8366 98.2514 20.0843 99.1182 19.57ZM90.6921 33.1364C89.5002 33.8758 88.2446 34.2422 86.938 34.2422C85.6505 34.2422 84.5924 33.8565 83.7766 33.0913C82.9544 32.3262 82.5465 31.1946 82.5465 29.703V15.3521L86.1604 14.9149V19.5185H90.4435V22.2125H86.1604V29.0536C86.1604 29.7544 86.2879 30.2495 86.5492 30.5388C86.8105 30.8346 87.1993 30.976 87.722 30.976C88.2828 30.976 88.9903 30.7703 89.8508 30.3524L90.6921 33.1364ZM75.803 18.9013H79.4169V27.4076C79.4169 32.3712 75.9942 34.2165 72.5206 34.2165C69.0469 34.2165 65.6305 32.3712 65.6305 27.4076V18.9013H69.2444V27.5362C69.2444 29.4394 70.6467 30.9824 72.5269 30.9824C74.4072 30.9824 75.8094 29.4394 75.8094 27.5362L75.803 18.9013ZM58.1414 15.3007C59.7029 16.1558 61.0032 17.4225 61.9083 18.9591C62.8261 20.5087 63.2786 22.2318 63.2786 24.1221C63.2786 26.0124 62.8197 27.7355 61.9083 29.2979C61.0032 30.8474 59.7029 32.1269 58.1414 33.0013C56.5416 33.9079 54.776 34.3644 52.832 34.3644C50.888 34.3644 49.1225 33.9079 47.5291 33.0013C45.9675 32.1269 44.6673 30.8474 43.7622 29.2979C42.8507 27.7355 42.3918 26.0124 42.3918 24.1221C42.3918 22.2318 42.8507 20.5087 43.7622 18.9591C44.6673 17.416 45.9675 16.1558 47.5291 15.3007C49.1225 14.4134 50.8944 13.9698 52.832 13.9698C54.776 13.9634 56.5479 14.407 58.1414 15.3007ZM49.5623 18.2647C48.5489 18.8434 47.7075 19.6857 47.1275 20.7016C46.5284 21.7367 46.2288 22.8748 46.2288 24.1221C46.2288 25.3694 46.5348 26.5139 47.1403 27.5555C47.7267 28.5778 48.568 29.4265 49.575 30.0244C50.5948 30.6288 51.6975 30.931 52.8958 30.931C54.0494 30.9374 55.1839 30.6224 56.1719 30.0244C57.1726 29.4265 57.9948 28.5778 58.5684 27.5555C59.1612 26.5075 59.4607 25.3244 59.448 24.1221C59.448 22.8748 59.1548 21.7367 58.5684 20.7016C58.0011 19.6921 57.1726 18.8498 56.1719 18.2647C55.1776 17.6732 54.0494 17.3646 52.8958 17.371C51.723 17.3646 50.5757 17.6732 49.5623 18.2647ZM14.9656 5.45703C20.1219 5.45703 27.9107 7.058 31.531 10.7293C32.4488 11.6616 33.6534 13.4811 33.6534 16.1558C33.6534 20.9009 29.8738 28.1856 25.7053 32.4162C23.551 34.6023 20.1219 37.457 15.5073 37.457C10.9947 37.457 7.5529 34.358 6.55859 33.3421C2.73434 29.4715 0 23.5949 0 18.1233C0 14.6642 0.975184 11.6423 3.45457 9.12832C5.74912 6.80724 9.70722 5.45703 14.9656 5.45703ZM21.3457 24.3921C23.0857 22.6304 23.5574 20.4572 23.5574 19.2613C23.5574 18.3933 23.3343 17.1267 22.2635 16.0401C20.6255 14.3749 18.8026 13.9055 16.8267 13.9055C14.3218 13.9055 12.6391 14.7092 11.5174 15.8408C10.6378 16.7409 9.87932 18.104 9.87932 20.0522C9.87932 21.9939 10.9055 23.8713 12.0145 25.0029C13.0471 26.0445 14.666 26.8161 16.2913 26.8161C17.923 26.8161 19.6057 26.1538 21.3457 24.3921Z" fill="#5952FF"/>
</g>
<defs>
<clipPath id="clip0_1071_812">
<rect width="169" height="48" fill="white"/>
</clipPath>
</defs>
</svg>
