<svg width="178" height="48" viewBox="0 0 178 48" fill="none" xmlns="http://www.w3.org/2000/svg">
<g style="mix-blend-mode:luminosity" clip-path="url(#clip0_1071_800)">
<path d="M6.44783 22.032C6.38324 21.9475 6.29793 21.881 6.20015 21.8391C6.10237 21.7972 5.99543 21.7812 5.88967 21.7927C5.78391 21.8042 5.6829 21.8428 5.59641 21.9047C5.50992 21.9666 5.44087 22.0498 5.39593 22.1463L0.0657807 32.8032C0.0172238 32.9004 -0.00570226 33.0083 -0.00082064 33.1168C0.00406097 33.2252 0.0365882 33.3307 0.0936727 33.423C0.150757 33.5154 0.230504 33.5916 0.325342 33.6445C0.42018 33.6974 0.526961 33.7252 0.635547 33.7252H8.05751C8.17638 33.728 8.29349 33.6961 8.39464 33.6336C8.49578 33.5711 8.57659 33.4806 8.62727 33.373C10.2283 30.0647 9.25801 25.0344 6.44783 22.032Z" fill="url(#paint0_linear_1071_800)"/>
<path d="M10.3569 12.3419C9.02879 14.3854 8.25482 16.7392 8.11094 19.1721C7.96707 21.6051 8.45824 24.0337 9.53625 26.2195L13.1145 33.3759C13.1674 33.4817 13.2487 33.5707 13.3493 33.6329C13.4499 33.6952 13.5659 33.7281 13.6842 33.7281H21.1048C21.2134 33.7281 21.3202 33.7003 21.4151 33.6475C21.5099 33.5946 21.5896 33.5183 21.6467 33.426C21.7038 33.3336 21.7363 33.2282 21.7412 33.1197C21.7461 33.0112 21.7232 32.9033 21.6746 32.8062C21.6746 32.8062 11.6914 12.8373 11.4405 12.3379C11.3909 12.2362 11.3136 12.1506 11.2176 12.0908C11.1215 12.0311 11.0106 11.9996 10.8974 12C10.7843 12.0004 10.6736 12.0327 10.578 12.0932C10.4824 12.1537 10.4058 12.2398 10.3569 12.3419Z" fill="#2684FF"/>
<path d="M97.3975 20.8856C97.3975 23.5245 98.6217 25.6196 103.41 26.5446C106.267 27.1443 106.865 27.6055 106.865 28.5577C106.865 29.4827 106.266 30.0815 104.253 30.0815C101.821 30.0377 99.4381 29.3928 97.3159 28.2042V32.5025C98.758 33.2098 100.662 33.9988 104.199 33.9988C109.205 33.9988 111.191 31.7664 111.191 28.4488L97.3975 20.8856ZM111.191 28.4488C111.191 25.3201 109.532 23.8507 104.852 22.8444C102.268 22.273 101.642 21.7019 101.642 20.8856C101.642 19.8526 102.567 19.4165 104.281 19.4165C106.349 19.4165 108.389 20.0422 110.321 20.9129V16.8046C108.468 15.9616 106.451 15.5433 104.417 15.5804C99.7916 15.5804 97.3975 17.5936 97.3975 20.8856" fill="#0052CC"/>
<path d="M161.71 15.8516V33.7262H165.519V20.0958L167.124 23.714L172.511 33.7262H177.299V15.8516H173.49V27.3872L172.048 24.0405L167.723 15.8516H161.71Z" fill="#0052CC"/>
<path d="M137.485 15.8516H133.322V33.7262H137.485V15.8516Z" fill="#0052CC"/>
<path d="M128.519 28.4488C128.519 25.3201 126.86 23.8507 122.18 22.8444C119.596 22.273 118.97 21.7019 118.97 20.8856C118.97 19.8526 119.895 19.4165 121.609 19.4165C123.677 19.4165 125.717 20.0422 127.649 20.9129V16.8046C125.797 15.9616 123.779 15.5433 121.745 15.5804C117.12 15.5804 114.726 17.5936 114.726 20.8856C114.726 23.5245 115.95 25.6196 120.738 26.5446C123.595 27.1443 124.193 27.6055 124.193 28.5577C124.193 29.4827 123.594 30.0815 121.582 30.0815C119.15 30.0377 116.766 29.3928 114.644 28.2042V32.5025C116.086 33.2098 117.99 33.9988 121.527 33.9988C126.533 33.9988 128.519 31.7664 128.519 28.4488Z" fill="#0052CC"/>
<path d="M65.0601 15.8516V33.7262H73.6159L74.963 29.8628H69.2497V15.8516H65.0601Z" fill="#0052CC"/>
<path d="M48.1572 15.8516V19.7146H52.7823V33.7262H56.972V19.7146H61.9236V15.8516H48.1572Z" fill="#0052CC"/>
<path d="M42.0818 15.8516H36.591L30.3579 33.7262H35.118L36.0016 30.7158C38.1779 31.3548 40.4919 31.3548 42.6682 30.7158L43.5518 33.7262H48.3129L42.0818 15.8516ZM39.3362 27.4925C38.5609 27.4924 37.7895 27.3814 37.0455 27.1629L39.3362 19.3625L41.627 27.1656C40.8829 27.3832 40.1115 27.4933 39.3362 27.4925Z" fill="#0052CC"/>
<path d="M88.3666 15.8516H82.8762L76.6431 33.7262H81.4041L82.2878 30.7158C84.464 31.3548 86.7781 31.3548 88.9544 30.7158L89.838 33.7262H94.599L88.3666 15.8516ZM85.6214 27.4925C84.846 27.4924 84.0746 27.3814 83.3307 27.1629L85.6214 19.3625L87.9121 27.1656C87.168 27.3832 86.3966 27.4933 85.6214 27.4925Z" fill="#0052CC"/>
<path d="M152.485 15.8516H146.994L140.761 33.7262H145.522L146.406 30.7158C148.582 31.3548 150.896 31.3548 153.073 30.7158L153.956 33.7262H158.718L152.485 15.8516ZM149.738 27.4925C148.963 27.4924 148.191 27.3814 147.447 27.1629L149.738 19.3625L152.029 27.1656C151.285 27.3832 150.513 27.4933 149.738 27.4925Z" fill="#0052CC"/>
</g>
<defs>
<linearGradient id="paint0_linear_1071_800" x1="9.36897" y1="23.6766" x2="3.74394" y2="33.4196" gradientUnits="userSpaceOnUse">
<stop stop-color="#0052CC"/>
<stop offset="0.923" stop-color="#2684FF"/>
</linearGradient>
<clipPath id="clip0_1071_800">
<rect width="178" height="48" fill="white"/>
</clipPath>
</defs>
</svg>
