<svg width="229" height="32" viewBox="0 0 229 32" fill="none" xmlns="http://www.w3.org/2000/svg">
<path d="M39.4611 32H38.9948V30.1741C38.9948 29.4918 38.9702 28.7407 38.9454 28.5149C38.5397 25.2851 36.5901 22.5559 33.6708 21.1472C33.3442 20.9901 33.0473 20.8575 33.0176 20.8575C32.8989 20.8575 32.9633 20.7642 33.2255 20.563C33.8391 20.0967 34.5219 19.2721 34.8732 18.5751C35.0909 18.1481 35.3185 17.4854 35.4125 16.9945C35.5263 16.4202 35.5264 15.3795 35.4125 14.8052C34.9474 12.4246 33.0523 10.5299 30.697 10.0881C30.2765 10.0096 29.4057 9.96052 29.0494 9.98996C27.6788 10.1176 26.4416 10.6674 25.447 11.6001C24.5218 12.4689 23.9181 13.5585 23.6757 14.8052C23.5619 15.3746 23.5619 16.4153 23.6757 16.9945C23.9577 18.4376 24.789 19.7679 25.9469 20.6318L26.1893 20.8085L25.9964 20.887C24.0518 21.6822 22.4486 23.0517 21.3996 24.8188C20.7366 25.933 20.3111 27.1847 20.1478 28.5149C20.1181 28.7407 20.0933 29.4918 20.0933 30.1741C20.0933 31.9797 20.0934 32 20.0934 32H19.2642V30.1741C19.2642 29.4918 19.2396 28.7407 19.2149 28.5149C18.8091 25.2851 16.8596 22.5559 13.9402 21.1472C13.6137 20.9901 13.3168 20.8575 13.2871 20.8575C13.1683 20.8575 13.2327 20.7642 13.495 20.563C14.1085 20.0967 14.7913 19.2721 15.1426 18.5751C15.3604 18.1481 15.588 17.4854 15.682 16.9945C15.7958 16.4202 15.7958 15.3795 15.682 14.8052C15.2169 12.4246 13.3217 10.5299 10.9665 10.0881C10.5459 10.0096 9.67512 9.96052 9.31881 9.98996C7.9482 10.1176 6.71104 10.6674 5.71648 11.6001C4.79125 12.4689 4.18756 13.5585 3.94511 14.8052C3.8313 15.3746 3.83131 16.4153 3.94511 16.9945C4.22715 18.4376 5.05848 19.7679 6.21632 20.6318L6.45871 20.8085L6.26586 20.887C4.32128 21.6822 2.71803 23.0517 1.66904 24.8188C1.00602 25.933 0.580546 27.1847 0.41726 28.5149C0.387572 28.7407 0.362694 29.4918 0.362694 30.1741C0.362695 31.9797 0.362856 32 0.362856 32H0V0L19.7306 9.86528L39.4611 0V32Z" fill="url(#paint0_linear_2441_1486)"/>
<path d="M47.4609 4.77924H49.8013C50.9768 4.77924 51.9172 4.93954 52.6225 5.26013C53.3278 5.58072 53.9369 6.09367 54.4498 6.79897C54.9628 7.4829 55.5612 8.51948 56.2452 9.90872L58.1046 13.6596L59.964 9.90872C60.648 8.51948 61.2464 7.4829 61.7593 6.79897C62.2723 6.09367 62.8814 5.58072 63.5867 5.26013C64.292 4.93954 65.2324 4.77924 66.4079 4.77924H68.7482V27.2207H64.6447V9.49195C64.3882 9.49195 64.1745 9.6095 64.0035 9.8446C63.8325 10.0797 63.576 10.4965 63.2341 11.0949L58.1046 20.6165L52.9751 11.0949C52.6332 10.4965 52.3767 10.0797 52.2057 9.8446C52.0347 9.6095 51.821 9.48126 51.5645 9.45989V27.2207H47.4609V4.77924Z" fill="#050505"/>
<path d="M81.1547 27.2207C78.3121 27.2207 76.271 26.6223 75.0313 25.4254C73.7917 24.2285 73.1719 22.4973 73.1719 20.2318V11.7682C73.1719 9.50263 73.7917 7.77144 75.0313 6.57456C76.271 5.37768 78.3121 4.77924 81.1547 4.77924H88.6565V8.30576H81.1547C79.9792 8.30576 79.1029 8.5836 78.5258 9.1393C77.9701 9.69499 77.6923 10.5713 77.6923 11.7682V14.2367H87.2459V17.7632H77.6923V20.2318C77.6923 21.4073 77.9701 22.2836 78.5258 22.8606C79.1029 23.4163 79.9792 23.6942 81.1547 23.6942H88.7206V27.2207H81.1547Z" fill="#050505"/>
<path d="M111.042 4.77924V21.9309C111.042 23.6621 110.689 24.9765 109.984 25.8742C109.278 26.7719 108.146 27.2207 106.585 27.2207H103.412L96.8073 11.9284V27.2207H92.5755V4.77924H97.6729L105.816 23.3736H105.88C106.243 23.3736 106.489 23.224 106.617 22.9248C106.746 22.6042 106.81 22.0378 106.81 21.2256V4.77924H111.042Z" fill="#050505"/>
<path d="M120.8 8.30576H114.035V4.77924H132.084V8.30576H125.32V27.2207H120.8V8.30576Z" fill="#050505"/>
<path d="M142.359 27.6054C139.389 27.6054 137.112 26.9215 135.531 25.5536C133.971 24.1644 133.19 22.1233 133.19 19.4303V12.5696C133.19 9.87666 133.971 7.84624 135.531 6.47838C137.112 5.08915 139.389 4.39453 142.359 4.39453C145.33 4.39453 147.596 5.08915 149.156 6.47838C150.738 7.84624 151.528 9.87666 151.528 12.5696V19.4303C151.528 22.1233 150.738 24.1644 149.156 25.5536C147.596 26.9215 145.33 27.6054 142.359 27.6054ZM142.359 24.0789C143.856 24.0789 144.999 23.6835 145.79 22.8927C146.602 22.0805 147.008 20.9264 147.008 19.4303V12.5696C147.008 11.0735 146.602 9.93009 145.79 9.1393C144.999 8.32713 143.856 7.92104 142.359 7.92104C140.863 7.92104 139.709 8.32713 138.897 9.1393C138.106 9.93009 137.711 11.0735 137.711 12.5696V19.4303C137.711 20.9264 138.106 22.0805 138.897 22.8927C139.709 23.6835 140.863 24.0789 142.359 24.0789Z" fill="#050505"/>
<path d="M174.183 27.2207H169.406L167.931 22.2515C167.632 21.2256 167.333 20.4348 167.033 19.8791C166.734 19.3021 166.328 18.8639 165.815 18.5647C165.302 18.2655 164.618 18.1159 163.763 18.1159H160.525V27.2207H156.005V4.77924H165.078C167.814 4.77924 169.833 5.32425 171.137 6.41426C172.441 7.4829 173.093 9.16067 173.093 11.4476C173.093 12.9223 172.697 14.1085 171.906 15.0061C171.137 15.9038 170.068 16.4809 168.701 16.7373C169.791 17.1007 170.613 17.7312 171.169 18.6288C171.725 19.5265 172.238 20.7447 172.708 22.2836L174.183 27.2207ZM165.206 14.5894C166.189 14.5894 166.991 14.3329 167.611 13.8199C168.252 13.2856 168.572 12.4948 168.572 11.4476C168.572 10.4003 168.252 9.62018 167.611 9.10724C166.991 8.57292 166.189 8.30576 165.206 8.30576H160.525V14.5894H165.206Z" fill="#050505"/>
<path d="M177.858 4.77924H182.378V27.2207H177.858V4.77924Z" fill="#050505"/>
<path d="M206.28 4.77924V21.9309C206.28 23.6621 205.927 24.9765 205.222 25.8742C204.517 26.7719 203.384 27.2207 201.824 27.2207H198.65L192.046 11.9284V27.2207H187.814V4.77924H192.911L201.054 23.3736H201.118C201.482 23.3736 201.728 23.224 201.856 22.9248C201.984 22.6042 202.048 22.0378 202.048 21.2256V4.77924H206.28Z" fill="#050505"/>
<path d="M219.821 27.6054C216.765 27.6054 214.424 26.9215 212.8 25.5536C211.197 24.1644 210.396 22.1233 210.396 19.4303V12.5696C210.396 9.87666 211.197 7.84624 212.8 6.47838C214.424 5.08915 216.765 4.39453 219.821 4.39453C222.022 4.39453 223.818 4.74718 225.207 5.45249C226.618 6.15779 227.729 7.20506 228.541 8.59429L225.111 10.9346C224.448 9.86597 223.743 9.09655 222.995 8.62635C222.247 8.15614 221.189 7.92104 219.821 7.92104C218.111 7.92104 216.861 8.31644 216.07 9.10724C215.301 9.87666 214.916 11.0308 214.916 12.5696V19.4303C214.916 20.9691 215.301 22.134 216.07 22.9248C216.861 23.6942 218.111 24.0789 219.821 24.0789C221.317 24.0789 222.45 23.8331 223.219 23.3415C224.01 22.8286 224.405 22.0912 224.405 21.1294V20.1356C224.405 18.8105 223.796 18.1479 222.578 18.1479H218.923V14.6214H223.86C225.57 14.6214 226.831 15.0168 227.643 15.8076C228.456 16.5984 228.862 17.8273 228.862 19.4944V21.45C228.862 23.3736 228.049 24.8804 226.425 25.9704C224.801 27.0604 222.599 27.6054 219.821 27.6054Z" fill="#050505"/>
<defs>
<linearGradient id="paint0_linear_2441_1486" x1="19.7306" y1="0" x2="19.7306" y2="32" gradientUnits="userSpaceOnUse">
<stop stop-color="#035FFB"/>
<stop offset="1" stop-color="#FFB627"/>
</linearGradient>
</defs>
</svg>
