<svg width="224" height="32" viewBox="0 0 224 32" fill="none" xmlns="http://www.w3.org/2000/svg">
<path d="M39.3737 32H38.9084V30.1741C38.9084 29.4918 38.8838 28.7407 38.8591 28.5149C38.4543 25.2851 36.5091 22.5559 33.5962 21.1472C33.2704 20.9901 32.9741 20.8575 32.9445 20.8575C32.826 20.8575 32.8903 20.7642 33.1519 20.563C33.7641 20.0967 34.4454 19.2721 34.796 18.5751C35.0132 18.1481 35.2403 17.4853 35.3341 16.9945C35.4477 16.4202 35.4477 15.3795 35.3341 14.8052C34.87 12.4246 32.9791 10.5299 30.629 10.0881C30.2094 10.0096 29.3405 9.96052 28.985 9.98996C27.6174 10.1176 26.383 10.6674 25.3907 11.6001C24.4675 12.4689 23.8651 13.5585 23.6232 14.8052C23.5097 15.3746 23.5097 16.4153 23.6232 16.9945C23.9046 18.4376 24.7341 19.7679 25.8894 20.6318L26.1313 20.8085L25.9388 20.887C23.9986 21.6822 22.3989 23.0517 21.3522 24.8188C20.6906 25.933 20.2661 27.1847 20.1032 28.5149C20.0736 28.7407 20.0487 29.4918 20.0487 30.1741C20.0487 31.9797 20.0489 32 20.0489 32H19.2216V30.1741C19.2216 29.4918 19.197 28.7407 19.1723 28.5149C18.7674 25.2851 16.8222 22.5559 13.9094 21.1472C13.5835 20.9901 13.2873 20.8575 13.2576 20.8575C13.1392 20.8575 13.2034 20.7642 13.4651 20.563C14.0773 20.0967 14.7586 19.2721 15.1091 18.5751C15.3263 18.1481 15.5534 17.4853 15.6472 16.9945C15.7608 16.4202 15.7608 15.3795 15.6472 14.8052C15.1831 12.4246 13.2922 10.5299 10.9422 10.0881C10.5226 10.0096 9.65368 9.96052 9.29817 9.98996C7.93059 10.1176 6.69617 10.6674 5.70382 11.6001C4.78064 12.4689 4.17829 13.5585 3.93637 14.8052C3.82282 15.3746 3.82282 16.4153 3.93637 16.9945C4.21778 18.4376 5.04727 19.7679 6.20255 20.6318L6.4444 20.8085L6.25199 20.887C4.31171 21.6822 2.71201 23.0517 1.66534 24.8188C1.00379 25.933 0.57926 27.1847 0.416336 28.5149C0.386713 28.7407 0.361891 29.4918 0.361891 30.1741C0.361891 31.9797 0.362052 32 0.362052 32H0V0L19.6869 9.86528L39.3737 0V32Z" fill="white"/>
<path d="M47.6455 26.4933V5.50671H53.3124L57.995 16.3598L62.6478 5.50671H68.3147V26.4933H64.1988V11.1431L59.546 22.326H56.4143L51.7614 11.1431V26.4933H47.6455Z" fill="white"/>
<path d="M76.1237 26.4933C74.0359 26.4933 72.5446 24.9943 72.5446 22.9256V9.07443C72.5446 7.00575 74.0359 5.50671 76.1237 5.50671H86.5329V9.34425H77.5553C77.0781 9.34425 76.7202 9.73401 76.7202 10.2137V14.1112H85.9065V17.7689H76.7202V21.7863C76.7202 22.266 77.0781 22.6557 77.5553 22.6557H86.5329V26.4933H76.1237Z" fill="white"/>
<path d="M90.2578 26.4933V5.50671H94.0457L103.172 18.9981V5.50671H107.378V26.4933H103.679L94.4931 12.942V26.4933H90.2578Z" fill="white"/>
<path d="M115.779 26.4933V9.34425H109.993V5.50671H125.86V9.34425H120.014V26.4933H115.779Z" fill="white"/>
<path d="M136.934 26.913C130.998 26.913 126.554 22.5658 126.554 16.0899V15.8801C126.554 9.4342 130.998 5.08698 136.934 5.08698C142.869 5.08698 147.283 9.4342 147.283 15.8801V16.0899C147.283 22.5658 142.869 26.913 136.934 26.913ZM136.934 22.7757C140.453 22.7757 142.958 20.2873 142.958 16.0899V15.8801C142.958 11.7427 140.453 9.22433 136.934 9.22433C133.414 9.22433 130.879 11.7427 130.879 15.8801V16.0899C130.879 20.2873 133.414 22.7757 136.934 22.7757Z" fill="white"/>
<path d="M150.667 26.4933V5.50671H158.541C163.014 5.50671 165.967 7.90518 165.967 12.2524C165.967 15.3704 164.506 17.4691 162.09 18.4284L166.593 26.4933H161.792L157.855 19.058H154.902V26.4933H150.667ZM158.332 9.07443H154.902V15.5203H158.332C160.3 15.5203 161.642 14.2911 161.642 12.3124C161.642 10.3936 160.3 9.07443 158.332 9.07443Z" fill="white"/>
<path d="M168.704 26.4933V22.6557H172.104V9.34425H168.704V5.50671H179.74V9.34425H176.339V22.6557H179.74V26.4933H168.704Z" fill="white"/>
<path d="M183.259 26.4933V5.50671H187.047L196.174 18.9981V5.50671H200.379V26.4933H196.681L187.495 12.942V26.4933H183.259Z" fill="white"/>
<path d="M214.388 26.943C208.124 26.943 203.71 22.4759 203.71 16.1499V15.8801C203.71 9.52414 208.184 5.05699 214.567 5.05699C217.698 5.05699 220.234 6.22625 222.172 8.175L219.22 11.1131C217.967 9.70403 216.416 9.07443 214.626 9.07443C210.749 9.07443 208.035 11.8926 208.035 15.8801V16.1499C208.035 20.1673 210.719 22.9556 214.507 22.9556C217.519 22.9556 219.667 21.0068 219.786 18.2785H215.044V14.8307H223.872C224.767 22.0861 220.89 26.943 214.388 26.943Z" fill="white"/>
</svg>
