<svg width="229" height="32" viewBox="0 0 229 32" fill="none" xmlns="http://www.w3.org/2000/svg">
<path d="M39.4611 32H38.9948V30.1741C38.9948 29.4918 38.9702 28.7407 38.9454 28.5149C38.5397 25.2851 36.5901 22.5559 33.6708 21.1472C33.3442 20.9901 33.0473 20.8575 33.0176 20.8575C32.8989 20.8575 32.9633 20.7642 33.2255 20.563C33.8391 20.0967 34.5219 19.2721 34.8732 18.5751C35.0909 18.1481 35.3185 17.4854 35.4125 16.9945C35.5263 16.4202 35.5264 15.3795 35.4125 14.8052C34.9474 12.4246 33.0523 10.5299 30.697 10.0881C30.2765 10.0096 29.4057 9.96052 29.0494 9.98996C27.6788 10.1176 26.4416 10.6674 25.447 11.6001C24.5218 12.4689 23.9181 13.5585 23.6757 14.8052C23.5619 15.3746 23.5619 16.4153 23.6757 16.9945C23.9577 18.4376 24.789 19.7679 25.9469 20.6318L26.1893 20.8085L25.9964 20.887C24.0518 21.6822 22.4486 23.0517 21.3996 24.8188C20.7366 25.933 20.3111 27.1847 20.1478 28.5149C20.1181 28.7407 20.0933 29.4918 20.0933 30.1741C20.0933 31.9797 20.0934 32 20.0934 32H19.2642V30.1741C19.2642 29.4918 19.2396 28.7407 19.2149 28.5149C18.8091 25.2851 16.8596 22.5559 13.9402 21.1472C13.6137 20.9901 13.3168 20.8575 13.2871 20.8575C13.1683 20.8575 13.2327 20.7642 13.495 20.563C14.1085 20.0967 14.7913 19.2721 15.1426 18.5751C15.3604 18.1481 15.588 17.4854 15.682 16.9945C15.7958 16.4202 15.7958 15.3795 15.682 14.8052C15.2169 12.4246 13.3217 10.5299 10.9665 10.0881C10.5459 10.0096 9.67512 9.96052 9.31881 9.98996C7.9482 10.1176 6.71104 10.6674 5.71648 11.6001C4.79125 12.4689 4.18756 13.5585 3.94511 14.8052C3.8313 15.3746 3.83131 16.4153 3.94511 16.9945C4.22715 18.4376 5.05848 19.7679 6.21632 20.6318L6.45871 20.8085L6.26586 20.887C4.32128 21.6822 2.71803 23.0517 1.66904 24.8188C1.00602 25.933 0.580546 27.1847 0.41726 28.5149C0.387572 28.7407 0.362694 29.4918 0.362694 30.1741C0.362695 31.9797 0.362856 32 0.362856 32H0V0L19.7306 9.86528L39.4611 0V32Z" fill="#0BAA84"/>
<path d="M47.4609 4.77851H49.8013C50.9768 4.77851 51.9172 4.9388 52.6225 5.2594C53.3278 5.57999 53.9369 6.09294 54.4498 6.79824C54.9628 7.48217 55.5612 8.51875 56.2452 9.90798L58.1046 13.6589L59.964 9.90798C60.648 8.51875 61.2464 7.48217 61.7593 6.79824C62.2723 6.09294 62.8814 5.57999 63.5867 5.2594C64.292 4.9388 65.2324 4.77851 66.4079 4.77851H68.7482V27.22H64.6447V9.49121C64.3882 9.49121 64.1745 9.60876 64.0035 9.84386C63.8325 10.079 63.576 10.4957 63.2341 11.0942L58.1046 20.6158L52.9751 11.0942C52.6332 10.4957 52.3767 10.079 52.2057 9.84386C52.0347 9.60876 51.821 9.48053 51.5645 9.45915V27.22H47.4609V4.77851Z" fill="#050505"/>
<path d="M81.1547 27.22C78.3121 27.22 76.271 26.6215 75.0313 25.4246C73.7917 24.2278 73.1719 22.4966 73.1719 20.2311V11.7674C73.1719 9.5019 73.7917 7.7707 75.0313 6.57382C76.271 5.37695 78.3121 4.77851 81.1547 4.77851H88.6565V8.30502H81.1547C79.9792 8.30502 79.1029 8.58287 78.5258 9.13856C77.9701 9.69426 77.6923 10.5705 77.6923 11.7674V14.236H87.2459V17.7625H77.6923V20.2311C77.6923 21.4066 77.9701 22.2828 78.5258 22.8599C79.1029 23.4156 79.9792 23.6934 81.1547 23.6934H88.7206V27.22H81.1547Z" fill="#050505"/>
<path d="M111.042 4.77851V21.9302C111.042 23.6614 110.689 24.9758 109.984 25.8735C109.278 26.7711 108.146 27.22 106.585 27.22H103.412L96.8073 11.9277V27.22H92.5755V4.77851H97.6729L105.816 23.3729H105.88C106.243 23.3729 106.489 23.2232 106.617 22.924C106.746 22.6034 106.81 22.0371 106.81 21.2249V4.77851H111.042Z" fill="#050505"/>
<path d="M120.8 8.30502H114.035V4.77851H132.084V8.30502H125.32V27.22H120.8V8.30502Z" fill="#050505"/>
<path d="M142.359 27.6047C139.389 27.6047 137.112 26.9207 135.531 25.5529C133.971 24.1637 133.19 22.1225 133.19 19.4296V12.5689C133.19 9.87592 133.971 7.84551 135.531 6.47765C137.112 5.08842 139.389 4.3938 142.359 4.3938C145.33 4.3938 147.596 5.08842 149.156 6.47765C150.738 7.84551 151.528 9.87592 151.528 12.5689V19.4296C151.528 22.1225 150.738 24.1637 149.156 25.5529C147.596 26.9207 145.33 27.6047 142.359 27.6047ZM142.359 24.0782C143.856 24.0782 144.999 23.6828 145.79 22.892C146.602 22.0798 147.008 20.9257 147.008 19.4296V12.5689C147.008 11.0728 146.602 9.92936 145.79 9.13856C144.999 8.3264 143.856 7.92031 142.359 7.92031C140.863 7.92031 139.709 8.3264 138.897 9.13856C138.106 9.92936 137.711 11.0728 137.711 12.5689V19.4296C137.711 20.9257 138.106 22.0798 138.897 22.892C139.709 23.6828 140.863 24.0782 142.359 24.0782Z" fill="#050505"/>
<path d="M174.183 27.22H169.406L167.931 22.2508C167.632 21.2249 167.333 20.4341 167.033 19.8784C166.734 19.3013 166.328 18.8632 165.815 18.564C165.302 18.2648 164.618 18.1151 163.763 18.1151H160.525V27.22H156.005V4.77851H165.078C167.814 4.77851 169.833 5.32351 171.137 6.41353C172.441 7.48217 173.093 9.15994 173.093 11.4468C173.093 12.9216 172.697 14.1077 171.906 15.0054C171.137 15.9031 170.068 16.4801 168.701 16.7366C169.791 17.0999 170.613 17.7304 171.169 18.6281C171.725 19.5257 172.238 20.744 172.708 22.2828L174.183 27.22ZM165.206 14.5886C166.189 14.5886 166.991 14.3322 167.611 13.8192C168.252 13.2849 168.572 12.4941 168.572 11.4468C168.572 10.3996 168.252 9.61945 167.611 9.1065C166.991 8.57218 166.189 8.30502 165.206 8.30502H160.525V14.5886H165.206Z" fill="#050505"/>
<path d="M177.858 4.77851H182.378V27.22H177.858V4.77851Z" fill="#050505"/>
<path d="M206.28 4.77851V21.9302C206.28 23.6614 205.927 24.9758 205.222 25.8735C204.517 26.7711 203.384 27.22 201.824 27.22H198.65L192.046 11.9277V27.22H187.814V4.77851H192.911L201.054 23.3729H201.118C201.482 23.3729 201.728 23.2232 201.856 22.924C201.984 22.6034 202.048 22.0371 202.048 21.2249V4.77851H206.28Z" fill="#050505"/>
<path d="M219.821 27.6047C216.765 27.6047 214.424 26.9207 212.8 25.5529C211.197 24.1637 210.396 22.1225 210.396 19.4296V12.5689C210.396 9.87592 211.197 7.84551 212.8 6.47765C214.424 5.08842 216.765 4.3938 219.821 4.3938C222.022 4.3938 223.818 4.74645 225.207 5.45175C226.618 6.15706 227.729 7.20432 228.541 8.59356L225.111 10.9339C224.448 9.86524 223.743 9.09582 222.995 8.62561C222.247 8.15541 221.189 7.92031 219.821 7.92031C218.111 7.92031 216.861 8.31571 216.07 9.1065C215.301 9.87592 214.916 11.0301 214.916 12.5689V19.4296C214.916 20.9684 215.301 22.1332 216.07 22.924C216.861 23.6934 218.111 24.0782 219.821 24.0782C221.317 24.0782 222.45 23.8324 223.219 23.3408C224.01 22.8278 224.405 22.0905 224.405 21.1287V20.1349C224.405 18.8098 223.796 18.1472 222.578 18.1472H218.923V14.6207H223.86C225.57 14.6207 226.831 15.0161 227.643 15.8069C228.456 16.5977 228.862 17.8266 228.862 19.4937V21.4493C228.862 23.3729 228.049 24.8796 226.425 25.9697C224.801 27.0597 222.599 27.6047 219.821 27.6047Z" fill="#050505"/>
</svg>
