<svg width="168" height="24" viewBox="0 0 168 24" fill="none" xmlns="http://www.w3.org/2000/svg">
<path d="M29.5303 24H29.1813V22.6305C29.1813 22.1188 29.1629 21.5555 29.1444 21.3862C28.8407 18.9638 27.3818 16.917 25.1972 15.8604C24.9528 15.7426 24.7306 15.6431 24.7084 15.6431C24.6195 15.6431 24.6677 15.5732 24.864 15.4222C25.3231 15.0725 25.8341 14.4541 26.097 13.9313C26.2599 13.6111 26.4302 13.114 26.5006 12.7459C26.5857 12.3151 26.5857 11.5346 26.5006 11.1039C26.1525 9.31844 24.7343 7.89739 22.9718 7.56606C22.6571 7.50716 22.0054 7.47039 21.7388 7.49247C20.7131 7.58819 19.7873 8.00058 19.043 8.70005C18.3506 9.35164 17.8989 10.1689 17.7174 11.1039C17.6323 11.5309 17.6323 12.3115 17.7174 12.7459C17.9285 13.8282 18.5506 14.8259 19.4171 15.4739L19.5984 15.6063L19.4541 15.6652C17.9989 16.2616 16.7991 17.2888 16.0141 18.6141C15.518 19.4498 15.1996 20.3885 15.0774 21.3862C15.0552 21.5555 15.0366 22.1188 15.0366 22.6305C15.0366 23.9848 15.0367 24 15.0367 24H14.4162V22.6305C14.4162 22.1188 14.3977 21.5555 14.3792 21.3862C14.0756 18.9638 12.6167 16.917 10.432 15.8604C10.1876 15.7426 9.96545 15.6431 9.94323 15.6431C9.85437 15.6431 9.90256 15.5732 10.0988 15.4222C10.5579 15.0725 11.0689 14.4541 11.3318 13.9313C11.4947 13.6111 11.6651 13.114 11.7354 12.7459C11.8206 12.3151 11.8206 11.5346 11.7354 11.1039C11.3874 9.31844 9.96916 7.89739 8.20664 7.56606C7.89192 7.50716 7.24026 7.47039 6.97363 7.49247C5.94795 7.58819 5.02213 8.00058 4.27786 8.70005C3.58548 9.35164 3.13372 10.1689 2.95228 11.1039C2.86711 11.5309 2.86712 12.3115 2.95228 12.7459C3.16334 13.8282 3.78545 14.8259 4.65191 15.4739L4.8333 15.6063L4.68899 15.6652C3.23378 16.2616 2.034 17.2888 1.24901 18.6141C0.752845 19.4498 0.434445 20.3885 0.312252 21.3862C0.290035 21.5555 0.271418 22.1188 0.271418 22.6305C0.271419 23.9848 0.271539 24 0.271539 24H0V0L14.7651 7.39896L29.5303 0V24Z" fill="#19189B"/>
<path d="M35.7341 19.87V4.13003H39.9843L43.4963 12.2698L46.9859 4.13003H51.236V19.87H48.1491V8.35733L44.6595 16.7445H42.3107L38.8211 8.35733V19.87H35.7341Z" fill="#19189B"/>
<path d="M57.0928 19.87C55.5269 19.87 54.4085 18.7457 54.4085 17.1942V6.80582C54.4085 5.25431 55.5269 4.13003 57.0928 4.13003H64.8996V7.00819H58.1665C57.8086 7.00819 57.5402 7.3005 57.5402 7.66027V10.5834H64.4299V13.3267H57.5402V16.3397C57.5402 16.6995 57.8086 16.9918 58.1665 16.9918H64.8996V19.87H57.0928Z" fill="#19189B"/>
<path d="M67.6934 19.87V4.13003H70.5343L77.3793 14.2486V4.13003H80.5333V19.87H77.7595L70.8698 9.70647V19.87H67.6934Z" fill="#19189B"/>
<path d="M86.8343 19.87V7.00819H82.4947V4.13003H94.3951V7.00819H90.0107V19.87H86.8343Z" fill="#19189B"/>
<path d="M102.7 20.1848C98.2488 20.1848 94.9157 16.9244 94.9157 12.0675V11.9101C94.9157 7.07565 98.2488 3.81523 102.7 3.81523C107.152 3.81523 110.462 7.07565 110.462 11.9101V12.0675C110.462 16.9244 107.152 20.1848 102.7 20.1848ZM102.7 17.0818C105.34 17.0818 107.219 15.2154 107.219 12.0675V11.9101C107.219 8.80704 105.34 6.91825 102.7 6.91825C100.061 6.91825 98.1593 8.80704 98.1593 11.9101V12.0675C98.1593 15.2154 100.061 17.0818 102.7 17.0818Z" fill="#19189B"/>
<path d="M113 19.87V4.13003H118.905C122.261 4.13003 124.475 5.92888 124.475 9.1893C124.475 11.5278 123.379 13.1018 121.567 13.8213L124.945 19.87H121.344L118.391 14.2935H116.176V19.87H113ZM118.749 6.80582H116.176V11.6402H118.749C120.225 11.6402 121.232 10.7183 121.232 9.23427C121.232 7.79519 120.225 6.80582 118.749 6.80582Z" fill="#19189B"/>
<path d="M126.528 19.87V16.9918H129.078V7.00819H126.528V4.13003H134.805V7.00819H132.255V16.9918H134.805V19.87H126.528Z" fill="#19189B"/>
<path d="M137.444 19.87V4.13003H140.285L147.13 14.2486V4.13003H150.284V19.87H147.511L140.621 9.70647V19.87H137.444Z" fill="#19189B"/>
<path d="M160.791 20.2073C156.093 20.2073 152.783 16.8569 152.783 12.1124V11.9101C152.783 7.1431 156.138 3.79275 160.925 3.79275C163.274 3.79275 165.175 4.66968 166.629 6.13125L164.415 8.33484C163.475 7.27802 162.312 6.80582 160.97 6.80582C158.062 6.80582 156.026 8.91947 156.026 11.9101V12.1124C156.026 15.1255 158.039 17.2167 160.88 17.2167C163.14 17.2167 164.75 15.7551 164.84 13.7089H161.283V11.1231H167.904C168.575 16.5646 165.667 20.2073 160.791 20.2073Z" fill="#19189B"/>
</svg>
